<svg version="1.1" id="svg176369" xmlns="http://www.w3.org/2000/svg" x="0" y="0" viewBox="0 0 1024 768" xml:space="preserve"><style>.st0{fill:#c4314b}</style><g id="logo-group"><g id="title"><path id="path176377" class="st0" d="M338.7 331.3l-4 10.8 9.2 23.4h-18.1l-2.8 7.1h23l8.6 21.2h9.8l-25.7-62.5zm-3.9-9.8H327l-29.7 72.4h9.4l24.2-61.8 3.9-10.6z"/><path id="path176379" class="st0" d="M384.7 393.8h9.6l21-53.2h-8.6L389.8 386 373 340.6h-9.3l21 53.2z"/><path id="path176381" class="st0" d="M424 393.8h9v-53.2h-9v53.2zm0-63.2h9v-11.2h-9v11.2z"/><path id="path176383" class="st0" d="M466.2 394.9c6.4 0 11.5-1.4 15.4-4.4 3.8-2.9 5.7-6.8 5.7-11.8 0-2.2-.5-4.1-1.3-5.7-.8-1.5-2.1-2.9-3.9-4.1-1.7-1.1-3.9-2.1-6.5-3-2.7-.8-5.7-1.7-9.2-2.5-2.2-.5-4.2-1-5.8-1.5-1.6-.4-2.9-1-3.9-1.6-1-.6-1.8-1.3-2.2-2.1-.4-.8-.6-1.8-.6-3.1 0-3.1 1.1-5.2 3.4-6.6 2.2-1.4 5.1-2.1 8.4-2.1 2.9 0 5.7.5 8.6 1.5 2.8 1 5.3 2.4 7.5 4.4l4.1-5.4c-2.4-2-5.3-3.8-8.8-5.1-3.5-1.2-7.2-1.9-11.2-1.9-2.9 0-5.6.4-8.1 1.1-2.4.7-4.6 1.7-6.4 3.2-1.8 1.4-3.4 3.2-4.4 5.2s-1.5 4.4-1.5 7c0 2.1.3 3.9 1 5.3.6 1.4 1.7 2.7 3.3 3.7 1.4 1 3.4 1.9 5.7 2.7 2.2.8 5 1.5 8.3 2.3 2.4.6 4.7 1.2 6.6 1.7 1.8.6 3.5 1.2 4.7 1.8 1.2.7 2.1 1.5 2.8 2.4.6.9.9 2 .9 3.3 0 2.9-1.2 5-3.5 6.5-2.2 1.5-5.3 2.2-9.2 2.2-3.5 0-6.8-.5-9.9-1.7-3.2-1.2-6.3-3-9.4-5.4l-3.9 6c3 2.5 6.5 4.5 10.7 5.8 4 1.3 8.3 1.9 12.6 1.9z"/><path id="path176385" class="st0" d="M540.3 393.8h9.2v-55.1h-9.2v55.1zm-25-72.3v8.2h59.1v-8.2h-59.1z"/><path id="path176387" class="st0" d="M603.3 348.5v-8.2c-.4 0-.8-.1-1.2-.1h-1.7c-3.5.3-6.6 1.6-9.6 3.9-3.1 2.2-5.4 5.2-7.2 8.9v-12.3h-8.4v53.2h9V361c1.4-3.9 3.8-6.8 7.2-9.1 3.5-2.1 7.5-3.2 11.9-3.4z"/><path id="path176389" class="st0" d="M634.6 394.9c2.7 0 5.2-.3 7.6-1 2.4-.6 4.6-1.5 6.6-2.8 2-1.2 3.8-2.7 5.3-4.3 1.5-1.6 2.8-3.4 3.7-5.4l-7.7-2.1c-.6 1.4-1.4 2.7-2.4 3.7-1 1.1-2.2 2-3.6 2.8-1.4.8-2.9 1.4-4.4 1.8-1.6.4-3.2.6-4.8.6-2.3 0-4.6-.4-6.6-1.3-2-.8-3.9-2-5.5-3.7-1.6-1.5-3-3.4-4-5.6-1-2.1-1.6-4.6-1.8-7.2h44.2c0-.3.1-.8.1-1.4s.1-1.2.1-2c0-3.5-.7-6.9-1.9-10.2-1.2-3.3-3.1-6.2-5.3-8.7-2.3-2.4-5.2-4.5-8.5-6-3.3-1.4-6.9-2.2-10.9-2.2-4.1 0-7.7.8-11 2.2-3.4 1.4-6.2 3.5-8.7 5.9-2.4 2.5-4.3 5.5-5.6 8.8-1.3 3.4-1.9 6.9-1.9 10.6 0 3.8.6 7.3 1.9 10.7 1.3 3.4 3.2 6.3 5.6 8.8 2.3 2.5 5.2 4.6 8.6 6 3.2 1.3 6.8 2 10.9 2zm18.3-31.2h-36.1c.2-2.4.7-4.8 1.7-6.9 1-2 2.2-3.9 3.9-5.4 1.6-1.5 3.5-2.8 5.6-3.6 2-.8 4.3-1.3 6.7-1.3 2.3 0 4.6.5 6.7 1.3 2 .8 3.9 2 5.5 3.5s3 3.4 4 5.5 1.8 4.4 2 6.9z"/><path id="path176391" class="st0" d="M694.9 394.9c2.7 0 5.2-.3 7.6-1 2.4-.6 4.6-1.5 6.6-2.8 2-1.2 3.8-2.7 5.3-4.3 1.5-1.6 2.8-3.4 3.7-5.4l-7.7-2.1c-.6 1.4-1.4 2.7-2.4 3.7-1 1.1-2.2 2-3.6 2.8-1.4.8-2.9 1.4-4.4 1.8-1.6.4-3.2.6-4.8.6-2.3 0-4.6-.4-6.6-1.3-2-.8-3.9-2-5.5-3.7-1.6-1.5-3-3.4-4-5.6-1-2.1-1.6-4.6-1.8-7.2h44.2c0-.3.1-.8.1-1.4s.1-1.2.1-2c0-3.5-.7-6.9-1.9-10.2-1.2-3.3-3.1-6.2-5.3-8.7-2.3-2.4-5.2-4.5-8.5-6-3.3-1.4-6.9-2.2-10.9-2.2-4.1 0-7.7.8-11 2.2-3.4 1.4-6.2 3.5-8.7 5.9-2.4 2.5-4.3 5.5-5.6 8.8-1.3 3.4-1.9 6.9-1.9 10.6 0 3.8.6 7.3 1.9 10.7 1.3 3.4 3.2 6.3 5.6 8.8 2.3 2.5 5.2 4.6 8.6 6 3.2 1.3 6.9 2 10.9 2zm18.3-31.2h-36.1c.2-2.4.7-4.8 1.7-6.9 1-2 2.2-3.9 3.9-5.4 1.6-1.5 3.5-2.8 5.6-3.6 2-.8 4.3-1.3 6.7-1.3 2.3 0 4.6.5 6.7 1.3 2 .8 3.9 2 5.5 3.5s3 3.4 4 5.5 1.8 4.4 2 6.9z"/></g><g id="tagline"><path id="path176394" class="st0" d="M295 437.6c-1.2 0-2.4-.2-3.5-.6-1.1-.4-2-1-2.8-1.8l1.8-2.1c1.5 1.4 3.2 2.1 4.9 2.1 1 0 1.9-.2 2.5-.7.6-.5.9-1.1.9-1.9 0-.6-.3-1-.8-1.3-.5-.3-1.3-.6-2.4-.9-.8-.2-1.4-.4-2-.6-.6-.2-1-.5-1.4-.7-.4-.3-.6-.6-.8-.9-.2-.3-.3-.8-.3-1.2 0-.9.2-1.7.6-2.4.4-.7.9-1.4 1.6-1.9.7-.5 1.4-.9 2.3-1.2.9-.3 1.8-.4 2.7-.4 1.1 0 2.2.2 3.1.6.9.4 1.7.9 2.3 1.6l-1.9 2c-.6-.6-1.2-1-1.9-1.3-.7-.3-1.4-.5-2.2-.5-.9 0-1.7.2-2.3.6-.6.4-.9 1.1-.9 2 0 .5.2.9.6 1.2.4.2 1.1.5 2.1.8.9.2 1.6.5 2.2.7.6.2 1.2.5 1.6.8.4.3.7.6.9 1 .2.4.3.8.3 1.3 0 .9-.2 1.6-.6 2.4-.3.7-.8 1.3-1.5 1.8-.6.5-1.4.9-2.3 1.2-.8.2-1.7.3-2.8.3z"/><path id="path176396" class="st0" d="M310.9 437.6c-1 0-1.9-.2-2.7-.5-.8-.4-1.4-.8-2-1.4-.5-.6-.9-1.3-1.2-2.1-.3-.8-.4-1.7-.4-2.6 0-1.3.3-2.5.8-3.7.5-1.2 1.2-2.3 2.1-3.2.9-.9 1.9-1.7 3.1-2.2 1.2-.6 2.5-.8 3.9-.8 1 0 1.9.2 2.7.6.8.3 1.5.8 2 1.4.6.6 1 1.3 1.2 2.1.3.8.4 1.7.4 2.6 0 1.3-.3 2.5-.8 3.7-.5 1.2-1.2 2.2-2.1 3.2-.9.9-1.9 1.7-3.1 2.2-1.2.4-2.5.7-3.9.7zm.6-2.9c.7 0 1.4-.2 2.1-.5.7-.3 1.3-.8 1.8-1.4.5-.6 1-1.3 1.3-2.1.3-.8.5-1.6.5-2.5 0-1.2-.3-2.2-.9-3-.6-.8-1.4-1.2-2.5-1.2-.7 0-1.4.2-2.1.6-.7.3-1.3.8-1.8 1.4-.5.6-1 1.3-1.3 2.1-.3.8-.5 1.6-.5 2.5 0 1.2.3 2.2.9 3 .7.7 1.5 1.1 2.5 1.1z"/><path id="path176398" class="st0" d="M328.8 437.6c-1 0-1.9-.2-2.7-.5-.8-.4-1.5-.9-2-1.5s-.9-1.3-1.2-2.1c-.3-.8-.4-1.7-.4-2.6 0-1.3.2-2.5.7-3.7.5-1.2 1.2-2.2 2.1-3.1.9-.9 1.9-1.7 3.1-2.2 1.2-.6 2.5-.8 3.9-.8 1.6 0 2.9.4 3.9 1.1 1 .7 1.6 1.7 2 2.9l-3.5 1c-.2-.7-.6-1.2-1.1-1.6-.5-.4-1.1-.6-1.9-.6-.7 0-1.4.2-2.1.5-.7.3-1.3.8-1.8 1.4-.5.6-1 1.3-1.3 2.1-.3.8-.5 1.7-.5 2.6 0 .6.1 1.2.2 1.7.2.5.4 1 .7 1.3.3.4.7.7 1.1.9.4.2.9.3 1.4.3.4 0 .8-.1 1.2-.2.4-.1.8-.3 1.1-.5.4-.2.7-.4 1-.7.3-.3.5-.6.7-.9l3.1 1c-.4.6-.8 1.1-1.4 1.7-.5.5-1.1.9-1.8 1.3s-1.4.7-2.1.9c-.8.2-1.6.3-2.4.3z"/><path id="path176400" class="st0" d="M341.6 421.3h3.4l-3.4 16h-3.4l3.4-16zm1.4-6.3h3.4l-.8 3.7h-3.4l.8-3.7z"/><path id="path176402" class="st0" d="M351.8 437.6c-.9 0-1.7-.2-2.4-.5s-1.3-.8-1.8-1.4c-.5-.6-.9-1.3-1.1-2.1-.2-.8-.4-1.7-.4-2.6 0-1.3.2-2.6.7-3.8.5-1.2 1.1-2.3 2-3.2.8-.9 1.8-1.7 2.8-2.2 1.1-.6 2.2-.8 3.3-.8 1.2 0 2.1.3 2.9.9.8.6 1.4 1.4 1.7 2.4l.6-3h3.4l-2.6 12c0 .1 0 .2-.1.3v.2c0 .4.2.6.7.6l-.6 2.9c-.3 0-.6.1-.8.1-.2 0-.4.1-.6.1-1.3 0-2-.5-2-1.6 0-.3.1-.8.2-1.5-.8 1-1.7 1.8-2.8 2.4-1 .5-2.1.8-3.1.8zm1.4-2.9c.4 0 .8-.1 1.3-.2.5-.2.9-.4 1.3-.7.4-.3.9-.6 1.2-1 .4-.4.7-.8.9-1.3l.9-4.2c-.1-.5-.2-.9-.4-1.3s-.5-.8-.8-1.1c-.3-.3-.7-.6-1.1-.7-.4-.2-.8-.3-1.2-.3-.8 0-1.5.2-2.2.6-.7.4-1.3.9-1.8 1.5s-.9 1.3-1.2 2.1c-.3.8-.5 1.6-.5 2.4 0 .6.1 1.2.2 1.7.2.5.4 1 .7 1.3.3.4.7.7 1.2.9.5.2 1 .3 1.5.3z"/><path id="path176404" class="st0" d="M367.9 437.5c-.9 0-1.7-.2-2.2-.7-.5-.4-.7-1.1-.7-1.9v-.5c0-.2.1-.4.1-.6l4-18.9h3.3l-3.7 17.7c-.1.2-.1.4-.1.6 0 .4.1.7.3.9.2.2.6.3 1 .3.2 0 .5 0 .8-.1l.9-.3-.1 2.6c-.5.2-1.1.4-1.8.5-.7.4-1.3.4-1.8.4z"/><path id="path176406" class="st0" d="M383.4 421.3h3l-.7 3.2c.8-1.1 1.8-1.9 3-2.5 1.2-.6 2.5-.9 3.9-.9.7 0 1.2.1 1.7.3.4.2.8.4 1.1.8.3.3.5.7.6 1.2.1.4.2.9.2 1.5 0 .4 0 .9-.1 1.3-.1.5-.1.9-.2 1.4l-2 9.8h-3.4l1.9-9c.1-.4.1-.7.2-1 0-.3.1-.6.1-.9 0-1.6-.7-2.4-2-2.4-.4 0-.9.1-1.4.3-.5.2-1 .4-1.4.8-.5.3-.9.7-1.3 1.2-.4.4-.7.9-1 1.5l-2 9.5H380l3.4-16.1z"/><path id="path176408" class="st0" d="M404.6 437.6c-1 0-1.9-.2-2.7-.5-.8-.3-1.4-.8-2-1.4-.6-.6-1-1.3-1.3-2.1-.3-.8-.4-1.7-.4-2.7 0-1.3.2-2.5.7-3.7.5-1.2 1.2-2.2 2.1-3.1.9-.9 1.9-1.6 3.2-2.1 1.2-.6 2.5-.8 3.9-.8 1.7 0 3 .4 3.9 1.1 1 .7 1.5 1.8 1.5 3.3 0 3.3-3 5-9 5-.9 0-1.9 0-3-.1v.6c0 .6.1 1.1.2 1.7.1.5.4 1 .6 1.3.3.4.7.7 1.1.9.4.2 1 .3 1.6.3.9 0 1.7-.2 2.5-.6.8-.4 1.5-1.1 1.9-1.8l2.7.8c-.4.6-.9 1.2-1.4 1.7-.6.5-1.2.9-1.8 1.3-.7.3-1.4.6-2.1.8-.7 0-1.5.1-2.2.1zm3-14.1c-.7 0-1.4.1-2 .4-.6.2-1.2.6-1.6 1-.5.4-.9.9-1.2 1.5-.3.6-.6 1.1-.8 1.7.9.1 1.8.1 2.6.1 1.1 0 2-.1 2.7-.2.7-.1 1.3-.3 1.8-.6.5-.2.8-.5 1-.9.2-.3.3-.7.3-1.1 0-.7-.2-1.2-.7-1.5-.5-.2-1.2-.4-2.1-.4z"/><path id="path176410" class="st0" d="M418.6 437.5c-.9 0-1.6-.2-2.2-.6-.6-.4-.9-1.1-.9-2 0-.3 0-.7.1-1l2.1-10h-2l.6-2.6h2l1.1-5.3h3.4l-1.1 5.3h3.3l-.6 2.6h-3.3l-1.9 8.9c0 .2-.1.4-.1.5 0 .4.1.7.4.9.2.2.5.3.9.3.5 0 .9-.1 1.3-.2s.8-.3 1-.4l.1 2.7c-.5.3-1.1.5-1.9.8-.7 0-1.5.1-2.3.1z"/><path id="path176412" class="st0" d="M426.3 421.3h3.4l2.2 13c.2-.3.5-.7.8-1.1.3-.4.6-.8.8-1.2.3-.4.6-.8.8-1.3.3-.4.5-.8.7-1.1l-2-8.3h3.2l1 5.1c.2-.3.3-.7.6-1.2s.4-.9.6-1.4c.2-.5.4-.9.6-1.3.2-.4.3-.8.4-1.2h2.9c-.9 2.8-2.2 5.6-3.8 8.2l1 4.4c.8-1.1 1.6-2.2 2.2-3.2.7-1 1.3-2.1 1.8-3.1.6-1 1-2 1.5-3.1s.8-2.1 1.2-3.2h3.1c-.8 2.7-2 5.3-3.5 8s-3.4 5.3-5.6 8h-3l-1-4.8c-.2.3-.4.7-.7 1.1-.3.4-.6.9-.9 1.3-.3.4-.6.9-.9 1.3-.3.4-.6.8-.8 1.1h-3.3l-3.3-16z"/><path id="path176414" class="st0" d="M455.4 437.6c-1 0-1.9-.2-2.7-.5-.8-.4-1.4-.8-2-1.4-.5-.6-.9-1.3-1.2-2.1-.3-.8-.4-1.7-.4-2.6 0-1.3.3-2.5.8-3.7.5-1.2 1.2-2.3 2.1-3.2.9-.9 1.9-1.7 3.1-2.2 1.2-.6 2.5-.8 3.9-.8 1 0 1.9.2 2.7.6.8.3 1.5.8 2 1.4.6.6 1 1.3 1.2 2.1.3.8.4 1.7.4 2.6 0 1.3-.3 2.5-.8 3.7-.5 1.2-1.2 2.2-2.1 3.2-.9.9-1.9 1.7-3.1 2.2-1.3.4-2.6.7-3.9.7zm.6-2.9c.7 0 1.4-.2 2.1-.5.7-.3 1.3-.8 1.8-1.4.5-.6 1-1.3 1.3-2.1.3-.8.5-1.6.5-2.5 0-1.2-.3-2.2-.9-3-.6-.8-1.4-1.2-2.5-1.2-.7 0-1.4.2-2.1.6-.7.3-1.3.8-1.8 1.4-.5.6-1 1.3-1.3 2.1-.3.8-.5 1.6-.5 2.5 0 1.2.3 2.2.9 3 .6.7 1.5 1.1 2.5 1.1z"/><path id="path176416" class="st0" d="M469.7 421.3h3.1l-.8 3.6c.8-1.1 1.7-2 2.6-2.7 1-.7 1.9-1 2.9-1h.8l-.6 2.9c-1.2 0-2.4.3-3.4.9-1.1.6-1.9 1.3-2.6 2.4l-2.1 9.8h-3.4l3.5-15.9z"/><path id="path176418" class="st0" d="M482.2 415h3.4l-2.2 10.5c.4-.6.9-1.2 1.4-1.7.5-.5 1.1-1 1.7-1.4.6-.4 1.2-.7 1.8-.9.6-.2 1.3-.3 2-.3 1.1 0 1.9.3 2.4.9.6.6.8 1.4.8 2.4 0 1.3-.4 2.5-1.3 3.7-.8 1.1-2 2-3.6 2.7l3.3 6.5h-3.6l-3.5-7.5c1.8-.4 3.2-1 4.2-1.9 1-.9 1.4-1.8 1.4-2.7 0-.5-.1-.8-.4-1-.3-.2-.6-.3-1-.3-.6 0-1.2.2-1.9.5-.6.3-1.3.8-1.9 1.3-.6.6-1.1 1.2-1.7 2-.5.8-.9 1.6-1.3 2.4l-1.5 7.2h-3.4l4.9-22.4z"/><path id="path176420" class="st0" d="M505.3 424.3h-2l.6-2.6h2l.1-.6c.2-1 .5-1.9.9-2.7.4-.8.9-1.5 1.4-2 .6-.6 1.2-1 1.8-1.3.7-.3 1.4-.5 2.1-.5.6 0 1.2.1 1.7.3.6.2 1.1.4 1.6.7l-1.3 2.5c-.2-.2-.6-.3-.9-.5-.4-.1-.7-.2-1.1-.2-.7 0-1.4.3-1.9.9-.5.6-.9 1.4-1.1 2.6l-.2.7h3.9l-.6 2.6h-3.9l-4.1 19.5h-3.4l4.4-19.4z"/><path id="path176422" class="st0" d="M518.7 437.6c-1 0-1.9-.2-2.7-.5-.8-.4-1.4-.8-2-1.4-.5-.6-.9-1.3-1.2-2.1-.3-.8-.4-1.7-.4-2.6 0-1.3.3-2.5.8-3.7.5-1.2 1.2-2.3 2.1-3.2.9-.9 1.9-1.7 3.1-2.2 1.2-.6 2.5-.8 3.9-.8 1 0 1.9.2 2.7.6.8.3 1.5.8 2 1.4.6.6 1 1.3 1.2 2.1.3.8.4 1.7.4 2.6 0 1.3-.3 2.5-.8 3.7-.5 1.2-1.2 2.2-2.1 3.2-.9.9-1.9 1.7-3.1 2.2-1.2.4-2.5.7-3.9.7zm.6-2.9c.7 0 1.4-.2 2.1-.5.7-.3 1.3-.8 1.8-1.4.5-.6 1-1.3 1.3-2.1.3-.8.5-1.6.5-2.5 0-1.2-.3-2.2-.9-3-.6-.8-1.4-1.2-2.5-1.2-.7 0-1.4.2-2.1.6-.7.3-1.3.8-1.8 1.4-.5.6-1 1.3-1.3 2.1-.3.8-.5 1.6-.5 2.5 0 1.2.3 2.2.9 3 .7.7 1.5 1.1 2.5 1.1z"/><path id="path176424" class="st0" d="M533.1 421.3h3.1l-.8 3.6c.8-1.1 1.7-2 2.6-2.7s1.9-1 2.9-1h.8l-.6 2.9c-1.2 0-2.4.3-3.4.9-1.1.6-1.9 1.3-2.6 2.4l-2.1 9.8h-3.4l3.5-15.9z"/><path id="path176426" class="st0" d="M552.2 437.5c-.9 0-1.6-.2-2.2-.6-.6-.4-.9-1.1-.9-2 0-.3 0-.7.1-1l2.1-10h-2l.6-2.6h2l1.1-5.3h3.4l-1.1 5.3h3.3l-.6 2.6h-3.3l-1.9 8.9c0 .2-.1.4-.1.5 0 .4.1.7.4.9s.5.3.9.3c.5 0 .9-.1 1.3-.2.4-.2.8-.3 1-.4l.1 2.7c-.5.3-1.1.5-1.9.8-.6 0-1.4.1-2.3.1z"/><path id="path176428" class="st0" d="M563.3 415h3.4l-2 9.5c.8-1.1 1.8-2 2.9-2.6 1.1-.6 2.3-.9 3.5-.9 1.4 0 2.3.4 2.9 1.1.6.7.8 1.7.8 2.8 0 .4 0 .8-.1 1.3 0 .4-.1.9-.2 1.3l-2 9.8H569l1.9-9c.1-.7.2-1.3.2-1.8 0-.9-.2-1.5-.6-1.9-.4-.4-.9-.6-1.6-.6-.4 0-.9.1-1.3.3-.5.2-.9.4-1.4.8-.4.3-.9.7-1.3 1.2-.4.4-.7.9-1 1.5l-2 9.5h-3.4l4.8-22.3z"/><path id="path176430" class="st0" d="M583.1 437.6c-1 0-1.9-.2-2.7-.5-.8-.3-1.4-.8-2-1.4-.6-.6-1-1.3-1.3-2.1-.3-.8-.4-1.7-.4-2.7 0-1.3.2-2.5.7-3.7.5-1.2 1.2-2.2 2.1-3.1.9-.9 1.9-1.6 3.2-2.1 1.2-.6 2.5-.8 3.9-.8 1.7 0 3 .4 3.9 1.1 1 .7 1.5 1.8 1.5 3.3 0 3.3-3 5-9 5-.9 0-1.9 0-3-.1v.6c0 .6.1 1.1.2 1.7s.4 1 .6 1.3c.3.4.7.7 1.1.9.4.2 1 .3 1.6.3.9 0 1.7-.2 2.5-.6.8-.4 1.5-1.1 1.9-1.8l2.7.8c-.4.6-.9 1.2-1.4 1.7-.6.5-1.2.9-1.8 1.3-.7.3-1.4.6-2.1.8-.6 0-1.4.1-2.2.1zm3.1-14.1c-.7 0-1.4.1-2 .4-.6.2-1.2.6-1.6 1s-.9.9-1.2 1.5c-.3.6-.6 1.1-.8 1.7.9.1 1.8.1 2.6.1 1.1 0 2-.1 2.7-.2.7-.1 1.3-.3 1.8-.6.5-.2.8-.5 1-.9.2-.3.3-.7.3-1.1 0-.7-.2-1.2-.7-1.5-.5-.2-1.2-.4-2.1-.4z"/><path id="path176432" class="st0" d="M605.7 437.6c-1.2 0-2.4-.2-3.5-.6-1.1-.4-2-1-2.8-1.8l1.8-2.1c1.5 1.4 3.2 2.1 4.9 2.1 1 0 1.9-.2 2.5-.7.6-.5.9-1.1.9-1.9 0-.6-.3-1-.8-1.3-.5-.3-1.3-.6-2.4-.9-.8-.2-1.4-.4-2-.6-.6-.2-1-.5-1.4-.7-.4-.3-.6-.6-.8-.9s-.3-.8-.3-1.2c0-.9.2-1.7.6-2.4.4-.7.9-1.4 1.6-1.9s1.4-.9 2.3-1.2c.9-.3 1.8-.4 2.7-.4 1.1 0 2.2.2 3.1.6.9.4 1.7.9 2.3 1.6l-1.9 2c-.6-.6-1.2-1-1.9-1.3-.7-.3-1.4-.5-2.2-.5-.9 0-1.7.2-2.3.6-.6.4-.9 1.1-.9 2 0 .5.2.9.6 1.2.4.2 1.1.5 2.1.8.9.2 1.6.5 2.2.7.6.2 1.2.5 1.6.8.4.3.7.6.9 1 .2.4.3.8.3 1.3 0 .9-.2 1.6-.6 2.4-.3.7-.8 1.3-1.5 1.8-.6.5-1.4.9-2.3 1.2-.7.2-1.7.3-2.8.3z"/><path id="path176434" class="st0" d="M621.7 437.6c-1 0-1.9-.2-2.7-.5-.8-.4-1.5-.9-2-1.5s-.9-1.3-1.2-2.1c-.3-.8-.4-1.7-.4-2.6 0-1.3.2-2.5.7-3.7.5-1.2 1.2-2.2 2.1-3.1.9-.9 1.9-1.7 3.1-2.2 1.2-.6 2.5-.8 3.9-.8 1.6 0 2.9.4 3.9 1.1 1 .7 1.6 1.7 2 2.9l-3.5 1c-.2-.7-.6-1.2-1.1-1.6-.5-.4-1.1-.6-1.9-.6s-1.4.2-2.1.5c-.7.3-1.3.8-1.8 1.4-.5.6-1 1.3-1.3 2.1-.3.8-.5 1.7-.5 2.6 0 .6.1 1.2.2 1.7.2.5.4 1 .7 1.3.3.4.7.7 1.1.9.4.2.9.3 1.4.3.4 0 .8-.1 1.2-.2.4-.1.8-.3 1.1-.5.4-.2.7-.4 1-.7s.5-.6.7-.9l3.1 1c-.4.6-.8 1.1-1.4 1.7-.5.5-1.1.9-1.8 1.3s-1.4.7-2.1.9c-.8.2-1.6.3-2.4.3z"/><path id="path176436" class="st0" d="M634.6 421.3h3.4l-3.4 16h-3.4l3.4-16zm1.3-6.3h3.4l-.8 3.7h-3.4l.8-3.7z"/><path id="path176438" class="st0" d="M645.4 437.6c-1 0-1.9-.2-2.7-.5-.8-.3-1.4-.8-2-1.4-.6-.6-1-1.3-1.3-2.1-.3-.8-.4-1.7-.4-2.7 0-1.3.2-2.5.7-3.7.5-1.2 1.2-2.2 2.1-3.1.9-.9 1.9-1.6 3.2-2.1 1.2-.6 2.5-.8 3.9-.8 1.7 0 3 .4 3.9 1.1 1 .7 1.5 1.8 1.5 3.3 0 3.3-3 5-9 5-.9 0-1.9 0-3-.1v.6c0 .6.1 1.1.2 1.7s.4 1 .6 1.3c.3.4.7.7 1.1.9.4.2 1 .3 1.6.3.9 0 1.7-.2 2.5-.6.8-.4 1.5-1.1 1.9-1.8l2.7.8c-.4.6-.9 1.2-1.4 1.7-.6.5-1.2.9-1.8 1.3-.7.3-1.4.6-2.1.8-.6 0-1.4.1-2.2.1zm3.1-14.1c-.7 0-1.4.1-2 .4-.6.2-1.2.6-1.6 1-.5.4-.9.9-1.2 1.5-.3.6-.6 1.1-.8 1.7.9.1 1.8.1 2.6.1 1.1 0 2-.1 2.7-.2.7-.1 1.3-.3 1.8-.6.5-.2.8-.5 1-.9.2-.3.3-.7.3-1.1 0-.7-.2-1.2-.7-1.5s-1.2-.4-2.1-.4z"/><path id="path176440" class="st0" d="M658.5 421.3h3l-.7 3.2c.8-1.1 1.8-1.9 3-2.5 1.2-.6 2.5-.9 3.9-.9.7 0 1.2.1 1.7.3s.8.4 1.1.8c.3.3.5.7.6 1.2.1.4.2.9.2 1.5 0 .4 0 .9-.1 1.3-.1.5-.1.9-.2 1.4l-2 9.8h-3.4l1.9-9c.1-.4.1-.7.2-1 0-.3.1-.6.1-.9 0-1.6-.7-2.4-2-2.4-.4 0-.9.1-1.4.3-.5.2-1 .4-1.4.8-.5.3-.9.7-1.3 1.2-.4.4-.7.9-1 1.5l-2 9.5h-3.4l3.2-16.1z"/><path id="path176442" class="st0" d="M677 437.5c-.9 0-1.6-.2-2.2-.6-.6-.4-.9-1.1-.9-2 0-.3 0-.7.1-1l2.1-10h-2l.6-2.6h2l1.1-5.3h3.4l-1.1 5.3h3.3l-.6 2.6h-3.3l-1.9 8.9c0 .2-.1.4-.1.5 0 .4.1.7.4.9s.5.3.9.3c.5 0 .9-.1 1.3-.2.4-.2.8-.3 1-.4l.1 2.7c-.5.3-1.1.5-1.9.8-.6 0-1.4.1-2.3.1z"/><path id="path176444" class="st0" d="M686.8 421.3h3.4l-3.4 16h-3.4l3.4-16zm1.3-6.3h3.4l-.8 3.7h-3.4l.8-3.7z"/><path id="path176446" class="st0" d="M696.2 437.6c-1.2 0-2.4-.2-3.5-.6-1.1-.4-2-1-2.8-1.8l1.8-2.1c1.5 1.4 3.2 2.1 4.9 2.1 1 0 1.9-.2 2.5-.7.6-.5.9-1.1.9-1.9 0-.6-.3-1-.8-1.3-.5-.3-1.3-.6-2.4-.9-.8-.2-1.4-.4-2-.6-.6-.2-1-.5-1.4-.7-.4-.3-.6-.6-.8-.9-.2-.3-.3-.8-.3-1.2 0-.9.2-1.7.6-2.4.4-.7.9-1.4 1.6-1.9.7-.5 1.4-.9 2.3-1.2.9-.3 1.8-.4 2.7-.4 1.1 0 2.2.2 3.1.6.9.4 1.7.9 2.3 1.6l-1.9 2c-.6-.6-1.2-1-1.9-1.3-.7-.3-1.4-.5-2.2-.5-.9 0-1.7.2-2.3.6-.6.4-.9 1.1-.9 2 0 .5.2.9.6 1.2.4.2 1.1.5 2.1.8.9.2 1.6.5 2.2.7.6.2 1.2.5 1.6.8.4.3.7.6.9 1 .2.4.3.8.3 1.3 0 .9-.2 1.6-.6 2.4-.3.7-.8 1.3-1.5 1.8-.6.5-1.4.9-2.3 1.2-.8.2-1.7.3-2.8.3z"/><path id="path176448" class="st0" d="M709.8 437.5c-.9 0-1.6-.2-2.2-.6-.6-.4-.9-1.1-.9-2 0-.3 0-.7.1-1l2.1-10h-2l.6-2.6h2l1.1-5.3h3.4l-1.1 5.3h3.3l-.6 2.6h-3.3l-1.9 8.9c0 .2-.1.4-.1.5 0 .4.1.7.4.9s.5.3.9.3c.5 0 .9-.1 1.3-.2.4-.2.8-.3 1-.4l.1 2.7c-.5.3-1.1.5-1.9.8-.7 0-1.5.1-2.3.1z"/><path id="path176450" class="st0" d="M721.6 437.6c-1.2 0-2.4-.2-3.5-.6-1.1-.4-2-1-2.8-1.8l1.8-2.1c1.5 1.4 3.2 2.1 4.9 2.1 1 0 1.9-.2 2.5-.7.6-.5.9-1.1.9-1.9 0-.6-.3-1-.8-1.3-.5-.3-1.3-.6-2.4-.9-.8-.2-1.4-.4-2-.6-.6-.2-1-.5-1.4-.7-.4-.3-.6-.6-.8-.9s-.3-.8-.3-1.2c0-.9.2-1.7.6-2.4.4-.7.9-1.4 1.6-1.9.7-.5 1.4-.9 2.3-1.2.9-.3 1.8-.4 2.7-.4 1.1 0 2.2.2 3.1.6.9.4 1.7.9 2.3 1.6l-1.9 2c-.6-.6-1.2-1-1.9-1.3-.7-.3-1.4-.5-2.2-.5-.9 0-1.7.2-2.3.6-.6.4-.9 1.1-.9 2 0 .5.2.9.6 1.2.4.2 1.1.5 2.1.8.9.2 1.6.5 2.2.7.6.2 1.2.5 1.6.8.4.3.7.6.9 1 .2.4.3.8.3 1.3 0 .9-.2 1.6-.6 2.4-.3.7-.8 1.3-1.5 1.8-.6.5-1.4.9-2.3 1.2-.7.2-1.7.3-2.8.3z"/></g></g></svg>