<svg version="1.1" id="Слой_2" xmlns="http://www.w3.org/2000/svg" x="0" y="0" viewBox="0 0 693.6 419.4" xml:space="preserve"><style>.st0{fill:#ffe81f}</style><path class="st0" d="M92.4 209.2l43.2-132H201l44 132h-49.7l-8.3-23.8h-39.1l-8.3 23.8H92.4zm7.7-5.5H136l8.5-23.8h46.9l8.6 23.8h37.6l-40.1-121h-57.2l-40.2 121zm68.4-99.2l18.7 54.2h-38.8l20.1-54.2zm-11.6 48.7h21.7l-10-29.4-11.7 29.4zm121.5-76l29.9 101.4 30.2-101.4h52.7l-46.9 132h-69.8l-46.2-132h50.1zm-.4 126.5h63.1l43.3-121h-41.9l-30 101.4h-7.9L274.2 82.7h-38l41.8 121zm167.2-.1c-1.5 0-3.1.2-4.6 0v.1h-31.9v-121h31.9v92.6c1.8 0 3.6.1 5.4.1V77.2h-42.8v132H446v-5.4c-.2 0-.4 0-.6-.1l-.2-.1z"/><path class="st0" d="M546.4 116.5h54.8V77.2h-94.5c-16.8 0-26.7 8.2-29.9 24.5s5.8 34.2 26.9 53.7c12.8 10.1 10.6 14.9-6.6 14.4h-56.6v5.4c9.9 0 11.2.1 12.5.1h44.1c23.1-.6 26.9-8.5 11.7-23.6-20.6-19.3-29.3-35.5-26-48.8 3.3-13.3 11.2-20 23.9-20.3h89V111h-49.4c-20.2-.4-25.4 5.8-15.7 18.5 20.9 17.8 31.6 33.8 32 47.9.5 14.1-7.3 22.9-23.3 26.3h-86c-.3.1-.6.1-.9-.1l-.2-.1c-1 0-2.1.1-7.9.1v5.5h95c18.9-3.2 28.6-12.9 29-29.3s-9.3-33.2-29-50.5c-10.8-9-8.5-13.3 7.1-12.8zM213.6 247.6l-47.4.1v92.7h-32v-92.7H97.9v-28.3h115c2.1 0 4.1 0 6.1.1v-5L92.3 214v39.3h36.4V346h43v-92.7l47.3.5v-6.1l-5.4-.1z"/><path class="st0" d="M315.8 307l-9.9-12.6c10.2-2.4 18.1-5.8 23.6-10.1s9.4-9.8 11.6-16.5c2.3-6.8 2.9-13 1.9-18.7-1-5.7-2.6-10.6-4.9-14.5-2.3-4-6.7-8.1-13.1-12.3-6.4-4.3-14.9-6.9-25.5-7.9h-85.9v5c3.3 0 6.6 0 9.9.5h76c9.4.9 17 3.2 22.8 7.1 5.8 3.9 9.6 7.5 11.6 10.8 1.9 3.3 3.2 7.5 3.9 12.6s.1 10.4-1.8 15.9c-1.9 5.5-5.3 10.4-9.8 14.1-4.6 3.8-13.2 7-25.7 9.6v7.7l12.2 14.9h31.7v28.3h-37.9l-41.7-43.6h-8.9v43.6h-36.7v-93.2h-5.5v98.7h47.7v-43.6l41.9 43.6h46.6V307h-34.1z"/><path class="st0" d="M302.4 271.6c2.3-1.6 3.5-5.5 3.8-11.8-.4-6-1.8-10-4.2-11.9-2.4-1.9-4.4-2.9-6-2.9h-36.9v29h37c1.9-.1 4-.9 6.3-2.4zm-37.7-2.7v-18.6h28.2c1.2 0 2.8.6 4.6 1.9 1.9 1.2 2.9 3.8 3.2 7.5-.1 4.1-1.1 6.7-2.9 7.7-1.8 1-3.4 1.5-4.9 1.5h-28.2zm90.6 77.4v-132h113.2v39.3h-70.2v15.2h45.3v23h-45.3V307h75.9v39.3H355.3zm5.5-126.5v121h107.9v-28.3h-75.9v-26h45.3v-12.2h-45.3v-26.1H463v-28.3l-102.2-.1zm118.8 126.5v-132h113.2v39.3h-70.2v15.2h45.3v23h-45.3V307h75.9v39.3H479.6zm5.5-126.5v121H593v-28.3h-75.9v-26h45.3v-12.2h-45.3v-26.1h70.2v-28.3l-102.2-.1z"/></svg>