<svg xmlns="http://www.w3.org/2000/svg"><path stroke="#000" stroke-width="2" fill="none" d="M44 95l1.5 8.5 1.5 8 2 8 1.5 7.5 2 8 1.5 8 1 8 2 7.5 1.5 8 1 8.5 2 7.5 1 8 1 8L66 207l1.5 8v8l1 7.5 1.5 8 .5 7.5v40l-.5 8 1 8v49l.5 8v16l-.5 8.5V416l1 8-1 8 1 8.5v95l.5 7.5-.5 8 1 8-.5 8.5-.5 8 .5 8V624l.5 8v16l-.5 8 1.5 8 8.5 7.5 3 4.5 8 4 8 1 6.5 6 8 5 8 6h7.5l8 5 8 5 8 4h7.5l8-.5 8 .5 8.5-1h24"/><path stroke="#000" stroke-width="2" fill="none" d="M212 700.5l-8 7.5-8.5 7-8.5 7-8 7.5m7.5 0l7-7.5 7.5-7.5 8-7 8.5-7m16-10.5l-8.5 7.5-8 7-7.5 7.5-7.5 8-7.5 8m10.5 11l8-7.5 7.5-8 7.5-7.5 8-7.5 8-7 8-7m-8-2.5l-8 7.5-8.5 7.5-8 7.5-7.5 7-8 7.5m3 10l-3 8 7.5.5m-1.5 2l-7.5 7.5-8 7-7.5 7.5m24.5-5l8-7.5 8.5-7 8-8 8-8 8-8.5 8-7.5 8-7 8-7 8.5-7.5 8-7 7.5-7.5m-9 2l-7.5 7.5-8 7-8.5 7-8.5 6.5-8 6.5-8.5 7.5-7.5 7-7.5 7-8.5 7-8 7.5-8 7.5m17.5.5l8-7 8.5-7.5 7.5-7.5 8.5-7.5 7.5-7 7.5-7 8-7.5 8-8 8-7.5 7.5-7 7.5-7.5 7.5-7.5m8-1l-8 7-8 7.5-8 7.5-8.5 7.5-8.5 7.5-7.5 8-7 8m9 0l8-7.5 8.5-7.5 8-8 7.5-8 7.5-7.5 7.5-7.5 8-8m8-.5l-8 7.5-7 8-7.5 8-7.5 8-8 7.5-7.5 7.5-8 7.5-8 8"/><path stroke="#000" stroke-width="2" fill="none" d="M276 734l8-.5 8-1m-1.5 5l-8 1m2 .5l-5 1 .5 7.5.5-6.5m-4 4.5l8-.5 8-.5m0 1l8.5-8m-1 0l.5 8.5-1 3h8.5m-1-2l8-.5m7-1h8l8.5-1 9-.5 8.5-1 8.5-.5 8.5-.5 8-1m5.5-4.5h8l8-.5m1-2.5l8-7.5 8-8 7.5-7.5 8-8 8-8 8-8 8-7.5 8.5-7.5 8-7.5 8-7.5 8.5-7 8.5-7 8-7.5 7.5-7.5m2-9l-7.5 8-8.5 7-8.5 7-8.5 7-8.5 7-8 8-7.5 7.5-7.5 8-8 8-8.5 7.5-8 7.5-7.5 8-7.5 8-8 8.5-8.5 8m13.5 3h8l7.5-.5 8-.5h17l7.5-.5h15l7.5-.5 8.5-1h7.5l8-1 8.5-1"/><path stroke="#000" stroke-width="2" fill="none" d="M514 731l-7.5 7.5-7.5 7-7.5 7-8 7.5-7.5 8m32.5 4.5l8-7.5m0-10.5L508 762l-8 7m-7-.5l7.5-8 7.5-7.5 8-8m-1.5-7.5l-8 8-8 8-7.5 8-7 8.5m-17-1l8-7.5 7.5-8 8-8 8-8 8.5-8 8-7.5m-1-6l-8 7-8 7-8 7.5-7.5 7.5-8 8-8 7.5-7.5 7.5m-7 1l7.5-7.5 8-8 8-7.5 8-8 8-8 8.5-7.5 8.5-7.5 8-7.5m0-8.5l-8 7.5-8.5 7.5-8 7.5-7.5 7.5-8 7.5-8 7.5-7.5 8-8.5 7.5-8 8m-9.5-.5l8-7.5 8-8 8.5-8 8.5-8 8.5-8 8-7.5 8-7.5 8-7 7.5-7 8.5-7"/><path stroke="#000" stroke-width="2" fill="none" d="M517 692.5l-8.5-.5H491l-8 .5-7.5.5-8 1-7.5.5-8 .5-8.5.5h-7l-7.5 1-8.5 1-8.5.5-7.5.5H389l-8 .5-8 .5h-8l-9 .5h-8l-8 .5h-8l-8 .5-7.5 1-8 .5-7.5.5h-8m6-4.5l8-1 9-.5 8.5-1h8.5l8-.5 7.5-.5 8-.5 7.5-.5 8.5-.5 8-1 8-1 7.5-.5 7.5-.5 7-1 7.5-.5 8-.5 8.5-.5 8-.5h8l8-1h8l8-.5 8-.5 8-.5 8.5-1 8-.5 8-1"/><path stroke="#000" stroke-width="2" fill="none" d="M516.5 683.5l-8 6.5-9 7-8.5 7.5-8 7.5-8 7.5-8.5 8-8 7.5-8 7.5-7.5 7.5-7.5 7.5-8 8m-8.5 0l8-8 7.5-7.5 8.5-7.5 8-7.5 8-7.5 8-7.5 8-8 8.5-7.5 8.5-7.5 8-8 7.5-8 7.5-7.5m1.5-6l-8 7-8 7.5-7.5 7.5-7.5 7-8 7.5-8 7.5-8.5 7.5-8.5 7-8.5 7.5"/><path stroke="#000" stroke-width="2" fill="none" d="M441.5 742l8-.5 7.5-.5 8-.5 8-.5 8.5-.5h8l8-.5 8-.5 8.5-.5m2 3.5h-25l-8.5.5-8 .5-8 1-8 .5-8.5 1h-8m-4 2l-8.5 7.5-8.5 7.5-8.5 7.5m-18-3l8-7 8-7.5 8.5-7.5 8-8 8-8 7.5-7 8-7.5 8.5-8 8.5-8.5 8.5-8 8.5-7.5 9-7 8.5-7 8.5-7 8-7.5m-1 7l-8.5 7-8.5 7.5-8.5 7-8.5 7-8.5 7.5-8.5 7.5-8 8-8 7.5-8.5 7.5-8 7.5m-16 0l7.5-7.5 8-7.5 8-7.5 8.5-7.5 8-8 8-8 8.5-7.5 8.5-7.5 9-7 8.5-7 8-7 8.5-7m-1.5-8.5l-8 8-7.5 6.5-8 7.5-8.5 8-9 7.5-8 7.5-8.5 7.5-8 7-8 8-8 7-8 7.5-8 7.5-8 7-7.5 7.5-8 7.5-8 7-7.5 7m8.5 8l8-7.5 9-7.5 8.5-7.5"/><path stroke="#000" stroke-width="2" fill="none" d="M414.5 750.5l2-7-9-1.5-8 3.5-9 6 .5-2.5-7.5-3.5-11-6h-8"/><path stroke="#000" stroke-width="2" fill="none" d="M362.5 745.5h8l8-2.5 2.5-3.5h16.5l8-3m8 2.5l-2.5 1-7 8 2.5 2 2-2.5 5-7.5 9 5.5h8l4 1 3 5 10-5-5 4.5"/><path stroke="#000" stroke-width="2" fill="none" d="M426 748.5l-8 7.5-7.5 7.5-8 7.5m-6-23.5L388 755l-8.5 7.5-7.5 7m-15.5-5.5l8-8 8-8 8-8 8.5-7.5 8-7.5 8-8 8-7.5 8-8 8-7.5 7.5-7.5 8-7.5 7.5-8 7.5-8 8.5-7.5 8-7.5 7.5-7.5 8-7 8.5-7 8.5-7 8-7m-.5-7.5l-7.5 7.5-8 8-8.5 7-8 7.5-8 7-8 6.5-7.5 6.5"/><path stroke="#000" stroke-width="2" fill="none" d="M458 653l8-.5 8.5-.5 8.5-1h9l8-1 8.5-.5 8-1m-1-25.5l-8.5.5-8 1-8 1.5-7.5.5m-8 0l8.5-7.5 8.5-7.5 8-7.5 8-7.5 8.5-7.5"/><path stroke="#000" stroke-width="2" fill="none" d="M516 597l-7.5 7.5-8 7-8 7.5-7.5 7-8.5 7m-.5 2l8-.5 8.5-1 8-1 8-1 7.5-1"/><path stroke="#000" stroke-width="2" fill="none" d="M515 615.5l-8.5 1-8 .5h-15m-1.5-6.5l8-.5 9-.5h16.5"/><path stroke="#000" stroke-width="2" fill="none" d="M516.5 580l-8 8-8 8-8 7.5-7.5 8-8 7-8 7.5m-1-8l8.5-8 7.5-6.5 8-7.5 8-8 8.5-8 8-8m.5-8.5l-8.5 7-8.5 8-8.5 8-8 8-8 7.5-8.5 7.5"/><path stroke="#000" stroke-width="2" fill="none" d="M460 611.5h8l8-.5h39m.5-11.5l-8.5 1-8 1-8 1-8 1m1-7l8-.5 7.5-1 8.5-1 8.5-1.5m-2-9.5l-8 1.5-7.5 1-7.5.5-8 1m-1.5-9.5l8-.5h7.5l8-.5 8.5-1"/><path stroke="#000" stroke-width="2" fill="none" d="M513.5 555l-7.5 7-8 8-8 8-7.5 8-8 7.5m-8-1.5l7.5-7.5 8-7.5 8.5-7 8-7.5 8.5-7.5 8-7.5m-1-6.5l-8 7.5-7.5 7.5-7.5 7.5-7 7.5-8 8m-8-1l8-7.5 8-7.5 8-7.5 8-7.5 7.5-7.5 8-7.5m1.5-8.5l-8 7.5-8.5 7.5-8.5 7.5-8 8-8 8-8.5 7.5"/><path stroke="#000" stroke-width="2" fill="none" d="M460.5 573.5H476l8-.5 8.5-1 8-.5 8-.5 8-.5m-.5-3l-8.5 1-8 1-8.5.5h-8m1.5-6h8.5l8.5-1 8.5-1 7.5-1m-2-9.5l-7.5.5-8 1-8 1-7.5.5M482 546h8l8-.5 8.5-1 8.5-.5"/><path stroke="#000" stroke-width="2" fill="none" d="M516.5 516l-7.5 7.5-8 7.5-8 7.5-8.5 8-8.5 7.5-8 7.5m-7.5 5.5l8-1h7.5l8-.5 7.5-.5 8.5-.5h8l8-1"/><path stroke="#000" stroke-width="2" fill="none" d="M514.5 537h-8l-8 .5-8 .5h-8m-6-.5l8-7.5 8-7 7.5-7.5 8-8 8-7.5m-.5-7l-8 7.5-7.5 7.5-7.5 7.5-7.5 7-7.5 7-8 7.5m-10 2.5l8-.5 8 .5h25l8-.5 8-.5"/><path stroke="#000" stroke-width="2" fill="none" d="M517.5 507.5l-8 7.5-8.5 7.5-8 7.5-8.5 8-8 7.5"/><path stroke="#000" stroke-width="2" fill="none" d="M483.5 531l7.5-1 8.5-.5 8-.5 8-1m-.5-7h-8l-8 .5-8 .5-8 .5m-7-.5l8.5-7.5 8-7.5 8-7 8-7.5 8.5-7m.5-9L509 484l-8 7.5-8.5 7.5-8.5 6.5-8.5 7m-8 0l8-7 8.5-7 8.5-7 8-7.5 8.5-7.5 8-7.5m1-10l-8 8-8 8-8.5 8-9 8-8.5 7.5-8.5 7"/><path stroke="#000" stroke-width="2" fill="none" d="M460.5 501.5h7.5l8-.5 8-.5 7.5-1 8-.5 7.5-1 8.5-1m-.5 15l-7.5.5-7.5.5-7.5 1-8 .5m0-7.5l8-1 8-1 7.5-1 8-.5m2-9h-8.5l-8 .5-8 .5h-8m-2-6.5l8-.5 8.5-1 8.5-.5 8-1m-2.5-6l-8-.5h-15l-7.5.5m0-6.5l8-.5h7.5l7.5-.5 8-.5"/><path stroke="#000" stroke-width="2" fill="none" d="M515.5 450.5l-7.5 8-8 7.5-8 7.5-8 7-8 7.5m-8.5-.5l8.5-8 8.5-8 8-7.5 7.5-7.5 8-7.5 7.5-7.5m.5-7l-8 8-8 7-7.5 7.5-8 7.5-7.5 7.5"/><path stroke="#000" stroke-width="2" fill="none" d="M483 467l8-.5 8-1 7.5-1 8-.5m1-7.5l-8 1-7.5.5-8 .5h-7.5m-.5-7l8-.5 8-1 8-.5 8-1"/><path stroke="#000" stroke-width="2" fill="none" d="M514 428l-7.5 7.5-8 7.5-8 7-8 7-8 7.5-7.5 7m1.5-7.5l8-7.5 7.5-7 8-7 7.5-7.5 7.5-7 8-7.5m2.5-8l-8.5 7-8 8-8.5 7.5-8.5 7.5-8 7.5-8.5 6.5"/><path stroke="#000" stroke-width="2" fill="none" d="M458.5 454l8-.5 8-1 8-.5 7.5-.5 8-.5h16m.5-10.5l-7.5.5h-7.5l-7.5.5-8 .5m-8 .5l8-7.5 8-7 7.5-7.5 8.5-7 8-7.5m-2.5-10l-7.5 7.5-7.5 7.5-7 8-7.5 8-7 7.5"/><path stroke="#000" stroke-width="2" fill="none" d="M483.5 433.5l7.5-.5h23.5m1-8.5l-8.5.5-8 .5-8 .5-8 1m1-7.5l8-1 8-.5 7.5-1 7.5-1m-1-28.5l-7.5 7.5-8 7.5-8 7.5-7.5 8.5-8 7.5m0-9l7.5-7.5 7.5-8.5 7.5-8 8.5-7.5 8-8m-1.5-6.5l-7.5 7.5-7.5 7-7.5 7.5-8 8-7.5 7.5m0-8l8-7 7-7.5 8-7 7.5-7.5 8-7.5m.5-9l-8 8-7.5 8-7.5 8-7.5 7.5-7.5 7.5"/><path stroke="#000" stroke-width="2" fill="none" d="M483 393.5h8l8.5-.5 8-.5 8.5-.5m-.5 16l-8 1-8 .5-7.5 1-8 .5m-1.5-7l8.5-.5 8-.5 9-1 8.5-1.5m.5-16l-8.5.5h-8l-8 .5H484m0-7.5l8-.5 8-.5h8l8-.5"/><path stroke="#000" stroke-width="2" fill="none" d="M516.5 347l-8 7.5-8 8-8 8-8.5 7.5-8.5 8m0-7.5l8.5-8 8-8 7.5-7.5 8-8 8-8m.5-8.5l-8 7-8 7.5-7.5 7.5-7.5 7.5-7.5 7.5"/><path stroke="#000" stroke-width="2" fill="none" d="M484 368h8l8-.5 8-.5 7.5-.5m-.5-6.5l-8 .5h-16l-8 .5m2-5.5l7.5-1 8-.5 8-1 8-1m-1.5-28l-8 7.5-8 7-8 7.5-7.5 8-8.5 7m.5-7.5l8-7 8-7.5 7.5-7.5 8-7 8-7.5m1.5-9.5l-8 7.5-8 8-8 7.5-8 7.5-7.5 7.5m-1-8.5l8-7 8.5-7.5 8-7.5 7.5-8 8.5-8m1-6.5l-9 7.5-8.5 7.5-8.5 7-8.5 7.5-8 8m1-8.5l8-7.5 8.5-7 8.5-7.5 9-7.5 8-7.5m-2-8l-8 7.5-8 7.5-8 8-8 8-8 8"/><path stroke="#000" stroke-width="2" fill="none" d="M483.5 310.5H508l8.5-.5m.5 26h-8l-7.5-.5h-16m0-7.5h8.5l8-.5 7.5-.5h8m0 17l-7.5.5h-7.5l-8 1-8 .5m-1.5-26l8-.5 8-1h15m0-16l-8-.5-8 .5h-8.5l-8 .5m.5-7.5l7.5-.5H515"/><path stroke="#000" stroke-width="2" fill="none" d="M515.5 269l-7.5 7.5-8 8-8 7-8 7-8 7m.5-8.5l7.5-7.5 7.5-7 7.5-7 8.5-7.5 8-8m0-9.5l-8.5 7-8 7.5-7.5 7.5-7.5 7.5-8 8m-1.5-6.5l8-8 8-7.5 8-7.5 8.5-8 8-7.5m-1-6l-8 7.5-8 7-8 7.5-8 8-7.5 7.5"/><path stroke="#000" stroke-width="2" fill="none" d="M482.5 274l7.5-.5 8-.5h15.5m2.5 15l-7.5 1-8 .5-8.5.5-8 .5m-2.5-9l8.5-.5 9-.5h8.5l8-.5m-1-16.5H507l-8 .5-7.5.5-8 .5m.5-8l8-.5 8-.5h8l8-.5m-3-28l-7.5 7.5-7.5 7.5-7.5 7.5-8.5 7.5-7.5 7.5m2-8l7.5-7.5 7.5-7.5 7.5-7 8-7 7.5-7.5m0-8.5l-8 7.5-8 7.5-8 7.5-7.5 7-7.5 7.5m-7-.5l8-7.5 8-8 7.5-8 8-7.5 8.5-8 8.5-7.5m0-7l-8 8-8 7-8.5 7-8 8-9 8m.5-8.5l8.5-7.5 8-7.5 8.5-8 7.5-7.5 7.5-7.5m.5-7.5l-8 7-8 7-7.5 7.5-8 8-8.5 7.5m-1.5-7.5l8.5-7.5 8.5-7.5 8.5-7.5 8.5-7.5 8-7.5m-.5-8.5l-8 7.5-8.5 8.5-8 7.5-7.5 8-7.5 8"/><path stroke="#000" stroke-width="2" fill="none" d="M484.5 201.5l8-.5 8-1h16m-1.5 31l-7.5 1-7.5 1-7.5 1-8 1.5m-1 7l8.5-1h8l8-.5 8-1m0 8.5l-8 .5-8 .5-8 .5-8 .5m-.5-22.5l8-.5 8.5-1.5 7.5-1 8-1m1.5-8l-8.5.5-8.5.5-8 .5-7.5.5m.5-8.5h7.5l8-.5 8-.5 8-.5m-.5-16h-16l-8 .5-7.5 1m-6 0l7.5-7 7.5-8 7.5-7.5 7.5-8 8-7.5m-.5-7.5l-8 8-8.5 7.5-8 7.5-8.5 7.5-7.5 7.5m-2-7.5l8.5-7.5 8.5-7.5 8-7.5 8-7 7.5-7.5m1-7.5l-8 7.5-8 7.5-8.5 7.5-7.5 7-8.5 7m1.5-9l8-7 8-7 8.5-7 9-7.5 8.5-7m0-10.5l-8.5 7.5-8.5 7.5-8.5 7.5-8.5 7-8.5 7.5m0-7.5l8.5-7.5 8.5-7.5 8.5-8 9-8 8-7.5m-3-8l-8 7.5-7.5 7.5-8 7.5-8.5 7.5-8.5 8m-6.5.5l7.5-7.5 7.5-7.5 7.5-7.5 7.5-7.5 8-7 7.5-7.5m1-9l-8 7.5-8 7.5-8 7.5-7.5 7.5-8 7.5-8 7.5-8 7.5m1-9.5l8.5-7.5 8-7.5 8-7.5 7.5-7 8-7.5 8-8 7.5-7.5m1-7l-8 7.5-8 8-8 7.5-8 7.5-8 7.5-8 8-8 7-8.5 7.5m-9 1l8.5-8 8-8 8-8L475 97l8.5-8 8.5-7.5 8-7.5 7.5-7.5 8-7.5m0-8l-7.5 8-7.5 8-8 7-8.5 7.5-8 7.5-8 7.5-8 7-7.5 7.5-7.5 8-8.5 7.5m-8.5-.5l8.5-8 8-7 8.5-7.5 8-7.5 8.5-7.5L477 81l8-8 8-7.5 8-7.5 7.5-7 8.5-7.5m-2-8.5l-8 8-8.5 7-7.5 7.5-7.5 7.5-7.5 7-8 8-8 8-8 8-7.5 8-7 7.5-9 7.5-8.5 7.5"/><path stroke="#000" stroke-width="2" fill="none" d="M420 120.5h23l8-.5h16l8.5-1 8-.5 8-1 8-1 8.5-.5 8.5-.5m-3 35.5h-7l-7 .5-8 .5-8 .5m-.5-5.5l8-1 8-1 8-.5h8m.5 29.5l-8.5.5-8 .5-7.5.5-8 .5m0-9h24l8-1m-.5 16.5l-8 .5-8 .5-7.5 1-8 .5m-22.5 2l-7.5 7-7.5 8-8.5 7.5-8 7.5-8 7.5-8 8-8.5 7-8 7.5m.5 10.5l7.5-7.5 8.5-7.5 7.5-8 8-8 8-8 8-8 8-8 8-7.5m-2 7.5l-8 7.5-7.5 8-8 8-8 8-8 8-8 8-8 7.5-8 8-8.5 8m1.5 21.5l8-7 7-8 7-7.5 7.5-7.5 8-8 8-8 8-7.5 8-6.5 7.5-7.5m0 7.5l-8 7.5-7.5 7.5-7.5 8-8 7.5-7.5 7.5-8 7.5-8 7.5-7.5 7.5m9 16.5l7.5-7.5 7.5-7.5 8-7.5 8-7.5 8-8 8.5-8 8-7.5m-1-7l-8 7-8 7.5-8 7.5-8 8-8 7-7.5 8-7.5 7.5-7.5 7.5m5 7.5l-5 7.5 1 10L385 342l-10.5 2.5-4 8.5-2 3 5.5-1 4-4.5 3-9 9 6 7.5 3 12-7.5 2.5 1.5 7 1m2.5 1l8-.5m-1.5-5.5l-8 7.5m-5 1l3-7.5"/><path stroke="#000" stroke-width="2" fill="none" d="M411 342l8.5-.5 8-.5m-2-.5l-4 8m-10-.5l-8 8m0-5l8-.5m0-16h-8m7.5-7l8-.5m7-.5l8.5-.5h8m0-2.5l-8 7.5"/><path stroke="#000" stroke-width="2" fill="none" d="M432.5 327.5l1 8-.5 8-3.5 8-9.5 8 1-3.5 8-8.5"/><path stroke="#000" stroke-width="2" fill="none" d="M433.5 344.5l-8.5 11-8 5 4.5-6 7-7.5 3-8-4-8m1.5-1.5l8-7m-10-17l8-7.5 7-6.5 7.5-7 8.5-7.5m.5-10l-8 8-8 8-7.5 7.5-7 7.5-7.5 7.5m.5-22.5l8-.5m5.5-2H452m-1 8.5l-8 .5m16.5 6.5l8-1 8-1 8-1 7.5-1 8-1 8-1 8-1m1 56.5l-8 1-7.5 1.5-8 .5-8 1-8 .5-8 .5-8 .5m-1-7.5l8.5-.5 8-1 8-1 7.5-1 8-1 8-.5 7.5-.5m0 49.5l-8.5 1h-8l-8.5.5-8 .5-8 .5-8.5.5-8 .5m.5 6l8-.5h8.5l8-.5 8-.5 7.5-.5 8.5-.5 8-.5m.5 48.5h-15.5l-8 .5-8.5.5-8 .5-8.5.5-8 .5m2-9l8-.5 8-.5h16l8-.5H516m-1.5 54l-8.5.5-8 .5-7.5 1-7.5 1.5-7.5 1-7.5 1-8 .5m-2-7.5l8.5-1 8-1.5 8-1 8.5-1 8-.5 8-.5 7.5-1m3 50.5H476l-8.5.5-8 1m0-8.5l8-.5h8.5l8-.5 7.5-.5 8-.5 8-.5 8-.5m.5 33.5l-8.5.5-8 .5h-25l-8 1-8.5.5m.5-10l8-.5 8.5.5h16.5l8.5-.5h8.5l8 .5m-.5 54.5l-8 .5-8 .5-7.5.5h-8l-8.5.5-8.5.5-8 .5m-.5-7h7.5l8-.5 8-.5h9l8-.5 7.5-.5 7.5-1m1 45.5l-7.5 1-8 .5h-8.5l-8 .5-8 .5m-7.5 8l8-.5h31l8.5-.5m1 5.5l-8 1.5H492l-8 .5-8.5 1-8 .5M458 664h9l8.5-.5 8-.5 8-1 8.5-1h8l8.5-.5m0-19.5l-8.5 1-8 1.5-8.5.5-8 .5-8 1-8 1.5-8 1m0-8l8-1 8-1 8-1 7.5-1 8.5-1 8-1 8-1.5m-1-8l-7 1-8 1.5-8 1-8 1-8 1-8.5 1.5-8 .5m-.5-11l8.5-.5h8.5l8-.5 8.5-1 8.5-1 7.5-.5h8m0-30.5l-8 .5-8.5.5-7.5.5-8 .5-8 .5-7.5.5-8 .5m-.5-9l8-.5h8l8-.5 8-1 8-1h8l8.5-.5m0-65l-8 1-8 1H484l-8 .5-8.5.5-8 .5m.5-7l8-.5 8-1 8-.5 8.5-.5 7.5-.5 8-1 8-.5m-1-32l-8.5 1h-16l-7.5 1-8 1-8 1-7.5 1m-1-10l8.5-1h7.5l8 .5 7.5-.5 8-.5h15.5m1-7.5l-7.5.5-7.5.5H491l-8-.5h-8.5l-7.5.5-8.5.5m3-33l7.5-.5h15l7.5-.5h7.5l8-.5 8-.5m1-7.5l-7.5-.5H501l-7.5.5-8 .5-8 .5-8 .5h-8m-1-6.5l8.5-.5 7.5-.5 8-.5 7.5-1 8-.5 7.5-.5h7.5m-.5-9.5l-8.5 1-8 1-7.5.5-8 1-8 .5-7.5.5-7.5.5m0-22H475l8.5-1 8-.5 8-.5 8-.5 8-1m.5-7h-23l-7.5.5-8 .5-8.5.5-8 1m-1.5-9.5l8.5-.5 8.5-.5H501l7.5-1 7.5-.5m-.5-10l-8 1.5-9 1-8 .5-8.5.5-8.5 1-8 1H458m3.5-25l8-.5 7.5-.5 7.5-.5 8-.5 7.5-.5 8-.5 8-.5m0-7.5l-8 1-7.5.5h-8l-8 .5h-8l-8.5 1-8 .5m1-9.5l8-.5 8-.5 8-.5h15l7.5-.5h8.5m1-8.5l-8 .5h-16l-8 1-8 .5h-8.5l-8 .5m-1-6.5l8-.5 8-1 8.5-.5 8.5-1 8-1h7.5l7.5-.5m-57.5-55l-8 7.5-8 7.5-7.5 8-7.5 7.5-8 7.5-7.5 7.5-7.5 7-7.5 7m-8.5-14.5l7.5-7.5 7.5-7.5 7.5-7.5 8-7.5 8-8 8.5-8 8-7.5 8-7.5 8-8m0-7.5l-8 7.5-8 7.5-8 8.5-8.5 8-8 7.5-8.5 8-8.5 7.5-8 7.5-7.5 8-8 7.5-7.5 7.5"/><path stroke="#000" stroke-width="2" fill="none" d="M349 286l7.5-.5 7.5-1 8-1 8-1.5 8.5-1 7.5-.5 8-.5 8-.5 8-1 8-.5h71l7.5-.5h8m-56-19l-8 1h-8m.5-8.5l8-.5m1.5-10l-8 .5m-1.5-14l8-1 8-1.5m-1-7h-8l-7.5.5m10-37l-7.5 7.5-8.5 8-8.5 7.5-8 6.5-8 7.5-8.5 8-9 7.5-9 7.5m12.5-2.5l8-8 7.5-8 7.5-7.5 7.5-7.5 8-7.5 8-7.5 8-7 8.5-7.5m-1-4l8.5-.5 8-.5 8-1 8-.5 7.5-.5 8.5-.5 7.5-1m-1.5-9.5H498l-7.5.5h-8m-21-3.5l8-.5 7-1 7.5-.5 8-1 8-1 8-.5h8m-1-16l-8 .5-8 1-8 .5-8.5.5m-1-9H498l8.5-1 8-.5M516 161l-7 .5-8 1-7.5 1-8.5.5-8 1.5-8 1-7.5.5m-8.5 5l-8 8-8 6.5-8 7-8.5 7-8 7.5-9 7.5-8.5 8.5-9 7.5m2-9.5l7.5-7.5 8-7 8-8 8.5-7.5 8.5-7.5 8.5-7.5 8.5-8 8-8m-11 0l-8 7.5-7.5 8-8 8-8.5 7.5-7.5 7.5-7.5 8"/><path stroke="#000" stroke-width="2" fill="none" d="M396 203h71l7.5-.5h8l8-1 7.5-.5 8-1 8-1m2-54h-8l-8 .5-7.5.5-8 1-7.5.5-7.5.5-7.5.5m-27.5 6l-8 7-8 7-8 8-8.5 8.5-8 8"/><path stroke="#000" stroke-width="2" fill="none" d="M396 190.5l7.5-1 7.5-.5 7.5-.5 8-1 8-1 8.5-.5 8.5-.5 8.5-1 8.5-.5h8l8-.5 7.5-.5h7.5l7-.5h7.5"/><path stroke="#000" stroke-width="2" fill="none" d="M435 161l-8 7.5-8.5 7.5-8 7.5-8.5 8.5-8.5 8m2.5-2l8-.5 8-1 8-.5 8-.5 8-.5 8-.5h15.5l7.5-.5h8l8-.5 8.5-1 8.5-1 8-1.5 7.5-.5m-88-33l-8 8-7.5 8-8 7.5-8 7.5"/><path stroke="#000" stroke-width="2" fill="none" d="M396 182.5l8-.5h7.5l8-.5h8.5l8-1 8-.5 7.5-1 7.5-.5 8-.5h8l8-1 8-1.5 8-.5 8-.5 8-1m-71 11h-8l-8.5 1-8 1m-16.5 6l8-1 8.5-.5h17l8-.5h8M460 206l-8 .5-8.5 1-8 .5H420l-8 .5-8.5.5m.5-9l7.5-1 8-.5h7.5l7.5.5h16l9 .5m-56 17H396m-1.5-4.5l8-.5h8.5l7.5-.5 8-.5h24l8.5-.5 8-1 8-.5 8-.5h8l8-.5 8.5-.5 8-.5m-56 57l-7.5.5-8 1-8 .5m-9 9l8-.5 8-.5 8-.5 8.5-.5m56-57.5l-7 .5-7.5.5-7.5.5-8 .5h-8l-8 .5-8.5.5h-9l-8.5.5-8.5.5h-8.5l-8 .5h-8l-8.5.5-8.5.5-8 .5M364 246.5l-8.5 7m2 7.5l8-7.5m1 3l-2 8-6 8-6 8-8 8.5-7 8-7 8-5.5 5.5 8-9 7.5-9 8-7.5 8-10.5 8-12M363 261l7.5-7.5"/><path stroke="#000" stroke-width="2" fill="none" d="M363 260.5l8.5-.5H395l7.5-.5 8-1 7.5-.5 7.5-.5h16l8-1 8.5-1 8.5-.5 8.5-1 8.5-.5h8.5l8-.5 8.5.5h8.5M442.5 155h-8l-8 1.5-8 1-7.5.5-7 1-8 .5"/><path stroke="#000" stroke-width="2" fill="none" d="M397.5 150.5l-11 8.5-5 7.5-1 8 9.5 8 5 8 1.5 8v8l-1 8-8.5 7.5m2-41l-8-4.5"/><path stroke="#000" stroke-width="2" fill="none" d="M379.5 169l8-13 8-5 7.5-2 8 .5 8-.5 8.5-2 8 1h8"/><path stroke="#000" stroke-width="2" fill="none" d="M427.5 150l14 8 8 8 3.5 8 3 8.5 1.5 8 1 8.5v16.5l-2 8v8l2 8v8l.5 7.5v8l-1 8-2.5 8-4 8-7 8-7 8"/><path stroke="#000" stroke-width="2" fill="none" d="M442.5 286.5l-8 .5-8 .5h-8l-8 1h-8l-8 .5-8.5.5-8 .5-7.5.5-7 1-7.5.5-7.5.5-8 1m-8 9.5l8-1 8-1 8-.5 8-.5h8l7.5-.5 7-.5 7.5-.5 8.5-.5 8-.5 7.5-.5 8-1 8.5-1.5m-23 10l-8.5.5-7.5.5-7.5 1-7.5 1-8 .5-8.5 1-8 1-8.5 1-8.5.5H332l-8 .5"/><path stroke="#000" stroke-width="2" fill="none" d="M323.5 313.5h16l8-.5h8.5l7.5.5h8.5l8 .5 8 .5h16.5l7.5-1 8-2 7.5-3 7.5-3 7.5-9 8-8.5M421 330h-7.5l-10-8-.5 6-12 1.5 2.5-.5-1-8"/><path stroke="#000" stroke-width="2" fill="none" d="M387.5 320l-2 8 1.5-7.5 13-.5h8l7 7.5 8-3h15m-42 17l-8 7m-7.5-9L372 347m-6-3l-9 8 10-1 6-4.5 6-2m-5-4.5l7.5-.5h8l7.5-1m-32.5.5l-8 7.5m-3.5 3l2-3-2-2.5-7 8-4-5 3-4-5 8-1 7.5"/><path stroke="#000" stroke-width="2" fill="none" d="M352.5 352l8-.5 8.5-7 8-3 8-2 8 3.5 8-8h7l-7 8-10.5 3-4 2 2-1 9 .5 8-5 7.5-4-10 7.5 10.5 6 1.5-2 8-5.5-4.5 3.5-9.5-4.5-4.5 8m-16 36.5l-7.5 7.5m0 9l8-.5m0-1l-8 8m0 10.5l8-.5m6-1h9m.5-2l-8 7.5m-2 11.5l-7.5 7.5m1-.5l8-1m-4-3h-4l-16 6h8.5v-3m8-5.5l8-.5m-17-4l-8 .5h-8l-7.5.5-8.5.5-8.5.5h-8.5l-8 .5-7.5.5m6.5-1l-8 7.5m1.5 1.5l8-.5m0-2.5h8.5m.5 1.5l8.5-8m-3 2l-6 8.5 6.5 3-4 11-9.5-.5m-1 1.5l5.5-8"/><path stroke="#000" stroke-width="2" fill="none" d="M331.5 451.5l-8 .5-8 1m-1.5-3l8-7.5 7.5-8"/><path stroke="#000" stroke-width="2" fill="none" d="M335 441.5l-5-1-4 3-8 7-3.5 8.5 2.5 3 8-2h4l9.5 1 8 1 8.5-1m1-18.5l8.5-7.5m-2 5.5l8-8m-7 7h-8m-.5-3.5l-8 7.5m-.5-7.5l-8 7.5m8.5-18l8-7m.5 4.5l-8 .5m2-3.5l-5 8m-4.5-5.5l7.5-.5h7.5m-7.5-13l8.5-7m7.5 4l8.5-.5m-5.5-2l-2.5 2 6.5 6-6 4-4 14 2-2.5 3.5 4 8.5-3h7.5l7 1 8.5.5m-1-20l8-7.5m-1 6l-8.5.5m-.5-3l8-.5m-6-20l-8.5.5-8 .5-8.5 1-8.5.5h-8l-8 1m-.5 5l7.5-8m9.5 9l8-7.5m-14 16.5l-8 .5-8 .5-8 .5m-1.5-8.5l8-8m1 0l-2.5 8 1 2.5 8.5-3h5.5l8 1.5 8.5-1 10.5-.5"/><path stroke="#000" stroke-width="2" fill="none" d="M397 414l-8.5-1-9.5-1-14 2.5-6.5-4-8.5 2h-11l-8-5-3.5 5.5h-1l-3-7.5-13.5 1-8.5-.5-8.5-.5-8 1m0-3.5l-8 7.5m6-6.5l-7.5.5-8 .5"/><path stroke="#000" stroke-width="2" fill="none" d="M266.5 407l3-4 1.5 5-3 1-10 1m-5 2.5l8.5-8m-2.5-1l-8 .5m-7-.5l-8 7.5m-2.5-7.5L226 411m2.5-3.5h8M234 420l-8 8m1.5-4.5l8-1m-7.5-.5l-8 7.5m-2.5 7.5l-7.5 7m3 2.5l8 1 12-3 12.5 3 8-.5 3-1 8 1 8 .5 8.5-1 8.5-1.5m2.5-1.5l7.5-7m7-.5l-8 7.5M296 454v8l10.5 2m0-8l-6.5 2m6-5h-8l-7.5.5"/><path stroke="#000" stroke-width="2" fill="none" d="M289.5 455l-3 8-1 1.5 8-1 10.5-6 7.5 1 9-1 8-3 8 4.5 8-1 8 2 8 2.5m-15 32l8 1.5 8-1 8 1.5 8.5-3h8l7.5 1m2.5-.5l8.5-1m-16 0l-8.5.5m-6.5 16l-8 1M370 522l-7.5 8m-6.5.5l8-7.5m-8.5.5l-8 7.5m0-7.5l-8 7.5m-1-7h24l8-.5 8.5-.5m-.5-.5L370 530m1-15.5l-7-5 4.5-1.5-1-2h-24l-8 .5h-8l-9.5-.5-8 .5-8 .5h-8.5l-8-.5-10.5 7-3.5-6-7.5-1h-32l-8-.5h-7.5l-8 .5-11 6-1-5-11 6-7-.5H165l-4.5-1-3.5-3.5-9 2 1-8 .5 9m-2.5-4l8.5-7.5m.5 2l-8 .5m6 6.5l-7.5.5-7.5.5m-11.5 3l-5-2.5-8 3-10.5-4-11-3.5h-8"/><path stroke="#000" stroke-width="2" fill="none" d="M85 507.5l1.5 7.5-1 5 3-10 10.5-4h16.5l8.5 1 8-1.5h8l11.5-4.5 4.5 5.5 8-1 7.5 1 7.5-1h8m-7.5 2.5l-8 .5-8 .5m-.5 17l8-.5m8 0l8-.5 7.5-.5m-6-.5l-8 7m-1.5 10l-8 7m8-1l8.5-7.5m-.5 5.5l8.5-7.5m-1 2l-1 7.5m14.5-3l8 2 8 1 2-5.5h13m-2 1l8-1 7.5-1m-1.5 0l-8.5 7.5m-5.5-2.5l8.5-7.5m-2.5-7.5l8-7.5m2.5 2.5H245l-8 .5m-9-3l-8.5 7.5M218 523l-7.5 7.5"/><path stroke="#000" stroke-width="2" fill="none" d="M208.5 526.5h-11 3l2.5-3h8.5l8 .5 8.5.5h8l8 .5 11-.5 2 6 12-7 7.5-.5 8 .5 8 1 7.5-1.5h8l8-1 8 1h16l11 7 8-2 7.5 1m-17 1l1-8m4-13l-8-.5h-8M322 506l-8 1m-6 2h-8.5l-8.5.5-8 .5"/><path stroke="#000" stroke-width="2" fill="none" d="M276 505h-3l-7.5 8.5-1 14 1.5-.5 5 5 8-3.5h17.5l8-1 13 1H339l11-7 7.5 1h8.5l7.5 1.5-5 2.5m10.5 24l7.5-.5m-1 2l-4 8-5 8-2.5-3 7.5-12.5"/><path stroke="#000" stroke-width="2" fill="none" d="M383.5 552l-5.5 7.5-6 8-8 1.5-4 9-4.5 5 4.5-.5-.5-2 8-2 8-6 7.5-8.5 8-12 8.5-10 8-6.5m2 3l-5.5 2-6.5 8-3 9-.5 3-5.5 8-8.5 8-5 8.5-2.5-2.5"/><path stroke="#000" stroke-width="2" fill="none" d="M366.5 573.5l7.5-.5 8-.5m-2-8l-8-.5-8 .5m-6 7.5l-8.5 7m-2 1l7.5-.5m4.5-2.5l8-1"/><path stroke="#000" stroke-width="2" fill="none" d="M358.5 585l7.5-.5h7.5l8-9.5 5-12.5 8-12.5 8-10m1.5.5l-8 .5m5-9l8-.5"/><path stroke="#000" stroke-width="2" fill="none" d="M411.5 536.5l-10 2.5-7 8-5 8.5-6 8-7 8-8 4.5 5 3.5-4.5 8M355 571h-7.5l-8 .5-7.5.5m1-7.5l8-.5m-1.5-8l8-.5m14.5 19l-8.5 3-7 8.5 9.5-7-8 4-1 3m-9-5.5l8-6m-14.5 9.5l-9 7.5-5.5 8-6 7.5m3.5 13l-7.5 7.5m-1.5-6.5l-8 7.5m3-7l8-.5 8-1m-.5 2.5l-3 8"/><path stroke="#000" stroke-width="2" fill="none" d="M306 620l7 8-5-3.5 5.5-5.5H306l-4 4-7.5-3h-8l-11 3-8 .5 1-3-8 2-8 1-8-1.5-7.5-.5-2 8-10.5-1 5-10-12 3H210l-9 1h-16l-8 1-8-1-12.5 6-2.5-4.5h-8l-8 .5h-17.5L110 623h-8l-8 4-4.5-5.5-5 10 2-8.5 7-1-3-.5-4-3M74 620l-7.5 7.5-8 7-8 7-8.5 8-8 7-7 8-8 7.5-8 7.5-8 8m1 2l7.5-.5 8-1h31l7.5-.5 8-1 8.5-.5 7.5-.5 8.5-.5 8-.5 8-.5 8.5-.5m-1.5 1l-8 7-7 7-7 7-8 7.5-8 7.5L68 727l-8 7-7.5 7.5-8 7.5-7.5 8-8.5 7m-9 2.5L27 759l8.5-7.5 7.5-8 8-7.5 7.5-6.5 8-7.5 8-8 8.5-7.5 8-7.5 8.5-7.5 8-7"/><path stroke="#000" stroke-width="2" fill="none" d="M107 676.5l-8.5 7.5-8 7.5L82 699l-8.5 7.5-8.5 7-7.5 7.5-8 7-8 7-7.5 7.5-8 7.5-8 7.5-8 7.5m-9 1l9-.5 8.5-.5 8.5-1 8.5-1 8-.5 8-.5 7.5-1 8-.5h7l7.5-1H90l8-.5 8.5-.5 8-.5h8l8-.5 7.5-.5 8-1 8-1 8-.5h24.5l8-1 8.5-.5 8-.5h8l8.5-1 8.5-1 7.5-.5 8.5-.5h7.5l8-.5 8-1h8l8.5-.5h24l8.5-1 7.5-.5 8.5-1 8-1 8.5-1 8-1h16l7.5-.5h7.5l8-.5 8-.5 9-.5 8-1 8-1 7.5-1h8l8-.5 8-.5 8.5-1 8-1h15l7.5-.5h7.5m0 9.5l-8 .5-8 .5-8 .5-7.5.5-8 .5-8 .5h-8l-7.5.5-8 .5h-8l-7.5.5-8 .5-8 .5H404l-8.5.5h-24l-8 .5-8 .5-7.5.5-8 .5-8 .5"/><path stroke="#000" stroke-width="2" fill="none" d="M332 766l8.5-7.5 8-7 7.5-7.5 7.5-7.5 7.5-7.5 7.5-7.5 8-8 8-7.5 8.5-7.5 8-7.5 8.5-7.5 7.5-7m-6 0l-8 7.5-8.5 7-8.5 7.5-9 7-8 7-8.5 7.5-8 8-8.5 7.5-7.5 7.5-8 7-8 8-8 8m-8.5-1.5l8-7.5 8-7.5 8.5-7 9-7 8-7.5 8.5-7.5 8-7.5 8.5-6.5 8-7.5 8-7.5 7.5-7 8-7m-7.5-1.5l-8 8-7.5 7.5-8 7.5-7.5 7-8 7-9 7-8.5 7.5-8.5 7.5-8.5 7.5-8 7.5-8 7.5-8 7.5m-9 5l8-7 8-7.5m1-16l-8.5.5"/><path stroke="#000" stroke-width="2" fill="none" d="M308 737l-5 4h2l1.5 1 2 11h1.5l7-1 5-1 9-3-7.5 1v4.5m.5-11.5l8.5-7 8-7.5 8.5-7.5 7.5-7 7.5-7.5 8-7.5 7.5-7.5 7.5-7.5 7.5-7.5m-5.5-5l7.5-.5 7-.5 8-1 7.5-1 8-.5 8-1h8.5l8.5-.5 8-.5 8-.5 8-.5 8-1 7.5-.5 8.5-1h8l8.5-1m-1 9.5l-8 .5H484l-8 .5h-8.5l-8 .5h-8M444 676l-8 7.5-8.5 7.5-7.5 7.5-8 7-7.5 7.5-8 7-8.5 7.5-8 8-8.5 7-8 7.5-8 7.5-7.5 7.5m-9.5 0l7-7.5 8-7 8.5-8 8.5-7.5 8.5-7.5 8.5-7.5 8-8 8-7 8-7 8.5-7.5 8-7.5 8-7.5m16-15.5l8-.5h8l7.5-.5h16l8-1 8.5-.5h8"/><path stroke="#000" stroke-width="2" fill="none" d="M516 669.5l-8 .5h-8l-8 .5h-8.5l-8 1-8 1-8.5.5-7.5.5-8 .5-8 1-8.5.5-7.5.5-8 .5-8.5 1-8.5 1-8.5 1h-8l-8 .5-8 .5-8 1-7.5 1m1-6.5l-8 7.5-7.5 7.5-8.5 7.5-7.5 7.5-8.5 8-8 7.5-8 8-7.5 7.5-8.5 7.5m-6-5.5l-8 7.5-8.5 7.5-8.5 8-9 8m7.5.5l8-7.5 8.5-8 8-8"/><path stroke="#000" stroke-width="2" fill="none" d="M265.5 746.5l8-8-2 .5.5 11 1 3.5h4-6.5l8.5-2 5-8 2.5-5 8.5-1h7.5l8 1.5 3.5 6 4-6.5 3 7.5m1-5.5l8-.5 9-1 8-1.5 8.5-1.5 8.5-1 8.5-.5M388 747l-8 7.5-8 7.5-7.5 7.5m-43-28l-3-2m-10-11l7.5-7.5 7.5-8 7.5-7.5 7.5-7 7.5-8 7.5-8 7.5-7.5m-4.5 0l-8 7.5-8 8-8.5 7.5-8.5 7.5-8 7.5-8.5 7.5-7.5 8m-.5 6l8-1 8-.5 8.5-.5 8-1 8-.5 8-.5 7.5-.5 7.5-.5 8-1 8-.5 8-.5H420l8-1 7.5-1 8-1h8l7.5-.5 8-1 7.5-1 8-.5 8.5-.5 7.5-.5 8.5-.5 8-.5"/><path stroke="#000" stroke-width="2" fill="none" d="M515 737.5l-7.5.5-8 .5H466l-8 .5h-8l-7.5 1-8.5 1.5-8 .5h-16l-7.5.5-7.5 1-7 .5-8 .5-8 .5-8 .5h-8l-8 1-8 .5h-8l-8.5.5-8 .5-8.5 1-8 1-8 1-8 1-8 1-8 .5h-55.5l-8 .5-7.5.5-8 1h-8l-8 .5-8 .5-8.5 1-7.5.5-8.5.5H131l-8 .5-8.5 1-8 .5m1.5-5.5l8-1 7.5-1 7.5-1 8-.5 8-.5 8-1 8-1.5 8.5-1 8.5-.5 8-.5h8l8.5-.5 7.5-.5h23.5l7.5-1 8-.5 7.5-.5 7.5-.5"/><path stroke="#000" stroke-width="2" fill="none" d="M260 740.5l-8 7.5-8 7-7.5 7.5-8 7.5m16-2l8-.5 7.5-.5 7.5-.5h24l7.5.5 7.5-.5 8.5-1h8l8-1 8-.5 8.5-.5 8-1 8-.5 8-.5 7.5-.5 7.5-.5 8-1 8-.5 8-.5H444l8-1 7.5-1 8-1h8l7.5-.5 8-1 7.5-1 8-.5 8.5-.5m0-47.5h-7.5l-8.5 1h-8.5l-8 .5h-37l-8 .5-7.5 1h-9l-8 .5-8.5.5-8.5.5-8 1-7.5.5H373l-8 .5-7.5.5h-8l-8 1-8 1-8.5 1-8 1-8.5.5-7.5 1.5-7.5.5-8 1-7.5 1-8 .5-8 .5-8.5.5H245l-8-.5-8.5.5-8 1-8.5 1-8.5.5-8.5.5-8 .5-8 .5-8 1-8 1-7.5.5-8 .5H139l-8.5-.5H122l-8-.5-7.5.5m2.5-6l8-8 7.5-7 8-8"/><path stroke="#000" stroke-width="2" fill="none" d="M140 699l-8 8-7.5 7.5-8 7.5-7.5 7.5-8 7.5-8 7-8.5 7.5-8 7.5-7.5 7m7 2l8.5-7 8-7.5 7.5-7.5 8-7 7.5-8 7.5-8 8-8.5 7.5-8 8-8m1.5 9l-8 7-8 8.5-8.5 8-9 7.5-8.5 8-7.5 7-8 7-7.5 7m8 1.5l8-7.5 7.5-7.5 8.5-7.5 8.5-8 8.5-7.5 8.5-7.5 8-8 8-7.5m7.5 2l-8 7.5-8 6.5-8.5 7-8 7-8 7-8 7-8 7-8.5 7.5m9 1.5l8-7.5 7.5-8 7.5-7.5 7.5-7.5 7.5-7.5 8-7 8.5-7.5 8-7.5m11-1l-8 7-8.5 7.5-8.5 8-8.5 7.5-8.5 7.5-8.5 8-8 7.5-8 8m24.5 1.5l7.5-7.5 8-7.5 7.5-7.5m-4-2l-8 8-8.5 7.5-8 8.5m30-1l9-8 8.5-7.5 8.5-8m5 3l-7.5 8-8 7.5-8 8m8 .5l7.5-8 8-8 8.5-7.5 8-7.5m2 3.5h-8m-.5-4l8-.5m-5.5-.5l-.5 8.5m13-1.5l8-.5 9-.5 8-1 8-1 7.5-1m0-9l-7.5 1-7.5.5-7.5 1-8 1-8.5.5m-2 .5l8-7.5 8.5-8 8-7 8.5-7.5 8-7 8-7.5m-8 0l-8.5 7-7.5 7.5-8 7-8 7.5-8 7.5m.5 12l8-.5 8-1 8-.5h8.5l7.5-1 8-1 7.5-1 8-.5H300l8-1 8.5-.5 8-.5 8-1.5 7.5-.5h15.5l8-.5 7.5-1 8-.5 8-.5h8l7.5-.5 8.5-.5 8.5-.5 8-.5 8-.5"/><path stroke="#000" stroke-width="2" fill="none" d="M386 674l-8 7.5-7.5 8-8 8-8 8.5-7.5 8-7.5 8-8 8-8 7.5-7.5 6.5-8 7-8 7.5-8.5 7.5m-6.5-1l8.5-7.5 8.5-7.5 8-7.5 7.5-7.5 7.5-8 7-7.5 7.5-7.5 7.5-8 7-7 7.5-7.5 8-7 8.5-7.5m-6-1l-8.5 8-8 8-8.5 7.5-8 7-8 7.5-8 7-8 7-8 7.5-8.5 8-8 8-8 7-8 7m-6-8L260 763l-8 7.5m6.5 1.5l8.5-7.5 8.5-7.5 8-7.5 8-7.5m1.5-.5l-1 4.5 1.5-8m-.5 13h8m-19 5l-8 7-7.5 7"/><path stroke="#000" stroke-width="2" fill="none" d="M278 754l8-2.5h8l11 2.5"/><path stroke="#000" stroke-width="2" fill="none" d="M287.5 757l-5.5-3 6 .5-1.5-14-6-5-8.5.5m5-32h7.5m-2.5-19.5l-8 7.5-8 7-7.5 7-8 7.5-8 8-8 7-7.5 7.5-8 7.5-7 7-8 7.5-8 8m-14.5-21l-8 8-8 7.5-8.5 8m-9 3l7.5-7 7.5-7.5 8-8m6.5-5l-3-3.5-8 .5m-2.5-4l8-7.5 8-7.5 7.5-7 7.5-7m-6.5-2.5l-8.5 8-8.5 8-8.5 7.5m-5.5 10.5l-8 7.5-8 8-8 7.5-8 7.5M98 761l-8.5.5M81 756l8-1 8.5-1m8.5-17.5l7.5-.5h9l8.5-.5 9-1.5 8.5-.5 7.5-.5"/><path stroke="#000" stroke-width="2" fill="none" d="M153 739l-.5 8 3.5 3.5 4-5 12.5 3 11.5 2 1-5V743l11-4 8.5.5h10v3M235 759l-8.5.5h-8l-7.5 1-7.5 1-7.5.5-8 .5h-8l-7.5 1-8 1-7.5.5-7.5.5H142l-8.5.5-8 1-8.5.5h-8l-8.5.5H93l-8.5.5-8 .5-8 .5H60"/><path stroke="#000" stroke-width="2" fill="none" d="M59.5 770.5l8-8 8-7.5 8.5-8 8-8 8-7.5m0-9l8-7 8-8 8-8 7.5-8m-9 1.5l-8 7.5-7.5 7.5-8 7.5-9 7m.5 2.5l7.5-1 7.5-.5 7.5-1 8-1 7.5-1h8.5l8.5-.5 8.5-.5h8.5l8-.5 8-.5 8-.5 8-.5h7.5l8-.5h8.5l9-.5h17l8-.5 8-.5 8-.5 8.5-.5 8-1 8.5-1.5H309l7.5-.5 7.5-.5 7.5-.5 8-1 8.5-1 8-1 8.5-.5 8-1h16l8.5-.5 9-1 8-1h14.5l7-.5h8l8-.5h8.5l7.5-.5 8.5-.5h8l8-.5 8-.5 8-1 7.5-.5"/><path stroke="#000" stroke-width="2" fill="none" d="M511.5 695v7.5l.5 8v8l.5 8v7.5m3-55.5l-8.5.5-7.5 1-8 .5-8 .5-8 .5H445l-7.5.5-7.5 1-8 .5-8 .5-7.5.5-8 .5-9 .5h-26l-8 1-8.5 1-9 1-8.5.5-8.5.5M268 719l-7.5.5-7.5.5-7.5.5-8 1h-41l-8 .5-8.5 1-8 .5-8 .5-8 .5-8.5.5-8 .5h-16l-8 .5-8 1-8 .5h-8l-8.5.5-8 .5-8 .5-8 .5H42.5l-8 .5-8 .5-8 1-8 .5-8 .5m0-8l8-.5 8-.5h16l8.5-1h16l8.5-.5 9-.5 8-.5m-1 0l8.5-8 8-8.5 7.5-7.5 7.5-8m8-2.5l7.5-.5 8.5-1 8-1h8l7.5-.5 8.5-1.5 8-1 8-.5 8-.5 7.5-.5h8.5l8-.5h25.5l7.5-.5 8.5-1 8-1 7.5-1h8l8-1 8-.5 8-.5h8l8-.5 8-1h8l8.5-.5 8.5-.5 8.5-.5 7.5-.5 8-1h7.5l8 .5h7.5l8-.5 8-1 7.5-1 7.5-.5 8-.5 8-.5 8.5-.5H476l8-.5 7.5-.5 7.5-1 7.5-1 7.5-1M411 549.5l-8 .5m-3.5 9.5l8-2 1 1.5m-12 4.5l1-1-2 8 7 4.5h8"/><path stroke="#000" stroke-width="2" fill="none" d="M406 571.5h-6l-1-1-7.5 4 2-1 .5-8 5.5-8 4.5-1 8-2-4.5-3-8 5-8 2.5M314 582.5l-8 .5m5.5.5l8-12 8-8 10-7-11 8-7.5 8-5 8.5-4.5 8-1 8.5-1 8.5"/><path stroke="#000" stroke-width="2" fill="none" d="M306.5 593l8-17.5 7.5-9 8-6.5 7.5-5 8-3-13.5 5.5-10 7.5-7 8-4.5 8-3 8-2 8v8l4 2.5 8-10L320 583l8-8 8-14 6.5-4 2 1-4.5 7.5-7 8.5-5.5 7h-3v10.5l-6 8.5-8 9 5-3 7-10 3-5 8-9 8-6-.5-4 8-1 8-1 7.5-3.5 3 4 8-6.5M306 522.5l-8 7.5m-6-5.5l8.5-.5 8.5-1m1.5-10.5h8l9-3.5 5.5 3 7-4.5 4.5 2 6.5 1 7.5-.5m34-12.5l-1-4.5v-3l-8 1-9-.5-8-.5-10.5 3-3-4-8 1h-15.5l-8.5-1.5h-7.5l-8.5.5-8 .5-8 6.5h-21.5l-3-6.5-8-.5-8.5.5h-16l-10 4-2.5-3.5-8-1-8 1h-8l3-13 2.5-1.5-3 1-1 4m-8-1l-8.5-1 3.5-2 9-2 7-13-7 1.5-8-1.5-8 1m-14.5-9.5l8-.5 8.5-1.5 8.5-.5h17l8.5-.5m7.5 3.5l8-.5m9 .5l7.5-.5m7-8.5l8-8m5-.5l-7.5 7.5m3-4H244m-1 1.5l8-8m1.5-5l8.5-7.5m15.5 13.5H268l-8 .5-8 1-7.5.5m-16 .5l-8.5 8m-9.5-7.5l-8.5 8m-7-1.5l7.5-7.5m-7.5-1.5l-8 7m1 1l7.5-.5m-3.5-5.5l-9.5 7.5 7-.5 4 4 3-7 8-9 8-.5 7.5-2.5 7 2m-9.5-9.5l-7.5 7.5m-7-.5l8.5-7"/><path stroke="#000" stroke-width="2" fill="none" d="M202.5 423l-.5 8-5 12.5v2l8-.5 4-6h8l2 2.5 13 .5 11-2 8.5-1h8l8.5-.5h8.5l8 1 8.5-.5 7.5.5 14.5-1h15.5l8-3 8 4h23l8-1h8l8 2M375 423l-7 8 .5-4.5m-36.5-8l-8 7.5m-1.5-8l-8.5 7.5m1.5-5l8-.5 8-.5M314 406l-7.5.5m2 2.5l8-7.5m7.5-6.5l8-8m7 1.5l-8 .5-8 1m2.5 7l8-1.5M307 388l-8 7.5m-5-6l-8 7.5m-.5-6.5l7.5-.5 7.5-.5 8-1m-32 0L268 396m8.5-9.5l-8 1H253l-8 .5m-1 15.5l-7 1-7.5 1-8 .5m-2.5 3.5h8l8 3.5 7-1 7.5.5 8-2m32 11.5l8-.5 8-.5m-6 1l-7.5 7"/><path stroke="#000" stroke-width="2" fill="none" d="M284 439.5l8.5-1 8-1 8-1m9.5 12l8-1 7-1 8.5-1.5 9.5-1.5 8 3h8V442m34.5-30.5L398 407h-11.5l-8-1-5.5 10-4.5-10.5-6 1-8.5-.5-8 .5h-16.5l-7.5 1-12.5 4-4 1.5-5.5-5-8.5 4.5H286l-12-1-2.5-3 6-6.5-8 8-11 1.5-2-6.5-8.5 2-8-1-8.5-1-8 .5-8-1-10 7.5-5-2.5 1.5-8-.5 2m1.5 2l8-.5"/><path stroke="#000" stroke-width="2" fill="none" d="M208.5 403.5l1 8 6.5.5 5.5 7v4.5h4l7 5 2.5-2.5 7 2 6.5-2 8 3.5 12-6.5h8l8 3 10.5-3h7.5l8 2.5 8-2.5H342l8-3 1.5 4.5 13-1.5 7.5.5 8 1 8.5-5 3 4h8m-37-82l-7.5.5m-2.5-5.5l-4-.5-8 8-3 8-1 3 2.5-9 8-9 7-8.5 8-2m-.5 3l-1-7.5"/><path stroke="#000" stroke-width="2" fill="none" d="M351 320v8l11 10-2 8-8 4-1-5 1-6 8-3 7-6.5 5-4 4 3m-30-3.5l-8 7m-5.5-7l8.5-1 7.5-.5m-2 17l-8 .5m-16 8.5l-7.5 1-7.5.5m-.5 2.5l8-8m4.5-2.5l-2 8m-4-19.5l-8 .5m1.5-2l8.5-8m-8-6l8-7.5m-.5 1l-8 1m9 15.5l-7.5 1-8 .5M286 326l-8 7m1.5-5l8 .5L299 330h8.5l8 1.5 9.5-1.5 6 2 8-1m-47.5 18l-8.5 7.5m2.5-6l8-.5"/><path stroke="#000" stroke-width="2" fill="none" d="M288.5 348.5h-5l-12.5 3 1 4.5 8-1h6l12.5-1 8-1 8.5-.5h8m-29-39l-8 .5m-5.5 1l8.5-7.5m-4 .5l-8 7.5m-1.5 5.5l-7.5 7.5m-6 1l-8 .5h-8m6.5 2.5l8-7m-3 1l-10-.5-7.5 4 5-4-3.5-5h-8l-3 7-13 1.5-8-6.5-8.5.5-8-1-8 2-7-3-8 2-8 .5-7.5-1-8 1-12 4-5-5.5-7.5.5H97.5l-4.5-3.5-4 4.5 3 3-2.5 1 2-7-7-9 1-8-.5 1"/><path stroke="#000" stroke-width="2" fill="none" d="M91 309l8.5-.5h8l8-.5"/><path stroke="#000" stroke-width="2" fill="none" d="M117.5 308h-11l-8 1.5.5 4 10.5 2 7-7 2 5.5 7-1 8-2 1-4.5h16l7.5 1 7.5.5h20l11-4.5 1 3.5 8-1 7.5.5 11.5-.5 8 .5 8-.5 8 1.5 8.5.5m0-2l8.5.5m0 2l-8 7.5m.5-2l8-.5m-1.5 8.5v8l2-5 4 3m-11 2l.5-8m-6.5-2.5l-.5 8m-1.5-4.5l-8 7.5M240 323l-7 7.5"/><path stroke="#000" stroke-width="2" fill="none" d="M236 324.5l8-.5 8-.5 7.5-1 7.5-.5 7.5-1 8.5.5m-7-12.5l8-1 8.5-.5M304 313l-8 .5h-7l-7-1-7.5 1-4-4.5 3.5 1m-22-3l-8 .5h-15m5.5 1l-8 7.5"/><path stroke="#000" stroke-width="2" fill="none" d="M231.5 320l-5 1v8l-2.5 13.5 4.5 3.5-5 7.5-9 5.5 5 2 8.5-6 7.5-4.5 8-3 2 6 8-6.5-.5 4 5 3 1-3h6l8-3 6 2 8-3.5 2.5-5 4.5 10 6-1.5 5.5-.5 8-6 5.5 1.5v7"/><path stroke="#000" stroke-width="2" fill="none" d="M269.5 346l-8 .5-7.5 1m6 5.5l-1 7.5-6 3 .5 6m.5-9l-4 8 4-8m3.5-1l7.5-1m-6.5-2.5l8-7.5m2 0l-7.5 3-10-2-7 8m-6.5.5l7-8"/><path stroke="#000" stroke-width="2" fill="none" d="M247 354.5l-10-1.5-4.5 3 7-8m-5.5-8h-8m6-2l-6.5 8 10-2 8-2m3-11.5l4-7.5"/><path stroke="#000" stroke-width="2" fill="none" d="M248.5 308.5l-7.5 14-4 2 4 6.5-7.5 9-1 6-2 8-9 6v-3l2.5-12 8-7 5.5 1 7.5-3 4-17 9.5 1.5 8.5 3.5 12 .5h8.5l6.5-.5 8-1 8-.5h8l8.5 1 8.5.5h8l11.5-4 10 6.5 11-5M355 278l8.5-.5 8-1 8-.5 7.5-.5h8.5l8-.5 8-1.5 8-1 7.5-1 8-.5h9l8.5-.5h8.5l8-.5 8-.5 8-.5 8-.5 7.5-.5 7.5-1 7.5-1.5M410.5 162l-7.5 7.5-7.5 7.5m-7.5-4l8-.5 7.5-.5 8-1 7.5-.5 8-.5h17.5l8.5.5M426.5 148l-8.5.5-8.5 1-8 1M395 142l8-1 7.5-1 8-.5 8.5-.5 7.5-.5 8.5-.5 8-.5 8-.5h7.5l8-.5 8.5-.5 8-1 7.5-.5h8l8.5-.5m-63 28l-7.5.5-8 .5H421l-7.5.5-8 .5-8.5 1-8 1"/><path stroke="#000" stroke-width="2" fill="none" d="M421.5 151l8 2 8 3.5 8 6.5 8.5 14m-41.5-51l8.5-7.5 9-7.5 8-7.5 8-7.5 7-7.5 7.5-8 7-8 7.5-8 8-8 7.5-7.5 7.5-8 7-7.5 8-7.5m.5-6.5l-8 7-7 7.5-7.5 7.5-7.5 8L476 57l-8 8-8 8-8 7.5-8 7.5-8 7.5-8 7.5-8 7.5-8 8-8 8m-8-2l8-7 8-7 8-7 8-8 7.5-7.5 8.5-7.5 8.5-7.5 8-7.5L468 58l7.5-7.5 7.5-8 7.5-7.5 7.5-7.5 8-7.5 8.5-7.5M514 5l-8 7-7.5 7.5-8 7.5-8 7.5-8 7.5-8 7.5-8 7.5-7.5 7.5-8 7.5-7.5 7-8 8-8.5 7.5-7.5 7-7.5 7-7.5 7.5-8 7.5m-8-.5l7.5-8 8-8 7.5-7.5L411 92l8-7.5 8.5-7 7.5-8 7.5-7 8-7L459 48l8.5-7 7.5-7 7.5-7 8-7.5 8-7 8-7m-7-1l-8 7.5-8.5 7-8 7.5-8 7.5-8 7-8.5 7.5-8 7.5-8 7.5-8 7L419 78l-8 7.5-8.5 8-8 7.5-8 7.5-8 8-7.5 7.5m-.5-6.5l7.5-7.5 8-8 8-7.5 8-7 8-7.5 8-7.5 8.5-7 8-7.5 8.5-8 8.5-7.5 8-7.5 8.5-7.5 8-8 8-7.5 7.5-7.5m-7 0l-8 7L468 19l-8.5 7-9 8-8.5 7.5-8 7-8 7.5-8 7.5-8.5 7.5-8.5 7.5-7.5 7.5-7.5 7.5-7.5 7.5-8.5 7.5-7.5 7.5m-6 0l7.5-7.5 7.5-7.5 7.5-7 8-7 7.5-7.5 8-7.5 7.5-7.5 8-7.5 8.5-7 8-7.5 8-7.5 8.5-7 8.5-7.5 9-8 8.5-8m-9-.5l-8.5 7.5-8.5 8-8.5 8-8.5 7-7.5 7.5-7.5 7-8.5 7.5-8 7-8 8-8 7.5-8 7.5-8 7.5-8 7.5-7.5 7-7.5 7.5"/><path stroke="#000" stroke-width="2" fill="none" d="M341 112l8-.5 8-.5 7.5-.5 7.5.5 7.5-.5h17l8 .5 7.5.5 8-.5 8-1 7.5-.5 7.5-.5h15.5l8-1.5 7.5-.5 8-.5 8-1 8-1 8.5-.5h8m1-65.5l-7.5.5h-8.5l-8.5 1-8 .5-7.5 1-8 .5m-8.5-2l-8 1-8.5.5m-9-38L426 11l-8 7.5-7.5 7.5-8 8-7.5 8-7.5 7.5-7.5 8-8 7.5-8.5 7.5-8 7-8 7.5-8.5 7-8 7.5-8 7.5-8 7m17.5 0l8-7.5 8-7.5 8-7.5 8-8 8-7.5 8-7.5L388 63l7.5-8 8-7.5 8-7.5 8-7.5 8-7 8-7.5 8-8 8-7.5M444 2l-8 7-8.5 7.5-8 8L411 32l-8.5 8-7.5 7.5-8 8-8 8-8 7.5-8 7-8 8-8.5 7-7.5 7.5-7.5 7.5-7.5 7"/><path stroke="#000" stroke-width="2" fill="none" d="M338.5 115.5l8.5-8 8.5-7.5 8-7.5L371 85l8-7.5 8.5-7.5 8.5-8 8.5-7.5 8-7 8.5-7 7.5-8 7.5-7 7.5-7.5 8-7.5 8-8m-30 2L422 12l-8.5 7-8 7.5-8.5 7-8.5 7.5-8.5 8.5-8.5 8-9 7.5-8.5 7.5-8 7.5-8.5 7.5-7.5 7-7 6.5-8 7.5-8 7m-7.5.5l8-7.5 8-7.5 8-8 8.5-8 8-7.5 8-7.5 7.5-7.5 8-7.5 8-7.5L380 40l7.5-7 8-6.5L403 20l8-7.5 8-8M411.5 3l-8 8-8.5 7.5-8 7.5-8.5 8-7.5 7.5-8.5 7.5-8.5 7.5-8 7-7.5 7.5-7.5 6.5-8 8-8 7.5-8 7.5-8.5 8-8 8m3-8.5l8-7.5L310 93l7.5-8 7.5-7 8-8 8-7.5 8-7.5 7.5-7.5 8-7.5 8.5-7.5 8.5-7 8-7.5 7.5-7.5 8-7m-7.5-.5l-8 7.5L381 18l-7.5 7-8 8-8 7-8 7-8 7-8 7-8 7.5-8 7.5-8 8-8.5 8-8.5 7.5-8.5 7.5-8.5 7.5m-.5-7.5l8.5-7.5 8-8L300 84l8-7 8-7.5 7.5-7 8-7 8-7.5 8.5-7.5 8-8 7.5-7.5 7.5-7.5 8-7.5 8-7m-8 .5l-8 7.5-8 7-8 6.5-8 7-8 7-8 7.5-8 8-8 7.5-8 7-8 7.5-8 7.5-8.5 7.5-8 7.5-8.5 8.5m-6 3.5l8-7.5 8-7.5 7.5-8 8-8 8-7.5 8.5-7.5 8-7.5 7.5-7 7.5-7 7.5-8 8-7.5 8-7.5 7.5-7.5 8-7.5m-7.5.5L355 13l-8 7.5-8 7.5-8 7-8.5 7.5-8 6.5-8.5 7-8 6.5-7.5 7.5-8 7-7.5 7.5-7.5 7.5-8 8-8 8m-8 2.5l7.5-7.5 8-7.5 8-8 7.5-7.5 8-7.5L291 65l8-7.5 8-8 8-7.5 8-8 8-8 9-8 8.5-8 8-7m-9 1.5l-8 7-8 7.5-8 7-8.5 6.5-8 7-7.5 7.5-7.5 7.5-7.5 8-7.5 8-8 7.5-8 8-8 7-8.5 7.5-8 7m-9.5.5l7.5-7.5L242 93l8-8 8.5-7.5 8-7.5 8.5-7.5 8.5-8 8.5-8 8-7.5 8-7 8-7.5 8-7.5 8.5-7 8.5-7.5m-8.5 1l-8.5 7-8.5 7.5-8 7-8 7.5L292 40l-8.5 7-8.5 7.5-8.5 7-8 7-8 7-8 8L234 92l-8 8-8 8.5m-7 0l7.5-7 7.5-8 7.5-8L241 78l8-7.5 8.5-7.5 8-8 8-8 8-7.5L290 32l9-7.5 8.5-8L316 9l8-7.5M314 4l-8 8-8 7.5-8 8-7 7-8 7.5-7.5 7-7.5 7.5-7 7-7 7.5-8 8-8.5 7-8 7.5-8 7.5-7.5 7.5m-10-1.5l7.5-7.5L211 92l7.5-7.5 7.5-8 8-7.5 8.5-7.5 8.5-7 8-7 8-7 8-7.5 8-7 7.5-7.5 8-7.5 8.5-8m-4.5 2.5l-8 7.5-8.5 7.5-9 7.5-9 7.5-8.5 7.5-8 7-8 7-8.5 7.5-8.5 7.5-8.5 8-8 7-7.5 7.5-8.5 7-8 7m-7.5-1l8-7.5 7.5-7 8-7.5 7.5-8 8.5-7 8-7 8-7.5 8-7.5 8-7.5 8-7.5 8-7.5 8.5-7 8-8 8.5-7.5M284.5 2l-8 7.5-8 7.5-8 7.5L252 32l-8 7.5-8 7-8 7-7.5 7.5-8 8-8.5 7.5-8 7.5-8.5 7.5-8.5 8-9 7.5m2-7l7.5-8 7.5-7.5 8-8 8-7.5 8.5-7.5 8-7 8-7 8-8 8-7L252 25l8-7.5 8-7 8.5-7m-9 1.5l-8 7.5L252 20l-7.5 7.5-8 7-8 7L221 49l-8 6.5-8 7-8 7-8 7-8.5 8L172 92l-8 7.5m-8.5 2l8-7 8-7L180 80l8-7.5 8-7.5 8-7 8-7 8.5-7 8-8 8-8.5 8.5-8 7.5-7.5 8-7.5m-9-1l-8 7-7.5 8-7.5 8-7.5 8-8 7.5-7.5 8-7 8-8 7.5-8 7.5-8.5 8-8 7-8 7-9 7m-9 0l8-7 8-8 8.5-7.5 8-8 7.5-8 8-7.5 8.5-7.5 7.5-8 7.5-7.5 7.5-7.5 7.5-7.5 7.5-7.5 8-7.5m-6 2.5l-7.5 7.5-8 7-8.5 7-9 6.5-8 7-8.5 8L178 57l-8 7.5-7.5 7.5-8 7.5-8 7.5-8.5 7-8.5 7m-5.5 2l8.5-8 8.5-7.5 8.5-8 7.5-7 8-7.5 7.5-7.5L180 50l7.5-8 7.5-7.5 7-7 7.5-8 8-8L225 4m-6-1l-8 7.5-8.5 7L194 25l-8 8-8.5 8-7.5 7.5-7 7-8 7.5-8 7.5-8 7.5-8 7.5-8 7-8.5 8m-7 1L115 94l7-8 7.5-7.5 8-7L146 64l8-7 7.5-6.5 8-7 8-8 8-8.5 8-8 8.5-7.5 8-8m-8 1l-8 7-7 7.5-7.5 7.5-8 7.5-8 7.5L156 49l-8 8-7.5 8-7.5 8-8 8-8.5 7-8.5 7-8 7.5m-1.5-8L106 87l7.5-7.5 8-8 8-7.5 8.5-7.5 8.5-8L155 41l8-7.5 8-7.5 8.5-7.5 8-7.5 7.5-7.5m-7.5 0l-8 7.5-8 8-7.5 7.5-8.5 8-8 7.5-8 7-7.5 7-8 7.5-8.5 7.5-8 7.5-8 7.5-8.5 8.5m-10 0l7.5-7.5 8-7.5 8.5-7 8.5-7.5 8.5-7.5 9-8 9-7 8.5-7.5 8-8 8-7.5 7.5-7 7.5-8M171 3l-8 7-9 7.5-8 7-7.5 7-7.5 7-8 7.5-7.5 8-8 7.5L99 69l-8 7.5-8 8-8 7.5m-6 2.5l8-8 8.5-8 8-7.5 7.5-7.5 7.5-7 7.5-8 7.5-8 8-7.5 8-7.5L147 18l7.5-8 8-8M156 4.5l-8.5 7.5-8 7.5-8 7-8 7-8 7.5-8.5 7.5-8.5 7.5-9 7.5-8 7.5-8 7.5-8 7L58 93m-7.5 13.5l-8 7.5-8 7.5-8 8L19 138l-8 7.5-7.5 8"/><path stroke="#000" stroke-width="2" fill="none" d="M3 153.5l8-.5 8-.5 8-.5 7.5-1H42l9-.5 8.5-.5m0 1l-8.5 7.5-8 7-8.5 7.5-8.5 7-8 7.5-7.5 7-8 7.5"/><path stroke="#000" stroke-width="2" fill="none" d="M2 201.5l8.5-.5 8.5-.5 8.5-1.5 8.5-1.5 8-.5h8l8.5.5h8"/><path stroke="#000" stroke-width="2" fill="none" d="M69 196.5l-8 7-8 7.5-8 7.5-7.5 7.5-8 8-7.5 8-8.5 7-8.5 7.5m-1 1l8-.5 8-1 8.5-.5 8.5-1 8-.5 8.5-.5 7.5-.5h7.5"/><path stroke="#000" stroke-width="2" fill="none" d="M69 250l-8 8-8.5 7.5-8.5 8-9 8-8.5 8L18 297l-8 7.5-8.5 7m2 2.5l8-.5 8-.5 7.5-.5 8-.5 8-1 7.5-1 8-.5 8-1m2.5-1l-8 7-8.5 7.5-8.5 7.5-8 7.5-7.5 7.5-8.5 8-8 8.5-7.5 8m-1 .5l8-.5h16l8-.5 7.5-.5 8-1 8.5-1m14.5-.5l-8 7.5-8 7-8 7-8 7.5-8 7.5-8 7-8 7-8 7.5-8 7.5m0 2.5l8-1 8.5-1 8.5-.5h9l8-.5h8.5l7.5-.5 8-.5m8.5-2.5l-7.5 8-8.5 8-8 7.5-8 7.5-8 7.5-9 7.5-8 8-8.5 7.5-8 7m1 1.5h8l7.5-.5 7.5-.5 8.5-.5 8-.5 8.5-.5 8.5-.5 9-.5 8-.5"/><path stroke="#000" stroke-width="2" fill="none" d="M73.5 492l-8 7.5-7.5 7-8 8-8 8-7.5 8-8 7.5-7.5 7.5-8 7-8 8m1 1l8.5-.5 8-1 8.5-.5 8-.5 8-1 7.5-.5 7.5-.5h15.5"/><path stroke="#000" stroke-width="2" fill="none" d="M76 556.5l-8.5 7.5-8 7.5-8 7.5-8 6.5-8 7L27 600l-8 7-8 7.5-8 7m3-1l7.5-.5 7.5-.5 7.5-.5H36l8.5-1 8-.5 8-1h8l8.5-.5"/><path stroke="#000" stroke-width="2" fill="none" d="M74 609.5l-7.5 7-8 7.5-8 8-8 8-8 8-8 7.5-8 8-8 8-8 8.5m1.5-.5l8-.5h7.5l8-.5 8-.5h8l8.5-.5h8.5l8.5-.5 8.5-.5 7.5-.5h8m-2.5.5l-8 7.5-8 8-7.5 7.5-7.5 7.5-8.5 7.5-7.5 8-8 7.5-7.5 7-8 7m0 6l8-7 8-7 8-7.5 8-8 8-7.5 8-7.5 8-7.5 7.5-8 7.5-8.5 7.5-7.5m.5 6.5h8.5"/><path stroke="#000" stroke-width="2" fill="none" d="M82 674.5l-7.5 8-7.5 7-8 7-8 7.5-7.5 7.5-8 7L28 726l-8 7.5m-2-5.5l8.5-7.5 8-8 8-7 8-7.5 8.5-7.5 8.5-7.5 7.5-8 8-7.5"/><path stroke="#000" stroke-width="2" fill="none" d="M85.5 667.5H77l-8.5.5-8.5 1-9.5.5H42l-8 .5-7.5.5h-24m-1-1.5l8-1.5 8.5-1 8-1 8-.5 8-.5h8.5l8.5.5h17l8-.5m-7-5l-8.5 1-8.5 1-8.5.5H43l-8 1-8 .5-8 .5-8 .5-8.5 1M3 664l8.5-7.5L20 649l8.5-8 8-7.5 8-7 8-7 8-7 7-7.5 8.5-7"/><path stroke="#000" stroke-width="2" fill="none" d="M76 604.5l-8 7.5-8 7-8.5 7.5-8.5 7-8 8-8 7.5-8.5 8-8 8-7.5 7.5M2 675l8-.5 8.5-.5 8.5-.5 9-.5 8.5-.5 7.5-.5h8l8-.5 8.5-.5 8.5-.5h7.5l8-.5 7.5-.5"/><path stroke="#000" stroke-width="2" fill="none" d="M75 669l-8 7-8 7.5-8 7.5-8 7-8.5 7.5L27 713l-8.5 7m.5-7.5l8.5-7.5 8-7.5 8-7.5 7.5-7 7.5-7.5L66 669l8-7.5m1 6l8 1m-8-17l-8 7-8 8-7.5 7.5-8 8-7 7.5L28 697l-8 7m-8-1.5l8-7 8.5-7.5 8-6.5L44 674l7.5-7.5 7.5-8 8-7.5 8-7.5m0-7.5l-8 7.5-8.5 7.5-8 7.5-8 8-7.5 7-8.5 8-7.5 7-7.5 7L4 702"/><path stroke="#000" stroke-width="2" fill="none" d="M4 702.5l8-.5 8.5-.5 8.5-.5 8-1h8l8-1h23l8-.5 8-1 7.5-1 7.5-1 8.5-1h7.5l8.5-1H156l8-.5 8-1 7.5-1 7.5-1 8-.5 8-.5 8-1 8-1.5 8.5-1 8.5-.5 8-.5h8l8.5-.5 7.5-.5h23.5l7.5-1 8-.5 7.5-.5 7.5-.5 8-.5 8-.5 8.5-.5 8-.5 8-.5h8.5l9-.5 8.5-.5 7.5-.5 8-.5 8-.5 7.5-.5 7.5-.5 8-1 7.5-.5 8-1 7.5-1 8-1.5 7-1 8-1 8.5.5h7.5l8 .5 8 .5m3.5-9l-8 .5H500l-7.5.5-8.5.5h-17.5l-8-.5h-8l-8 .5-8 1-8.5.5-8.5 1-8.5 1-7.5 1h-7l-7.5.5-8 .5-8 1-8 .5h-8l-7.5.5-8 1H299l-8 .5h-15.5l-7.5.5-7.5 1-7.5.5-8 1-8 1-7.5.5h-8l-8.5 1"/><path stroke="#000" stroke-width="2" fill="none" d="M238.5 676.5l7.5 1 8-1 8 1 8-1 7.5.5h8l8-.5 8.5-1.5h8l8-.5 8-.5h8l7.5.5h7.5l8 .5 8.5-1.5 8.5-.5h16l8-.5h8l8 .5h8l8-.5h16.5l8-8 8-10.5 8.5-11 8-12-3.5 6-5.5 8.5-6 8-6 8-5 8m61.5 17.5l-7.5.5-7 .5-7.5.5H469l-8 .5-7.5.5H446l-8 .5-8 .5-8.5.5-8 .5H406l-8 .5-8 .5-8.5.5-8 .5-8.5 1-8 .5h-8l-8.5.5h-17l-8.5.5-8.5 1.5-8 .5-8 .5-8 .5-8 1-8 .5-8.5.5-8 1h-16l-7.5.5-7.5.5-8 1-8 .5-7.5.5-8 .5H180l-7.5 1-8 .5-8 1-8 1.5-8 .5-8 .5-7.5.5-8 .5-8.5.5H100l-8 .5h-8l-8 .5-8 .5-8.5.5m-7 7l7.5-.5 8.5-.5 8-.5 8.5-.5 8.5-1h7.5l7.5-1 7.5-.5h8l7.5-1h8l7.5-.5h16l7.5-.5 8-.5 8-.5 8-1 8 .5 8.5-.5 7.5-.5 8.5-1 8-1h8l7.5-.5 8.5-1.5 8-1 8-.5 8-.5 7.5-.5h8.5l8-.5h25.5l7.5-.5 8.5-1 8-1 7.5-1h8l8-1 8-.5 8-.5h8l8-.5 8-1h8l8.5-.5 8.5-.5 8.5-.5 7.5-.5 8-1h7.5l8 .5h7.5l8-.5 8-1 7.5-1m1 30.5l-8 1.5-8 .5-8.5.5-8 1h-15.5l-8 .5-7.5 1-8 1-7.5 1H429l-8 .5-8 1-8 .5-8 .5h-8l-8.5.5-8 1-8 1-9 .5-8 .5-8 1-8 .5-7.5.5-8 .5h-9l-8.5.5-8 .5H251l-8 .5-8 1-8.5.5-8.5.5-8 .5-8 .5-7.5 1.5-7.5 1.5-8 1-7.5.5H163l-7.5 1-8.5.5h-8l-7.5.5-8-.5-8 .5-8.5.5-8 .5h-8l-8.5 1-7.5.5-8 1-8 1-8 1-8 .5-7.5.5-8 .5-8.5.5-8-.5-8 1m.5-8l8.5-.5 8-.5 8-1.5 8-1 8-1 7.5-.5 7.5-.5 8-.5 8-1 7.5-.5h8l7.5-.5 8-.5 8.5-.5h48l8-1 8.5-1 7.5-.5 7.5-.5 8-.5 8.5-.5 7.5-1 8.5-1 9-.5 8-1 8.5-.5h16.5l7.5-.5 8-.5h31.5l8.5-.5 8-1 8.5-.5 8-1 8-.5 7.5-.5 8.5-1.5 8-1 8.5-1 8.5-.5h8l8.5-.5 8-1 7.5-1 7.5-.5 7.5-1h7.5l8 .5 7.5-.5 8-.5 8-.5 8-.5 8-.5 8-1 8.5-.5"/><path stroke="#000" stroke-width="2" fill="none" d="M514 686h-7.5l-7.5.5-8 1-7.5.5-8 .5h-16l-7.5.5-8 1h-7.5l-7.5.5-8 .5-8 1-8 .5-7.5.5-8.5 1-8.5.5H372l-8.5.5-8 .5-8.5 1h-8.5l-8 .5-8.5.5-8 .5-7.5 1-8 .5h-7l-7.5.5-8 .5-7.5.5-8 1-8.5 1-8 .5-8.5.5-7-.5H221l-8 .5h-8l-8.5 1-8.5.5-8.5 1.5-8 1H163l-7.5.5-8 .5-8 .5-7.5.5-7.5.5-8 .5-8 .5H85l-8 1-8 .5-8.5.5-8.5.5-8.5 1-8.5.5-8.5.5-8 .5-8 .5-8 1m0-6.5l8-.5h16M3 711l8-.5 9-.5 8-.5 8-.5 7.5-.5 8.5-1 8.5-1 7.5-.5h8l8-.5 8.5-.5 8-1 8-.5 7.5-1 7.5-.5 8-1 8-2 8.5-1 8-.5 8-1h16.5l8-.5 8-.5 8-.5 8-.5H244l8.5-1h31l7.5-.5 8-1 8.5-.5H323l8-.5 7.5-.5 8-1 8.5-1.5 9-1 8.5-.5 8.5-1.5 8.5-1 7.5-.5h8l8.5-1 8-.5h52l8-.5 7.5-1 8-1 8-1 8.5-1M516 660h-14.5l-8 .5-7.5 1h-9l-8 .5-8.5.5-8.5.5-8 1-7.5.5H429l-8 .5-7.5.5h-8l-8 1-8 1-8.5 1-8 1-8.5.5-7.5 1.5-7.5.5-8 1-7.5 1-8 .5-8 .5-8.5.5H301l-8-.5-8.5.5-8 1-8.5 1-8.5.5-8.5.5-8 .5-8 .5-8 1-8 1-7.5.5-8 .5H195l-8.5-.5H178l-8-.5-7.5.5H154l-8 1-8 1-8 1-8.5 1-8 1-8 .5-8 1.5-8.5 1-8 1-7.5.5-7.5-.5-8 .5h-7.5l-8 .5h-41"/><path stroke="#000" stroke-width="2" fill="none" d="M4 694.5l7.5-7.5 8-7 8-7.5 8-7L43 658l8-7 8-7 8-7.5 7.5-7"/><path stroke="#000" stroke-width="2" fill="none" d="M78 656.5l-8.5 1-8.5.5-8.5 1-8.5 1H10.5l-8.5.5m1.5-3l7.5-.5h8l8-.5 7.5-.5 8.5-1 7.5-.5 8.5-1 8-1 8-.5m41 27.5l-8.5 1-8 .5-8.5 1-8 1H67.5l-8 .5-8 .5h-31l-8 .5H4M3 697h8l8-1h25l7.5-.5H68l8-.5h8.5l8-1 7.5-1 8-.5 7.5-.5 7.5-1m-33.5 42l-7.5 7-8 7.5-8 7.5-7.5 8-8 8m-6.5-4l8-7.5 8.5-7 7.5-7 7.5-7 7.5-8m-7 0l-8 8-8 8-8 8-7.5 7.5-8 7.5"/><path stroke="#000" stroke-width="2" fill="none" d="M61 760l7.5-.5H77m.5-6.5h-15m-3.5-9h16l8-.5 8-.5h8l8-.5h8.5l8-.5 7.5-1 8-1h16.5m-5 2.5l8.5-2 7 3.5-1 4m14.5-8.5l-1 8 12 3 8.5-4-3 4"/><path stroke="#000" stroke-width="2" fill="none" d="M191 746.5l-2.5-8-8 1m-105-12l-8 .5-8.5 1m-.5 8l7.5-.5h7.5m1-6.5l8 1 7.5.5h16m-1.5-4h-8l-7.5-1-7.5 1-8-1"/><path stroke="#000" stroke-width="2" fill="none" d="M4 742l8.5-.5 8-1.5 8.5-.5 8-1 8-1h14.5l7-.5 7.5-1 8.5-.5 8-.5 8-.5 8.5-1 9-.5h8l8-.5 8-.5h8l8-.5 7.5-.5M156 627.5l8.5-7.5m5.5-1l-8 7.5m.5.5l7.5-.5m9-5l-7 .5-7.5.5-7.5.5-7.5.5M141 618l-8.5 7m-1.5-5l-7.5 7.5m-.5 0l8-.5m-6.5-6l7.5-.5h7.5m3.5 4l-3 4-5-2-8 3-8-1m-5-34l8-7.5m0-8.5l8-7.5m6.5 0l-3 8m5.5 7l-8 7.5m1.5 1.5l7.5-1m-7-3l-5.5 3 6 2-3 1.5 9-6.5 8-1.5h8l7.5-.5 7.5-1 7.5-.5h8l1 1"/><path stroke="#000" stroke-width="2" fill="none" d="M196.5 586.5l-8 .5-8 1h-8m-1.5-8l8-8m-1-1l-8 .5m-6 .5h-8m-11 .5l8 .5 7-.5h8l8.5 4m-13 9.5l-8 8m2.5 0l-7 .5m-2.5.5l8-7.5m5.5 1h-22.5l-8 .5m-8-1.5l-8 .5-8 1"/><path stroke="#000" stroke-width="2" fill="none" d="M109.5 588.5L108 594l-8-2-12-3 11.5 7.5 5-8m-2-8l8-.5 4.5-1.5 8 1.5m-14.5-7.5l8-.5 7.5-1h8l7-.5m-1.5-25l7.5-.5m10.5 1.5l8-7m.5 3.5l-8 4 8-4 6 4.5 7-5m-4-3.5l-8.5 8m-8-5l8-.5 8-.5 8.5-.5 8-1 8.5-1.5h8m14 2h8m1.5 2l-8.5 7m15.5-3l7.5-1m14 3l7.5-8m-2.5 1.5l8 2M270 533l8-7.5m5.5-1.5l-8 .5-8 .5m7.5 15.5l-8 1-7.5.5M248 529.5h-18l-8-1h-7.5l-2.5-2-8 4h-12l-2-7.5-8-.5h-8l-8 .5-8 .5h-8.5l-8-.5h-27l-8-1-8 2-8-.5m0 1.5l8.5-1"/><path stroke="#000" stroke-width="2" fill="none" d="M107.5 523.5h8.5l8-.5h15.5l8-.5m.5 1.5l-8 7.5m-.5-7.5v8l3.5 8.5 6.5 1 8-3 8.5-.5 7.5 2.5 8.5-2 8 1 5.5 6h8l8-7h15l8 1 8-1h16l.5 7 8-1m7.5-19.5l11-1.5m-17-15.5H252l-8.5.5M237 507h-7.5m.5 16.5l-8.5.5-8 1m-4.5-11.5l8-1h9.5l8-1 7 .5 4.5 1.5 5.5-5 5 5 6-3.5"/><path stroke="#000" stroke-width="2" fill="none" d="M266.5 505.5l-3.5 8 7.5-2.5m8.5-22.5h7.5l8-3m-3.5-2l8.5-.5m-7.5-6l-8.5 7.5m-4 4v8h2l8-4.5 9.5 4h8l5-4 8 4 7.5-3.5m-6.5-18l7-3 .5 8 2.5.5h8l8.5-1 8 .5-1-2 8-2.5 7 .5"/><path stroke="#000" stroke-width="2" fill="none" d="M369 480.5l-1.5-7H352l-8-.5h-7.5l-8-.5-8-.5-8.5 7-8-.5h-8l-8 1h-8l-7.5-1-1-2.5-6 2-8 1.5.5-3 8-7 4.5-6 3-8.5-6.5-1.5-16 4h-23.5l-7.5-.5-8 2h-8l-7.5-2h-16l-8 1-5.5-1-12 6.5-5-4-7 1 5-11 2.5-9h-6l3 .5m.5.5l8.5-1M155 444l8-7.5m2 5.5l8-7.5m5 3l8.5-.5 8-.5h8.5l8.5-1 8-.5 8.5-.5"/><path stroke="#000" stroke-width="2" fill="none" d="M219 458.5l-10-1-6 7.5 4.5 7.5.5 8 7-.5 8.5 1 6-7 8 2 6.5-2h17.5l8-4 8-13.5"/><path stroke="#000" stroke-width="2" fill="none" d="M278.5 454l-5.5 8.5-.5 9.5 8-1 7.5 1.5h21.5m-14-.5l-6 8.5m1-2.5l-8.5 1m-17-7l-8 4m-3 1l-8 1m.5-15.5h-8l-8-3.5-7 4H207m-12.5-27.5l-8 5-8-1h-8l-14.5 8-7.5 2-7.5-3.5-10-1-8.5 2-7.5-.5-2-2 1-8-12 5h-8l-8 2.5m-.5.5h8M98 454l8-.5m6.5 6l3.5 4 8.5 1m-.5-10l7.5-.5 7.5-1 7.5-1m-.5-10.5l8.5-8m0-5l7.5-7m9.5 4.5h7.5l8-1m1.5-5.5l-8 7.5m0-6.5l-8 7"/><path stroke="#000" stroke-width="2" fill="none" d="M171 435.5h-8.5l-8.5.5h-8.5l-8 .5m2.5 1.5l-2 4.5 2.5 7-14 8.5 1.5 5 4-.5 8-.5 8-.5"/><path stroke="#000" stroke-width="2" fill="none" d="M154 456h-8l-8-3-8 4-5-3.5-7.5 3h-8l-8 .5H93l-8 3m0-1.5l8 2m-2.5 7h8M97 472l-6.5 2 4-.5m-3 1.5l-7.5 7.5m-1-2.5l8-1 8.5-1m0-3l-8 7.5m4.5 7l-6 1-2.5 6 7-1 8 .5h7.5l8.5-1 8-2 12.5-4 8 1 8-.5.5 6.5 12-6h8.5l8-.5 8-1h7.5m-7 4l-7 .5-3 3"/><path stroke="#000" stroke-width="2" fill="none" d="M170.5 491l-8 2 2 1 8.5 4 8-1h14l8-.5 8-1.5 3-1 7.5-3-2.5 5m8.5-7.5l-1.5 8 8-.5 8.5.5 8-2 9.5 2.5 7-3m2.5-31.5l1-8m-13-2l1 8 3 2 11-4 8-7 9.5 1 7.5-5.5 8.5-2m-46.5-32.5l-7.5.5-7.5.5-8.5.5-8 1-8 .5-8.5.5-7.5.5-8.5.5-8 1-8 .5-8 1-8 1-8 .5-8 .5-8 .5h-8l-8 .5m1 6.5l8.5-7.5m-2 4.5l8-7.5m-8-13.5l-7.5 7.5m.5-3h8.5m7-5l-8 .5h-8m.5-8.5l8-7.5m-11.5 0l-7.5 8m1.5 6l-7.5 7.5m0-6l-8.5 8"/><path stroke="#000" stroke-width="2" fill="none" d="M90.5 407.5l-3 2.5-.5 13.5 2 2-1.5 3 8-.5 7.5 2 7.5-1.5 8.5 1 11.5.5 7.5.5 12.5-7.5 8 1h8l8.5-1h29l8-.5 8-4 3.5 1.5 5.5 2.5h15.5l7.5 1 12 4h7.5l7.5 2h12l6.5-5.5 10 3.5h5.5l7 2h9l8-2 8.5 2 8-1m-58-36l12-2.5 3 5-11-2-8-2-4.5 4h-8l-9-1.5-8.5 1.5h-8l-7.5 1-8 .5h-11.5l-8 .5h-3l-8-3.5-8 3-8.5-.5-8-3.5-6 2.5-8 1.5-12-6.5h-7.5l-6-3.5-8 4-8 .5h-8l-7.5-.5-5-2-2-2-4 7-5.5-.5-7-2v-4"/><path stroke="#000" stroke-width="2" fill="none" d="M91 387l.5 8 12.5-2 12 4 7.5-.5 6.5-.5 8 .5h3.5l7.5.5 8-1 12-6.5h8l8.5-1 8.5.5 8 1h8.5l8 .5h8l10-.5 8-.5h8.5l7.5 1h8l8-1.5 8 1.5 8-1 7.5 1h8l8 .5 6-1h19l8-.5 8 1.5h29.5l8.5-.5-5 6M364 271l8.5-1 8-1 8.5-.5 8-.5 8-.5 7-.5 7.5-1 7.5-1 8-1 8-.5 8-1 8.5-.5h17l8-.5h8l8-.5 8-.5 8-.5m-.5-42l-8 1-8 .5-8 .5-8 .5-8.5.5H467l-8 1-8 .5-7.5 1-8 1-7 .5-7.5.5h-8l-8.5.5-8.5.5-8 .5-8.5 1H371l-7.5 1H348l-7.5.5"/><path stroke="#000" stroke-width="2" fill="none" d="M346 227l-13 8-4 8-2.5 8 1 5.5 8 1 8 .5 8-.5h8"/><path stroke="#000" stroke-width="2" fill="none" d="M332 246h8l8-.5 8-1 7.5-.5 8-.5 7.5-.5 8.5-.5 8.5-.5 8-.5 8-1 8.5-.5h7.5l7.5-1h7.5l7.5-1 8-.5 8.5-.5h8l7.5-1h8.5l8.5-.5 8-.5 8.5-.5M515 75h-16l-8 .5h-23l-8 .5-8.5 1.5-8 1-8 .5-8.5.5-7.5.5H388m-80.5 9.5h15l8-.5 8-.5 8.5-.5h8l8.5-.5 8-.5 8.5-1 8-.5 7.5-.5h15l7.5-1 8-.5 8.5-.5H451l8.5-.5 8.5-1 8-.5 7-1 7.5-.5 8-1 8-1.5h8m1 151h-8l-8.5 1-8 .5h-8l-7.5 1-8 .5-8-.5H452l-7.5.5-8 .5-8 .5H421l-8 .5-8 .5-8.5 1-8 1-7.5 1h-8l-8 1h-8.5l-9 .5h-17"/><path stroke="#000" stroke-width="2" fill="none" d="M326 249l8-15 8.5-5 7.5-2.5 8 .5 8 .5h8l8-1 7.5-3.5m-66 30.5l8-1 8-.5h25l7.5-.5h8l8-.5 8-1h8l8.5-1 8-1 8.5-.5 8-.5 8-.5 7-.5 7.5-1 7.5-1 8-1 8-.5 8-1 8.5-.5h17m-1-148h-8l-7.5.5-8 .5h-8l-7.5.5-8 .5-8 .5H452l-8.5.5h-24l-8 .5-8 .5-7.5.5-8 .5-8 .5-8 1-8 .5-7.5 1-8 1.5-8 .5-8 1-8 .5-8 1-8.5.5-8 .5M244.5 135l8-1 8.5-1 8-.5 7.5-.5 7.5-1 8-1 8-1 8-1 7.5-.5 7.5-1 8.5-.5H372l8-1 8.5-.5 8-1.5h8l8.5-1 7.5-.5h8.5l8-.5 8-.5 7.5-.5 8-.5 8-1 8-1 7.5-.5h31.5M234 229l-8 7.5m4-5h7.5m-11-2.5l-8 7.5m-7-3.5l8-7.5m3-.5h8.5l-8.5-.5-2 7.5-6 6m-4.5-8.5l-7.5 7.5m1.5-3.5l8-1m-3 3l-2-8.5h2m-8.5 1.5l-8 7.5m-6.5-1l8-7.5"/><path stroke="#000" stroke-width="2" fill="none" d="M194 224l1 8 6.5-5.5 2 2 7 3.5m-23-3l-8 7.5m-2-9l-8 7m-5.5-1l8.5-7 7.5-7m0 0l-8 1-8 .5m-1.5-2l-3 8"/><path stroke="#000" stroke-width="2" fill="none" d="M158.5 226l8-6.5 8-.5m-8.5 3.5l1 8m-3-1l7.5-.5 8.5-.5 8-.5 8-1 8.5-.5 7.5-.5 7.5-.5 8-.5 8-.5m-7.5-20l-8 1m0-8l8-.5m-2.5 2.5l-8-6-7.5.5m0 0l6.5 8-5 8 3-3m-4-2.5l-8 .5m2.5-7.5h8"/><path stroke="#000" stroke-width="2" fill="none" d="M216 198.5h-5l-8-6h-8.5m.5.5l6 8.5-4 8v-.5"/><path stroke="#000" stroke-width="2" fill="none" d="M183.5 202.5l3 1-9 2 2 2L174 220l-1 8-11 2.5 8 2h2l9-9 9.5-1 7.5 1h8l8-.5.5 4 12 4-1-4 6 2"/><path stroke="#000" stroke-width="2" fill="none" d="M211.5 207l-8 6.5-13.5-5-2.5-5.5-3 5-4.5-1-8 .5-12.5 1 2-1-9-1-14 2-8-.5-11.5-7-8.5 7.5-3-5-9 3-3-2.5v-8m-4 3.5l1 8"/><path stroke="#000" stroke-width="2" fill="none" d="M87.5 199l7.5-2 8 3 4 5-2.5.5 4 1m7.5-4h8m10.5-2l.5 8-2.5 2m-2 10l-8 7.5-8.5 8"/><path stroke="#000" stroke-width="2" fill="none" d="M108.5 235l8-.5 8-1.5 8-1m-4-3.5L121 236m2-10h8.5m8.5-4l8-.5h8m1.5 0l-8 7-9 7.5"/><path stroke="#000" stroke-width="2" fill="none" d="M139 232l8-1 7.5-.5m1.5-1.5l-8 7m0-4.5h8m7 2l8.5-.5m-17-2l-4.5-8h0m-4 1.5l8.5-.5"/><path stroke="#000" stroke-width="2" fill="none" d="M150 233h-8l-2.5-5 2.5-8.5h8-8.5M147 206l8-.5m-.5-6.5l-8 .5m1-2.5l-2 8H144m5.5 2v-8m2-.5v8l5 1 4-6 8-.5h8l7.5-.5m-4.5 3l-7.5.5m4.5-1l-2.5 4 3.5 12v7.5l2.5 3 5-2 7.5 5m-8.5-1l3-8"/><path stroke="#000" stroke-width="2" fill="none" d="M167 203.5l-3 1h-1.5m-1-5l-8 3M145 196l8 1-14 5.5-5 .5-7 .5-2.5.5 3 6.5-4 11 4 3-4 6-2 1-2 3 5-9 2 7.5 4.5-8.5-1 6m.5-8.5l-8 1m-3.5 1l-7.5 1-8-1-1 9.5-1-8-3 4.5 1-8-5.5-1.5-8-2.5"/><path stroke="#000" stroke-width="2" fill="none" d="M89.5 219l4 3.5-7 2v8l4-4L96 232l13 .5m-1 1.5l8.5-7.5m1-3l-3 8m-1 .5v-8m-6 4.5h8l7.5-.5h8m-15 30l-8 8m0 0l7.5-.5m2 2l1-.5-1 7.5v8m6 0l7.5-8 8-7"/><path stroke="#000" stroke-width="2" fill="none" d="M137.5 268.5l1 8-1 8-.5 1.5m-3.5-3l8-7.5m5 .5l8-7.5m0 4.5v8m.5-.5l8-.5m0-5l-8 8m.5-2.5l8.5-.5m.5 6.5l7.5-1m.5-8H188l7.5-.5m0-3.5l8-1 8.5-1m-1-3l-8.5 7.5m3 1l8.5-.5 8-.5 8-.5h7.5l8-.5m-12 1.5L226 284"/><path stroke="#000" stroke-width="2" fill="none" d="M217.5 283.5l8.5-7 8-7m1-1.5l1.5 8 1.5 8-6 2m-4.5-16l-8 7.5-8.5 7"/><path stroke="#000" stroke-width="2" fill="none" d="M204.5 281h16l8.5-.5"/><path stroke="#000" stroke-width="2" fill="none" d="M222.5 281.5l5-6.5 3-8"/><path stroke="#000" stroke-width="2" fill="none" d="M237.5 267l-8 .5-8.5 1m-5.5-1.5l-2 7.5-2 8m-3-6.5l-7.5 7.5m1.5 2l-8.5 1m-7-3.5l8.5-7.5 8-7"/><path stroke="#000" stroke-width="2" fill="none" d="M200.5 273l-6 7 4-8"/><path stroke="#000" stroke-width="2" fill="none" d="M193.5 268l-6 7.5 2 8 10-2M189 278l-8 7"/><path stroke="#000" stroke-width="2" fill="none" d="M179.5 281l8-.5 8.5-.5m-8-7.5h-8l-8.5.5m-1 3l7.5-7.5m-.5 5l.5 8m1.5-4.5l8-7.5M184 268v16"/><path stroke="#000" stroke-width="2" fill="none" d="M186.5 274l8-8h8l.5 1 6.5 8.5-3 8"/><path stroke="#000" stroke-width="2" fill="none" d="M212 266.5h-16l-8.5.5-8 1-8 .5m-3-1l-1 8-3 8m-1-12.5l-7.5.5-8 1m2 .5v2l-1.5 8m5-8.5l8-8"/><path stroke="#000" stroke-width="2" fill="none" d="M161.5 267.5v8l-.5 8.5"/><path stroke="#000" stroke-width="2" fill="none" d="M162 268h-16l-7.5.5-7.5.5m-6.5-3l-8 8-8 8m-.5.5l8-.5 8-.5h15.5m-8-2l1.5 8m-8-2.5l4.5-8"/><path stroke="#000" stroke-width="2" fill="none" d="M124.5 276l-7.5 7.5-8 7.5m-.5-1l7.5-.5m1.5-3H110"/><path stroke="#000" stroke-width="2" fill="none" d="M109.5 278l8-.5h8l8-.5 7.5-.5 7.5-.5"/><path stroke="#000" stroke-width="2" fill="none" d="M143 267.5l-1 8v8l3.5 4h14l12-1.5 16.5-5.5 8 7.5 8-1 10 .5 11.5-1 9.5 1M220 307l-8 7.5m-1.5-6.5l-8.5 7.5m2-6.5h8.5l8-.5M207 306l.5 8m4 10.5l-8 7m-1.5 7l8-.5m0-14.5l-8 .5m19 1.5l8-.5m5 4.5l1-8M202 303l-8 1"/><path stroke="#000" stroke-width="2" fill="none" d="M199 304l-6 8 6 .5 15.5 1H225l8 1.5h8l5-2.5 9 1 7-.5 12-7 8 .5h24M269.5 351l-8.5 10-5 11 3-5.5 3-7.5v-8m-59-2h-8m-8 2l-8 .5m1.5 3l-2.5 2m2.5-1l8-5 8-5L205 335l-.5 5 3 2.5-7 8M189 331h-8m1-7.5l-8 7-3-4-7 7 7.5-7m-9.5 4h-15.5l-.5 6-8 3-1.5 4.5 5 2-8 6-8 1.5v7m0 2.5l8-7m5.5 2l8-.5m5 3.5l8.5-3.5m2.5-3.5l8-7.5m-.5.5H163l-8 .5m-7.5-7.5l-7.5 7.5"/><path stroke="#000" stroke-width="2" fill="none" d="M137 345.5l11 1-6 8-3 2 8.5-9 10 5 6.5 1 3.5 5.5 8-2 8 1.5 8-3m4 31.5l-7.5 7.5m.5-3.5l7.5-.5 7.5-1.5 7.5-1m-6.5-.5l-8 7.5m-.5 11.5l-8 1m-9-3.5l-8 .5h-8.5m1.5 5.5l8-7.5m4.5 8v-4l-11 7h7l8 .5 6.5-1 8-.5V410m-23.5-21.5H164l-8.5.5m.5 7l8-7m.5.5l1 8 2.5-5"/><path stroke="#000" stroke-width="2" fill="none" d="M155.5 403l-2 8-3-.5 6.5-3 9-1 8 .5 9.5-.5 8.5 1m-38-5.5l-8.5.5-11 2.5-9-.5-8.5 1-8-1-8 .5-8 1-8-.5m5.5-1l8-.5 8-.5 8.5-1m0-12.5h8.5l8-1"/><path stroke="#000" stroke-width="2" fill="none" d="M145.5 386.5l-4 8 6.5 8-2.5 8.5-7 2"/><path stroke="#000" stroke-width="2" fill="none" d="M139 413l-8 1-7.5-2-8 1.5-9.5-.5-7-1-4-2-8 6m-1.5 9.5l8-2h16l8 1 7.5-1 8-.5 8-.5 12 7 8.5.5 8-1h8l7 2 8.5-1m-19.5 44.5l-3.5 5h-8.5l-8-1.5-6.5 4-2-1-.5-8.5M127 480l-3-5m11.5 21l8-2 8-2 11.5-2m40 20.5l8-.5m1 70.5h-8m-2 5.5l-4 8 5 1 .5-6m6.5-3.5l-2 8 7.5 2 8-1L234 599l8-6m2-.5l8-8"/><path stroke="#000" stroke-width="2" fill="none" d="M250 578l-7.5 7.5-7.5 8m-1-6l-8 7.5"/><path stroke="#000" stroke-width="2" fill="none" d="M213.5 586.5h8l7.5-.5 8-.5h7.5l7.5-.5m8 4.5l8-.5h24.5m-10-2l-8 7.5m-5.5 1l8-7.5m10.5 6l-13 3H269l3.5-.5-9-3 5 3-8-3m-8.5-14h-8.5m0 40.5l8-.5m0 0l-8 7m-3-1.5h-2l-5 2.5 9 1.5h8.5l8 1 8-.5h21.5m-.5-.5l3-8m-7-1.5l-8 .5-8 1-8 .5"/><path stroke="#000" stroke-width="2" fill="none" d="M269.5 619l4 8 3-2m28-6l1 8m-14-39l3 1-7.5-1-10.5 1h-16l-8.5 1.5-4.5 6-8-.5-4-6h-8l-8-.5H212l-8-4-10 10-8-1-6.5 2-5-4-6.5 4h-8l-8.5.5-9-2-2-6-8-.5-12 6-2-5-11-5-8.5 5-4-3.5h-8l-2 7 4-7.5-1.5-13 4.5-1-6.5 7"/><path stroke="#000" stroke-width="2" fill="none" d="M84.5 579l8-3 8.5-3.5h8l7.5.5 8.5-3.5-4 3.5 4.5 1 12.5-4.5 1 7 7 1.5h8l9 .5 8-2.5m24 41.5l-8 8m1.5-3l7.5-.5 8.5-1 8-1 8.5-1m-3.5 1.5L210 628m-6.5-1l8-7.5m-.5 2.5l-7.5.5m-3-2l-8 7.5m-11.5-2.5l-13.5-3-3 8 7-.5 8-.5 9-4 7.5 5 8-1 8 1.5m12.5-1.5l3-8.5m1.5-1l1 8-2.5-4.5m-97-83.5l-7.5 7.5m-8.5-1.5l8.5-7.5m.5-5.5h-8m-2-1.5l7.5-3 14-2 10 2 8-3 9.5 2 8 1 8 1"/><path stroke="#000" stroke-width="2" fill="none" d="M132 523l-7.5 8-8 7.5-8.5 7m-1.5-4.5l-7.5 7.5m0-2l8-.5 8-.5m-9.5 1l-3.5-3m-1.5-5.5l-8 8"/><path stroke="#000" stroke-width="2" fill="none" d="M89.5 540.5H98l8-.5 8.5-.5 8-.5h8l8-.5 7.5-.5m-23.5-15l-8 7.5"/><path stroke="#000" stroke-width="2" fill="none" d="M114.5 524l-1.5 4.5 3 9 2.5 5 1 1 7 3 2-5M116 523l-8 7.5"/><path stroke="#000" stroke-width="2" fill="none" d="M84 538.5h8.5l8 1 8-.5 8.5-2.5 6.5 4 8-1 8.5 1.5 8.5-2M77 539l-8 8-8.5 7.5-8 7.5-7.5 7.5-8 7.5-8.5 7-8 7.5L12 599l-8 7"/><path stroke="#000" stroke-width="2" fill="none" d="M4 605.5l7.5-.5 7.5-1 8-.5 7.5.5H42l8.5-1 8.5-.5 8-.5 7.5-.5"/><path stroke="#000" stroke-width="2" fill="none" d="M76 588.5l-8 7.5-8 7-9 7.5-8.5 7.5-8.5 8-8 7.5-8 8.5-8 7.5-8.5 7.5"/><path stroke="#000" stroke-width="2" fill="none" d="M.5 654.5H9l8.5-1 8.5-.5 8.5-.5 8.5-1 8-1 7.5-.5 7.5-1h8m1-4.5l-8 .5-7.5 1-8 .5-8 1.5-7.5.5-8 .5-8 .5-8.5 1h-8m-1-2.5l8.5-7 8-7.5 7.5-7.5 7.5-7.5 8.5-8.5 8.5-8 8-8 9-7.5 8-8m-1.5-5l-8 7-8 7L50 595l-8 7-8 7.5-7.5 7.5-7.5 7.5-8 7-8 7.5"/><path stroke="#000" stroke-width="2" fill="none" d="M3.5 639l7.5-.5h7.5l8-1 8.5-2 8-1 8-.5 8.5-1 9-1 8.5-1m-1 10.5h-7.5l-8 .5-8 .5-8 1-8 .5-7.5.5-8 .5-8 1-8 .5m-.5-4l8-.5 7.5-1 8-.5 8-.5 7.5-.5 8-1 7.5-1 8.5-.5 8.5-.5m0-8.5l-8 .5-8.5.5-8 1-8 .5-8 1-8 1-7 1h-7L6 634m-1-2l7.5-1 7.5-1 8-1 8-1 7.5-1 8-.5 8-.5 8-.5 8-.5m0-4.5l-7.5.5-8 .5-7.5 1.5-8 1-8 .5H29l-7.5.5h-8l-8 .5"/><path stroke="#000" stroke-width="2" fill="none" d="M4 631l8-7 8-7.5 7.5-8 7.5-7 8.5-7.5 7.5-7 7.5-7 8-6.5 8-8m7.5 9l8.5-.5"/><path stroke="#000" stroke-width="2" fill="none" d="M74.5 588.5l-7 1H52l-7.5.5-7.5 1-8 .5-8.5.5-8 .5-8 .5m1-1.5l8-8 7.5-8 7.5-8 8-7.5 7.5-7.5 7.5-7 7.5-7 8.5-8L75 523"/><path stroke="#000" stroke-width="2" fill="none" d="M76.5 529l-8 7.5-8 8-8 8.5-8.5 8-7.5 8-8.5 8-7.5 7.5-7.5 7-7.5 8"/><path stroke="#000" stroke-width="2" fill="none" d="M5 597.5l8.5-1 8-.5 7.5-.5 7-.5 7-1h8.5l8-.5H76m-2.5 12l-7.5.5H43l-8 .5-8 .5-8 .5-8 .5-8 .5m1 3.5l7.5-.5H19l7.5-.5 7-.5 8-.5 7.5-.5 8.5-.5 8.5-.5 8.5-1m.5 4l-8 .5-8 .5-7.5.5-7.5.5-8 .5-8 .5-8 .5-8 .5-8 .5"/><path stroke="#000" stroke-width="2" fill="none" d="M4.5 613.5L12 606l8-8 8.5-8 8.5-7.5 8-6.5 8-6.5 8-6.5 8-6.5 8-7.5m-3-34l-7.5 7.5-7.5 8-7.5 7.5-7.5 7.5-7.5 7.5-8 7.5-7.5 8-8 7.5-7 8"/><path stroke="#000" stroke-width="2" fill="none" d="M5 585.5l8-.5 8-.5 7.5-.5 7.5-.5 7.5-.5 7.5-.5 8-.5 8-.5 7.5-.5m1 17l-7.5.5h-8l-8 1-8.5.5h-8l-7.5-.5-8 .5-8.5.5-8.5 1M6 591l7.5-.5 7.5-1 7-1.5 7-1 7-1h8l8-1 8-.5 8.5-.5m0-6l-7.5.5h-8l-8.5.5-7.5 1h-7.5l-8 .5-8 1-8 1-7.5.5m.5-4.5l8-1 8-.5 7.5-1h8l8-.5h7.5l8-.5 7.5-.5h8.5m0-4.5l-8 1.5-8 .5H52l-8 .5-7.5.5-7.5.5H13l-8.5.5"/><path stroke="#000" stroke-width="2" fill="none" d="M4.5 576.5l8-8 8.5-8 8-7 7.5-7.5 7.5-7.5 7.5-7 7.5-7 8.5-7.5 8-7.5m-1-8L67 509l-8 7.5-7.5 8L44 532l-7.5 7.5-7.5 7-8 7-8 7-7.5 7.5"/><path stroke="#000" stroke-width="2" fill="none" d="M5 569.5l7.5-.5 8-.5 8.5-1 8.5-1 8.5-.5h14l7.5-.5 7.5-1m-1-5l-8 .5-8 1-7 1-7 .5-7.5 1-8 1-7.5.5-7.5.5h-8M6 557h8l8-.5 8-.5 7.5-.5 8-1 7.5-1 7.5-.5 7.5-.5h8m0-5.5l-8 .5-8 1-8 .5-8 1-8 1-8 1.5-8 1-7 1-8.5.5m-1-4l8.5-.5 8-.5 8.5-1 7.5-1.5 8-1.5 8-1 7-.5 7.5-1 7.5-1m.5-4l-8 1-8 1-8 1-7.5.5-8 1-8 1-8 .5-8.5 1-8 1"/><path stroke="#000" stroke-width="2" fill="none" d="M1.5 552l8-8 8-8 7.5-7.5 8-7.5 8-8.5 8-7.5 8-8 8-8 8-7m-.5-7l-7.5 8-7.5 7.5L50 498l-8 8.5-8 7.5-7.5 8-8 7-8.5 7.5-8 7.5"/><path stroke="#000" stroke-width="2" fill="none" d="M3 540.5l8-.5 8-.5 8-.5h16.5l7.5-1 7.5-1 8-1h7m1-3.5l-7.5.5-8 .5-8.5 1-8.5 1-8 1-7 .5-8 1-8 .5H3m-.5-2l8-1 8.5-1 8.5-1 8-.5 8-.5L52 531l7.5-1 8-1 7-1m.5-3l-8 1-8.5.5-8 .5-7.5.5-8 1-7.5.5-7.5 1-8 .5-8 .5"/><path stroke="#000" stroke-width="2" fill="none" d="M3.5 535l7.5-7.5 7.5-7 7-7.5 7.5-7.5 8-7.5 8-7.5 8.5-7.5 8.5-7.5 9-8m.5-8.5l-8.5 7.5-8 8-8 7.5-8 7.5-8.5 8-7.5 7-8 7-8.5 7.5-8.5 7"/><path stroke="#000" stroke-width="2" fill="none" d="M5.5 524l7.5-.5 8-1 8-1 8-1 7.5-.5 8-1h8l7.5-.5 8-.5m-3 4l-7 1-7.5 1-7 1H44l-7.5.5H29l-7.5.5-8 .5-7.5.5m-1-8l8-.5 8-.5h8l8-.5h8l7.5-.5 8.5-1 8-1.5 8.5-.5m-1-4.5l-8 .5-7.5 1-8 .5-8 1-8 .5-8 1H13.5l-7.5.5m-.5-4.5l7.5-.5 7.5-.5 8-.5 8-.5 8-.5H68l7.5-.5m2-5.5l-9 1-8.5.5-8 .5-8 .5h-8l-8 .5H12.5L4 505m-.5-2l7.5-7.5 8.5-7 8-7L36 474l8.5-7.5 8-7.5 8-8 8.5-7.5 7.5-7.5"/><path stroke="#000" stroke-width="2" fill="none" d="M75.5 444.5l-8 7.5-7.5 8-8 7.5-8 7.5-8.5 7.5-8 7-8.5 7-8.5 7-8 7M3 518l8.5-7.5 8-7.5 8.5-7 8.5-7 7.5-7 7.5-7 7.5-7 7.5-7 8-8"/><path stroke="#000" stroke-width="2" fill="none" d="M75.5 472.5H67l-7.5.5-8 .5h-8l-7.5.5-7.5.5-8.5.5-8.5.5-8.5 1m1-2.5l8-1 8-1 8.5-.5h8l8-.5h8l8-1 7.5-.5 7.5-.5m0 11l-8 1-8.5.5-8.5.5-8.5 1-8 .5-8.5.5-8.5.5-8 .5-8.5 1"/><path stroke="#000" stroke-width="2" fill="none" d="M4 486.5l7.5-6.5 8-7 8-7 8.5-7.5 8-7.5 8-7.5 8-8 8.5-8 8-7.5m0-9l-8 7.5L60 426l-8 8-8 8-8 8-8.5 8-8.5 7.5-8 8-8 7"/><path stroke="#000" stroke-width="2" fill="none" d="M3.5 480l7.5-.5h8l7.5-.5H42l8-1 8.5-1 8.5-.5 8-.5m3 12l-7.5.5-8 .5-8.5.5h-8l-8 .5-8.5 1-8.5 1-9 .5-8 1m0-4l8-1h8l8-.5 8-.5 8-.5 8.5-.5 7.5-1 7.5-.5 8.5-1m7.5 5.5l8 .5 8.5 1 8-.5h8.5l8-1 3.5 3.5m-26-21l-7.5-2h-8"/><path stroke="#000" stroke-width="2" fill="none" d="M87 469l-1 8 2 1.5 6 2.5 7.5-4 12-4.5 8.5 1h8l8-.5v8l8-7h8l8.5-1.5h8l8 .5 8-.5h8l8-.5 10-4-1 3 8 2 10 3m-97-37.5l-8.5.5-7.5.5m-.5 2.5l8-.5m-2.5-5L114 444"/><path stroke="#000" stroke-width="2" fill="none" d="M106 437.5l-6 3-.5 7 7-2 7-9 8 3 8-2 2 4 8-5 8-.5 8 2.5 8-2.5 2 4 3 4.5 4 3 7-4 3 3.5m-33-34.5v-8M117 419l-8 7.5m-3-4h8.5m.5-1.5l-8.5.5-7.5 1m-22-20l-8 7.5-7.5 7.5L53 425l-9.5 8-8.5 7.5-8 8-8.5 8-8.5 8-8.5 8M4 471l8-.5 8.5-.5 8-.5 8.5-.5 7.5-1 8.5-1 8-1 8.5-1h8"/><path stroke="#000" stroke-width="2" fill="none" d="M77 460.5l-8 .5-7.5 1-8 .5h-8l-8 .5H30l-8 .5-8 .5-8 .5m0-3.5l8-.5 8-.5 8-.5 8.5-.5 8-.5h8l8-.5H78m-1-5l-8 1-8.5 1-8 .5-8 .5-8 .5h-34m1-1.5l8-7.5 8-7.5 8-7.5 8-7.5 8.5-7.5 8.5-7.5 8.5-7 8.5-7 8.5-7.5m-2.5-6.5l-8 7.5L60 397l-8 7.5-7.5 7-8 7.5-8.5 7.5-9 7-8 7-8 7"/><path stroke="#000" stroke-width="2" fill="none" d="M1.5 448.5l8.5-.5h9l8-.5 8.5-.5H60l8-.5 8.5-.5m-1 4h-8l-8 .5-8.5.5-8 .5-8.5.5-8.5 1-8 .5h-8l-7.5.5"/><path stroke="#000" stroke-width="2" fill="none" d="M2.5 463l8-6.5 8-7.5 8.5-7.5 8-7.5 8.5-7.5 8.5-8 8.5-7.5 7.5-7.5 8-7M74.5 373l-8 7.5-8 7.5-8 7.5L43 403l-8.5 7.5-8 7.5-8.5 7.5-7.5 8-8 7.5"/><path stroke="#000" stroke-width="2" fill="none" d="M2 441l8-.5 8-.5 8.5-.5 8.5-.5 8.5-1H52l8.5-.5h8l8-.5m0 4l-8 .5-8.5.5-8 1h-8l-8.5.5-9 1h-8l-8-.5H2m0-6.5l8-1 7.5-.5 8-.5h9l8.5-.5h8.5l8.5-.5 8.5-.5 8.5-1m1-8.5l-8.5 1-8.5.5-9 1-8.5.5H35l-8.5.5h-8l-8.5-.5-8 .5m1-3l8-.5 8-.5 8.5-.5h17l8.5-.5h8l8-.5m6.5-4l-8.5.5h-8.5l-8 .5-8.5 1H19l-7.5 1-8 .5M2 421l8.5-7 8-7.5 8-7 8-7 8-7.5 8-7.5 8-6.5 7.5-7 8-7.5m.5-8.5l-8 7.5-8 8-8 8-8 7.5-8 7-7.5 7.5-7.5 7.5-7.5 7.5-8 7.5"/><path stroke="#000" stroke-width="2" fill="none" d="M4 417.5l7.5-.5 7.5-1 8-1 8.5-.5 8.5-.5 7.5-.5h23m1-5.5h-8l-8 .5-9 1-8.5.5H26.5l-7.5.5-7.5 1-7.5.5m0-3l8-7.5 8-7.5 8-7.5 8.5-7.5 7.5-7.5 7-8 8-7.5 8.5-8 8-7.5m0-8L67 340l-8 7.5-8 7-7 7-7.5 7-8 7.5-8.5 7.5-7.5 8-8 8"/><path stroke="#000" stroke-width="2" fill="none" d="M4.5 402.5l8-1 8-.5 8.5-.5 8-1 8-.5 8-.5h7.5l8-.5h8m-9.5 8l-8 .5-8.5 1-7.5.5H27.5l-7.5.5h-7.5L5 409m-1-2.5h24l7.5-1h7l8-.5 8-.5h8l8-.5m3-9.5l-8.5.5H20l-8 .5-9 .5m.5-3.5L11 385l7.5-8 8-7.5L35 362l8-7 8-7.5 8-7.5 8-7m2-7.5l-8 7.5-8.5 7.5-9 7L35 355l-8.5 7-7.5 7.5-8.5 8-8 8"/><path stroke="#000" stroke-width="2" fill="none" d="M4 385l8.5-.5 8.5-.5 8-.5 7.5-.5 8-1H70m-1 9.5l-8.5-.5-8.5-.5-8.5-.5-7.5.5-8 .5-8 .5-8 .5-8 .5m1-3l8-1h8.5l8-.5 8-.5 8.5-.5h7.5l7.5.5h7.5l8.5-1m.5-8.5l-8.5.5h-8l-7.5-.5h-8l-8.5 1-7.5 1-8 1-8.5 1-8 .5m-1.5-4l8-.5 8.5-.5 8-1 8-.5 8-.5 8-.5 8-.5 8-.5m6-4.5l-8 .5-8 1-7.5 1-8 1-8 1H26l-7.5.5-8 .5-8.5.5"/><path stroke="#000" stroke-width="2" fill="none" d="M3.5 376.5l8-8 8-8 8-8 8-7.5 8-7.5 8-7.5 8-7.5 8-8m1-14l-8.5 7-8 7-8.5 7L36 329l-8 7.5-7.5 7-8 7.5-8 8"/><path stroke="#000" stroke-width="2" fill="none" d="M5.5 357l8-.5 8-.5 7.5-1 7-.5h8l7.5-.5 7.5-1h14m20-21.5l8.5-7.5m4 .5l-7.5 8m-5.5-3l8-1 7 1 7.5-.5 9.5 1h8m6-3l8-1 8-1m-1-2l-7.5 7.5m-5.5 2l8.5-8m-6-1.5l-2 8.5 1 5-8 8-.5 8-8.5 2 2 1.5 5.5 12 4 .5 2-8 7.5 1 8.5-9.5 8 2.5 3 1m-19-14h-8"/><path stroke="#000" stroke-width="2" fill="none" d="M136 344.5l8.5-6-1 6-6 8-3 8 5 3.5 2 2-3.5 5m-7.5-15.5l-8 .5m-6.5-24.5l8-7m-9.5-.5l-7.5 8m-8.5-16l8-7.5m-4.5 0l-8.5 7m2-9l8-1h8l8-.5 8 1m4.5 1l-7.5 8m-2.5-6.5h16.5m2-1l-8 7m1.5-1.5h8l7.5.5 11 .5 8-1m3.5-3.5l-8 .5m14-1l8-.5m3.5-1l-8.5 8m-2 0l8-.5m-4 6l1.5 4 10.5 5 12-3 14-3m-35-9.5h-9l1-8m-7-20.5l3.5-8v-3.5m40.5-7l8 2 9.5-2.5m-52.5 0h-28l-8 .5-9.5-.5-8 7-1.5 11.5-11 8.5-8.5-6-8-.5-7.5 6-4-4.5v-8l6-8.5v-8l3-8"/><path stroke="#000" stroke-width="2" fill="none" d="M91 259l8-1 8.5 1 5 3v8l-.5 8 3.5 7.5-7 3m0-12.5l8-7.5M115 273h-8"/><path stroke="#000" stroke-width="2" fill="none" d="M106.5 267.5l8-.5 8 .5m-6.5-6l-8 .5-7.5 1-8 1m-.5 3.5l8-1m-1.5-1l1-1-.5 7.5-2 7.5h7m-2-3l-8.5 7m-.5-7h7.5m0-7.5l-8 7.5m-.5-2l8.5-.5m.5-5l-7.5.5m0-1.5l8.5-7.5m3.5 5.5l1 8m-14 9.5H85m-17.5-.5l-8 7.5-8 8-8.5 8-8.5 7.5-8 7.5-7.5 7-7.5 7-8 7.5"/><path stroke="#000" stroke-width="2" fill="none" d="M2.5 341.5l8-1 8-.5 8.5-1 8.5-.5h8l8.5.5h17l7.5-.5M85 325h8l7.5-.5 7-1 7.5-.5h8l8.5-.5m-31-21l-8 .5"/><path stroke="#000" stroke-width="2" fill="none" d="M68 292.5l-8 8-7.5 7-7.5 7-8 7-8 7-8 6.5-7.5 7-8 7m-1 1l8.5-.5 8.5-.5 8-.5 8-.5 8.5-1.5 7-.5 7-1.5 7.5-.5 7.5-.5m.5 17.5l-8 .5h-8l-8-.5-8 .5-8 .5-8 .5-8.5 1-7.5 1-7.5 1m0-4l8-.5 8-1 8-1 8-.5 8-.5 7.5-.5 8-.5 8-.5m-.5-8l-7.5.5-7.5 1.5-7 .5-8 .5-8 .5-7.5 1-8 .5-8 1"/><path stroke="#000" stroke-width="2" fill="none" d="M4.5 346l8-.5 8.5-1 8.5-1 8-1 8-.5h8l7.5-.5h7.5m1.5-8l-8.5.5-8.5 1-8.5.5H27l-8.5.5-8 .5-7.5.5m-1-2l8.5-7.5L19 320l8-7.5 8.5-7.5 8.5-8 8-7 8-7 7.5-7.5m0-9l-8 8L51 282l-8 8-8 8-8.5 8-8 8-8 8-7.5 7.5"/><path stroke="#000" stroke-width="2" fill="none" d="M4 330l8.5-.5 7.5-1 7.5-.5 8-.5 8-.5 8-.5 8-.5 7.5-1m11 3l-8.5.5-8 1H53l-9 1-8 .5-8 1-8.5 1-8.5.5-8.5.5m2.5-9.5h7.5l7.5-.5 7.5.5h8l7.5-.5 7.5-.5h8l8-.5 8-1M67 260l-7.5 7.5-8 7.5-8 7-8 7.5-8.5 8-8.5 8-8 7.5-8 8m2 0l8-.5h7l7.5-.5h7.5l7.5-1h8l8-.5 8-1"/><path stroke="#000" stroke-width="2" fill="none" d="M74 312.5l-7.5.5-8 1-8.5 1.5-7.5 1-7.5.5h-8l-7.5.5-7.5.5H4.5m0-8l8-.5 8-.5 7.5-.5 7.5-1 7.5-1 7.5-.5 8-.5 7.5-.5h7.5M69 243l-8 7.5-8 7.5-8.5 7-9 7.5-9 7.5-8.5 7.5-8 7-8.5 7m0 1.5l8-1 8-.5 8-.5 8.5-.5h8.5L50 299l8-1 8-1.5 8.5-1m-6-62L60 241l-8.5 8-8 7.5L35 264l-8.5 7.5-8 7.5-8.5 8.5-8.5 7.5"/><path stroke="#000" stroke-width="2" fill="none" d="M6 295.5l7.5-.5 8-.5 7.5-1 8-.5 7.5-.5 8-.5 7.5-1 7.5-.5 8-1m-9-63.5l-8 7.5-8 7.5-8 7.5-7.5 8-7.5 7.5-8.5 7.5-8.5 8-8.5 8m2-.5l8-.5 7.5-.5 7.5-1 7.5-1 8-1 8-1 8.5-.5 8-1m1.5-61.5l-7.5 7.5-8 8-8.5 7.5-8 7.5-8.5 8-8.5 7.5-8.5 7.5-8 7.5"/><path stroke="#000" stroke-width="2" fill="none" d="M3.5 281.5l8-.5 8-.5H35l8.5-.5 8-.5 8.5-1 8.5-1m-1.5 24H51l-8 1-7.5.5-7.5.5-8.5.5-8 .5-8 .5m.5-4.5l8-.5 7.5-.5 7.5-1 8-1 7.5-1 8.5-1 8-1 8-1m.5-8l-8 1-7.5 1-8 1-7 1-8 .5-8 1-8 .5H4.5m-.5-14l8-.5h7.5l7.5-.5 8-.5h8l8-.5 8.5-.5 8-.5m3-61.5l-8.5 7.5-8.5 8-8.5 8-8 7.5-8 7-9 8-8.5 7.5L3 274m.5 0l8-1 8-.5 8-.5 8-1h8l7.5-.5 8-.5 8.5-.5"/><path stroke="#000" stroke-width="2" fill="none" d="M68 265l-8 .5-8.5 1-8 1-7.5.5-7.5 1-7.5.5h-7.5L6 270m-2-5.5l8-7.5 8-7 8-7.5 8.5-7.5 8-7.5L53 220l8-7.5 8-8m1-17l-8 7.5-8.5 7.5L45 210l-8.5 7-8 7.5L20 232l-7.5 8-8 7.5"/><path stroke="#000" stroke-width="2" fill="none" d="M5 245.5h8l8-.5 7.5-.5 7.5-.5h7l8-.5h15.5m2 17l-8 1-7.5.5-8 1-8 .5-7.5.5h-8l-8-.5h-8m0-3l8-1 8.5-.5 8-.5 7.5-1 8-.5H69m0-7l-8 .5-8 .5h-8l-8.5 1-8.5.5-9 .5-8 .5-8.5.5m1.5-4l7.5-.5 7.5-.5 8-.5 8-.5 8.5-.5 8-.5h8l8-.5m.5-9.5h-8l-8.5.5-7.5.5-8 1-8 1-8 1-8 1-7.5.5m0-2.5l9-7.5 8.5-7 8-7 7.5-7.5 8-8 7.5-7.5 8-8 8-7.5m-9-1l-8 7.5-8 7.5-8 7.5-8 7.5-8 7-7.5 8-7.5 7.5"/><path stroke="#000" stroke-width="2" fill="none" d="M4 231l8-1 8-.5 8-.5 8.5-.5 8.5-.5 8-1 8-1 8.5-1m-2 8h-8l-8 1-7.5 1-8 .5-7 .5-7.5 1h-8l-8 .5m-1.5-3l8-1 8-.5h16.5l8.5-.5 7.5-1 7.5-.5 8-1m2-7.5l-8.5.5-8 1H45l-8.5.5-8 .5-8 .5-8 .5-9 .5m1-2.5l8-8 8-7.5 7.5-8 8-7.5 7.5-7.5L51 179l8-7.5m1-9l-7.5 7.5-8 7.5-8 8-8 8.5-8 8.5-7 7.5-7.5 7"/><path stroke="#000" stroke-width="2" fill="none" d="M3.5 217.5l8.5-.5 8.5-1 8-.5 8-.5 8-.5h8l8-.5h8m.5 4l-8 .5-7.5 1H45l-7.5.5-8.5.5-8.5.5-8 .5-8 1m0-9l8-.5 8-1 8.5-.5h16l7.5-.5 7.5-.5 7.5-.5m-.5-5l-7.5.5-8.5 1-7.5.5-8.5.5-7.5.5-8 .5-8.5.5-7.5.5m0 0l8-8 8-7.5 8-7.5 8-8 8-7.5 8-8 7.5-7.5m.5-17l-8.5 8-7.5 7.5-8 7.5-8 8-8 7.5-8 8-8.5 7.5"/><path stroke="#000" stroke-width="2" fill="none" d="M4 192.5h7.5l7.5-.5 8.5-.5 8.5-.5 8-.5h8l8-.5 8-1m-7.5-13.5l-8 .5h-8l-8.5.5-7.5.5m-1-8l8-.5 7.5-.5h15m-8-29.5l-8 7.5-7.5 8-8 7.5L19 169l-7.5 7.5-8.5 8m2 1l7.5-.5 7.5-.5h8l8.5-.5 8-1H52l8-.5m7.5 19.5H45l-8 .5h-8l-8 .5-8.5 1-8 .5M2 197l8-.5 8.5-.5 8.5-.5 9-.5 8-.5 8.5-.5 8.5-.5 8-.5m-.5-7.5H60l-8 .5h-8l-7.5.5-7.5.5H13.5l-8 .5"/><path stroke="#000" stroke-width="2" fill="none" d="M5 182l8-.5h8l8-.5 8-.5 8.5-1H53l8.5-.5 7.5-1m-2.5-8l-7.5.5H43.5l-7.5 1-8.5 1-8 .5-8 .5-7.5.5m1 3.5l8-.5h7.5m-.5-9l-7.5 1-8 .5M4 169l7.5-7.5 8-7.5 7.5-7.5 8-7.5 8.5-7.5 8.5-7"/><path stroke="#000" stroke-width="2" fill="none" d="M50.5 132.5L42 140l-8 7.5-8 7.5-8 7.5-8 7.5-7.5 7.5"/><path stroke="#000" stroke-width="2" fill="none" d="M4 164l8.5.5h9l8-.5 8-.5H45l8.5-.5h16M51 143l-8 .5-7.5 1-8 .5m1-8.5h8l8-.5 8-.5"/><path stroke="#000" stroke-width="2" fill="none" d="M53 116l-8 7.5-8 8-8 8-8 7-8.5 7.5-8.5 7.5"/><path stroke="#000" stroke-width="2" fill="none" d="M4 160l8-.5h16l7.5.5 8-.5H52l8.5-.5m7-4.5l-8.5.5h-8l-8 .5h-8.5l-8.5.5-8 .5-7.5.5-8 .5m1-8.5l8-.5h8l8-.5 8-.5 8-.5 7.5-.5 8.5-1.5m-16-33.5l-8.5.5h-8m-5.5-.5l-8 .5h-8M4 109.5l8-7 8-8 8-8 7.5-8L43 71l8-6.5 8-7.5 8-8 8.5-8 7.5-7.5 8-7.5 8-7.5 8.5-8 8-7.5"/><path stroke="#000" stroke-width="2" fill="none" d="M124 3l-8 7-7.5 7-8 8-8 7.5-8 8-8 8.5-7.5 8-7.5 7.5-8 8-7.5 8-8.5 7-8 7-8 7-8 7L5 116m1 2.5l8-.5 8-1 7.5-.5 7.5-1h8l8-.5 8-.5 7.5-.5 8.5-1 8-.5h8l8-.5 7.5-.5 7.5-.5h7l8-.5h15.5l7.5-.5 8-.5 8.5-.5 8-.5 7.5-.5h8.5l8-1 8-1 7.5-1 8-1 8-.5 8.5-.5h8l8.5-.5 8-.5 9-.5 8.5-.5 8.5.5h7.5l8-.5 8.5-.5 8-.5 7.5-1 7.5-1 8-1 8-1 7.5-1 8-.5 8-.5 8-.5 8-.5 8-1 8-.5 7.5-.5h22.5l8-.5 8-1 8-.5 8-.5 8.5-.5 8-.5 8.5-.5 8-.5 8-1M516 77l-7.5 1H493l-8 1-8.5.5-8.5 1-8.5 1-8 .5H443l-8 1-8 .5-7.5.5H412l-7 1-8 1-8.5.5-8 1-7.5.5-7.5.5-8 .5H334l-8.5 1-8.5-.5-8.5-.5H300l-8.5.5-8 1H276l-8 .5-7.5.5h-8l-8 .5-8 1-8.5 1-8.5.5-8.5 1-8 .5m-21-5.5l8-.5 7.5-1 8-1 7.5-.5 7.5-1.5 8.5-.5 8-1 8.5-1 8-1 8-1h8l7.5-.5 8-.5h7.5l7.5-.5m-65 50l-8.5.5-8.5 1-8 .5-7.5.5-8 .5-8 .5m-9 .5l-8.5 1m1.5-47l-8 .5-7.5.5-8.5 1m-47-8.5l7.5-.5 8.5-1 8-.5 8-.5h8l8-1 8.5-.5 8-.5 8-.5h16.5l8-.5 8.5-.5 8-.5 8-1 8-.5 8-.5 7.5-1 7.5-.5 8-.5 8-.5 8-1 8-.5 7.5-.5H307l8 .5 8 .5h7.5l7.5-.5 8-1 8-1 8.5-1.5 8-1 8-1.5"/><path stroke="#000" stroke-width="2" fill="none" d="M514 45h-7.5l-7.5-.5-8.5-.5-7.5 1-7.5.5-7.5 1-8 .5-8 .5-8 .5-8 .5h-8l-8 .5-8 .5-8 1-8 1-8.5.5-9 .5-8 .5-8 .5-8 .5-8 1-8 .5-8 .5-7.5.5-7.5.5-7.5 1-8 .5-8 .5h-7.5l-8 .5-8 .5-8 1-8.5.5-8.5.5-8 .5-8.5 1-8 1.5-8 .5-8 .5h-8l-7.5.5-7.5.5-8 1h-8l-7.5-.5H131l-8 .5-8 .5-7.5 1-8 1-7.5.5-8 .5H61l-8 .5m-26.5-8H34l7.5-.5 8-.5 8.5-.5 8.5-.5 8-.5L82 61l8-.5 8.5-.5h8l7.5-1 7.5-.5 7.5-1 8-1 7.5-1h8.5l8.5-.5 8.5-.5h8.5l8-.5 8-.5 8-.5 8-.5h7.5l8-.5h8.5l9-.5h17l8-.5 8-.5 8-.5 8.5-.5 8-1 8.5-1.5H325l7.5-.5 7.5-.5 7.5-.5 8-1 8.5-1 8-1 8.5-.5 8-1h16l8.5-.5 9-1 8-1h14.5l7-.5h8l8-.5h8.5l7.5-.5 8.5-.5h8l8-.5 8-.5m0 59.5l-7.5-.5H483l-8 .5-8 .5-7.5 1-8 1-7.5.5-8 .5h-23l-8 .5h-8l-8.5 1-9 1-8.5 1-8 .5-8 1-8.5 2-8 1H331l-7.5.5-8 1-7.5.5h-23.5l-8 .5-8 .5-8 .5-7.5.5-7.5.5-8 1-8.5.5h-8l-7.5-.5h-8l-8.5 1-7.5 1-8 1-8.5 1-8 .5-8 .5h-8l-8 .5-8 .5h-8l-8.5 1-8.5.5-9 .5-8 .5-8.5.5-8 .5-7 1-7.5.5h-8l-8 .5-7.5.5-8.5.5-8 .5-8 .5-8 .5"/><path stroke="#000" stroke-width="2" fill="none" d="M3.5 124.5l7.5-8 7.5-8L26 101l8-8 8-7.5 7.5-7.5 8-7.5 8-8L74 55l9-7 8.5-7 8-7 8-7.5L116 20l8.5-7 8.5-7.5m7.5-3l-8 8L124 18l-8.5 7.5-8.5 7-8 7.5-7.5 7-8 8-8 7.5-8 7.5-8 7-8 8-7 7.5L37 100l-8.5 8.5-8 8-8.5 7-9 7.5m1-.5l8-.5 8-1 8-.5 8-.5 8-1h8m-32.5 17.5h-15M4 142l8.5-.5 8-.5 8.5-1 8-.5 8-.5 8.5-.5 8-1M20 137h-7.5l-8.5.5"/><path stroke="#000" stroke-width="2" fill="none" d="M1 139.5l8.5-7.5 9-7.5 8-7.5 8.5-8 8.5-7.5L52 94l8.5-8 8.5-8 7.5-7 8-8 8-7.5 8.5-7 8-7.5 8.5-7.5 8-7 8-7 8-7 8.5-7m-43-2l-8 7-7.5 7.5-8 7.5L75 33l-8 7.5-7.5 7.5-7.5 8-8 8-8 8-8 8-8 7.5-8 7.5-8.5 7"/><path stroke="#000" stroke-width="2" fill="none" d="M3 101.5l8-.5h16l8-.5 8-.5h17l8.5-.5 7.5-1 8-.5 8-1 8-.5 8-.5 8.5-.5 8.5-.5 8-1 8-1 8.5-1 8-.5 8-.5 8-.5 8-.5 7.5-1 7-.5h8l7.5-.5 7.5-1h21.5l8.5-1 8-.5 8.5-.5 8.5-.5 8-.5 8.5-1 8.5-.5 8.5-.5 8-1 8.5-1 7.5-.5h7.5l7.5-.5 7-.5 8-.5 7.5-.5 8.5-.5 8.5-.5 8.5-1 8-.5h7.5l7.5-.5 8-.5 8.5-.5 8.5-.5 8-.5 7.5-.5 8-.5 8.5-.5h8l7.5-1 7.5-.5 7.5-1 8-1m2.5 9.5l-8 .5-8 .5-8.5 1-7.5.5-8.5 1h-8l-8 .5-8 .5-7.5.5h-8l-7 .5-8 .5-8 .5h-8l-7.5.5-8.5.5h-8l-8 1-8 .5-8.5 1h-7.5l-7.5.5-7.5.5-7.5.5-8 .5-7.5.5-8 .5-8.5.5h-8l-8 .5-8.5 1-8.5 1-9 .5-8 1-8.5.5-8 .5h-8l-8-.5-8 .5-8 .5-8 .5-8.5 1-7.5 1-7.5 1h-8.5l-8 .5h-8l-8 1-7.5 1-8 .5-7 .5-7.5 1h-8l-8 .5-8 1-8.5 1-8.5.5-8 .5H29l-8 .5h-8l-8 .5m-1.5-3l8-.5 8-.5 8.5-.5h16.5m16 25l-8.5 1-8 1-8.5.5-9-.5-8 .5-8 .5-8 1M5 122.5l8-.5 8-1 7.5-.5H36l8-.5 7.5-.5m34-39L93 80m6-75.5L91.5 12l-8 7.5L75 27l-8 7.5-7.5 8-8 7-8.5 7-8.5 7.5-8.5 7.5-8.5 8L10 87l-8 7m3.5-.5L14 93h8l7.5-.5h8l8-.5 7.5-.5 8-.5 7.5-1 8-.5h8l8-1 8-.5 8.5-.5 8.5-.5 7.5-.5h8.5l7.5-1 8-.5 7.5-.5 8-.5 8.5-.5 8.5-.5 8-.5 8-.5 8.5-1.5 7-.5 7-1.5 7.5-.5 7.5-.5h8l8.5-1 8.5-.5 8.5-.5 7.5-.5 7.5-.5h8l8-.5 7.5-.5h17l7.5-.5 7.5-1 8-.5 7.5.5h7.5l8.5-1 8.5-.5 8-.5 7.5-.5 8.5-.5 8-1 8 .5 8.5-.5 8-.5 7.5-.5 8-.5 8-1 8-1 8-1 7.5-.5 8.5-1h8l8-.5 8.5-.5"/><path stroke="#000" stroke-width="2" fill="none" d="M516 52l-9 .5-8.5 1-8 .5-8 .5-8.5.5-7.5 1-7 .5H445l-8 1-8 1-8.5.5-8 1.5-8.5.5-8 .5h-16.5l-8 .5H363l-7 1-7 .5-7.5.5-8 .5-8.5 1-7.5.5h-8l-8.5 1-8 1-8.5 1-7.5 1-8.5.5-8 .5-8.5.5-8 .5-7.5.5-7.5.5h-17l-8.5-.5h-8l-8.5.5-8.5 1-8 .5-8 1-7.5.5-7.5 1-7.5.5-7.5.5-7.5.5h-16l-8.5.5-8 1-8 .5-8 .5-7.5.5-8 .5h-8l-7.5 1-8.5.5-8 1-8.5.5-8 .5-8.5 1m.5-1.5l8-8 7.5-7.5 8-7 8-7 8-7 7-8 8-7 8-7 7.5-8 7.5-8L90 3m-7 .5l-8.5 8-8 7.5-8 7-8 7.5-8.5 7-7.5 7.5-7.5 8-7.5 7.5-7.5 7L4 78"/><path stroke="#000" stroke-width="2" fill="none" d="M2.5 76h8l8.5-.5 8-.5h7.5l8.5-.5 8.5-.5 8.5-1 8-.5 8.5-.5 8-.5 8-.5 8.5-1 8-.5h8l8-.5h22.5l7.5-1h7.5l8.5-.5 8.5-.5 8.5-1 8-1 8-.5 9-1h8.5l8-1 8.5-.5h8l8-.5 8-.5 8-.5 8.5-.5 8-.5h8l8-.5H326l7.5-.5 7.5-1 7-1.5 7-1 7-1h8l8-1 8-.5 8.5-.5 8-.5 8-.5 8-.5h16l8.5-1h16l8.5-.5 9-.5 8-.5 8-.5 8.5-.5 7.5-1 8-.5m-.5-8l-7.5 1-8 .5-8 1-8.5.5-8 .5h-8l-7.5.5-8.5 1-8.5 1-7.5.5-8 .5-8 .5-9 .5-8 .5h-8.5l-7.5.5h-8l-8.5.5-7.5 1h-7.5l-8 .5-8 1-8 1-7.5.5h-16.5l-8 .5-8.5.5-8 .5-8.5.5-8.5 1-8 .5h-8l-7.5.5-8 1-8 1-8 .5h-8l-7.5.5-7.5.5h-8L180 58l-7.5.5H165l-8 .5-8 1-8 .5-8.5.5-8.5.5-8 .5-9 .5-8.5.5-8.5.5-8 .5H57l-7.5.5-8 1-7.5.5-8 1-7.5.5-8.5 1H2"/><path stroke="#000" stroke-width="2" fill="none" d="M4 70.5l7.5-7.5 7.5-7.5 8-7 7.5-7.5 8.5-7 8-7 8-7 8-7.5 8.5-8m-7-1l-8 7.5-7.5 7.5-7.5 7.5-8.5 8-8 7.5-8.5 7.5-8 6.5L4 63"/><path stroke="#000" stroke-width="2" fill="none" d="M2 64.5h8.5l8-1m-16-3L10 60l8-.5 8.5-.5 8.5-1 8-.5 8.5-.5 8.5-.5 9-1 8.5-.5 8-.5 8-.5H109l7.5-.5 7.5-.5h8l8-.5h16.5l8-.5h7.5l7.5-.5 7.5-.5h8l7.5-.5 7.5-1 8.5-1.5 8-1 7.5-.5 8-1.5h8.5l8 .5h8l9-1 8.5-.5h8l8-1 8.5-.5 8-.5h8l8.5-.5h16l7.5-.5 7.5-.5 8-.5h7.5l8-.5 8-1.5 8.5-.5 8-.5 8.5-.5 8.5-.5 8-1h8l8-1h23l8-.5 8-1 7.5-1 7.5-1 8.5-1m0-2.5l-7.5.5-8 .5-7.5 1-8 1H476l-8 .5h-16.5l-7.5.5h-25l-8 1h-8l-8 .5-7.5 1-7.5.5h-14l-8.5.5-8.5 1-8.5 1-8 .5-7.5.5-8.5.5-8 .5h-8l-8.5.5h-8.5l-8.5 1-8.5.5-8.5.5-8 .5-8 .5h-8l-7.5.5-8 1-8 .5-7.5 1-8 1-8 .5-7.5.5-8 .5-8 .5-8 .5-8 .5-7.5.5-8 .5h-7.5l-8 1-8.5.5h-8l-7.5.5-7.5.5h-8.5l-8 .5-8 .5-8 1-8.5.5-8 .5h-8.5L19 56h-8.5l-8.5.5"/><path stroke="#000" stroke-width="2" fill="none" d="M3 57l8-8 8.5-7.5 8-8 8-8 8-8 8-7.5L60 2m-9 0l-8 8-8 8-8 8-8 7.5-8 8-7.5 8"/><path stroke="#000" stroke-width="2" fill="none" d="M4 51.5l8-1 8.5-1 8-1 8-1 8-1 8-.5 8.5-.5 8-.5h8l8-.5 8-.5h7.5l7.5-.5h7.5l8-.5 7.5-.5 8-.5 8-1 8-1 8.5-1 8-.5 8-.5 8.5-.5 7.5-.5 7.5-.5 8-1h16l7.5-.5 7.5-.5 8-1 8.5-1 8.5-.5h9l8-.5h8.5l7.5-.5 8-.5 8-.5 8-.5 8.5-.5 8-1 8.5-.5 8-.5 8-1 7.5-.5 7.5-.5h15.5l8.5-.5 7.5-.5 8-1h31l7.5-.5 8-1 8.5-.5 7.5-.5 8.5-.5 8-.5 8-.5 8.5-.5m-1.5 3.5l-8 .5-8 1.5-8.5 1-8 1-7.5.5-7.5-.5-8 .5h-7.5l-8 .5h-41l-7.5.5-8 .5-8 1-7 1-7 .5-7.5 1-8 1-7.5.5-7.5.5h-8l-8.5.5-8.5 1-8.5.5-8.5.5H283l-8.5.5h-9l-8 .5-7.5.5-8 1-8.5.5H226l-7.5.5-8 .5-7.5.5-7.5 1-7.5 1-7.5.5-8 .5-8 .5-7.5.5-8 .5-7.5 1-8.5.5h-7.5l-8.5 1-8 .5-8 .5h-8l-8 .5h-8l-7.5 1-8 .5-8.5 1-8 .5-8 .5-8.5.5-8 .5-8.5.5-8 .5m.5-7l8-.5 7.5-.5 8-.5 8-.5 8-1 7.5-1 8.5-1 8-.5 8-.5 8-.5 7.5-.5 8-.5 8-.5 8.5-1 7.5-1H139l7.5-.5h15l8-1 8-.5 8-.5 8.5-.5h8.5L210 33l8-1 8-1.5 8.5-1 7.5-.5 8-.5 8.5.5h8l8.5-.5h8.5l8.5-.5 9-1 8.5-.5 8.5-1 8-.5h8l8-.5 8-.5 7.5-.5 8-1 7.5-1 7.5-.5 7.5-.5h8l8-1h8.5l8-.5h31l8-.5 8-.5H483l8-1 8.5-1 8-.5 8.5-1"/><path stroke="#000" stroke-width="2" fill="none" d="M435.5 13l-8 .5-8 .5H412l-8 .5-8 .5-8 .5-8 1-8 .5-8 1-8 1-8 1.5-8 1-7 1-8.5.5h-8l-7.5.5-8 .5h-8l-8.5.5h-17l-8.5.5-8 .5-8 .5-8 .5-8 1-8 1-8 1-8.5 1-7.5 1-8 1-7.5 1-7.5.5-8 .5h-8l-8.5-.5-8-.5h-8l-8 1H108l-8 .5-7.5 1-8 .5-8 .5H68l-8.5.5-8.5 1-7.5 1-8 .5-8 1-8.5.5-8 1H3m1.5-2l8-8L20 25l7.5-7.5 7.5-7L42.5 3M36 2l-8 7.5-7.5 7.5-8 7.5-8.5 8"/><path stroke="#000" stroke-width="2" fill="none" d="M2 32l8-.5h8l8-.5 8-.5 8-1h8.5L59 29l8-.5 8.5-.5 8.5-1 8-.5h16l7.5.5 8-.5h8.5l8.5-.5h16l8-.5h8.5l8-.5 8-1 8-.5 7-1 8-1 7.5-1 8-1 8-.5 8.5-.5 7.5-.5 7.5-1 8-1 8.5-.5 8.5-.5 7.5-.5h31l8-1 8.5-1 8-.5 8-1 8-1 7.5-.5 8-1 8-1 8-1 8-1h24L434 5l8-.5h8.5L460 4l8.5-1 8.5-.5h8.5L493 2l8-.5h15"/><path stroke="#000" stroke-width="2" fill="none" d="M516.5 4.5H508l-7.5.5-8 .5H485l-8.5.5-8.5.5-8 .5h-8l-7.5.5-8.5.5-9 .5-8.5.5-8.5.5-8 .5-8 .5-7.5 1-7.5 1-7 .5-8 1-8 1.5-7.5 1.5-8.5 1-8 .5-8.5.5-8 .5-8.5.5h-8.5l-8 .5-8.5 1h-23l-7.5 1-8 .5-8 .5-8 1-7.5.5-7.5 1-8 .5-7.5.5-8 .5-7.5 1-8 .5-7.5.5-8.5.5h-24l-8.5.5h-7.5l-8 .5-8 .5h-9L84 31l-7.5 1-8 .5-8.5.5h-8l-8.5.5-9 1-8 .5-8 .5-8 1-8 1m0-10l8-.5h8l8-.5 8-.5h8l8-.5h8l8-.5h8l8-.5 8-.5 7.5-.5 8-.5 8.5-.5h8.5l8-.5h8l8.5-.5h8.5l8-.5 8-.5 7.5-.5 7.5-1 7.5-1 8-1 8-1 8.5-.5 8-1 8.5-.5 8.5-1 7.5-.5 7.5-1 7.5-.5H282l8.5-.5 9-1 8-.5h8l7.5-.5 8-.5 8-.5 8-.5h16.5l7.5-1 7.5-1 8-1h15l8-1.5 8.5-1 8-1 8-.5 8-.5h8.5l8.5.5h17l8-.5h8.5l8-.5 8-.5L517-2m0-5l-8.5.5h-16L485-6l-8 .5-8.5 1-8.5 1-8.5.5H443l-8 1-8 .5-8 .5-8 .5-8.5 1h-8L387 1l-8 .5-8.5 1-8.5 1-8 1-7 .5-8 1-8 .5h-8l-8 .5h-8l-8 .5-8.5 1-7.5.5h-15.5l-7.5.5h-7.5l-7.5.5-8.5.5-8 1-8.5 1-8.5 1-8 .5-8.5.5h-15.5l-8 .5-8 .5h-8l-8 1-8 .5-8.5.5-9 .5h-7.5l-7.5 1-8 .5-8 .5-8 .5-8 1h-8.5l-8 .5-8 .5-8 .5-7.5.5-8 .5h-7.5l-8 .5-8 1"/><path stroke="#000" stroke-width="2" fill="none" d="M3 26l8-7 7.5-7 8-7.5m-8.5 0L10.5 12l-7 7"/><path stroke="#000" stroke-width="2" fill="none" d="M3 17.5h16l8.5-.5 8-.5H44l7.5-1 8-1 8.5-1 8-1 8.5-1h15l8-.5H123l8-1 8.5-.5 8-.5 8-.5 8-.5 8-1 8-.5 8-.5 8-1h8l7.5-.5 8-.5 8.5-.5h17l8-1 8-.5 8.5-.5 8-1 8-.5 8-.5h7.5l8-.5H324l8-.5 8-.5 7.5-1 7.5-.5 8-1 7.5-.5 8-.5L387-6l8-1 8.5-.5L411-8h8l8-.5 7.5-.5 8.5-1 7.5-.5 8.5-1 8-1 8-.5 8-1h16l8-.5 8-.5m1 5l-7.5 1h-22l-8.5.5-8.5 1-8.5.5-8.5 1-8.5 1h-33.5l-8.5.5-7.5.5-7 1-8 1-7.5 1-8.5 1.5-8 .5-8 .5-8.5 1-8.5 1-8 1-8 .5-8 .5h-8l-8 .5-8 .5h-7l-7.5 1h-24l-8 .5-8.5.5-8 .5-8.5.5-8 .5h-8l-8 .5-7.5.5H172l-8 .5-8 .5h-16.5l-8.5 1.5-7.5.5-8 .5-8 .5-8 .5h-8l-8 .5-8 1-8.5 1-8 .5-8 1-8.5 1-8 .5-8.5 1-7.5.5h-8L3 23m2.5-11l8-1 8-.5h15l8-.5 8 .5 8-.5H68l8-.5 8-.5 8.5-.5 8-.5 8.5-1 8-.5 8-.5 8.5-.5 8-1L150 4h16l7.5-.5h7.5l7.5-.5 7.5-1 7.5-.5 8-1 8.5-1 8-.5 7.5-1.5L243-3l9-.5 8-.5h49l8.5-.5L326-5l7.5-.5 8-.5 7.5-.5h7.5L364-7h7.5l7-1 7.5-1 7-1 7.5-.5h8.5l8.5-1 8.5-.5 8.5-.5 8.5-1 8-1 7.5-.5 7.5-1h8l8.5-1 7.5-.5h7.5l8.5-1 8-1"/><path stroke="#000" stroke-width="2" fill="none" d="M516-23.5l-8.5.5-8 .5-8 .5-8.5 1-8 .5-8 .5-7.5 1-8 .5-8 1.5-7.5.5-8 .5-8 .5-8.5 1h-8l-7.5.5-8 .5-7.5.5h-8l-8 1-7.5.5-8 1-8 1-8 1-7.5.5-8 .5H309l-8.5-.5-8.5-.5-8.5-.5-7.5.5-8 .5-8 .5-8 .5-8 .5-8 .5-7.5.5-8 1-7.5.5-8 1-8 .5-7.5.5h-8l-8-.5h-8l-8 1L149 0l-8.5 1.5-9 .5-8 .5-8 1-7.5.5H92.5l-8.5.5-8.5.5L68 6l-8 .5-7.5.5-8 1-8 .5-8 .5-8 .5-8.5.5-8 .5m-1 1l8-7m-6 1h8.5L21 5l7.5-.5 7.5-1 8-.5 7.5-.5 8-1 8-.5L75 .5l7.5-.5 8-1 8-.5 8-.5 9 .5L124-2l8-1 8.5-1 8.5-.5 8.5-1h8l8-1L182-7l8-.5 7.5-1 8-.5H237l8-.5 8-1h8.5l8-.5 8-.5 8.5-.5h7.5l7.5.5h7.5l8.5-1 8-.5 8-.5 8-.5h8l8-.5h8l7.5-.5 8.5-1 8-1.5 8.5-.5 7.5-.5 8-.5 8-1 8-.5 7.5-.5 8-.5 8-1 8-.5 8-.5h7.5l7.5-.5 8.5-.5 8-.5 8-.5h8M219.5 193l8 8-7 8"/><path stroke="#000" stroke-width="2" fill="none" d="M223.5 208l-7.5 5-10-3 7-8-8-8m-63 6.5l-11 2-2.5-3H112l-12 3-7 4-4 2-3-5 4-8.5M44.5 95l-8 .5-8.5 1-8 .5h-8.5l-8 .5M5 90l8-.5 8-.5 8-.5h8.5l8-1m-9-9l-8.5 1-8 1-8.5 1-8 .5M3 73.5l8-1 7.5-.5 8-.5 8-1L43 70m60 317.5l-3.5 8m11 2l2-8M88 470l-.5 8m-3 11.5l1 8-.5 13v11l.5 8 2 1H104l4-5m-31-26l-8.5.5-8 .5H53l-8.5-.5-8.5.5-9 .5-8 .5-8.5.5h-8M88 597h8l13-.5m29.5 99l-7.5.5-8 1-7.5.5-7.5 1-7.5.5-7.5 1-7.5.5-8.5 1-8 .5-8.5 1-8 .5-8 1-8.5.5h-8.5l-8.5.5-7.5 1-8.5.5"/></svg>