<svg version="1.1" id="Слой_1" xmlns="http://www.w3.org/2000/svg" x="0" y="0" viewBox="0 0 321 70" xml:space="preserve" enable-background="new 0 0 321 70"><style>.st0{fill-rule:evenodd;clip-rule:evenodd;fill:#fff}</style><g id="XMLID_1_"><g id="Page-1" transform="translate(0 -1)"><g id="Group-3" transform="translate(79 .541)"><path id="Fill-1" class="st0" d="M222.2 28.3h6.6v-7.6h6.1v7.6h6.6V9.4H235V16h-6.1V9.4h-6.6v18.9zM182 14.8c1.4-.9 3.3-1.6 4.9-1.6.8 0 2.7.1 2.7 1.7 0 1.6-1.6 1.6-2.2 1.6h-3.3v4.1h2.9c.9 0 2.7.1 2.7 1.6 0 .6-.4 1.8-2.7 1.8-2.3 0-3.8-.6-5.7-1.8l-1.7 4.5c3.6 2.1 6.9 2.3 8.5 2.3 7.6 0 8.5-4.4 8.5-5.8 0-2-1.2-4-3.8-4.7v-.1c1.7-.7 2.7-2.4 2.7-4.4 0-4.4-4.7-5.3-7.5-5.3-2.7 0-5.7.8-7.7 1.9l1.7 4.2zm-14.3-7.9c3 0 6.1-1.2 7.5-4.4L170.9.9c-.5 2.2-2.4 2.3-3.2 2.3-.8 0-2.6-.1-3.1-2.3l-4.3 1.6c1.3 3.3 4.4 4.4 7.4 4.4zm-10.4 2.5v18.9h6.4l6.6-10.4v10.4h6.6V9.4h-6.4L164 19.5V9.4h-6.7zm-44 14.8V13.7c-2.2 0-4.5 1.6-4.5 5.2 0 3.7 2.3 5.4 4.5 5.3zm5.8-10.5v10.5c2.2 0 4.5-1.6 4.5-5.2s-2.2-5.3-4.5-5.3zm-6.2 22.8v-7.9c-3.9 0-10.5-1.6-10.5-9.8 0-8.1 6.5-9.7 10.5-9.7V.9h6.6v8.2c4 0 10.5 1.6 10.5 9.7 0 8.2-6.5 9.8-10.5 9.8v7.9h-6.6zM83.5 24.2V13.7c-2.2 0-4.5 1.6-4.5 5.2 0 3.7 2.2 5.4 4.5 5.3zm5.8-10.5v10.5c2.2 0 4.5-1.6 4.5-5.2s-2.3-5.3-4.5-5.3zm-6.2 22.8v-7.9c-3.9 0-10.5-1.6-10.5-9.8 0-8.1 6.5-9.7 10.5-9.7V.9h6.6v8.2c4 0 10.5 1.6 10.5 9.7 0 8.2-6.5 9.8-10.5 9.8v7.9h-6.6zm-23-29.6c3 0 6.1-1.2 7.5-4.4L63.3.9c-.5 2.2-2.4 2.3-3.2 2.3-.8 0-2.6-.1-3.2-2.3l-4.3 1.6c1.4 3.3 4.5 4.4 7.5 4.4zM49.8 9.4v18.9h6.4l6.6-10.4v10.4h6.6V9.4H63l-6.6 10.1V9.4h-6.6zM9.3 6.5v6.3h2.4c3.3 0 3.6-2 3.6-3.2 0-1.4-.5-3.1-3.6-3.1H9.3zM2.1 28.3V.5h11.2C20.9.5 23 5.9 23 9.7c0 3.8-2.2 9.2-9.7 9.2h-4v9.5H2.1zM153.2 9.4v18.9h-6.6v-2.1h-.1c-1.2 1.9-3.5 2.7-5.6 2.7-5.5 0-9.4-4.7-9.4-10.1 0-5.4 3.8-10.1 9.3-10.1 2.1 0 4.4.8 5.8 2.5V9.4h6.6zm-10.7 5.2c-2.7 0-4.3 2-4.3 4.3 0 2.4 1.6 4.2 4.3 4.2 2.7 0 4.3-1.8 4.3-4.2 0-2.4-1.6-4.3-4.3-4.3zM45.7 9.4v18.9H39v-2.1c-1.2 1.9-3.5 2.7-5.6 2.7-5.5 0-9.4-4.7-9.4-10.1 0-5.4 3.8-10.1 9.3-10.1 2.1 0 4.4.8 5.8 2.5V9.4h6.6zM35 14.6c-2.7 0-4.3 2-4.3 4.3 0 2.4 1.6 4.2 4.3 4.2 2.7 0 4.3-1.8 4.3-4.2 0-2.4-1.6-4.3-4.3-4.3zm184 5v.7h-13.9c0 2.7 1.4 4.2 4.1 4.2 1.4 0 2.4-.5 3.2-1.7h6.4c-1.1 4.5-5.2 6.5-9.5 6.5-6.2 0-10.8-3.5-10.8-10.1 0-6.3 4.3-10.1 10.3-10.1 6.4 0 10.2 4.1 10.2 10.5zm-13.8-3.1h7.7c-.3-1.8-2-3-3.7-3-2 0-3.6 1-4 3zm-192.5 42h-2l-1 5.9h1.9c4.4 0 5.2-1.2 5.5-2.8.3-1.8-.1-3.1-4.4-3.1zm12 3.1c-.3 1.9-.9 3.8-2.3 5.1-3 3-7.5 3.2-10.3 3.3H1l4.7-27.8h19l-.9 5.5H12.3l-.9 5.6h3.3c2.5 0 5.6.3 7.8 2.2 1.7 1.4 2.6 3.5 2.2 6.1zm20 3.6H34.2L31.4 70h-8.1l15.9-27.8h8.3L53.9 70h-8.1l-1.1-4.8zm-1.2-5.6l-1.6-8.9h-.1l-4.6 8.9h6.3zm52.8-17.4h-7.7L84 70h7.6l2-12.1h.1l7.8 12.1h9.8L101 55.4l13.8-13.2h-9.4l-11 11.5h-.1l2-11.5zm-29.4 0l-1.7 10.4h10.1L77 42.2h7.4L79.9 70h-7.4l1.9-12H64.3l-1.9 12H55l4.5-27.8h7.4z"/></g><defs><filter id="Adobe_OpacityMaskFilter" filterUnits="userSpaceOnUse" x="2.3" y="3.3" width="64.9" height="64.9"><feColorMatrix values="1 0 0 0 0 0 1 0 0 0 0 0 1 0 0 0 0 0 1 0"/></filter></defs><mask maskUnits="userSpaceOnUse" x="2.3" y="3.3" width="64.9" height="64.9" id="mask-2_1_"><g filter="url(#Adobe_OpacityMaskFilter)"><path id="path-1_1_" class="st0" d="M0 70.5h320.6V1H0z"/></g></mask><path id="Fill-4" mask="url(#mask-2_1_)" fill-rule="evenodd" clip-rule="evenodd" fill="#ffed00" d="M2.3 68.2h64.9V3.3H2.3z"/><defs><filter id="Adobe_OpacityMaskFilter_1_" filterUnits="userSpaceOnUse" x="0" y="1" width="69.5" height="69.5"><feColorMatrix values="1 0 0 0 0 0 1 0 0 0 0 0 1 0 0 0 0 0 1 0"/></filter></defs><mask maskUnits="userSpaceOnUse" x="0" y="1" width="69.5" height="69.5" id="mask-2_2_"><g filter="url(#Adobe_OpacityMaskFilter_1_)"><path id="path-1_2_" class="st0" d="M0 70.5h320.6V1H0z"/></g></mask><path id="Fill-6" d="M2.3 68.2h64.9V3.3H2.3v64.9zM0 70.5h69.5V1H0v69.5z" mask="url(#mask-2_2_)" fill-rule="evenodd" clip-rule="evenodd"/><defs><filter id="Adobe_OpacityMaskFilter_2_" filterUnits="userSpaceOnUse" x="4.6" y="7.7" width="60.3" height="56"><feColorMatrix values="1 0 0 0 0 0 1 0 0 0 0 0 1 0 0 0 0 0 1 0"/></filter></defs><mask maskUnits="userSpaceOnUse" x="4.6" y="7.7" width="60.3" height="56" id="mask-2_3_"><g filter="url(#Adobe_OpacityMaskFilter_2_)"><path id="path-1_3_" class="st0" d="M0 70.5h320.6V1H0z"/></g></mask><path id="Fill-7" d="M34.8 43.7l-20 20-7.9-7.9 20-20-4.2-4.2v-8.2l-2.9-2.9v7.2l-2.5 2.5L7.1 20l-2.5 2.5c0-1.9.4-7.4 5-11.9 5-4.8 10.4-2.6 12.3-.8L32 20l-2.6 2.6 5.3 5.3 5.3-5.3-2.5-2.6L47.6 9.8c1.8-1.9 7.3-4 12.3.8 4.6 4.6 5 10 5 11.9L62.4 20 52.3 30.2l-2.5-2.5v-7.2l-2.9 2.9v8.2l-4.2 4.2 20 20-7.9 7.9-20-20z" mask="url(#mask-2_3_)" fill-rule="evenodd" clip-rule="evenodd"/></g></g></svg>