<svg version="1.1" id="Слой_1" xmlns="http://www.w3.org/2000/svg" x="0" y="0" viewBox="0 0 517.8 685" xml:space="preserve"><style>.st0{fill:none;stroke:#fff;stroke-miterlimit:10}</style><path id="XMLID_538_" class="st0" d="M60.7 3.2l-1 8-3 8-2 8-1 7.5-2 7v8l-2 8-2 8-1 8-2 7.5-1 8-.5 7-4 8-1 8-2 8v7.5l-1 8 1 8-2.5 8-3 8-2 8-1 7.5-1 8-3 7-1 8-1.5 7.5-2 8-1.5 8-2.5 8.5-1 7.5-2 8-1 8-2 8 .5 8-4 8-1.5 8-1 8-1.5 8-.5 8"/><path id="XMLID_537_" class="st0" d="M2.2 283.2l8-.5"/><path id="XMLID_536_" class="st0" d="M9.7 276.7l-8 .5"/><path id="XMLID_535_" class="st0" d="M1.7 268.7h8.5"/><path id="XMLID_534_" class="st0" d="M10.2 259.7h-8"/><path id="XMLID_533_" class="st0" d="M4.2 252.2l7.5-.5"/><path id="XMLID_532_" class="st0" d="M18.7 242.7l-8 .5h-8"/><path id="XMLID_531_" class="st0" d="M4.2 235.2h7.5l8-.5"/><path id="XMLID_530_" class="st0" d="M19.7 227.2l-8 8"/><path id="XMLID_529_" class="st0" d="M2.2 233.2l9-8 8.5-7.5"/><path id="XMLID_528_" class="st0" d="M19.2 211.7l-8.5 7.5-8.5 7.5"/><path id="XMLID_527_" class="st0" d="M4.2 227.7h15.5"/><path id="XMLID_526_" class="st0" d="M18.7 221.2l-7.5.5-7.5.5"/><path id="XMLID_525_" class="st0" d="M2.2 218.2l8-8.5 8-8 8-7.5"/><path id="XMLID_524_" class="st0" d="M25.2 186.7l-8 7.5-7.5 7.5-7.5 7.5"/><path id="XMLID_523_" class="st0" d="M2.7 207.7l8-1 8-1 8-1"/><path id="XMLID_522_" class="st0" d="M20.2 213.7l-8 .5-7.5 1"/><path id="XMLID_521_" class="st0" d="M4.2 209.2l8-.5"/><path id="XMLID_520_" class="st0" d="M9.2 203.2l-8 .5"/><path id="XMLID_519_" class="st0" d="M.7 200.2l8-7 7.5-7.5 7.5-8"/><path id="XMLID_518_" class="st0" d="M25.7 172.7l-8 7-7.5 7-7.5 7.5"/><path id="XMLID_517_" class="st0" d="M2.2 193.2l8-.5"/><path id="XMLID_516_" class="st0" d="M3.2 188.7l8-.5h8l8-.5"/><path id="XMLID_515_" class="st0" d="M25.7 196.7l-7.5.5-7.5 1-7.5.5"/><path id="XMLID_514_" class="st0" d="M.7 186.2l8.5-7.5 8.5-7.5 8-8 8.5-7.5"/><path id="XMLID_513_" class="st0" d="M34.7 149.2l-8 7-8.5 7.5-8.5 7-8.5 7"/><path id="XMLID_512_" class="st0" d="M1.2 175.2h8l8-.5"/><path id="XMLID_511_" class="st0" d="M9.7 185.2H1.2"/><path id="XMLID_510_" class="st0" d="M3.2 181.2h8l7.5-.5 7.5-.5"/><path id="XMLID_509_" class="st0" d="M25.7 171.2l-8 1-7.5.5-7.5.5"/><path id="XMLID_508_" class="st0" d="M2.7 171.2l8-.5 8.5-.5"/><path id="XMLID_507_" class="st0" d="M2.2 169.2l7.5-7.5 8-7 8-6.5 7.5-7"/><path id="XMLID_506_" class="st0" d="M34.7 130.7l-8.5 8-8 7.5-8 7.5-7.5 7.5"/><path id="XMLID_505_" class="st0" d="M1.2 158.2h8l8 1"/><path id="XMLID_504_" class="st0" d="M26.7 164.2l-7.5.5h-17"/><path id="XMLID_503_" class="st0" d="M1.2 155.2l8-1 8-.5 9-.5h8.5"/><path id="XMLID_502_" class="st0" d="M17.2 132.7l-8 7.5-7.5 6.5"/><path id="XMLID_501_" class="st0" d="M2.7 148.2l8-1 8.5-.5h16"/><path id="XMLID_500_" class="st0" d="M31.7 124.2l-7.5.5"/><path id="XMLID_499_" class="st0" d="M27.2 120.2l7.5-8 7.5-8.5"/><path id="XMLID_498_" class="st0" d="M42.2 99.2l-8 7.5-8.5 7.5"/><path id="XMLID_497_" class="st0" d="M24.2 116.2l8-.5 8-.5"/><path id="XMLID_496_" class="st0" d="M41.2 114.7l-7.5 7.5-7.5 7.5-8 7-8 7-7.5 7.5"/><path id="XMLID_495_" class="st0" d="M2.7 151.2l8-.5 8-.5 8.5-.5"/><path id="XMLID_494_" class="st0" d="M12.2 131.2l-8 7.5"/><path id="XMLID_493_" class="st0" d="M1.7 140.7l8-.5h16.5l7.5-.5 7.5-.5"/><path id="XMLID_492_" class="st0" d="M11.2 124.2l-8 7.5"/><path id="XMLID_491_" class="st0" d="M1.2 132.2h8l7.5-.5 8-.5 8-.5"/><path id="XMLID_490_" class="st0" d="M25.2 108.2h16.5"/><path id="XMLID_489_" class="st0" d="M41.2 92.2l-8 7.5-7.5 7.5"/><path id="XMLID_488_" class="st0" d="M27.2 101.2l8.5-.5 8-1.5"/><path id="XMLID_487_" class="st0" d="M32.7 92.2l7.5-7.5"/><path id="XMLID_486_" class="st0" d="M43.2 85.2l-8 .5"/><path id="XMLID_485_" class="st0" d="M32.7 81.7l8.5-8 8.5-8"/><path id="XMLID_484_" class="st0" d="M51.2 64.7l-8 .5"/><path id="XMLID_483_" class="st0" d="M33.7 65.2l8-7 8-7.5"/><path id="XMLID_482_" class="st0" d="M50.2 56.7l-8 7.5-8.5 8"/><path id="XMLID_481_" class="st0" d="M33.7 72.7l8.5-.5"/><path id="XMLID_480_" class="st0" d="M36.2 77.7l8-.5h7.5"/><path id="XMLID_479_" class="st0" d="M49.2 66.7l-7.5.5h-8"/><path id="XMLID_478_" class="st0" d="M33.7 60.7l8-.5h8"/><path id="XMLID_477_" class="st0" d="M40.2 49.7l7.5-7.5"/><path id="XMLID_476_" class="st0" d="M51.2 45.2l-8 .5"/><path id="XMLID_475_" class="st0" d="M41.2 41.7l8-7.5 8.5-7.5"/><path id="XMLID_474_" class="st0" d="M58.7 19.7l-8.5 7.5-8 7"/><path id="XMLID_473_" class="st0" d="M42.7 34.7l8-1"/><path id="XMLID_472_" class="st0" d="M44.2 31.7l8-.5 8-1.5"/><path id="XMLID_471_" class="st0" d="M42.2 25.7l7.5-8 7.5-7"/><path id="XMLID_470_" class="st0" d="M58.7 4.7h-8.5"/><path id="XMLID_469_" class="st0" d="M48.2 8.7l8-8"/><path id="XMLID_468_" class="st0" d="M58.2 10.7l-8 .5-8 .5"/><path id="XMLID_467_" class="st0" d="M43.2 9.2l1 3-3 8 1 6-1 8-4 7.5v8l-4.5 7.5 2 4-3 7.5 1 5-1.5 6-2 8-1 5.5-.5 7.5-4 8 4-4-3 8-1 8-5 8"/><path id="XMLID_466_" class="st0" d="M26.7 142.2h-15l-8 .5"/><path id="XMLID_465_" class="st0" d="M1.7 134.7l7.5 2 1.5.5"/><path id="XMLID_464_" class="st0" d="M9.2 124.2l-8 .5"/><path id="XMLID_463_" class="st0" d="M.7 121.7l8 4 8.5 2"/><path id="XMLID_462_" class="st0" d="M27.2 92.7l8-.5 7.5-.5"/><path id="XMLID_461_" class="st0" d="M32.7 55.2l8-.5 8-.5"/><path id="XMLID_460_" class="st0" d="M42.7 37.2l8-.5 8-.5"/><path id="XMLID_459_" class="st0" d="M59.7 20.7h-8l-8.5.5"/><path id="XMLID_458_" class="st0" d="M38.7 22.2l-1 8 4 1.5"/><path id="XMLID_457_" class="st0" d="M18.7 42.7l-8 1-8 .5"/><path id="XMLID_456_" class="st0" d="M8.7 43.2l-7.5 7.5"/><path id="XMLID_455_" class="st0" d="M2.7 50.7l8-1"/><path id="XMLID_454_" class="st0" d="M9.7 51.2l-8.5 8"/><path id="XMLID_453_" class="st0" d="M1.7 61.2l8.5-.5"/><path id="XMLID_452_" class="st0" d="M11.7 59.7l-8 7.5"/><path id="XMLID_451_" class="st0" d="M1.7 70.2l8-.5"/><path id="XMLID_450_" class="st0" d="M12.2 68.2l-8 8"/><path id="XMLID_449_" class="st0" d="M1.7 78.2l8.5-.5"/><path id="XMLID_448_" class="st0" d="M12.2 84.7h-8"/><path id="XMLID_447_" class="st0" d="M.7 40.2l8-7"/><path id="XMLID_446_" class="st0" d="M10.2 27.2l-8 7.5"/><path id="XMLID_445_" class="st0" d="M3.2 36.7l7.5-.5h8"/><path id="XMLID_444_" class="st0" d="M18.2 28.2l-8 1-8.5 1"/><path id="XMLID_443_" class="st0" d="M3.2 22.2l8.5-1.5 8-1"/><path id="XMLID_442_" class="st0" d="M12.2 18.2l8-7 7.5-7"/><path id="XMLID_441_" class="st0" d="M27.7 5.7l-8 .5-8 .5-8 .5"/><path id="XMLID_440_" class="st0" d="M3.2 12.2l7.5-7.5"/><path id="XMLID_439_" class="st0" d="M17.7 2.7l-8 7.5-7.5 8.5"/><path id="XMLID_438_" class="st0" d="M3.7 13.7l7.5-.5 7.5-.5"/><path id="XMLID_437_" class="st0" d="M20.7 9.2l-1 7.5-2 7.5-2 8-1.5 8-.5 6.5-2 8 1 4-5 8.5-2 7.5-.5 8-1.5 8-1 8"/><path id="XMLID_436_" class="st0" d="M150.2 138.2l-1 8-.5 8-1 8v8.5l4 8 2 8 2 6.5 1 8 3 5 4.5 8 5 8 4.5 8 2 8 1 8 2 8 3.5 8.5 3 8.5v8l1.5 8 2 8 4 8 4 8 6 8 8 8 10.5 8 3 8 2 8.5 2 8 2 8 1 8-10 8-12 8-9.5 8-6 8-5.5 8-18 8.5-19 7.5"/><path id="XMLID_435_" class="st0" d="M152.7 430.2l8-.5 8-1 8.5-.5 8.5-1.5 8-1h24"/><path id="XMLID_434_" class="st0" d="M220.2 429.2l7.5 10 8 4 7.5 5 7.5-6 8-5 8-4 8-4.5 8-4 8-4.5 8-4 8-11 8.5-11.5 8-9 8-8 7.5-7 8-7 8-6.5 7.5-1.5 8 9.5 8 6 8 6 8 4.5"/><path id="XMLID_433_" class="st0" d="M394.2 377.2l-8 7.5-8 8-8.5 7.5-8.5 8-8 8-8 7.5-7.5 7.5-8 7.5-8.5 7-8 7-7.5 7.5-8 7.5-8 7.5-7.5 7.5-7.5 7.5-8 7.5-8 7-7.5 7.5-7.5 7.5-8 7.5-8 7.5-8.5 7.5-8.5 7.5-8 7.5-8 7.5-8.5 7-9 7-8.5 8-8.5 8-8.5 8-8.5 7.5-7.5 6.5-7.5 8-8 8-7.5 8.5-7.5 7.5-8 8-7.5 8"/><path id="XMLID_432_" class="st0" d="M97.7 664.7l7.5-.5 7-.5 8-.5 8.5-.5h31.5"/><path id="XMLID_431_" class="st0" d="M168.2 666.2l7.5-7 8.5-7 8-7.5 8-8 8-8 8-8 8-8 8-7 8.5-7 8-7 8.5-7.5 8-7.5 8-7.5 8-8 8-8 8-7.5 8-8 8-7.5 8.5-7.5 8.5-7.5 8-7.5 8.5-7 8-7.5 9-7.5 8.5-7.5 8.5-7.5 8.5-7.5 7.5-8 8-8 8-8 7.5-7.5 8-7 8-7.5 7.5-7 7-7.5 7.5-7.5 7.5-7.5"/><path id="XMLID_430_" class="st0" d="M458.7 386.7l-8 7.5-8.5 7.5-8 8-8 7.5-7.5 7.5-8.5 8-8 7.5-8 7.5-8 7.5-7.5 7.5-8 7.5-8 7.5-8 7-8 6.5-8 7.5-8 7-8.5 8-8 7.5-8 8.5-8 7.5-8 7.5-8.5 7.5-8 7.5-8 8-8.5 8-8 7.5-8.5 7-8 7.5-7.5 8-8 7.5-8.5 7.5-8 8-7.5 7.5-7.5 7.5-7.5 7-8 7-8 7.5"/><path id="XMLID_429_" class="st0" d="M154.7 665.2l7-7.5 7.5-7.5 7.5-7 8-6.5 7.5-7.5 7.5-7.5 8-8 8-7.5 8.5-7.5 8.5-8 9-9 8.5-8.5 8.5-7.5 8-7.5 8-7.5 7.5-8 8-7.5 8-7.5 8.5-7.5 8-8 7.5-7.5 7.5-7.5 8-7 8-7 8.5-7.5 8.5-8 8-7.5 8-8 7.5-7 8-7 9-6.5 8.5-7.5 8-7.5 8-8 8-7.5 8.5-7.5 8.5-8"/><path id="XMLID_428_" class="st0" d="M443.7 386.7l-8 7.5-8 7.5-8 8-8.5 7.5-8.5 7-8 7.5-8 8-8.5 7.5-8 7-8.5 7.5-7.5 7.5-7.5 7.5-7.5 7-7.5 7.5-7.5 7-8 7.5-8 7.5-8 7-8.5 7.5-8 7.5-8 7.5-8 8-8 8-8.5 7.5-8.5 7.5-8.5 8-8 8-8 7.5-8.5 8-8 7.5-8 7.5-7.5 7.5-7.5 7.5-8 7-8 7.5-8.5 8-8 7.5"/><path id="XMLID_427_" class="st0" d="M137.7 667.2l8-8 8-8 8-8 8-8 8-8 8-8.5 7.5-7.5 7.5-8 8-7.5 8.5-8 8-8 8.5-7.5 8.5-7.5 8-7 8.5-7 8.5-6.5 8.5-7 8-8 8.5-8 8.5-7.5 8.5-7 7.5-7 8.5-7.5 7.5-7.5 8-8 7.5-8 8-8 8-7 7.5-7 7.5-7 7.5-7 8-7.5 7.5-7.5 8.5-8 7.5-8 8-7.5 8-7.5"/><path id="XMLID_426_" class="st0" d="M426.2 387.7l-8 7.5-7.5 7.5-8 7-8 7.5-8 7-7.5 8-7.5 8-8 8-8.5 7.5-8 7.5-8 7-7.5 8-8 7-8 6.5-8.5 7-7.5 7.5-8 7-8 7.5-7.5 7-8 7.5-8 7.5-8.5 8-8.5 7.5-8.5 7-8.5 7.5-8 8-8 8-8 8-8.5 8-8 8-8 7.5-8 7.5-8 7.5-7.5 7.5-7.5 7.5-8.5 7.5-8.5 7"/><path id="XMLID_425_" class="st0" d="M121.7 664.2l8.5-7 8.5-7 7.5-7 7.5-7 8-7.5 8.5-8 7.5-7.5 8.5-7.5 8.5-8.5 8-7.5 7.5-7 8-7.5 8.5-7.5 9-8 8.5-8.5 8.5-8.5 8-8 8-7 7.5-7.5 7.5-7 8-7 7.5-7 8-7.5 8-7.5 8-7.5 8.5-7.5 8-8 7.5-6.5 8-6.5 7-7 7-7.5 7.5-8 7.5-7 8.5-8 8-7.5 7.5-8 7.5-8"/><path id="XMLID_424_" class="st0" d="M409.7 387.7l-8.5 8-8 7.5-8.5 7.5-8 8-7.5 8-7.5 7-8 7-8 7-7.5 7.5-7.5 7-8.5 8-7.5 7.5-8 7-8.5 7-7.5 7.5-7.5 7.5-7.5 8.5-8 7.5-8 7.5-7.5 7.5-8 7.5-8.5 7-8 7.5-8.5 8-8 8-8.5 7.5-8 7.5-7.5 8-8 7.5-8 8-8 7.5-8 6.5-8.5 7-8.5 7.5-8.5 7-8.5 7-8 8"/><path id="XMLID_423_" class="st0" d="M115.2 657.7l8-.5 7-.5 7.5-1 7.5-.5 7.5-.5 8-1"/><path id="XMLID_422_" class="st0" d="M169.2 656.2l8-.5"/><path id="XMLID_421_" class="st0" d="M176.7 665.7l7.5-7.5 8-8 7.5-8 8-8 8-7.5 8.5-8 7.5-7 8-7 8.5-8 8.5-7.5 8-7 8.5-8 8-6.5 8.5-7 8.5-7.5 8-7.5 8-7.5 9-7.5 8-7.5 8.5-7.5 8.5-7.5 8-8 7.5-8 8-8 8-7.5 8-7.5 8-7.5 8-7 8-7 7.5-7 8-7 8-7.5 8-7 8-8 7.5-8 8.5-7.5"/><path id="XMLID_420_" class="st0" d="M473.2 397.7l-8 7-8.5 6.5-7.5 7-8 7-7.5 7-7.5 7-7.5 6.5-7.5 7-7.5 8-8 7.5-8 7.5-8 7.5-8 7.5-8 7.5-8 7-8 7.5-8 7.5-8 7.5-8 8-8 8-8.5 7.5-8.5 8-8 7.5-8.5 7.5-8 7.5-9 8-9 7.5-8.5 7.5-8 7.5-8.5 8-7.5 7-6.5 7-7.5 7-7.5 7.5-8 7.5-7.5 7.5"/><path id="XMLID_419_" class="st0" d="M187.7 657.2h16l8-1 7-.5 7.5-.5 7.5-.5 8-.5 8-.5 8-1h7.5l8-.5 8.5-.5h8l9 .5 8-.5 8.5-.5 8-.5 7.5-1 7-.5 8-.5 8-.5 8.5-.5 8.5-.5 8.5-.5 7.5-.5h8l7.5-1 7.5-1 8-.5 8-.5 7.5-.5 8-1h15.5l8.5-1 8-.5 8-1 8-.5 8-1 7.5-.5 8.5-.5"/><path id="XMLID_418_" class="st0" d="M515.2 633.2l-8 8-8 8-8 7.5-8 8-8.5 7.5-8 7.5"/><path id="XMLID_417_" class="st0" d="M475.7 680.2l7.5-8 7.5-7.5 7.5-7.5 7.5-7.5 8.5-7"/><path id="XMLID_416_" class="st0" d="M514.2 651.2l-8 7.5-7.5 7.5-7.5 7.5"/><path id="XMLID_415_" class="st0" d="M488.2 675.7l8-.5h8.5l8-.5"/><path id="XMLID_414_" class="st0" d="M513.7 675.7l-7.5 7.5"/><path id="XMLID_413_" class="st0" d="M498.7 683.2l8-8 7.5-7.5"/><path id="XMLID_412_" class="st0" d="M515.7 661.7l-8.5 7.5-8.5 7.5-8 7"/><path id="XMLID_411_" class="st0" d="M489.2 680.7l8.5-.5h8l8.5-.5"/><path id="XMLID_410_" class="st0" d="M513.7 649.7l-8 .5-7.5 1-7.5 1h-8l-7.5.5-8.5.5-8.5.5-8.5.5-8 .5-8 .5-7 .5-7.5 1-8 .5-8.5.5-8 .5-9-.5h-8l-8.5.5-8 .5h-7.5l-8 1-8 .5-8 .5-7.5.5-7.5.5-7 .5-8 1h-16l-8 .5-8.5.5h-9l-8 .5-9 1-8 .5-8 1-7.5.5-8 .5h-7.5l-8 .5-8.5.5-8 .5-8 .5-7.5.5-7.5 1-8 .5-8 1-8 1-8 .5"/><path id="XMLID_409_" class="st0" d="M113.7 682.7l7.5-.5 8-.5 7.5-.5 8-1"/><path id="XMLID_408_" class="st0" d="M165.2 680.2h15l7.5-.5 7.5-.5h8l8-1.5 8-1 8-1 8-.5 8.5-.5 8-1 7-.5h7.5l8-.5 8-.5h7.5l8-.5h8.5l8-.5 8-1h8l8 .5h23l8-.5 8.5-.5 8.5-.5 7.5-.5h7.5l8.5-.5 8.5-1 8-1 7.5-.5 8-1 8-.5 7.5-.5 8-1 7.5-.5h7.5"/><path id="XMLID_407_" class="st0" d="M482.2 648.2l-8 .5-8 .5h-7.5l-7 .5-8 1-8.5.5-8 .5-8 1-8 1-8 1.5h-8l-7.5.5-7.5.5h-15l-8.5 1-9 1-8.5.5-8.5.5-8 1h-8.5l-8-.5h-17l-8 .5-8 .5-8 .5-8 .5-8 .5-8 1h-7.5l-7 .5h-8l-8.5.5-7.5.5-8.5 1-8 1-8.5 1-8 1.5-7.5.5-7.5.5-8 1-7.5.5-8 .5-8.5.5h-16l-7.5.5-7.5.5-7.5 1-8.5.5-8.5.5-8 .5-8.5.5-8 1"/><path id="XMLID_406_" class="st0" d="M51.7 674.7l8-.5 8-1 8.5-1"/><path id="XMLID_405_" class="st0" d="M80.7 662.7l8-7.5 8.5-7.5 7.5-7 8-8 7.5-7 8.5-7 8.5-7 8-7.5 8-7 7.5-8 8-8 8.5-8 8-8 8-7.5 8.5-7.5 8-7.5 8.5-7 8-7.5 8.5-7 8-8 7.5-7.5 8-7.5 7.5-7.5 8-7 7.5-7 7.5-7 8-7 7.5-7 8-7.5 8-8 8.5-7.5 8.5-8 8-8 8-8 8-8 8-7.5 8-7.5 8-7"/><path id="XMLID_404_" class="st0" d="M383.7 371.2l-7.5 8-8 7.5-8.5 7.5-8 7.5-8 8-8 7.5-8 7.5-7.5 8-7.5 8-8 7.5-7.5 7.5-8 7.5-8 7.5-7.5 7.5-8.5 7.5-7.5 7-8.5 7-8.5 7.5-8 6.5-8.5 7.5-7.5 7.5-8 8-7.5 7.5-8 7-8 7.5-8 7.5-7.5 7.5-8 7.5-8.5 7-7.5 7.5-8 7.5-7.5 7.5-8 8-8.5 7.5-8 8-8.5 7.5-8 7-8 7.5-8 7"/><path id="XMLID_403_" class="st0" d="M64.7 662.7l8.5-7.5 8-6.5 7.5-7 8-7 8.5-7.5 8.5-7.5 8.5-7.5 8.5-7.5 8.5-8 7.5-7.5 8-7.5 8-7.5 8-7.5 8-7 7.5-8 7.5-7.5 7.5-7.5 8-8 8-7.5 7.5-7.5 7.5-7.5 8-7.5 8-7 8-7 8.5-8 8-7.5 8.5-7 8.5-7.5 8-7 8-8 7.5-7 8-7.5 8.5-7 8-7.5 7.5-8 8-8 8-8 7.5-7.5 8-7.5"/><path id="XMLID_402_" class="st0" d="M368.7 371.2l-8 7-8.5 8-7.5 7.5-7.5 8.5-8 8-8 7-8 7-8 6.5-7.5 7.5-8 7.5-8 7.5-8 7-7.5 7.5-8 8-8.5 7.5-8.5 8-8 8-8.5 7.5-8 7-8 7.5-8 7.5-7.5 7-8 8-8 8-7.5 7.5-8 8-8 7.5-7.5 8-7.5 7.5-7.5 7.5-9 8-8.5 7.5-8.5 7-8.5 7.5-8.5 7.5-8 6.5-7.5 6.5-7.5 7-8.5 6.5"/><path id="XMLID_401_" class="st0" d="M57.2 666.2l8-.5 8-1"/><path id="XMLID_400_" class="st0" d="M68.7 648.2l8-.5h8"/><path id="XMLID_399_" class="st0" d="M90.7 656.2l8-.5 8.5-.5"/><path id="XMLID_398_" class="st0" d="M104.7 666.2l8.5-7.5 8.5-7 8.5-8 8.5-7.5 8.5-7.5 8-7 8-7.5 8.5-7.5 8-7.5 8-8 8.5-7 8-8 8-7 7.5-7.5 8-7.5 8-7.5 8-7.5 8-7.5 8-7 8-7.5 7.5-7.5 8-7.5 7.5-7.5 7.5-8 7.5-7.5 8-8.5 7.5-8 8-7.5 8-7 8-8 8.5-7.5 8-7 8-7.5 7.5-7.5 8-7.5 8-7 8.5-7"/><path id="XMLID_397_" class="st0" d="M394.2 386.7l-8 7.5-8 7.5-8 8-8 7.5-8.5 7.5-8.5 7.5-8 7.5-8.5 7.5-8.5 7.5-8 7.5-8 7.5-7.5 7.5-7.5 7-7.5 8-7 7-8 7.5-7 7.5-8 7.5-7.5 7-8.5 7.5-8.5 8-8 7-8.5 7.5-8 7.5-8 7-8.5 8-8 8-8 8-8 7.5-8 8-8 7.5-7.5 8-8 7-8.5 8-8 7.5-8 7.5-8 7"/><path id="XMLID_396_" class="st0" d="M105.7 672.7l8-.5"/><path id="XMLID_395_" class="st0" d="M98.7 672.7l-7.5.5"/><path id="XMLID_394_" class="st0" d="M96.2 641.2l8-.5 8.5-.5 9-.5"/><path id="XMLID_393_" class="st0" d="M123.7 648.7l8-.5 7.5-.5 7.5-.5 7.5-.5 7.5-1"/><path id="XMLID_392_" class="st0" d="M168.7 649.2l8-.5"/><path id="XMLID_391_" class="st0" d="M187.7 648.7l8-.5h24l7.5-.5h7.5l7.5-.5 7.5-.5 8-.5h7.5l7.5-1 8-1 8-.5 8.5-.5 8-.5 8-.5 7.5-1 8.5-.5 8.5-.5 8-.5 8-1h7.5l8-.5 8-.5 8-.5 8-.5 8-.5 8.5-.5 7.5-.5 8-.5 8-.5 8-1 7.5-.5 8.5-.5 8-1 8-1 7.5-1 7.5-1 8.5-.5 8-.5 8-1"/><path id="XMLID_390_" class="st0" d="M516.2 627.2l-8 7.5-8.5 7.5-8.5 7.5-8.5 7-9 7.5-8 7.5-8.5 8"/><path id="XMLID_389_" class="st0" d="M451.2 678.2l8-7.5 8-8 8-7.5 8-7.5 7.5-7.5 8-7.5 8-7.5 8-7"/><path id="XMLID_388_" class="st0" d="M515.7 609.2l-8 7.5-8 7.5-8 7.5-8 7.5-8 7-8 7.5-8 7.5-8 7.5-8 8"/><path id="XMLID_387_" class="st0" d="M434.2 678.7l8-7.5 9-7.5 8-7.5 8.5-7.5 8.5-7.5 8-8 7.5-8 8-8 8-7.5 8-7.5"/><path id="XMLID_386_" class="st0" d="M517.2 596.2l-8.5 7.5-8.5 7.5-8.5 7.5-9 7.5-8 7.5-8.5 7-8 7.5-8.5 7.5-8.5 7.5-8 7.5-8 8"/><path id="XMLID_385_" class="st0" d="M417.7 677.2l8.5-7.5 8-7.5 8-7.5 8-8.5 8-7.5 8.5-8 8-7 8-7.5 8-6.5 8-7 8-7.5 8-7.5"/><path id="XMLID_384_" class="st0" d="M514.7 577.2l-8 7.5-8.5 8-8.5 7.5-8 7-8 7-7.5 7.5-7.5 7.5-8 8-8.5 7.5-8 7.5-8 7.5-7.5 8-8 7.5"/><path id="XMLID_383_" class="st0" d="M403.2 675.2l8.5-7.5 8-8 8-8 8-7.5 8-7.5 8.5-7.5 8-7 8-7.5 8-7.5 7.5-7 7.5-7.5 7.5-7 7.5-7.5 7.5-7.5"/><path id="XMLID_382_" class="st0" d="M516.2 561.7l-8 8-7.5 8-8 8-7.5 7.5-8.5 7.5-7.5 7-8.5 7-8.5 7.5-8.5 8-8 8-8.5 7-8.5 6.5-8.5 7-8 7-8.5 7.5"/><path id="XMLID_381_" class="st0" d="M386.2 673.7l8-8 8.5-7.5 8.5-7 8.5-7.5 8.5-8 8-7.5 8-7.5 7.5-7 8-7.5 8-7 7.5-7.5 8.5-7 8-6.5 8-7 7.5-8 8-7"/><path id="XMLID_380_" class="st0" d="M515.7 546.2l-8 8-8.5 7.5-8 7.5-8 7.5-8 7.5-7.5 7-8 7-7.5 7-7.5 7.5-8 7-8 8-8.5 8.5-8.5 8.5-9 8-8.5 7.5-8 7.5-7.5 7"/><path id="XMLID_379_" class="st0" d="M371.2 675.7l7.5-8 8-7.5 8.5-7.5 8-8 8.5-8 8-7.5 8.5-7 8-7.5 7.5-7.5 8-7.5 8-7.5 7.5-8.5 7.5-7.5 7.5-7.5 8.5-7 8-7 7.5-7.5 8.5-8"/><path id="XMLID_378_" class="st0" d="M513.2 531.7l-7.5 8-8 8.5-7.5 7.5-7.5 8-7.5 7.5-8 7.5-7.5 7.5-8 7.5-8 7-8 7.5-8 7.5-8 7.5-8 7.5-7.5 7.5-8 7-8 8-8.5 7-8 8-8 7.5"/><path id="XMLID_377_" class="st0" d="M354.2 673.7l8-8 8-7.5 8-8 8-8 8.5-8 8-7 8-7.5 8.5-7.5 8-7 8.5-8 8.5-7.5 7.5-7 8-7.5 7-7.5 8-7.5 7-7 7.5-8 7.5-7 7.5-7.5 8-7.5"/><path id="XMLID_376_" class="st0" d="M513.2 513.7l-7.5 7.5-8 7.5-8 7.5-7.5 7.5-7.5 7.5-8 7.5-8 7-7.5 7.5-7.5 7.5-8 7.5-8 7.5-8.5 7.5-8.5 7.5-8 7.5-8 7.5-8.5 7-9 7-8.5 8-8.5 8-8.5 8-8.5 7.5"/><path id="XMLID_375_" class="st0" d="M336.7 671.7l8.5-7 8-7.5 8-7 7.5-8 8-8 8.5-8 8-8 8-7.5 8.5-7.5 8-7.5 8.5-7 8-7.5 8.5-7 8-8 7.5-7.5 8-7.5 7.5-7.5 8-7 7.5-7 7.5-7 8-7 7.5-7"/><path id="XMLID_374_" class="st0" d="M512.7 501.2l-7.5 7.5-8 7.5-8 7.5-7.5 7.5-8.5 7.5-7.5 7-8.5 7-8.5 7.5-8 6.5-8.5 7.5-7.5 7.5-8 8-7.5 7.5-8 7-8 7.5-8 7.5-7.5 7.5-8 7.5-8.5 7-7.5 7.5-8 7.5-7.5 7.5-8 8"/><path id="XMLID_373_" class="st0" d="M321.2 672.2l8.5-7.5 8.5-7.5 8.5-7.5 8.5-8 7.5-7.5 8-7.5 8-7.5 8-7.5 8-7 7.5-8 7.5-7.5 7.5-7.5 8-8 8-7.5 7.5-7.5 7.5-7.5 8-7.5 8-7 8-7 8.5-8 8-7.5 8.5-7 8.5-7.5 8-7"/><path id="XMLID_372_" class="st0" d="M513.7 482.7l-8 7.5-8 7-7.5 7.5-8 8-8.5 7.5-8.5 8-8 8-8.5 7.5-8 7-8 7.5-8 7.5-7.5 7-8 8-8 8-7.5 7.5-8 8-8 7.5-7.5 8-7.5 7.5-7.5 7.5-9 8-8.5 7.5-8.5 7-8.5 7.5-8.5 7.5"/><path id="XMLID_371_" class="st0" d="M305.7 668.2l8.5-7.5 8-7 8-7 8.5-7.5 8-7.5 8-7.5 8-7.5 8-6.5 7.5-7 8-7.5 7.5-7.5 8.5-7.5 8-7.5 8-7.5 8-7 8.5-7.5 8-8 7.5-8 7.5-8 8.5-7.5 8-7 8-7.5 8.5-7 8-7 8-7 8.5-7.5"/><path id="XMLID_370_" class="st0" d="M515.7 468.7l-8 7-8 7-7.5 7.5-8 7.5-8 7.5-8.5 7.5-8 7-8.5 7-8.5 7.5-8 7.5-8 7-8 7-7.5 7.5-8.5 7.5-7.5 7.5-8 7.5-7.5 7.5-8 8-7.5 7.5-8 7.5-8 7.5-8 7.5-8 7-8.5 7-8 7.5-8 8-8 8.5"/><path id="XMLID_369_" class="st0" d="M291.7 668.2l8-7.5 8.5-8 8.5-7.5 7.5-7.5 8-7.5 7.5-7 8-7.5 8-7 7.5-7.5 8-8 8-7.5 7.5-7 8-7.5 8-7.5 8-8 8-8 8.5-7.5 7.5-7 8-7.5 8-6.5 8-7 8-7 8-7.5 7.5-7.5 8-7.5 8-7.5 8-7.5 8-7.5"/><path id="XMLID_368_" class="st0" d="M515.2 451.2l-8 7.5-8.5 7-8 7-7.5 7-8 8-8 7.5-8 8-9 7.5-8.5 7-8 7-8 8-7.5 7.5-8 7.5-8.5 7.5-8 8-7.5 7.5-7.5 7.5-7.5 7.5-7.5 7-8 7.5-8 7.5-8.5 8.5-8.5 8-8.5 7-7.5 7-8.5 7.5-7.5 8-8 7-8 7"/><path id="XMLID_367_" class="st0" d="M276.7 667.2l8-7 8-7.5 8-7 7-7.5 8-7 7.5-8 8-7.5 8-7.5 7.5-7.5 8-7.5 8-7.5 8-7.5 8-7.5 7.5-7.5 8-7.5 8-8 8-7 8-7 8.5-7.5 8-7.5 7.5-7.5 7.5-7.5 7.5-7.5 8-7 8-8 8.5-7.5 8.5-7 8-7.5 8-7.5 8.5-7.5"/><path id="XMLID_366_" class="st0" d="M514.2 437.2l-8 7.5-8 7-8 7-8 7-8.5 7-8 8-8 8-8 8-8 8-8 7.5-8 7-8.5 7.5-8 7.5-8.5 8-8 7.5-8 7-8.5 6.5-8 6.5-8 7-8 7.5-8 7.5-7.5 7.5-7.5 8-7.5 8-7 7.5-7.5 8-7.5 8-7.5 8-8 7.5-7.5 7.5-8 7.5"/><path id="XMLID_365_" class="st0" d="M259.2 668.2l8.5-7 8-7.5 7.5-7.5 7.5-7.5 7.5-8 7.5-7.5 7.5-7.5 8-8 8-8.5 8-8 7.5-7.5 7.5-8 8.5-7.5 8-7 8.5-7 8-7.5 8-7 8-7.5 8-7 8-7.5 8-7 8-7.5 8.5-7.5 8-7 8-7.5 8.5-8 8-7.5 8.5-7.5 8.5-7.5 8.5-8.5 8-8 7.5-7.5"/><path id="XMLID_364_" class="st0" d="M514.7 418.2l-8 7.5-7.5 8-7.5 7-8 7-8 7-8.5 8.5-8.5 8-8.5 8-8 8-8.5 7.5-7.5 7.5-8 7-8 7-8 7-8 7.5-8 7.5-9 8.5-8.5 7.5-8.5 8-8.5 7-8 7.5-7 7-8 7.5-8.5 8.5-8 7.5-7.5 8-8 8.5-8 8-7.5 8-7 7-8 7.5-8.5 7.5-7.5 7.5"/><path id="XMLID_363_" class="st0" d="M242.7 665.7l7.5-7 8-7 7.5-8 8-8 8-7 8.5-7.5 8.5-7.5 7.5-7 7.5-7.5 8-8 8-8 7.5-7.5 8-8 8-7 8.5-7.5 8-8 8.5-7 8-6.5 8-7.5 8-7 8-7 8.5-8 8-8 7.5-7.5 8-8 8.5-7 8.5-8 8-7.5 8-8.5 7.5-7.5 8-8 8-7 8-7.5 8-7"/><path id="XMLID_362_" class="st0" d="M514.7 401.7l-8 7.5-8 7.5-8 8-8 7.5-8 8-7.5 8.5-8 8.5-8 8-8 8-7.5 7.5-8.5 7.5-8.5 7.5-8 7-8 7-8 7-8 7.5-8 7-7.5 7-8 7-8 7-8 7.5-8 7.5-8.5 7.5-8 7.5-8.5 7.5-8 7.5-8 7-7.5 7.5-8 8-8.5 8-7.5 7.5-8.5 7.5-8 7.5-8.5 7-8 7.5"/><path id="XMLID_361_" class="st0" d="M227.2 664.7l7.5-7.5 8-7.5 8-7 8-7.5 7.5-7 8-8 8.5-7 8-7.5 7.5-7.5 8-7.5 8.5-7.5 8-7.5 8.5-8 8-8 8-8 7.5-7 8-7 8-7.5 8-7.5 8-7.5 8.5-7.5 8-7 7.5-7.5 7.5-7.5 8-7.5 8-7.5 8-7.5 7.5-7 8-7.5 8-8 8-7.5 8-7.5 8.5-8 8-7.5 8-7"/><path id="XMLID_360_" class="st0" d="M505.7 396.7l-7.5 7.5-7.5 7.5-8 7-8 7-8.5 7-8 7-8 7.5-8 7-8 7.5-8 8-8.5 7-7.5 7.5-7.5 7.5-7.5 7.5-7.5 8-8 8-8 7.5-8 8-7.5 7.5-7.5 7.5-8 7.5-9 7-8.5 7.5-9 8-9 8-8.5 6.5-8 6.5-8.5 7-8 8-8 8-7.5 7-8 8-7.5 8-7.5 8.5-8 8-7 7.5"/><path id="XMLID_359_" class="st0" d="M210.2 664.2l7.5-7 8-8 8-8 8.5-7.5 8-7 8-7.5 7.5-7.5 8-7 8-7 8.5-7 8-7 8-7.5 7.5-7.5 8-8 8-8 8.5-8 7.5-7.5 8.5-7.5 8-7.5 8.5-7.5 8-7.5 8.5-7.5 8-8 8-7.5 8-8 8-8 8-7 7.5-7 8-7 8-6.5 7.5-7 8-7 8-7.5 8.5-7.5 8.5-7.5 8-8"/><path id="XMLID_358_" class="st0" d="M490.2 396.2l-8 7.5-8 7.5-7 7.5-8 7.5-7.5 7-8 7-7.5 7-8 7.5-7.5 8-8.5 7.5-8 7.5-8.5 7.5-8.5 7.5-8.5 7-9 7.5-8 7.5-8.5 8-8 7.5-8.5 7-8 7.5-8 7-8 7.5-8 7.5-7.5 7.5-7.5 7.5-7.5 7.5-6.5 8-7.5 8-7.5 8-8.5 7.5-8 8-8 7-8.5 7.5-8 7-8.5 7.5-8.5 7"/><path id="XMLID_357_" class="st0" d="M194.7 664.2l7.5-7.5 8.5-7.5 8-7 8-7 7.5-7.5 7.5-7.5 8.5-7.5 8-7.5 8-7.5 8.5-8 8-8 8-7.5 8-7.5 8-7.5 8.5-7.5 8-7 8-8 8-7.5 8-7.5 8-8 8-7.5 8-7.5 7.5-7.5 8-7.5 8-7.5 8-7 8-8 8-7.5 8-7 8.5-6.5 8-7 7.5-7.5 7.5-6.5 8-7 8.5-7 8.5-7.5"/><path id="XMLID_356_" class="st0" d="M508.7 418.7l7.5-.5"/><path id="XMLID_355_" class="st0" d="M441.2 393.7l-8.5.5-8.5 1"/><path id="XMLID_354_" class="st0" d="M377.2 377.2l-8 .5"/><path id="XMLID_353_" class="st0" d="M370.2 364.2l-7.5 7-7.5 7.5-7.5 7.5-8 8-8 7-8.5 7.5-8 8.5-8 7.5-8 7.5-8 7.5-8.5 7.5-8 7-8 7-8.5 7-8 7.5-8 7-8.5 7.5-7.5 8-7.5 8-8 8-8.5 7.5-8 7-8 7.5-8 7.5-8.5 7.5-7.5 7.5-8 7.5-7.5 7-8 6.5-8 7.5-8 7.5-8 7.5-8.5 7.5-8 7-8 7-8.5 7.5-8.5 7.5-8.5 8-8 8-8 8"/><path id="XMLID_352_" class="st0" d="M50.7 663.2l8-.5 7.5-1 8-.5 8.5-1 8-.5 7.5-.5 7.5-.5 8.5-1h9l8.5-1 7.5-.5 7.5-.5 8-1 7.5-.5 8-1 7.5-.5 8.5-1 8-.5 7.5-.5 7.5-.5 8.5-1 8-.5h8l7.5-.5h8l8.5-.5h16l8-.5h8l8-.5 8-.5 8-1 7.5-.5 8-.5 8-.5h32.5l7.5-.5 8-.5 8.5-1 8.5-1 8-1 8.5-1 8.5-.5 8.5-.5 8.5-1 8-.5h8l7-1.5 8-.5 8-.5 8-.5h22.5"/><path id="XMLID_351_" class="st0" d="M513.7 575.2l-7.5.5h-15.5l-7.5.5"/><path id="XMLID_350_" class="st0" d="M515.2 497.2l-8.5.5-8.5-.5-8-.5h-8l-8 .5-8.5 1h-16.5l-8 .5-8 .5-8 .5-8 .5-7.5.5-7.5.5-8 1-8.5.5-8 .5-8 .5-8 1-7.5.5-8 1-8 .5-8 .5-8.5 1h-8l-8 .5-8 .5h-15.5l-7.5.5h-16.5l-8.5.5-7.5.5-7.5.5"/><path id="XMLID_349_" class="st0" d="M202.7 506.2h8.5l8.5-.5 8-.5 7.5-.5 7.5-1 8-1.5 7.5-1 8-1h8l8-.5 7.5-.5 8.5-.5h8l7.5-.5h24l8-.5 8.5-1h8l8-1 8.5-1 8-.5 8.5-.5 7.5-1 8.5-.5 8.5-.5 8-.5 8-.5 8-.5h8l8-.5 8-.5 7.5-1 7.5-1h7.5l8 .5 8-.5 8-.5"/><path id="XMLID_348_" class="st0" d="M420.7 389.7l-8 .5-8.5.5-9 .5-8.5.5h-8.5l-8.5.5h-16l-8 .5"/><path id="XMLID_347_" class="st0" d="M346.2 384.2l8-1 7.5-.5 7.5-.5"/><path id="XMLID_346_" class="st0" d="M363.7 364.2l-8.5 7.5-8 8-8 8-8.5 7.5-8.5 7.5-7.5 7.5-7.5 7.5-7.5 7.5-7.5 7-8.5 7.5-8 7-8 7-7.5 7.5-8 7.5-8 7.5-8.5 7.5-8 7-8.5 7-8.5 7.5-8 7.5-8 7-8 7-7.5 7.5-8.5 7.5-7.5 7.5-8 7.5-7.5 7.5-8 8-7.5 7.5-8 7.5-8 7.5-8 7.5-8 7-8.5 7-8 7.5-8 8-8 8.5-8.5 8-8 7.5-8 8"/><path id="XMLID_345_" class="st0" d="M51.2 669.7h8l8-.5 8-.5 8-.5 8-1 8-1 7.5-1 8-1 8-1 8.5-.5 8-.5 7.5-.5 7.5-.5 8-.5 7.5-.5 7.5-.5 8 .5h8l8.5-.5 8-.5 8-.5 8.5-.5 8-1 7.5-1 7.5-.5h8.5l8 .5 7.5.5 8.5-.5 8-.5 8-.5h8l7.5-1 7.5-1 7.5-1 8-.5 8-.5 8.5-1 8.5-.5 8-1 8.5-.5h16.5l8.5-.5 8.5-.5h8l8-.5 8-.5 8.5-1.5 8-1 7.5-.5 7.5-.5 8-.5 8-.5 7.5-1h8l7.5-.5 8-.5"/><path id="XMLID_344_" class="st0" d="M515.7 606.2h-8l-8.5.5-8 1-8.5 1-8 1-8.5.5-8.5.5h-8.5l-8.5.5-8.5 1-8 .5-8 .5-7.5.5-7.5.5-8 .5-8.5.5-8 .5h-25.5l-7.5.5h-8l-7.5 1-8 .5-7.5.5-8.5 1-7.5.5-8 .5-8-.5-7.5.5-8 .5-7.5 1-7.5 1-7.5.5-8 .5h-16.5l-8.5.5h-8.5l-8 1"/><path id="XMLID_343_" class="st0" d="M187.7 641.2l7.5-.5h8l7.5-.5 8-1 8-1h15l8-.5 8.5-.5 7.5-.5 8-.5h8l8.5-.5 8-1 8-1 8.5-.5h8l8-1 7.5-.5 7.5-1 8.5-.5 8.5-.5h16l8-.5 8-.5 8-.5 8-.5 7.5-1h8.5l8-.5 8.5-.5 8-1 7.5-1 8-1 8-.5h16l7.5-.5 8-.5 8-.5"/><path id="XMLID_342_" class="st0" d="M512.7 643.2h-8.5l-8 .5h-8l-7.5.5-8.5 1h-8l-8.5.5-7.5.5-8 .5-7.5.5-8 .5-7.5.5-8.5.5-8 .5-7.5 1-8 1-8 .5-8 .5-7.5 1-8 .5-8 .5-8.5.5-7.5.5-8 .5-8 .5h-8l-8.5 1-8 1-7.5 1-8 1-8 .5-8 .5-8.5.5-8 .5-8 .5-8 .5-8 .5h-8.5l-8.5 1-8 .5-8 .5-8.5.5"/><path id="XMLID_341_" class="st0" d="M165.2 632.7l8-.5 7-.5 7.5-.5h8l8-.5 8-1 8-1 8-1 8.5-1 8-1h16l7.5-.5 7.5-.5 8-.5h8l7.5-.5 8-.5h8l7.5-1h8l8-.5 8-.5 8 .5h16l7.5-.5 8-.5 7.5-1h8l8-.5 9-.5 8.5-.5 8-.5 8.5-1 7.5-.5 7.5-1 8-1 8-.5 8-.5 8.5-.5 8-1 7.5-1 8-1"/><path id="XMLID_340_" class="st0" d="M474.7 560.7h-8.5l-8.5 1-8.5.5h-8.5l-8.5 1h-7.5l-7.5.5-8 1-7.5.5-8 .5-8 1-7.5.5-8 1-8.5 1-8.5.5h-7.5l-7.5.5-8.5.5-8.5.5-8 .5h-23l-8-.5h-8l-8 1-8 .5h-8.5l-8 .5h-7.5l-8 .5-8 .5h-7.5l-7 .5-8 1"/><path id="XMLID_339_" class="st0" d="M177.2 538.2h8l8-1 8-1h16l8.5-.5 8.5-1h15.5l8-.5 8-.5 7.5-1 8-1.5 7.5-1 8-.5 8-1.5 7.5-.5 8.5-.5h17l8-.5 7.5-1 7.5-1 8.5-1 8-1h7.5l8-.5 8.5-.5 8-1h8l7.5-1h8.5l8-.5 8.5-.5 9-.5h7.5l7.5-1h16l8.5-.5h7.5l8-1.5"/><path id="XMLID_338_" class="st0" d="M457.7 393.7h-16l-8.5.5-8 .5-7.5.5-7.5 1-8 1h-8l-8.5 1h-16.5l-8 .5-8 .5h-7.5l-7.5.5-8.5.5-7.5.5"/><path id="XMLID_337_" class="st0" d="M322.7 393.2h8l8-1"/><path id="XMLID_336_" class="st0" d="M329.7 382.2h8l8-1 8.5-.5 8.5-.5 8-1 8.5-.5h7.5l8-.5"/><path id="XMLID_335_" class="st0" d="M361.2 356.2l-8 7-8 7.5-8 8-7.5 7.5-8 7.5-8 7.5-8 7.5"/><path id="XMLID_334_" class="st0" d="M305.2 406.7l8-.5 9-.5 8.5-.5 8-.5 8.5-1 7.5-.5 7.5-1 8-1 8-.5 8-.5 8.5-.5 8-1 7.5-1 8-1 8-1 8-.5 8.5-.5 8.5-.5h8l8.5-.5 7.5-.5h7l7.5-.5 8-1h7.5l8-.5"/><path id="XMLID_333_" class="st0" d="M370.7 357.2l-8 .5-8.5 1"/><path id="XMLID_332_" class="st0" d="M356.2 352.7l-8 8-10 8-8.5 8.5-7.5 8-7 8.5-6 8.5-4.5 8-10 8.5-14 8.5-13.5 8-13 8-9 7.5"/><path id="XMLID_331_" class="st0" d="M241.7 452.2l-8 7.5-7.5 7.5-8 7-8 7.5-8 7.5-7.5 7-7 7-7.5 7-8 7.5-7.5 7-8.5 8-8.5 7.5-8 7.5-8 8-8 7.5-8.5 7.5-9 6.5-8 7-7.5 7-8 8-8 7.5-8.5 8-8.5 7.5"/><path id="XMLID_330_" class="st0" d="M57.7 623.2l8.5-.5 8-1 7.5-1 7.5-1 7.5-.5 7.5-1.5 8-1 8-1 8-1 7.5-1h51.5l8.5.5h8l7.5-.5 8.5-.5 8-1 8.5-.5 8-.5 8.5-.5 8-.5 7.5-.5 8-.5 7.5-.5 8-.5 8-.5 8.5-.5 7.5-1.5 8-1 8.5-.5 8-1 8-.5 8-1 7.5-1 7.5-1 7.5-.5h40.5l7.5-.5 8-.5 8-.5h16.5l8-1h8l7.5-.5 7.5-.5 7.5-.5 8.5-.5 7.5-.5"/><path id="XMLID_329_" class="st0" d="M513.2 506.7l-8 .5-8 .5-7.5.5h-8l-8 1-7.5 1-8 .5-8 .5-8 1-7.5.5-8.5.5-8 .5-7.5.5-8 1h-8.5l-8.5.5h-8l-8-.5-7.5.5-8 .5-8 .5-8 1-8 1-8.5.5-8 .5-8 .5h-15.5l-8 .5-8 .5-7.5 1-7.5 1-7 1-7.5.5-9 .5-8.5-.5-8.5.5-8 .5h-8.5l-8 1-8 1-8 .5-8 1-7.5 1"/><path id="XMLID_328_" class="st0" d="M161.2 506.7l7.5-1 7.5-1 8-1 8-.5"/><path id="XMLID_327_" class="st0" d="M201.7 498.7l8-1 8-.5 7.5-.5 8-.5 7.5-.5 8-.5 8-1 7.5-.5 8-.5 8.5-.5h7.5l8.5-.5 8.5-.5 8.5-1 8.5-.5h15l8-.5 8.5-.5 8-1h8l8-1 8.5-.5 8.5-.5 8-1 8.5-.5h7.5l8-.5 8-.5 8-.5 8.5-.5 8-1 8-.5 8-1 8-.5 7.5-.5 8-.5 8 .5h8"/><path id="XMLID_326_" class="st0" d="M354.7 375.7h-8"/><path id="XMLID_325_" class="st0" d="M338.2 374.7l8-1 8.5-1 8-.5 8.5-.5 7.5-1 8.5-.5"/><path id="XMLID_324_" class="st0" d="M379.2 363.2l-8 .5h-8l-7.5.5h-7.5"/><path id="XMLID_323_" class="st0" d="M345.2 358.7l-3-8-1-8-1-8v-8l1-8-.5-7.5-1-8 2-8.5 4-7.5-5.5 11"/><path id="XMLID_322_" class="st0" d="M330.7 316.7l-5.5 8-9 8.5-1 1 7.5-7 8-10.5"/><path id="XMLID_321_" class="st0" d="M330.7 317.2l-8 1"/><path id="XMLID_320_" class="st0" d="M319.7 325.7h-8.5"/><path id="XMLID_319_" class="st0" d="M322.2 331.2l-8 .5h-8l-8 .5"/><path id="XMLID_318_" class="st0" d="M288.7 331.7l8-2 8-5"/><path id="XMLID_317_" class="st0" d="M315.7 337.2l-7.5.5-8.5.5-9 .5-8.5.5-9 .5h-8l-9 .5h-8l-8.5.5-8 1h-8"/><path id="XMLID_316_" class="st0" d="M224.7 333.2h8.5l8-.5h8l8.5-.5 8-1h8.5"/><path id="XMLID_315_" class="st0" d="M269.2 336.2h8l7.5 1 7.5-.5 6.5-3"/><path id="XMLID_314_" class="st0" d="M299.7 345.7l-8 .5h-8.5l-8 1-8.5.5-8.5.5h-8.5l-8 .5-8 1-8.5 1"/><path id="XMLID_313_" class="st0" d="M233.2 357.7l7.5-.5h8.5l8.5-.5h8.5l8.5-.5 8-.5 7.5-1 8-1"/><path id="XMLID_312_" class="st0" d="M306.2 345.2l-7 8h.5l8-8.5 8.5-3"/><path id="XMLID_311_" class="st0" d="M361.2 352.7l6.5 8 9 8 13 8 6 8 6.5 1 8 1 8 1 8-1h8l8.5 1 8 2 8-.5h8l8 1 8 2 8 1.5 8 1 8 2"/><path id="XMLID_310_" class="st0" d="M482.2 378.2l-8.5 1h-16.5l-8 .5-8 .5-8 .5-8 .5-7.5.5-7.5.5-8 1-8.5.5-8 .5-8 .5-8 1-7.5.5-8 1-8 .5-8 .5-8.5 1h-8"/><path id="XMLID_309_" class="st0" d="M313.7 397.2l8-.5h15.5l8-.5 7.5-.5 8-.5h16l8.5-.5h8l8.5-1 8.5-.5 8.5-.5 8-.5 8-.5 8-1 7.5-1 8-1h15.5l8-1 8.5-1 8.5-.5 8-1 8-.5"/><path id="XMLID_308_" class="st0" d="M488.7 405.2l-8.5.5h-8.5l-7.5.5-8 1.5-8 1-7.5.5-8 1-7.5 1-8 1-7.5.5-7.5.5-7.5.5-8.5.5h-8l-8.5.5h-8l-8.5 1-7.5.5-8 1-8 .5h-16"/><path id="XMLID_307_" class="st0" d="M305.2 411.7l8.5-.5 8.5-1 8-1 7.5-.5 8-1 8-.5 7.5-.5 8-1 7.5-.5h7.5l8.5-1h8.5l8.5-.5 8.5-1h8.5l8.5-1 8-1 8-.5 8-.5 8.5-.5h8l8-.5"/><path id="XMLID_306_" class="st0" d="M515.2 398.2l-8.5.5h-8.5l-8 1.5-8.5 1.5-8 1-8.5 1.5-8 .5-8 .5-8 .5h-33l-8 .5-8.5.5h-8l-8.5.5-7.5.5-8 1-7.5.5h-7l-8 .5-7.5.5-8 .5-7.5.5-7.5 1-8 .5"/><path id="XMLID_305_" class="st0" d="M298.2 419.7l-8.5 8-7.5 7.5-8 7.5-7.5 7-8 7.5-8 7.5-7.5 8-8 7.5-8 7.5-8.5 7.5-8.5 7.5-8 7.5-8 7.5-8.5 7-8.5 7.5-8 8-8 7-7.5 7.5-7.5 7.5-7.5 7.5-8 7.5-8.5 7.5-8 7-8 7-8 8-8 7.5-7.5 7.5-8 7.5-8 7.5-8 7.5-8 7.5"/><path id="XMLID_304_" class="st0" d="M50.7 653.7h24l7.5-1h7.5l8.5-.5 8.5-.5 8-1 8-.5 8-.5 8-1h8l8-.5 7.5-1.5 7.5-.5 8-.5 8-1 8-1 8-1h8l8-.5 8.5-.5 8.5-.5h7.5l8-1 8-.5 7.5-.5 7.5-.5 8-1 7.5-.5 8-.5h32l8.5-.5 8-.5 8.5-1 8.5-1 8-.5 8.5-.5h8l7.5-.5h16l8-1.5 7.5-1 8-.5h8.5l8-.5 8-1 7.5-1.5 8-1 8.5-.5 8-.5h15l7.5-.5"/><path id="XMLID_303_" class="st0" d="M513.2 562.2l-8 1-8.5.5-7.5.5-8 1-8 .5-8 .5-7.5.5-8.5.5-8 .5-8 .5-8 .5-8 .5-8 .5h-7.5l-8 1-8 .5-8.5.5-8.5.5-7.5 1-8 .5-8 .5-8.5.5-8 .5-8 1-7.5 1h-7.5l-8 .5-7.5.5-7.5.5h-7.5l-7.5.5h-24l-8 .5-8 1-8 .5-8.5.5-8.5.5h-8.5l-7.5 1-8.5.5-8.5 1-8.5.5-8.5.5"/><path id="XMLID_302_" class="st0" d="M143.7 575.7l8-.5 8-.5 8-.5h7.5l8-.5"/><path id="XMLID_301_" class="st0" d="M146.2 568.2h7.5l8-.5 8.5-1 8-.5 8.5-.5 8-1 8-.5h23l8-.5h7.5l8-.5 8-1h33l8-1 7.5-.5 8-1 8-.5 7.5-.5 8-.5 7.5-.5 8-.5 8-1 7.5-.5 8-.5 8.5-.5h7.5l8.5-.5 8.5-.5 8.5-1 8.5-.5h15l8-.5 8.5-.5 8-1h8l8-1 8.5-.5 8.5-.5 8-1 8.5-.5"/><path id="XMLID_300_" class="st0" d="M513.7 429.7h-7.5l-7.5.5-7 .5-7.5.5-8 .5-8 .5h-16l-8 1-8 1-8.5 1h-8.5l-8.5.5-8.5.5-8 .5h-8.5l-8 .5-8 .5h-8l-7.5.5-8 .5h-8l-8 1h-7.5l-8 1-7.5.5-8 .5h-7.5"/><path id="XMLID_299_" class="st0" d="M292.2 426.7l7.5-.5h14.5l8-.5 8-1h7.5l7.5-.5 8.5-.5 8.5-.5 7.5-.5 8.5-.5 7.5-.5h8l8.5-1 8.5-.5 8.5-.5 8.5-1 8-1 8-1 8-1 8-.5 8-.5h7.5l8 .5 8-.5 7.5-.5"/><path id="XMLID_298_" class="st0" d="M512.7 406.7l-8.5.5-8 .5-7.5 1-8.5 1.5h-7.5l-7.5.5-8 .5h-15.5l-8.5.5-7.5 1-7.5 1-8 1-8 1-8 .5-8.5 1-8.5.5-8.5.5-8 .5-8 .5h-7l-7.5.5-8 1h-7.5l-8 .5-8 .5-8 .5-8 .5-7.5 1"/><path id="XMLID_297_" class="st0" d="M281.2 424.7l-7.5 8.5-8 8-7.5 7.5-7.5 7.5-7.5 7-8.5 7.5-8 8-8 7.5-8.5 7.5-7.5 8-8 7-8 7.5-8 7-8 8-7.5 7.5-8 8.5-8 7.5-8.5 8-8.5 7-8 8-7.5 7.5-8 8-8.5 8-8 7-8 7-8 7.5-8 6.5-8.5 7"/><path id="XMLID_296_" class="st0" d="M58.2 638.2l8-.5 8.5-1.5 8-1 8-.5h7.5l8-.5 7.5.5h15.5l7.5-.5 8-.5 8.5-1 8-.5 8-1 8.5-1 8-.5 8-1 7.5-1 8.5-.5 8-1h8l7.5-.5h8l7.5-.5h7.5l8-1 7.5-1 8-.5 8-1.5 8-.5 8-.5 8-.5 8-.5h7.5l8-.5h8l8.5-.5 8.5-.5 8-1 8-.5 8.5-.5h8l8.5-.5 8.5-.5 8.5-.5h8l8.5.5 8-.5 8-.5 8-.5h8.5l8.5-.5 8-.5 7.5-.5 7.5-1 8-1.5 7.5-1"/><path id="XMLID_295_" class="st0" d="M513.2 530.2l-8 .5-8 .5h-7.5l-7.5.5-8.5.5-7.5.5-8.5.5-8 1-8.5 1-8 .5-8 1.5-7.5.5-8 .5-8 .5-8 .5-8 .5-8 1-8 .5h-8l-7.5.5-8.5.5-7.5.5-7.5.5-7.5.5h-8l-8 1h-16.5l-8 .5-8 .5-7.5.5h-40.5l-7.5.5-7.5 1-7.5 1-8 1-8 .5-8 1-8.5.5-8 1-7.5 1.5-8.5.5"/><path id="XMLID_294_" class="st0" d="M130.2 561.7l8-1 8-1 8-.5 8-.5 8-.5 7.5-.5 7.5-1h15l7.5-.5 8.5-.5 8.5-1 8.5-.5h8.5l8.5-.5 8-.5 8-1 8-.5 7.5-.5h8l8-1 8.5-.5h23.5l8.5-.5 8-1 8-.5 8-1 8-.5 8-.5 8.5-.5 8-.5 9 .5h8l8-1 7-1 7.5-1.5 8-1 8-.5 8-.5h8l8-.5 8-.5 8-.5 7.5-.5 8-.5h8.5"/><path id="XMLID_293_" class="st0" d="M513.2 417.7h-7.5l-7.5.5-8 .5-8.5 1-8 .5-8 .5-8 .5-8 1-7.5.5-8 .5-8 .5-7.5.5h-16l-8 .5-8 1-7.5 1-8 1-8.5.5-8 .5h-8.5l-7.5 1-8 .5-8 .5-8 .5-8 .5h-16l-8.5.5-8.5.5"/><path id="XMLID_292_" class="st0" d="M276.2 428.7l8-.5 8-.5 7.5-.5 7.5-.5 7.5-.5 8 .5h15.5l8-.5 8-.5 8.5-1 8-.5h8.5l8.5-.5 8.5-.5h7.5l8-.5 7.5-.5 8-1 7.5-.5 8.5-.5 7.5-.5 7.5-1 7.5-1.5 7.5-.5 7.5-1 8.5-1 7.5-1 7.5-1 8-1"/><path id="XMLID_291_" class="st0" d="M513.7 465.2l-8 .5-7.5.5-8 1-8 1-7.5.5-8 .5-7.5.5-7.5 1-8 .5-8 .5-8 1h-8l-8.5.5h-17l-8.5.5h-15.5l-8 .5-7.5.5h-8l-8 1-7.5.5-8 1-8.5 1-8.5 1-7.5 1-8 .5-8.5 1-8.5.5-8.5 1"/><path id="XMLID_290_" class="st0" d="M249.2 449.7l8.5-1 7.5-.5 8-1h7.5l8-1h8l8-1 8-.5 8.5-.5 9 .5 8-1 8-.5 8-1 8-.5 8-.5 8-.5 8-1 8.5-.5 8-.5 8.5-.5 7.5-.5h15.5l7.5-.5 8-.5h7.5l7.5.5 7.5-.5 8-.5 8-.5 8.5-.5 8-1 7.5-1"/><path id="XMLID_289_" class="st0" d="M515.2 419.2h-8.5l-8.5-.5-8 1-8 1-8.5 1.5-8 1h-8.5l-8 1-8.5.5-8 .5h-8.5l-8 .5h-8l-7.5.5-8.5 1h-8l-8.5.5-7.5.5-8 .5-7.5.5-8 .5-7.5.5-8.5.5-8 .5-7.5 1-8 1-8 .5-8 .5-7.5 1-8 .5-8 .5-8.5.5"/><path id="XMLID_288_" class="st0" d="M257.2 440.7l7.5-.5h7.5l8.5-.5"/><path id="XMLID_287_" class="st0" d="M267.2 435.7l-8 7-8.5 7.5-8 7.5-8.5 8-8 7-8 8-8 7-8 8-7.5 8-7.5 7.5-8 8-8.5 7.5-8.5 7.5-8 7.5-8 7-7.5 7-8 6.5-8 7-7.5 7-8 7-8 8-8 8-8 7.5-8 8-8.5 7.5-8 7.5"/><path id="XMLID_286_" class="st0" d="M59.2 630.7l8-.5 7.5-.5 7-1 7-1 7.5-.5 8-.5 8-.5 8-.5 8.5-.5 8-.5 8-1h8.5l8.5-.5h8l8.5-.5 8.5-.5 8-.5h8l8-.5 8.5-1 7.5-.5 7.5-.5 7.5-.5 8-1 8-.5 8-1 7.5-.5 8-.5 8.5-1 8.5-1h7.5l8-.5 8.5-1 8-.5 8.5-.5 8-1 8-.5h23l8-.5h7.5l8-.5 8-1h33l8-1 7.5-.5 8-1 8-.5 7.5-.5 8-.5 7.5-.5 8-.5 8-1"/><path id="XMLID_285_" class="st0" d="M514.2 577.2l-8 .5-8 .5-8 1-7.5.5-8.5.5-8 .5-7.5.5-8 1h-8.5l-8.5.5h-8l-8-.5-7.5.5-8 .5-8 .5-8 1-8 1-8.5.5-8 .5-8 .5h-15.5l-8 .5-8 .5-7.5 1-7.5 1-7 1-7.5.5-9 .5-8.5-.5-8.5.5-8 .5h-8.5l-8 1-8 1-8 .5-8 1-7.5 1-8.5.5-7.5-.5h-16l-8.5.5-8 .5-7.5 1-8 .5-7.5.5-8 .5"/><path id="XMLID_284_" class="st0" d="M122.7 592.2l8.5-.5h15.5l8-.5 8-.5 8-.5 7.5-.5 7.5-1 7.5-1 7.5-1h8.5l7.5-.5 8.5-.5 9-.5 8.5-1h16.5l8-.5h8.5l8-.5 7.5-.5h8l7.5-.5 8-1 8-1h15l8-.5 8.5-.5 7.5-.5 8-.5h8l8.5-.5 8-1 8-1 8.5-.5h8l8-1 7.5-.5 7.5-1 8.5-.5 8.5-.5h16l8-.5 8-.5 8-.5 8-.5 7.5-1"/><path id="XMLID_283_" class="st0" d="M515.7 467.7l-8.5.5h-8l-8.5.5-8.5.5-8 .5-8 1-8 1-7.5 1-8 1-8.5.5-8 .5-8 .5-8 1-7.5 1-7.5.5-8.5 1-8 .5-8.5.5-9 .5-8 .5h-8l-7.5 1-8 .5-7.5.5h-16l-8-.5-8 .5-8 .5h-8l-7.5 1h-8l-8 .5-7.5.5h-8l-8 .5-7.5.5-7.5.5h-16"/><path id="XMLID_282_" class="st0" d="M176.7 474.2l8.5-.5 8-1 8-.5h8.5l8-.5 9-.5 8.5-.5 8.5-.5 8-.5 7.5-1h8.5l8-.5 7-.5 7.5-.5 8-1 7-1 7-.5 7.5-.5h8.5l8-.5 8.5-.5 8.5-1 8.5-1 8-1 8.5-1 7.5-.5 7-1 7.5-.5h15.5l8-1 8.5-.5 8.5-.5 8.5-.5 8-1h8.5l9-.5h8.5l8 .5 8-.5 8.5-.5 7.5-1"/><path id="XMLID_281_" class="st0" d="M513.2 429.7l-7.5.5h-8l-7.5.5-8 1-8 .5-8 .5-8-.5h-7.5l-7.5 1-7.5 1-8 .5-8 .5h-8l-8 .5-8 .5-8 .5-8.5.5-8.5.5-7.5 1-8.5.5-8 .5-8.5 1-8 1h-8l-8.5 1-8 .5h-24l-7.5.5h-8l-8.5.5-7.5.5"/><path id="XMLID_280_" class="st0" d="M242.2 444.2l-7.5 7.5-8.5 8-7.5 7-8 6.5-7.5 7.5-8.5 7.5-7.5 7.5-7.5 7-8 7.5-8 7.5-8 7.5-8 7.5-8 8-8.5 7.5-8.5 7-8 7.5-8 8-8.5 7.5-8 7-8.5 7.5-7.5 7.5-7.5 7.5-7.5 7"/><path id="XMLID_279_" class="st0" d="M60.2 614.2l7.5-.5 8-.5 8-1 7.5-.5 7.5-1.5 7-.5 7.5-.5 7.5-.5 7-1 8-.5 8.5-.5 9-1 8.5-.5h16.5l8.5-.5 8-.5 8.5.5h16l8-1 8-.5h7.5l7.5-.5h16l8.5-1 8-.5 8.5-.5 7.5-1 8-.5 8-1 8-1 8.5-1 8-.5 7.5-.5 7.5-1 7.5-.5 7.5-1 8-.5 8-.5 8-.5h42l8-.5 7.5-1h8l7.5-1 8.5-1 8-.5 8-1 8-.5 7.5-.5 8.5-.5"/><path id="XMLID_278_" class="st0" d="M515.2 497.2l-8.5 1-8 .5h-8.5l-7.5 1-8 1-8 .5-8 1-8.5.5h-16l-8.5.5-8.5.5-7.5.5-8 .5-8 .5h-16.5l-7.5.5-8 1-8 .5-7.5.5h-8l-7.5 1-8 .5-8 .5-7.5.5-7.5.5-8 1-8.5 1.5-8 .5-8 .5h-8l-8.5.5-8.5.5h-16.5l-8.5.5-8 1-8.5.5-8.5 1-8 .5-8 .5-7.5 1-7.5 1-7.5 1h-8l-8 .5"/><path id="XMLID_277_" class="st0" d="M128.2 530.7l8-.5 8-1 8.5-1"/><path id="XMLID_276_" class="st0" d="M159.7 497.2l8.5-.5 8.5-1 8.5-.5h8.5"/><path id="XMLID_275_" class="st0" d="M159.7 480.2l8-.5h9l8.5-.5h8l8-.5 8.5-1 7.5-.5 8-1 8-.5 8-.5 8-.5 8.5-.5"/><path id="XMLID_274_" class="st0" d="M232.2 444.2l-7.5 7-7.5 7.5-7.5 7.5-8.5 7.5-8 7-7.5 7.5-8 8-8 7.5-7.5 7.5-8 7.5-8 7.5-7.5 7.5-8 7-8 7.5-8 7-7.5 8-7.5 8-8 8-8.5 7.5-8 7.5-8 7"/><path id="XMLID_273_" class="st0" d="M64.7 602.2l8.5-.5 8.5-.5 8-.5"/><path id="XMLID_272_" class="st0" d="M97.7 601.2l8.5-.5h7.5l8-.5"/><path id="XMLID_271_" class="st0" d="M122.2 585.2l8.5-.5"/><path id="XMLID_270_" class="st0" d="M130.2 578.7l8-.5"/><path id="XMLID_269_" class="st0" d="M137.2 586.7h7.5"/><path id="XMLID_268_" class="st0" d="M137.7 569.2l-8 1-8 .5"/><path id="XMLID_267_" class="st0" d="M122.7 577.7l-7.5.5"/><path id="XMLID_266_" class="st0" d="M114.2 566.2l-7.5.5"/><path id="XMLID_265_" class="st0" d="M106.2 560.2l-8 .5"/><path id="XMLID_264_" class="st0" d="M88.2 550.7h-8.5"/><path id="XMLID_263_" class="st0" d="M75.7 552.2l7.5-6.5 8-6.5 7-7 7-7.5 7.5-8 7.5-7 8.5-8 8-7.5 7.5-8 7.5-8 8.5-7 8.5-7.5 8.5-7.5 8-7 8-8 8-7.5 7.5-8 8-8 8-7 8.5-7.5"/><path id="XMLID_262_" class="st0" d="M232.7 395.2l-7.5 7-8.5 7.5-8 7.5-8.5 7-7.5 7-8 8.5-8 8.5-8 8-7.5 7-7.5 7.5-8.5 8-8 7.5-8.5 7.5-8 8-7.5 8-7.5 7-8 7-8 7-7.5 7.5-7.5 7"/><path id="XMLID_261_" class="st0" d="M76.2 547.2h8.5l8-.5 7.5-.5 7-.5 7.5-.5 7-.5h16l7.5-.5 8.5-.5 7.5-.5 7-.5 8-.5 8.5-.5h31.5l8-.5 8-.5 8-.5 8-1 8.5-1 8-1.5 8.5-1 7.5-1 7.5-.5 8-.5 7.5-.5h8l8-.5h9l8.5-.5h8l8-.5 8.5-1 7.5-.5 8-1 8-.5 8-.5 8-.5 8.5-.5 8.5-.5h8l8-.5h8.5l8.5.5 8-.5h8l8.5-.5 7-1h7.5l8-.5 8-.5h8"/><path id="XMLID_260_" class="st0" d="M512.7 443.2h-8l-8 .5-7.5.5-8 .5h-15.5l-8 .5-7.5 1-8 .5-8 1-7.5 1-8 .5-8.5.5h-8.5l-8.5.5h-8.5l-7.5.5h-16.5l-7.5.5h-15l-8 .5-8.5.5-8 1-7.5 1.5-8 1-8 .5h-8.5l-8 .5-7.5 1-8 1.5h-16l-7.5.5h-8l-8.5.5-8 .5-8.5 1-8.5 1-8 .5-8.5.5h-32l-8 .5"/><path id="XMLID_259_" class="st0" d="M129.7 473.2l8-.5 7.5-.5 8-1 8-.5 8.5-.5"/><path id="XMLID_258_" class="st0" d="M153.7 481.2l-8 .5-8 .5"/><path id="XMLID_257_" class="st0" d="M130.7 480.2l-7.5.5"/><path id="XMLID_256_" class="st0" d="M121.7 472.7l-8 .5"/><path id="XMLID_255_" class="st0" d="M113.2 464.2l8.5-1 8-.5"/><path id="XMLID_254_" class="st0" d="M121.2 456.7l8-.5 8.5-.5 8 .5h8l8-.5h8l8-.5 7.5-.5 7.5-.5 8-.5 7.5-.5h8.5l8-.5 8.5-.5h8.5l7.5-1 7-1 7.5-.5 8-1 8-.5 8.5-.5 8-.5 8-.5 8.5-1h8.5l8-.5 8-.5 8-.5 8-.5 8.5-.5 8-.5 8-.5 8-1 7.5-1 8-1 8.5-1h8l8-.5 8-.5 7.5-.5 8.5-.5 8-.5 8-.5 7.5-1 8-.5 8-.5 8-1 7.5-1 8-.5"/><path id="XMLID_253_" class="st0" d="M514.2 519.7l-8.5.5-8 1-8.5 1-8 .5-8 1.5-7.5.5-8 .5-8 .5-8 .5-8 .5-8 1-8 .5h-8l-7.5.5-8.5.5-7.5.5-7.5.5-7.5.5h-8l-8 1h-16.5l-8 .5-8 .5-7.5.5h-40.5l-7.5.5-7.5 1-7.5 1-8 1-8 .5-8 1-8.5.5-8 1-7.5 1.5-8.5.5-8 .5-8 .5-7.5.5-8 .5-7.5.5-8 .5-8.5.5-8 .5-8.5.5-8 1"/><path id="XMLID_252_" class="st0" d="M120.2 554.2h15.5"/><path id="XMLID_251_" class="st0" d="M121.2 537.2l8-.5 8-1 8.5-.5h7.5l8-.5 8.5-.5"/><path id="XMLID_250_" class="st0" d="M154.2 503.2l-8.5 1-8 .5-8.5.5"/><path id="XMLID_249_" class="st0" d="M129.2 497.2l8-1 8-.5 8-.5"/><path id="XMLID_248_" class="st0" d="M122.7 512.7l8.5-.5 7.5-.5 8-1 8-.5 8.5-.5h16.5l8-.5 8-.5 7.5-.5 8-.5 8-.5 8-1"/><path id="XMLID_247_" class="st0" d="M229.2 442.7l-8.5 7.5-9 7-8.5 7.5-8.5 7.5-8 7.5-8.5 7-8.5 7.5-8 8-8 7-7.5 7-8 7.5-8 8-8.5 7.5-8.5 8-8 8-8 7.5-7.5 7.5-8 7.5-8.5 7-8 7"/><path id="XMLID_246_" class="st0" d="M67.2 589.2l7.5-.5 7.5-.5 7.5-.5h16l8.5-.5h8l8-.5 8-.5 8-.5h7.5l8.5-1 8-1.5 8.5-1 8-.5 7.5-1 8.5-.5h7.5l7.5-.5 7.5-.5 8-.5 8-1 8.5-.5h7.5l8-.5 8.5-.5h24l8-.5 8-.5 8-1 8.5-1 8-1.5 8.5-.5 7.5-.5h15.5l7.5-.5h8l8-1 8.5-1.5 8-.5 8.5-.5 8.5-.5 8-1 7.5-.5h8l7.5-.5 8.5-.5 7.5-.5 8-.5h8.5l8-.5 8-1h8"/><path id="XMLID_245_" class="st0" d="M511.7 584.7h-8.5l-7.5.5h-8l-7.5 1-8 .5-7.5.5-8.5 1-7.5.5-8 .5-8-.5-7.5.5-8 .5-7.5 1-7.5 1-7.5.5-8 .5h-16.5l-8.5.5h-8.5l-8 1h-15.5l-7.5 1-8 1-7.5 1h-8l-7.5.5-8.5.5-8 1-8 1-8 .5h-8.5l-8-.5-7-.5-8-.5-8.5.5-9 1-8.5.5-8.5 1-8 1-8 .5-8 .5-7.5.5h-15.5l-7.5 1-7.5.5-7.5 1-8.5.5-8 .5"/><path id="XMLID_244_" class="st0" d="M97.7 618.2l8-1 8-.5 7.5-.5 8.5-.5 8.5-.5 7.5-.5 8-.5 7.5-1 8-.5 8.5-.5 8-.5 7.5-.5 8-1 8-.5 8.5-.5 7.5-.5 8-.5 8-.5 8-.5 8.5-.5 8-.5 8.5-.5h24l8-1 8.5-.5 8-.5 8.5-1.5 7.5-.5h16.5l7.5-.5 7.5-1 7.5-.5 7-.5 8-.5h7.5l7.5-.5 8-.5h8l8-1 8.5-.5h8l9-.5h8l9-.5 8.5-.5 9-.5 8.5-.5 7.5-.5h7"/><path id="XMLID_243_" class="st0" d="M514.7 504.7h-8.5l-8.5.5-7.5.5-7.5.5-8 .5-8.5.5-8 1-7.5 1.5-7.5 1-8 .5-7.5 1-8 1-7.5 1-8 .5-8 .5-8 1h-25.5l-8.5.5h-8.5l-8.5.5-8.5.5-8 .5-7 .5-8 1-8 1-9 1-8 1-8 .5-8 .5-8 .5-8 .5h-7.5l-8.5 1h-15.5l-8 .5h-8l-8-.5-8.5.5h-8.5l-8 .5-8.5.5h-7.5l-7.5.5-7.5.5h-8l-7.5.5-8 .5-8 .5-8.5 1-8 .5-8 .5"/><path id="XMLID_242_" class="st0" d="M81.2 530.2l8-7 8-8 8.5-7.5 8-7 8-7.5 7.5-7.5 8-7.5 8-7 8.5-7 7.5-8 8-7.5 8-8 8-8 8.5-8 8.5-7.5 9-7.5 9-8 8.5-7.5 8-7.5"/><path id="XMLID_241_" class="st0" d="M234.7 385.7l-7 1"/><path id="XMLID_240_" class="st0" d="M224.7 381.2l9-.5 8.5.5h8l8-.5 8.5-.5"/><path id="XMLID_239_" class="st0" d="M265.7 371.2l-8 .5-8 .5h-16.5"/><path id="XMLID_238_" class="st0" d="M232.2 366.2l8-.5 8.5-.5h8.5l9-.5 8-.5"/><path id="XMLID_237_" class="st0" d="M234.7 379.7l-8 7.5-7.5 7-8 7-8 7.5-8.5 7.5-8.5 7-8 8-8 7.5-8 7.5-8 7.5-8 7.5-8 7.5-8 8-8 7.5-8.5 7.5-8.5 7.5-8 7.5-8.5 7.5-8.5 7.5"/><path id="XMLID_236_" class="st0" d="M83.2 523.7l8-.5 7.5-.5 7.5-.5 8-.5 7.5-.5 7.5-.5 8 .5h8l8.5-.5 8-.5 8-.5 8.5-.5 8-1 7.5-1 7.5-.5h8.5l8 .5 7.5.5 8.5-.5 8-.5 8-.5h8l7.5-1 7.5-1 7.5-1 8-.5 8-.5 8.5-1 8.5-.5 8-1 8.5-.5h16.5l8.5-.5 8.5-.5h8l8-.5 8-.5 8.5-1.5 8-1 7.5-.5 7.5-.5 8-.5 8-.5 7.5-1h8l7.5-.5 8-.5 8-1 7.5-.5h16.5l8-.5 8-.5"/><path id="XMLID_235_" class="st0" d="M514.7 435.2l-8 .5-7.5.5-7.5 1-8 .5-8 .5-8.5 1-7.5.5-7.5.5h-25l-8 1-8 1-8 .5h-8l-8 1-8.5.5-8 .5-8 .5-7.5.5-8 .5-8.5.5-8.5.5-8.5.5-8.5.5-8 .5-9 .5-8 .5-8 1-7.5 1-7.5 1h-8.5l-8.5.5-8.5.5h-8l-7.5.5-7.5 1-7 .5-7.5.5-8 1-8 .5-8 .5h-24l-8 .5-8.5.5-8 .5-8 .5h-15.5"/><path id="XMLID_234_" class="st0" d="M105.7 459.2l7.5-7.5"/><path id="XMLID_233_" class="st0" d="M104.7 452.7l8.5-.5 8-.5 7.5-.5h8l8.5-.5 8-.5 8-.5 8.5-.5h8.5l8-.5 8-1 8-1 8-.5 8-.5 8-.5 7.5-.5 7.5-1h15l7.5-.5 8.5-.5 8.5-1 8.5-.5h8.5l8.5-.5 8-.5 8-1 8-.5 7.5-.5h8l8-1 8.5-.5h23.5l8.5-.5 8-1 8-.5 8-1 8-.5 8-.5 8.5-.5 8-.5 9 .5h8l8-1 7-1 7.5-1.5 8-1 8-.5 8-.5"/><path id="XMLID_232_" class="st0" d="M513.2 449.7l-7.5 1-8 1-8.5.5-8 1-8 .5h-8l-8 .5-7.5 1-8 1.5-7.5 1-7.5 1.5-8 .5-8 .5h-17.5l-8.5.5-8.5.5h-8l-7.5-.5-8 .5-7.5 1-8 .5-8 .5-8 .5-8.5.5-8.5 1-8 1-8 1h-38.5l-8.5 1.5-8.5 1-8 1-8.5 1-8 .5-8 .5-8.5.5h-15.5l-7.5 1-8 .5-7.5.5-8 1-8 .5h-7.5l-7.5.5-7.5 1-8 .5h-8"/><path id="XMLID_231_" class="st0" d="M98.7 479.7l8.5-7.5 7.5-6.5 7.5-6.5 7.5-7 7.5-7 7.5-7.5"/><path id="XMLID_230_" class="st0" d="M145.2 438.7l-8 .5"/><path id="XMLID_229_" class="st0" d="M130.7 438.2l8-.5 7.5-.5 8-.5h8l7.5-.5 8-.5 8-1 8-1h8l8-.5 8-.5 8.5-.5"/><path id="XMLID_228_" class="st0" d="M226.7 435.2l-8 7-8 7.5-8.5 7.5-8 8-8 8-8 7-8.5 7-8.5 7.5-8 7.5-8 7.5-8 7-8 7.5-8 7.5-8 8-8 8-8 8-8.5 8-8.5 7.5-8 8-8 7.5"/><path id="XMLID_227_" class="st0" d="M66.7 580.7l8-.5 7.5-.5 8-.5 7.5-.5h8.5l8-.5 7.5-.5 8-.5 8-.5h7.5l8.5-.5h16.5l9-.5 8-.5 7.5-1 8-1 8-1 8-1 8-.5 8.5-.5 7.5-.5 8-1 8-.5 8.5-.5h16.5l8-.5 8-.5 7.5-.5 8-.5 8-.5 8-1 8-.5 8-1 8-.5h22l8.5-.5 8-.5 8-1 8.5-.5 8.5-1.5 8-1 8.5-.5h8l8-.5 7.5-1h8.5l8-.5 7.5-.5h8l8 .5 7.5-.5 7.5.5"/><path id="XMLID_226_" class="st0" d="M513.7 445.2l-7.5 1-8 .5-8.5.5h-16l-8 .5-7.5-.5-7.5.5-8-.5h-8l-7.5.5-8 .5h-8.5l-7.5 1-8 .5h-8l-8.5.5-8 1-8.5 1.5-8.5.5-8 1-8 .5-8.5.5h-22l-8 .5-8 1-8 .5-8 1-8 .5-8 .5-7.5.5-8 .5-8 .5h-16.5l-8.5.5-8 .5-8 1-7.5.5-8.5.5-8 .5-8 1-8 1-8 1-7.5 1-8 .5-9 .5h-16.5l-8.5.5"/><path id="XMLID_225_" class="st0" d="M97.7 474.2l7.5-7.5 7.5-7.5 8.5-7.5 8-8"/><path id="XMLID_224_" class="st0" d="M130.2 438.7l-14 8-8.5 8-7.5 8-4 8.5-2 8-1 8-1 8-2 8-4 8-2 8-2.5 8-1 7.5-3 8.5-1 8-3.5 7.5-2 8-2 8-1 8-2 8-1 8-2 8-1.5 8-1 8-1 7.5-1.5 8-.5 5-4 8-3.5 8-2 6.5-3 7.5"/><path id="XMLID_223_" class="st0" d="M56.2 683.7l8-1 8-1 8.5-1"/><path id="XMLID_222_" class="st0" d="M82.7 654.2h-8l-8 .5-8 .5"/><path id="XMLID_221_" class="st0" d="M57.7 645.7l8-1h8l8-.5h24l7.5-.5 7.5-.5 8.5-.5 8.5-.5 7.5-.5 7.5-1 8-.5 8-.5 8.5-1 8-.5h9l8.5-1 8.5-.5 8-1 8-.5 7-.5 7.5-1 7.5-.5 7.5-.5 8-1 8-1 8.5-1 7.5-1.5 8-.5h8l8.5-.5 7.5-.5h15l8.5-1 8-.5 8-.5 8.5-.5 8-.5h25l8-1h25.5l8.5-.5 8-.5 7-1 8.5-.5 7.5-1 7.5-.5 7.5-1 7-.5 8.5-1 8.5.5"/><path id="XMLID_220_" class="st0" d="M514.7 576.7l-8 1-7.5.5-7.5 1-7.5.5h-8.5l-7.5.5-8.5.5-8.5.5-8 1-7.5 1-8 .5-8.5.5-8.5.5h-8l-8 .5-8.5.5-8 .5-8 1-8 .5-8 .5h-7.5l-8.5.5-8.5-.5h-15.5l-8 .5-8 .5-7.5 1-7.5 1-8.5 1-8 .5-8 .5-8 .5-8 .5-8 .5-8.5.5-8 .5h-8l-8 .5h-8l-8.5.5-7.5.5h-8l-8 .5-8.5.5-8 .5-8 .5-8 .5-7.5.5-8 1-7.5.5-8.5.5-8.5.5-8.5.5-7.5.5-7.5.5"/><path id="XMLID_219_" class="st0" d="M66.7 608.7l8-1 8-1 8-1"/><path id="XMLID_218_" class="st0" d="M90.7 593.7h-8l-8 1"/><path id="XMLID_217_" class="st0" d="M66.2 597.7l8-.5h7.5l8.5-.5 8-1h8.5l8-.5 8-.5h8l8-.5 8-.5h8l8-.5 7.5-1 7.5-.5h7.5l8-.5 8-1 7.5-.5 8-.5 7.5-1h15.5l8.5-.5 8-.5 8-.5 8.5-1 8-1 8.5-1 8.5-1.5h38.5l8-1 8-1 8.5-1 8.5-.5 8-.5 8-.5 8-.5 7.5-1 8-.5 7.5.5h8l8.5-.5 8.5-.5h17.5l8-.5 8-.5 7.5-1.5 7.5-1 8-1.5 7.5-1 8-.5"/><path id="XMLID_216_" class="st0" d="M513.7 482.2l-8.5 1-8.5 1-8.5.5-8 .5h-8.5l-7.5.5-7 .5-7 1-8 1-7.5.5-7 .5-8 .5h-8.5l-7.5 1-8 .5-8.5.5-8.5.5-9 .5-8 .5h-8.5l-8 .5-8 1-8.5.5-8 .5h-8l-8 .5h-48.5l-8 .5-8 1-8 1-8 1-8 1.5-7.5 1-8 1-8 1-7.5.5-8 .5-7.5.5-7.5.5-8.5 1-7.5.5-7.5.5h-7.5l-8 .5h-25l-8 .5"/><path id="XMLID_215_" class="st0" d="M89.2 509.7l8-7.5 8-7 8-8 8-7 8.5-7 8.5-7.5 8.5-7.5 8-7 8-8 8-8 8.5-7.5 8-8"/><path id="XMLID_214_" class="st0" d="M186.2 413.7l8.5-.5 8-.5h8l8.5-.5 8.5-.5 8-.5 7.5-1"/><path id="XMLID_213_" class="st0" d="M242.7 402.2h-8.5l-8 .5h-8l-8.5.5-8.5.5-8 .5"/><path id="XMLID_212_" class="st0" d="M193.2 408.2l8.5-7.5 8.5-8 8-7.5"/><path id="XMLID_211_" class="st0" d="M209.7 390.2l8-.5 8-.5 8-1 7.5-1"/><path id="XMLID_210_" class="st0" d="M234.2 385.7l3 8.5"/><path id="XMLID_209_" class="st0" d="M232.7 392.2l-7.5.5h-8l-8 .5"/><path id="XMLID_208_" class="st0" d="M204.2 398.7l8-.5 7.5-1 8-1 7.5-1 8-.5"/><path id="XMLID_207_" class="st0" d="M244.2 401.7l-3 8.5-5.5 7.5-10 7 8-6 8-10"/><path id="XMLID_206_" class="st0" d="M225.2 417.7l-8.5 7.5-8.5 7.5-8 8-8.5 8-8.5 8.5-7.5 7.5-7.5 7.5-8 7-8 8-8.5 7-7.5 8-8 7.5-8.5 7.5-8 7.5-8 8-8 7.5-8 7.5-7.5 8-7.5 8"/><path id="XMLID_205_" class="st0" d="M76.7 565.2l7.5-.5 7.5-1 7.5-.5 8-.5 8-1h7l7.5-.5 8-1.5 7.5-1 8-1 8 .5h16.5l8.5-.5h8.5l8-1 8-.5 8-.5 8-.5 8.5-.5 8-.5 7.5-.5 8-.5 7.5-1 8-.5 8.5-.5h16l7.5.5 8.5-.5 7.5-1 8-1 8-.5 8-1 8-1h8.5l8-.5 8.5-.5 8.5.5 9-.5 7.5-.5 7-1 7.5-1 7.5-1 8-.5 8-.5h15.5l8-.5 8-.5 8.5-.5 8-1 8-1 8-.5 8-.5"/><path id="XMLID_204_" class="st0" d="M513.2 474.2l-8 1-7.5.5-8.5 1h-8l-8 .5-7.5.5-8.5-.5-8.5 1-7 .5-7.5 1-7.5.5-7.5 1-8.5.5-7 1-8 .5-8.5.5h-25.5l-8 1h-25l-8 .5-8.5.5-8 .5-8 .5-8.5 1h-15l-7.5.5-8.5.5h-8l-8 .5-7.5 1.5-8.5 1-8 1-8 1-7.5.5-7.5.5-7.5 1-7 .5-8 .5-8 1-8.5.5-8.5 1h-9l-8 .5-8.5 1-8 .5-8 .5-7.5 1-7.5.5"/><path id="XMLID_203_" class="st0" d="M92.2 501.2l7.5-7.5 8-7.5 7.5-8 8-7 8-7 8-7 8-7 8-7.5 7.5-8 8-8 8-7.5"/><path id="XMLID_202_" class="st0" d="M169.2 420.7l8.5-.5h16.5l8.5-.5 8.5-.5h8l8-.5 8-.5"/><path id="XMLID_201_" class="st0" d="M216.7 435.2l-7.5 7.5-8.5 7.5-8 7.5-8 7.5-7.5 8-8.5 7.5-8.5 7.5-7.5 7.5-8 7.5-8 7.5-8 7.5-7.5 7.5-8 8-8 8-7.5 8-8 7.5-8.5 7-8 7.5"/><path id="XMLID_200_" class="st0" d="M75.2 568.7l8-1 7.5-1 8-1"/><path id="XMLID_199_" class="st0" d="M91.2 584.7l-8 .5-7.5.5"/><path id="XMLID_198_" class="st0" d="M74.7 577.7l8.5-.5 8-.5 7.5-.5"/><path id="XMLID_197_" class="st0" d="M84.2 559.7l-8 .5"/><path id="XMLID_196_" class="st0" d="M75.2 555.7l8.5-.5h8l8-.5 7.5-.5 7.5-.5 7.5-.5 8-.5 7.5-.5h7.5l7.5-.5 8.5-.5 8-.5 7.5-.5h8l8.5-.5 8-.5 8-.5 8.5-.5h8.5l8-.5 8-1 8-1 8-.5 8-.5 8-.5 7.5-.5 7.5-1h15l7.5-.5 8.5-.5 8.5-1 8.5-.5h8.5l8.5-.5 8-.5 8-1 8-.5 7.5-.5h8l8-1 8.5-.5h23.5l8.5-.5 8-1 8-.5 8-1 8-.5 8-.5 8.5-.5 8-.5 9 .5h8"/><path id="XMLID_195_" class="st0" d="M514.2 466.7h-8l-8.5.5-7.5.5-8 .5h-8l-8 1-7.5 1-8 1.5-7.5 1-7.5.5-8 .5-8.5.5h-8.5l-8 .5-8 .5-8 .5-8.5-.5h-8l-8.5.5-8.5.5-8.5.5h-8l-8.5.5-8 .5-8 1-8.5.5-8.5.5h-8l-8 .5h-7.5l-8 .5-8 .5-8 .5-8 .5-8 1.5-8 .5-7.5 1-8 1h-7.5l-7.5.5h-8l-7.5.5h-8l-8 1-8.5.5-7.5 1-8 1-8 .5-8.5 1-8 1-8 .5-8.5 1-8 .5"/><path id="XMLID_194_" class="st0" d="M91.2 495.2l8-8 8-7.5 8-7 8-7 7.5-7.5 7.5-7.5 7.5-7.5 7.5-7.5 7.5-7.5"/><path id="XMLID_193_" class="st0" d="M154.2 431.7l8-.5h15.5l8.5.5 8.5-.5h7.5l8-.5 8-.5"/><path id="XMLID_192_" class="st0" d="M226.7 425.2l-7.5.5h-8l-8 1"/><path id="XMLID_191_" class="st0" d="M195.2 417.2l8-.5 7.5-.5 8-.5 8-.5"/><path id="XMLID_190_" class="st0" d="M234.7 399.2l-8 1-8 .5-8.5 1-7.5 1"/><path id="XMLID_189_" class="st0" d="M193.7 409.2l8-1 8.5-.5h15.5"/><path id="XMLID_188_" class="st0" d="M226.2 438.2l-7.5 1-7.5 1-7 1-7.5.5"/><path id="XMLID_187_" class="st0" d="M186.2 438.2l-9 .5-8.5.5-7.5.5h-8.5"/><path id="XMLID_186_" class="st0" d="M136.7 448.2l8-1 8.5-1 8.5-.5 9-1 8.5-.5 8 .5 7 .5 8 .5h8.5l8-.5 8-1 8-1"/><path id="XMLID_185_" class="st0" d="M239.7 438.2l-7.5.5h-15l-7.5.5-8 .5h-16l-8 1-8 1-8 .5-7.5.5-8.5.5-8.5 1-8 1-8 .5"/><path id="XMLID_184_" class="st0" d="M113.7 481.2l-8.5.5h-8"/><path id="XMLID_183_" class="st0" d="M97.7 487.7l8-.5"/><path id="XMLID_182_" class="st0" d="M111.7 488.2l8.5-.5 8-.5h8.5l8.5-.5 8 .5h8l8-.5h15.5"/><path id="XMLID_181_" class="st0" d="M131.2 521.2l-8 .5-8 1"/><path id="XMLID_180_" class="st0" d="M121.2 527.7l-8 .5-8 1"/><path id="XMLID_179_" class="st0" d="M106.2 519.7l-8 .5"/><path id="XMLID_178_" class="st0" d="M90.7 512.7l8-.5 8-.5"/><path id="XMLID_177_" class="st0" d="M97.7 503.7l8-.5 8 .5h8"/><path id="XMLID_176_" class="st0" d="M121.7 495.2h-8.5l-8-.5"/><path id="XMLID_175_" class="st0" d="M88.7 485.7l8-1h8.5l8.5-.5h8l8.5-.5 8.5-.5 8-.5h8l8-.5 8.5-1 7.5-.5 7.5-.5 7.5-.5 8-1 8-.5 8-1 7.5-.5 8-.5 8.5-1 8.5-1h7.5l8-.5 8.5-1 8-.5 8.5-.5 8-1 8-.5h23l8-.5h7.5l8-.5 8-1h33l8-1 7.5-.5 8-1 8-.5 7.5-.5 8-.5 7.5-.5 8-.5 8-1 7.5-.5 8-.5 8.5-.5h7.5l8.5-.5 8.5-.5"/><path id="XMLID_174_" class="st0" d="M514.2 491.7l-9 .5h-8.5l-8.5.5-8 .5-7.5.5-7 .5h-22.5l-8 .5-8 .5-8 .5-7 1.5h-8l-8 .5-8.5 1-8.5.5-8.5.5-8.5 1-8 1-8.5 1-8.5 1-8 .5-7.5.5h-32.5l-8 .5-8 .5-7.5.5-8 1-8 .5-8 .5h-8l-8 .5h-16l-8.5.5h-8l-7.5.5h-8l-8 .5-8.5 1-7.5.5-7.5.5-8 .5-8.5 1-7.5.5-8 1-7.5.5-8 1-7.5.5-7.5.5"/><path id="XMLID_173_" class="st0" d="M76.2 541.7l8-.5 7-.5 7.5-.5 8-.5 8-.5 7.5-.5 6.5-1 7.5-.5 8-.5 8-.5 8-.5 8.5-.5 9-.5 8.5-.5 8.5-1 7.5-.5 7.5-.5 7.5-.5h8l8-.5 8.5-.5 8-.5 8.5-1 7.5-1 8-1 8-.5 8-.5 7.5-.5 7.5-.5 7.5-.5 8.5-1 7.5-1 8.5-.5h8.5l8.5-1h16.5l8.5-.5 8-1 8-.5h16.5l8-.5 7.5-.5 7.5-.5h8l7.5-.5h8l7.5-.5 7.5-.5 9-.5 8.5.5h8l8-.5 8.5-.5"/><path id="XMLID_172_" class="st0" d="M513.2 546.2h-8.5l-8 1h-8l-7.5.5h-8l-8 .5-8 .5-7.5 1-7.5.5-7.5 1-8 1-8.5.5-9-.5-8 .5-8.5.5h-8l-8 .5-8 1-8 1-7.5.5-7.5 1h-23l-8 .5-8.5.5-8 .5-7.5 1-7.5.5-8 .5h-8l-8.5.5h-8l-8 .5-8 .5-7.5.5-8.5.5-8 .5-8.5.5h-16l-8 .5-7.5 1.5-8 1-8 .5-7.5.5-8.5.5-8.5 1-7.5.5-8 .5-8 .5-8.5 1h-7.5l-8.5.5-8 1-8 .5"/><path id="XMLID_171_" class="st0" d="M79.7 544.2l8.5-.5"/><path id="XMLID_170_" class="st0" d="M95.2 475.2l8-16 8-6.5 8-8 7.5-3 8-3.5 8-3 8-3 8-4 8-3 8.5-4 8-3 8-6.5 8-11 7.5-7 8-5.5 8-6.5 8.5-1 1 6-1 8-3 8-3 8-2 8-5 9 2.5 7.5 10.5 8"/><path id="XMLID_169_" class="st0" d="M209.7 327.2l8-.5 7.5-1 8-1.5 7.5-1"/><path id="XMLID_168_" class="st0" d="M233.2 309.2l-8 .5"/><path id="XMLID_167_" class="st0" d="M233.2 301.2l7.5-.5 8 .5 8-.5 7.5-.5"/><path id="XMLID_166_" class="st0" d="M257.7 293.2l8-.5 7.5-1"/><path id="XMLID_165_" class="st0" d="M289.7 275.7l-8.5.5-8 .5h-23l-8-.5h-8"/><path id="XMLID_164_" class="st0" d="M228.7 281.7l8-4 5-3 8-.5 8-.5 7.5-2.5 7.5 4 8-.5 8-2.5"/><path id="XMLID_163_" class="st0" d="M298.7 268.7l8-.5"/><path id="XMLID_162_" class="st0" d="M265.2 243.2l-7.5 7"/><path id="XMLID_161_" class="st0" d="M262.2 248.7l-7.5-5"/><path id="XMLID_160_" class="st0" d="M251.2 242.7l-8 7"/><path id="XMLID_159_" class="st0" d="M241.7 250.7l8-.5"/><path id="XMLID_158_" class="st0" d="M241.7 242.7l-8 8"/><path id="XMLID_157_" class="st0" d="M233.7 253.2l8.5-.5 8-1"/><path id="XMLID_156_" class="st0" d="M242.2 260.2h-8"/><path id="XMLID_155_" class="st0" d="M239.7 249.2l-3-3 8-2.5-8 1"/><path id="XMLID_154_" class="st0" d="M235.2 236.2h17"/><path id="XMLID_153_" class="st0" d="M256.2 237.7l8.5-.5"/><path id="XMLID_152_" class="st0" d="M266.2 242.7l-8 1-8 1-8.5.5h-8l-8 .5"/><path id="XMLID_151_" class="st0" d="M210.2 218.7l8.5-7.5"/><path id="XMLID_150_" class="st0" d="M212.2 211.7l-8.5 7"/><path id="XMLID_149_" class="st0" d="M211.2 217.7h8.5"/><path id="XMLID_148_" class="st0" d="M228.2 213.2l7.5-.5"/><path id="XMLID_147_" class="st0" d="M241.7 204.2l-7.5.5h-7.5"/><path id="XMLID_146_" class="st0" d="M226.7 199.7l8-.5 7.5-1.5"/><path id="XMLID_145_" class="st0" d="M265.7 191.7l6 8 7.5 2"/><path id="XMLID_144_" class="st0" d="M281.7 201.7l8-1h7.5"/><path id="XMLID_143_" class="st0" d="M296.2 204.7l7.5-7.5"/><path id="XMLID_142_" class="st0" d="M305.2 196.2l8 3"/><path id="XMLID_141_" class="st0" d="M306.7 205.2l-8.5.5-8.5.5-8 .5"/><path id="XMLID_140_" class="st0" d="M289.7 202.7l8.5-8"/><path id="XMLID_139_" class="st0" d="M304.2 194.2l2 11"/><path id="XMLID_138_" class="st0" d="M290.7 194.7l-7.5 7.5"/><path id="XMLID_137_" class="st0" d="M275.7 201.2l8.5-7 7.5-7.5"/><path id="XMLID_136_" class="st0" d="M297.2 178.2l-8 .5-7.5 1-8 1"/><path id="XMLID_135_" class="st0" d="M275.2 187.2l8.5-3 8-1 8 1 8 2"/><path id="XMLID_134_" class="st0" d="M315.2 192.7l-8 1-7.5 1-8 1-7.5.5-8 .5"/><path id="XMLID_133_" class="st0" d="M266.7 191.2l6 8 5 9 5.5-2.5 7.5 3.5 7.5-3 8-4.5"/><path id="XMLID_132_" class="st0" d="M314.2 186.2l-8.5.5-8 1-8 1.5-8 1-7.5 1-8 .5"/><path id="XMLID_131_" class="st0" d="M256.7 235.2v1l-2.5 8 7.5 7.5 11-1"/><path id="XMLID_130_" class="st0" d="M266.7 242.7l-8-5"/><path id="XMLID_129_" class="st0" d="M248.7 292.7l-8 .5-8 1-7.5 1"/><path id="XMLID_128_" class="st0" d="M221.7 288.7l8 2.5 8-3 8-2 8-3 8.5-1 8 .5 8-3 8-.5 5.5-3"/><path id="XMLID_127_" class="st0" d="M250.2 283.2l-8 .5h-8.5l-8 .5-7.5.5"/><path id="XMLID_126_" class="st0" d="M211.2 299.2h-16.5"/><path id="XMLID_125_" class="st0" d="M196.2 291.2h8"/><path id="XMLID_124_" class="st0" d="M202.7 276.7h-8"/><path id="XMLID_123_" class="st0" d="M201.2 284.7l-8 1-7.5 1"/><path id="XMLID_122_" class="st0" d="M188.7 291.2l8 16 7.5 12 8 8 8 6"/><path id="XMLID_121_" class="st0" d="M203.7 316.7l7.5-.5 7.5-.5 8-.5 8-.5"/><path id="XMLID_120_" class="st0" d="M249.2 307.2l8-1 8.5-1h6"/><path id="XMLID_119_" class="st0" d="M219.2 307.7l-7 1.5h-8"/><path id="XMLID_118_" class="st0" d="M200.7 268.2l-7.5 1-8 .5"/><path id="XMLID_117_" class="st0" d="M185.2 262.2l8-1"/><path id="XMLID_116_" class="st0" d="M193.7 253.2l-8 .5"/><path id="XMLID_115_" class="st0" d="M193.2 243.7h-16.5"/><path id="XMLID_114_" class="st0" d="M176.2 236.2l8.5-.5h8"/><path id="XMLID_113_" class="st0" d="M193.2 228.7h-7.5l-8 .5"/><path id="XMLID_112_" class="st0" d="M169.7 223.7l7.5-.5 8-.5 8.5-1 8.5-1"/><path id="XMLID_111_" class="st0" d="M194.2 216.2l8-2 7.5-5 7.5-.5 8-2"/><path id="XMLID_110_" class="st0" d="M218.2 210.7l-8 1.5h-16l-7.5.5h-8l-8.5.5"/><path id="XMLID_109_" class="st0" d="M160.2 203.7l8.5-1 7.5-1 8.5-.5h8.5l8.5-1"/><path id="XMLID_108_" class="st0" d="M201.7 193.2l-8.5.5-8.5 1-8.5.5-8.5.5-8.5.5"/><path id="XMLID_107_" class="st0" d="M156.2 193.7l8 15 7.5 9.5"/><path id="XMLID_106_" class="st0" d="M163.7 193.7l8-8 8-7.5"/><path id="XMLID_105_" class="st0" d="M179.7 169.7l-8 7.5-7.5 7.5"/><path id="XMLID_104_" class="st0" d="M163.2 178.2l8-7.5 8.5-8"/><path id="XMLID_103_" class="st0" d="M185.2 148.2l-8 7.5-7.5 8-8 7.5"/><path id="XMLID_102_" class="st0" d="M155.2 173.2l8-.5 8-.5 8-1 8-.5 8-1"/><path id="XMLID_101_" class="st0" d="M202.2 181.7l8-1"/><path id="XMLID_100_" class="st0" d="M194.7 178.2l-8.5.5-8 1.5-8.5 1-8 1-8 .5"/><path id="XMLID_99_" class="st0" d="M153.7 189.2h30.5l8-1"/><path id="XMLID_98_" class="st0" d="M210.2 199.7h8"/><path id="XMLID_97_" class="st0" d="M209.2 208.7l-16 7v2h8l8-2 8-3 8-1.5"/><path id="XMLID_96_" class="st0" d="M193.7 164.2h-23l-8 .5-8.5.5"/><path id="XMLID_95_" class="st0" d="M153.7 170.2l7.5-7.5 8-8 7.5-7.5 7.5-7.5"/><path id="XMLID_94_" class="st0" d="M184.7 131.7l-7.5 7.5-7.5 6.5-8 7.5-8 7.5"/><path id="XMLID_93_" class="st0" d="M152.7 158.7l7.5-.5h8.5l8-.5 8.5-.5"/><path id="XMLID_92_" class="st0" d="M191.7 147.2l-7.5.5h-15l-7.5.5-8 .5"/><path id="XMLID_91_" class="st0" d="M153.7 154.2l7.5-8 8-8 8.5-8 7.5-7"/><path id="XMLID_90_" class="st0" d="M170.7 118.2l8-1 8-1 8.5-.5 7.5-.5h8l7.5-1 8-1 7.5-1"/><path id="XMLID_89_" class="st0" d="M234.7 113.2l7.5-8 8-7 8.5-7.5 8.5-7.5"/><path id="XMLID_88_" class="st0" d="M266.7 76.7l8 1"/><path id="XMLID_87_" class="st0" d="M274.7 83.2l-8.5 7-8.5 8-8 8"/><path id="XMLID_86_" class="st0" d="M259.2 105.7h-16.5l-8 .5-8 .5-7.5.5h-40.5"/><path id="XMLID_85_" class="st0" d="M184.7 101.2h8l8.5-.5 8-.5 9 .5 8.5-.5 8-1 7.5-1 7.5-.5 7.5-1 8-.5 8-.5h8l7.5-.5h8l8-1"/><path id="XMLID_84_" class="st0" d="M297.2 87.7h-8l-8 .5h-8.5l-7.5 1-7 .5-7.5.5h-7.5l-7.5 1h-8l-8 .5-8 .5-8 1-7.5 1"/><path id="XMLID_83_" class="st0" d="M210.7 85.7l8.5-.5 7.5-1 7.5-.5 7.5-1 7-.5 8.5-1 8.5.5 7.5-.5 8-.5h8"/><path id="XMLID_82_" class="st0" d="M291.7 83.2l9 8.5 10.5 11 8.5 6.5 2 7.5 4 7.5 7 8"/><path id="XMLID_81_" class="st0" d="M322.2 116.7l-7.5.5-8 1"/><path id="XMLID_80_" class="st0" d="M313.7 108.2l-8 1-8 .5"/><path id="XMLID_79_" class="st0" d="M288.2 110.7l17 8 9.5 6 5 8 4.5 8 10 3.5 5-.5"/><path id="XMLID_78_" class="st0" d="M331.7 137.2l-8-9-8-13-7-10-8-10.5-8-8"/><path id="XMLID_77_" class="st0" d="M282.2 82.7l-8.5 7.5-7.5 7.5"/><path id="XMLID_76_" class="st0" d="M272.7 98.2l7.5-7.5"/><path id="XMLID_75_" class="st0" d="M281.7 75.2h-8l-8 .5-7.5-.5-7.5.5-8-.5h-8l-7.5.5-8 .5"/><path id="XMLID_74_" class="st0" d="M219.7 73.7l-8 5-8 8-8 6.5-9 6-6 6.5-7.5 7-8 9-2 7.5"/><path id="XMLID_73_" class="st0" d="M161.7 126.2l8-.5 8.5-.5 8-.5 8-1 7.5-1 9-.5h8.5l9-.5 8-.5"/><path id="XMLID_72_" class="st0" d="M231.7 113.7l7.5.5 8 .5 8-4 8-1 7.5 1 8-1 8 1 8 3.5 8 4 8 7 9 8 8 13"/><path id="XMLID_71_" class="st0" d="M329.7 157.2l4.5 8.5 5.5 8-4 8.5.5 8v8l1 7.5 7 1"/><path id="XMLID_70_" class="st0" d="M345.2 203.2l7.5-.5"/><path id="XMLID_69_" class="st0" d="M352.7 194.7l-7.5 1"/><path id="XMLID_68_" class="st0" d="M343.7 188.2l8-1"/><path id="XMLID_67_" class="st0" d="M354.2 180.7l-8 1"/><path id="XMLID_66_" class="st0" d="M342.2 185.7l-5 3"/><path id="XMLID_65_" class="st0" d="M346.7 212.2l7.5-.5 8.5-.5"/><path id="XMLID_64_" class="st0" d="M346.2 238.2l3 8"/><path id="XMLID_63_" class="st0" d="M360.2 261.2l-4 8-8 5 8-4.5"/><path id="XMLID_62_" class="st0" d="M344.2 171.2l-6-.5-8-12"/><path id="XMLID_61_" class="st0" d="M250.7 96.2l-8.5.5-8 .5"/><path id="XMLID_60_" class="st0" d="M234.2 105.2l8.5-7.5 8-8 8-7.5"/><path id="XMLID_59_" class="st0" d="M252.2 81.7l-8.5 7.5-8 7.5"/><path id="XMLID_58_" class="st0" d="M226.2 97.2l8.5-7 8.5-7.5 8-7"/><path id="XMLID_57_" class="st0" d="M248.7 69.7h7.5"/><path id="XMLID_56_" class="st0" d="M244.7 68.2l-8 2.5-9.5 2-7.5 2.5-9.5 8-2.5-3 9-8"/><path id="XMLID_55_" class="st0" d="M223.2 68.2l-6 8-11 7-13 9.5-10.5 9-9 8-7.5 9.5-7 8-2.5 9-3 8.5"/><path id="XMLID_54_" class="st0" d="M155.2 147.7l8.5-6.5 8-7"/><path id="XMLID_53_" class="st0" d="M161.7 132.7l8-.5 8.5-.5h24l8-1 8.5-.5"/><path id="XMLID_52_" class="st0" d="M225.7 129.7l-8 3h-7.5"/><path id="XMLID_51_" class="st0" d="M199.2 135.2l-5 8-10.5 8 6-3.5 8.5-7"/><path id="XMLID_50_" class="st0" d="M199.7 138.2h-39.5l-8 .5"/><path id="XMLID_49_" class="st0" d="M234.7 133.2v-8l-3.5-9 2-8-3-8.5-1-8-1.5 1-1.5-7"/><path id="XMLID_48_" class="st0" d="M225.7 96.7l8 3"/><path id="XMLID_47_" class="st0" d="M240.2 105.2l8-1.5"/><path id="XMLID_46_" class="st0" d="M251.2 89.7l-8 .5"/><path id="XMLID_45_" class="st0" d="M242.2 67.2l-7 3 2 7.5 9-8 8-5 4 3.5 7.5 1 8 .5 7.5 4 .5 8 5-2 8 4.5 8 8 10 10 4 7 8.5 12 8 11.5"/><path id="XMLID_44_" class="st0" d="M271.7 69.7l3 8 12 4.5 7.5 8 10.5 7.5 5 8 4 8 6.5 8 3.5 8 7 8 3.5 8 7.5 8-3.5 8 4 8 6 6.5 4 8 .5 4 1 8 .5 8 2 8-1 8.5 1 8-6 1.5 7 .5"/><path id="XMLID_43_" class="st0" d="M399.2 52.2l8.5-.5h8l8.5-.5 8-.5"/><path id="XMLID_42_" class="st0" d="M442.2 51.7l8-.5h8l8 .5 7.5-.5 7.5-.5"/><path id="XMLID_41_" class="st0" d="M491.2 53.2l8.5-.5"/><path id="XMLID_40_" class="st0" d="M507.7 54.7l8-1"/><path id="XMLID_39_" class="st0" d="M513.2 58.2l-7.5 1-8 1.5h-7.5"/><path id="XMLID_38_" class="st0" d="M483.7 77.2h8l8-.5 8-.5 7.5-1"/><path id="XMLID_37_" class="st0" d="M515.7 92.7l-7.5 1"/><path id="XMLID_36_" class="st0" d="M515.2 85.2l-8.5.5-8 .5"/><path id="XMLID_35_" class="st0" d="M515.2 66.7l-8 .5-8 1-8 .5-8 1-8.5.5"/><path id="XMLID_34_" class="st0" d="M481.2 59.7l-7.5.5-7.5 1-8 1"/><path id="XMLID_33_" class="st0" d="M442.2 55.2l8 5 8 5.5 8 4 7.5 5 8 5.5 8 4.5 8.5 4"/><path id="XMLID_32_" class="st0" d="M513.7 25.7h-15.5l-8 1-7.5 1-8 1-8 .5-8 .5-8.5.5-8.5.5-8.5 1"/><path id="XMLID_31_" class="st0" d="M442.7 22.7l7.5-.5 7.5-.5 7.5-.5 8-1 7.5-1 8-1 7.5-.5 8-1"/><path id="XMLID_30_" class="st0" d="M513.7 2.2l-8 .5-8.5.5-8 .5-8 .5h-7.5l-8 1h-8.5"/><path id="XMLID_29_" class="st0" d="M450.2 12.2l8-1 7.5-.5 7.5-.5 8-.5 8-.5 8-.5 8-.5h8.5"/><path id="XMLID_28_" class="st0" d="M491.7 40.2l-8.5.5-8 .5-8 .5-8 1-8.5 1h-8.5l-8.5 1-8.5.5h-8.5l-8.5 1"/><path id="XMLID_27_" class="st0" d="M410.2 37.2l8.5-.5 8-1 7.5-1 8-1 8-1 8-.5 8.5-.5 8.5-.5h8l8.5-.5 7.5-.5h7"/><path id="XMLID_26_" class="st0" d="M451.7 3.2l-8 .5-8.5.5h-16.5l-8.5.5h-8"/><path id="XMLID_25_" class="st0" d="M409.7 12.2h8l7.5-.5 8-.5"/><path id="XMLID_24_" class="st0" d="M425.7 19.7l-8 .5-7.5.5-7.5.5"/><path id="XMLID_23_" class="st0" d="M393.7 30.2l8-1 8-.5 8-.5"/><path id="XMLID_22_" class="st0" d="M401.7 45.7l-8 .5-8 .5"/><path id="XMLID_21_" class="st0" d="M380.7 43.7l8.5 6 8 3 8 5.5"/><path id="XMLID_20_" class="st0" d="M401.7 38.7l-7.5.5-8.5.5"/><path id="XMLID_19_" class="st0" d="M381.2 40.2l1-4.5"/><path id="XMLID_18_" class="st0" d="M376.7 23.7l8-.5 8.5-.5"/><path id="XMLID_17_" class="st0" d="M400.7 12.7h-7.5l-8 1-7.5.5"/><path id="XMLID_16_" class="st0" d="M362.7 5.7l8-.5 8.5-.5 8-1 7.5-1"/><path id="XMLID_15_" class="st0" d="M378.2 16.2l-8-3-8-5.5-7.5-5"/><path id="XMLID_14_" class="st0" d="M354.7 2.2l10.5 8 14 8 1.5 7.5.5 8 1 8 7 7.5 15 8 12 7"/><path id="XMLID_13_" class="st0" d="M442.2 54.2l12 8 13 7.5 11.5 8 13 7"/><path id="XMLID_12_" class="st0" d="M105.7 474.7h-7.5"/><path id="XMLID_11_" class="st0" d="M83.2 614.7l-8 .5h-8"/><path id="XMLID_10_" class="st0" d="M66.2 624.7l8-.5h7.5"/><path id="XMLID_9_" class="st0" d="M97.2 633.7l8-.5"/><path id="XMLID_8_" class="st0" d="M113.7 624.2h8l7.5-.5"/><path id="XMLID_7_" class="st0" d="M130.2 630.7h8"/><path id="XMLID_6_" class="st0" d="M144.7 630.7h8"/><path id="XMLID_5_" class="st0" d="M154.2 625.2h7.5l8-.5 7.5-.5 8-1"/><path id="XMLID_4_" class="st0" d="M171.2 639.2l-8.5 1-8 1-8 1-8 .5"/><path id="XMLID_3_" class="st0" d="M73.7 640.7l-8.5.5"/><path id="XMLID_2_" class="st0" d="M64.7 633.2l8-.5 8-.5"/><path id="XMLID_1_" class="st0" d="M481.2 684.2l6-4.5"/></svg>