<svg xmlns="http://www.w3.org/2000/svg" viewBox="0 0 619.94 451.29"><path d="M113.75 433.37a14.31 14.31 0 0 1 4.27 4.55 14.67 14.67 0 0 1 2 8v4H78.49v-4.32c0-3.41.8-5.92 2.42-7.53a27 27 0 0 1 4.69-3.84c1.7-1.14 2.56-3.51 2.56-7.11q-1.14-7.39-2.28-13.65-.85-5.4-1.56-10.1c-.48-3.13-.81-5.16-1-6.11-.38-2.28-1-3.6-1.85-4a9.84 9.84 0 0 0-3.83-.57H41.23q-5.11 0-5.4 4.83-.28 1.48-.83 6.28t-1.14 9.95Q33 420 32.13 427.12a9.76 9.76 0 0 0 .57 4 7.13 7.13 0 0 0 2 2.27 19.75 19.75 0 0 1 4 4c1.32 1.7 2 4.26 2 7.67v4.84H0V445q0-4.83 2-7.11a19.46 19.46 0 0 1 4.27-3.69 6.69 6.69 0 0 0 3-3.56c.48-1.42.9-2.89 1.28-4.4q8-46.08 14.51-82.47 2.84-15.36 5.4-30.29t4.69-26.59q2.13-11.66 3.41-18.91c.86-4.84 1.28-7.35 1.28-7.54.19-1.51.38-2.84.57-4s-.66-2-2.56-2.56a7.9 7.9 0 0 1-4.26-4.12q-1.14-2.7-1.14-9v-3.7h30.4q6.54 0 10.38 4.13a17.64 17.64 0 0 1 4.69 9.24q0 1.14 1.42 9.24T83 280.38q2.26 12.51 5.12 28.3t6 32q7.11 38.38 15.92 86.16a29.47 29.47 0 0 0 1.14 3.7 6.87 6.87 0 0 0 2.56 2.84zm-38.67-59.43a3.72 3.72 0 0 0 3.27-1.42 4.11 4.11 0 0 0 .71-3.13c0-.19-.29-1.9-.86-5.12s-1.28-7.39-2.13-12.51-1.8-10.86-2.84-17.21-2.14-12.84-3.23-19.48q-4-23.31-8.82-52.61a2.14 2.14 0 0 0-.28-.85l-.86-.85c-.19 0-.57.28-1.13.85a2.2 2.2 0 0 0-.29.85l-9.1 52.9q-1.71 9.94-3.41 19.48t-3 17.2q-1.31 7.68-2.11 12.52c-.57 3.22-.85 4.92-.85 5.11a3.65 3.65 0 0 0 .71 3 3.55 3.55 0 0 0 3 1.28zm135.36-48.63c0 1.9-.52 2.89-1.56 3a6.43 6.43 0 0 1-3-.43 58.24 58.24 0 0 0-16.21-1.56 42.56 42.56 0 0 0-12.94 2.56 20.19 20.19 0 0 0-8.67 6 13 13 0 0 0-3.13 8.39v83.89a6.89 6.89 0 0 0 .85 4 12.54 12.54 0 0 0 2.28 2.27 15.74 15.74 0 0 1 4.4 4.55c1.43 2.09 2.14 4.93 2.14 8.54l-.29 3.41h-40.37v-3.7q0-5.4 2.13-8.53a15.89 15.89 0 0 1 4.41-4.55 13.21 13.21 0 0 0 2.28-2.27c.57-.76.85-2.18.85-4.27v-97a4.19 4.19 0 0 0-1-2.85 14.24 14.24 0 0 0-2.14-2 17.18 17.18 0 0 1-4.41-4.26 12.54 12.54 0 0 1-2.13-7.68v-5.12h17.35q7.4 0 10.52 3.84t3.13 6.68a36.9 36.9 0 0 1 10.52-7.68 50.2 50.2 0 0 1 13.08-3.84q7.68-1.28 17.92 1a5.54 5.54 0 0 1 4 5.69v11.94zm102.66 33q-15.93 0-15.93-11.66v-.57q0-11.37-7.25-17.06t-18.06-6a24.45 24.45 0 0 0-9.1 1.7 23.79 23.79 0 0 0-7.67 5 24.06 24.06 0 0 0-5.41 7.82 25.42 25.42 0 0 0-2 10.24v59.72q0 11.37 5.69 18.91t18.48 7.53q12.81 0 19.34-5.68t6.54-15.93v-1.14q0-13.08 15.36-13.08h6v10.81a64.16 64.16 0 0 1-2.13 16.92 30.14 30.14 0 0 1-7.54 13.36 36.3 36.3 0 0 1-14.5 8.68q-9.11 3.12-23 3.13-13.08 0-21.75-3.56a34.62 34.62 0 0 1-13.93-9.95 38.94 38.94 0 0 1-7.54-15.36 80.07 80.07 0 0 1-2.28-19.76v-53.47a46.77 46.77 0 0 1 3.5-18.91 36.11 36.11 0 0 1 9.81-13.36 41.17 41.17 0 0 1 14.5-7.82 59.08 59.08 0 0 1 17.63-2.56 56.12 56.12 0 0 1 19.2 3.13 48.37 48.37 0 0 1 14.94 8.39 37.37 37.37 0 0 1 9.66 12.22 33 33 0 0 1 3.41 14.65v13.65zm74.51 73.94a9.43 9.43 0 0 1 3-.14c1.23.09 1.85 1.18 1.85 3.27v7.39q0 4-1.28 4.83a9.46 9.46 0 0 1-2.13 1.14q-10.25 2.56-18.06 1.42a31 31 0 0 1-13.37-5 25 25 0 0 1-8.38-9.67 29.08 29.08 0 0 1-2.85-12.94V327.3h-15.66v-6.25q0-13.37 11.94-13.37h3.7v-34.41q0-9.39 3.41-14.5a22.82 22.82 0 0 1 7.4-7.4 23.58 23.58 0 0 1 11.09-3.12v59.43h17.35v6q0 6.25-3.56 10T372 327.3h-3.7v95.27q0 6 5.83 8.53a22.7 22.7 0 0 0 13.51 1.14zm119.44-4a15.11 15.11 0 0 1 4.4 4.69 15.67 15.67 0 0 1 2.14 8.67v8.25h-14.51a11.25 11.25 0 0 1-8.1-3.13 25 25 0 0 1-4.69-5.69 41.46 41.46 0 0 1-10.53 7q-6.25 3-15.64 3-21 0-33.55-10.95t-12.52-32.85v-77.09a6.34 6.34 0 0 0-1-3.7 12.45 12.45 0 0 0-2.42-2.56 12 12 0 0 1-4-4.55 16.5 16.5 0 0 1-1.71-8v-3.7h22.18q4.56 0 6.4 2.13c1.24 1.42 1.85 3.94 1.85 7.54v91.28a19 19 0 0 0 2.42 9.81 25.91 25.91 0 0 0 6.11 7.11A25 25 0 0 0 452 430a27.25 27.25 0 0 0 8.39 1.42 43.83 43.83 0 0 0 11.66-1.28 25.33 25.33 0 0 0 7.11-3 13.16 13.16 0 0 0 4.55-4.55v-92.44a6.35 6.35 0 0 0-1-3.7 12.18 12.18 0 0 0-2.42-2.56 12 12 0 0 1-4-4.55 16.5 16.5 0 0 1-1.7-8v-3.7H496q4.85 0 7 2.7a9.24 9.24 0 0 1 2.13 5.83v106.4a16.91 16.91 0 0 0 .29 3.7 3.41 3.41 0 0 0 1.71 2zM572.45 323a27.47 27.47 0 0 0-10.38 1.7 17.39 17.39 0 0 0-6.68 4.69 18.6 18.6 0 0 0-3.7 6.69 25 25 0 0 0-1.14 7.39v1.42a14.19 14.19 0 0 0 5.12 11.24 52.16 52.16 0 0 0 12.8 7.82q7.68 3.4 16.78 6.82a92.5 92.5 0 0 1 16.75 8.29 46.22 46.22 0 0 1 12.79 11.8q5.13 7 5.12 17.49 0 20.47-10.66 31.71T575 451.29q-12.79 0-21.61-3a38.7 38.7 0 0 1-14.5-8.38 31.52 31.52 0 0 1-8.24-12.91 52.37 52.37 0 0 1-2.56-16.92V398.4h4.83q8.25 0 13.08 2.84t4.84 11.09v.57q0 10.8 6.4 16.21t17.2 5.4a29.48 29.48 0 0 0 11.52-2 21.18 21.18 0 0 0 7.54-5.12 18 18 0 0 0 4-6.82 23.29 23.29 0 0 0 1.13-6.83v-2.27A16.42 16.42 0 0 0 593.5 399a50.27 50.27 0 0 0-12.8-8.54q-7.68-3.69-16.64-7a82.37 82.37 0 0 1-16.63-8.25 46.24 46.24 0 0 1-12.8-12.21q-5.11-7.25-5.12-18.63V339a26 26 0 0 1 3.41-13.08 33.64 33.64 0 0 1 9.1-10.24 44.33 44.33 0 0 1 13.37-6.68 53.71 53.71 0 0 1 16.21-2.42q12.51 0 21.18 2.85a35.4 35.4 0 0 1 13.94 8 29.64 29.64 0 0 1 7.54 11.8 44.46 44.46 0 0 1 2.27 14.36v15.64h-5.4q-7.68 0-12-3.13t-4.26-10.52a25.67 25.67 0 0 0-5-15.78Q585 323 572.45 323z" fill="#fff"/><path d="M317.58 0c-2.33 0-4.62 0-6.9.08-3 7.17-4.7 14.06-1.26 20.6a2.68 2.68 0 0 1 .39 3.74 2.62 2.62 0 0 1-3.72.07C301 17.87 302 7.07 304.74.4a165.14 165.14 0 0 0-35.35 6.2c-3 3.59-4.49 8.24-5.7 12.73a2.63 2.63 0 0 1-3.17 2.14 2.69 2.69 0 0 1-1.67-3.5 56.21 56.21 0 0 1 3.09-8.9 120.25 120.25 0 0 0-32 16.86 37.39 37.39 0 0 1 5.47 2.22c3.7 1.93 7.36 4.81 8.56 9.31a2.62 2.62 0 0 1-1.82 3.1 2.58 2.58 0 0 1-3.15-1.75c-.66-2.45-3-4.53-6-6.12a42.87 42.87 0 0 0-7.93-2.95A81 81 0 0 0 205 55c5 8.59 7 19.07 15 23.39 3.57 1.9 8.91 3.76 17 5.64a2.73 2.73 0 0 1 2 3.1 2.67 2.67 0 0 1-3.13 1.87c-8.36-1.93-14.11-3.89-18.31-6.12-9.38-4.57-11.47-15-15.14-22.19a60.9 60.9 0 0 0-4 18.21c.09 4.19.21 8.49.64 12.09 8.53-.31 19.42 5.58 19.65 13.36a2.54 2.54 0 1 1-5.07 0c-2.26-6-7.72-8.32-13.71-8.27 1.76 9.16 5.23 17.24 11.41 23.62 5.22 5.39 12.48 9.67 22.43 12.33 20.38-27 29.42-50 28.13-74.28a33.72 33.72 0 0 0-10.85.71 14.61 14.61 0 0 0-5.39 2.39 3.35 3.35 0 0 0-1.66 2.77 2.54 2.54 0 1 1-5.07 0 8.79 8.79 0 0 1 3.49-6.76 18.8 18.8 0 0 1 7.29-3.34 37.28 37.28 0 0 1 8.87-1.11 36.81 36.81 0 0 1 7.85.87 30 30 0 0 0 15-6.44c4.72-3.9 7.12-8.56 5.79-13a2.67 2.67 0 0 1 2.78-3.38 2.6 2.6 0 0 1 2.14 1.83c2.1 7-1.8 13.86-7.45 18.53a33.22 33.22 0 0 1-15.93 6.92 2.56 2.56 0 0 1-1.82.79c.67 11.62-1.53 23.55-5.79 35.23a41.08 41.08 0 0 1 17.91-7.55c7.51-1.45 14.21-2.06 21.48-7.24C294.6 74.2 293 66.62 294.2 60c1.41-7.76 5.94-15 12.6-16.62 2.05-.37 3.23.68 3.33 2.47a2.54 2.54 0 0 1-2.06 2.46c-3.48.88-7.83 6.33-9 12.57-1 5.54.07 11.08 4.92 14.55 2.87-2.22 7-2.47 10.06-2.86 4.31-.43 8.11-1.12 11.81-3.1 1.63-1.24 2.64-.78 3.64.06a2.68 2.68 0 0 1 0 3.52c-4.37 3.54-9.76 3.9-14.82 4.53-4.22 0-6.25 1.72-9 4-9.09 7.39-17.88 8.19-25.68 9.7-8.06 1.55-15.33 3.64-23.85 14.63a228.34 228.34 0 0 1-17.28 27.36 119.88 119.88 0 0 0 27.9 1.67A2.61 2.61 0 0 1 269 136a45.14 45.14 0 0 0 11.33 11.06c4.81 3.32 10.2 5.65 14.42 5.65 1.48 0 3.24-1.09 5.31-3.34 4.33-5.1 7.2-10.34 10.39-15.67-8.32 1-16.68.13-22.35-4.45a2.55 2.55 0 0 1-.5-3.26 2.43 2.43 0 0 1 3.67-.72c4.62 3.74 13.92 4.4 22.82 2.7a34.27 34.27 0 0 1 6.74-7.63c2.53-2.55 4.26-4.43 4.91-5.73 1.09-3.91-1.55-5.83-4.36-6.84-2.24-.25-5.8.34-10.78 1.59-1.9.55-3.87-1.9-2.93-3.66a48.45 48.45 0 0 1 11.41-14.8c4.52-3.43 8.63-6.34 13.72-6.92 9.92 0 17.82-1.29 23.3-3.89 6.39-3.09 8.58-6.14 9.66-11.69 2.35-22.4 9.78-37.15 21.24-47.88a106 106 0 0 0-23.14-12.25c2.22 5.66 5.07 13.48 1.83 18.61a2.57 2.57 0 1 1-4.28-2.88c1.45-6.14-1.83-14.49-5.63-18.61C343.55 1.49 329 .06 317.58 0zm5.15 22c10.58-.21 23 15.16 20.29 25a2.57 2.57 0 0 1-3.17 1.59 2.62 2.62 0 0 1-1.66-3.18c-.7-8-7.73-18-15.46-18.29a2.55 2.55 0 0 1 0-5.09zm68.48 1.67c-11.21 9.7-18 23.89-20.37 45.41-1.41 8.19-7.14 12.89-12.52 15.67a43.78 43.78 0 0 1-12.13 3.42c4.06 3.43 7.07 8.62 10.94 11.61.09-.14 6.89-3.2 9.27-4.13 10.09-3.92 21.2-6.44 30.83-13.68 3.38-1.79 6.81-1.31 10-.32 5.76 3.07 9.62 8 12.68 13.2a85.14 85.14 0 0 0 1.66-15.91 57 57 0 0 0-2.93-17.57c-1.57 5.76-7.06 7.22-11.57 8.43a2.54 2.54 0 1 1-1.27-4.85c5.89-1.16 8.09-3.75 8.4-8.27-4.82-3.09-9.2-5.56-14.82-5.89a2.54 2.54 0 1 1-1.27-4.85c5.84-.73 11.4 1.88 15.93 4.53a85.82 85.82 0 0 0-22.82-26.8zm8.64 62.59c-10.56 7.8-22.1 10.41-31.55 14.08-9.12 3.54-16.17 7.71-19.89 18.45 6.74 5.61 13.26 11.87 19.26 16.62 7.12 5.59 14.3 9.7 20.92 9.7 3.47 0 7.37-2.07 11.26-6s7.61-9.72 10.85-16.39a112.31 112.31 0 0 0 7.37-20.2c-3.3-6.59-6.68-12.59-12.84-16.22-2.07-1.01-3.46-.65-5.38-.09zm-64.52 2.86c-4.22 0-8.78 2.17-12.92 5.73a42.39 42.39 0 0 0-7.45 8.91c2.37-.39 5.13-1.17 7.06-1 6.64 1.48 11.2 8.09 8.32 14.16a23.71 23.71 0 0 1-4.68 5.81c4.89 10.53 11.42 20 17.12 27.83 5.9 8.1 10.81 13.95 12.52 18.85a46.25 46.25 0 0 1 2.62 13.2c1.28-1.94 2.61-3.77 3.72-5.72 2.45-4.3 4.13-8.49 4.13-11.46-1.93-6.89-6.52-13-10.07-18.69-5.41-8.62-11.34-18.2-12.76-26.72-.46-6.19 5.82-13.14 10.22-16.94-3.36-2.82-5.7-6.42-8.24-9.14-3.31-2.79-6.31-4.81-9.59-4.87z" fill="#52a06d"/></svg>