<svg version="1.1" id="svg17048" xmlns="http://www.w3.org/2000/svg" x="0" y="0" viewBox="0 0 1024 768" xml:space="preserve"><style>.st0{fill:#22a0d2}</style><g id="logo-group"><g id="title"><path id="path17056" class="st0" d="M394.4 343l-32.6 58.3.2 19.6h32.8l-.4-77.9zm-146.2 77.9h32.9v-17.5l-32.9-58.9v76.4zm116.8-126l-43.2 72.7-44.3-72.7h-29.3l32.9 61 32.2 52.6h15.8l32.4-54.4 31.9-59.2H365z"/><path id="path17058" class="st0" d="M456.4 416.1c8.3 4.3 17.8 6.5 28.3 6.5 10.4 0 20-2.2 28.4-6.5 8.3-4.3 14.9-10.3 19.6-18 4.7-7.6 7-16.4 7-26.1 0-9.7-2.3-18.4-7-25.9-4.7-7.6-11.3-13.5-19.6-17.8-8.5-4.3-18-6.5-28.4-6.5-10.6 0-20.2 2.2-28.4 6.5-8.3 4.3-14.9 10.3-19.6 17.8-4.7 7.7-7 16.4-7 25.9 0 9.7 2.3 18.5 7 26.1 4.5 7.7 11.2 13.7 19.7 18zm43-26.8c-4 4.1-8.8 6.1-14.8 6.1-6.1 0-11-2-14.8-6.1-4-4.1-5.8-9.9-5.8-17.3 0-7.2 1.8-12.8 5.8-16.9 3.8-4 8.6-6.1 14.8-6.1 5.9 0 10.8 2.2 14.8 6.1 3.8 4.1 5.8 9.7 5.8 16.9-.1 7.4-2 13.1-5.8 17.3z"/><path id="path17060" class="st0" d="M593.8 416.1c8.3 4.3 17.8 6.5 28.3 6.5s20-2.2 28.4-6.5c8.3-4.3 14.9-10.3 19.6-18 4.7-7.6 7-16.4 7-26.1 0-9.7-2.3-18.4-7-25.9-4.7-7.6-11.3-13.5-19.6-17.8-8.5-4.3-18-6.5-28.4-6.5-10.6 0-20.2 2.2-28.4 6.5-8.3 4.3-14.9 10.3-19.6 17.8-4.7 7.7-7 16.4-7 25.9 0 9.7 2.3 18.5 7 26.1 4.5 7.7 11.2 13.7 19.7 18zm43-26.8c-4 4.1-8.8 6.1-14.8 6.1-6.1 0-11-2-14.8-6.1-4-4.1-5.8-9.9-5.8-17.3 0-7.2 1.8-12.8 5.8-16.9 3.8-4 8.6-6.1 14.8-6.1 5.9 0 10.8 2.2 14.8 6.1 3.8 4.1 5.8 9.7 5.8 16.9-.1 7.4-2 13.1-5.8 17.3z"/><path id="path17062" class="st0" d="M756.5 325.2c-5.6 2.2-10.1 5.6-13.5 9.9v-11.7h-32.6V421h34.2v-44.8c0-8.1 2-14.2 6.1-18.2s9.9-5.9 17.3-5.9c2 0 4.5.2 7.7.5v-30.8c-7.1 0-13.6 1.2-19.2 3.4z"/></g><g id="tagline"><path id="path17065" class="st0" d="M248.2 444.4h18.2v3.8h-6.9v18.5h-4.3v-18.5h-6.9l-.1-3.8z"/><path id="path17067" class="st0" d="M275.2 449.6c2.7 0 4.8.8 6.1 2.3 1.4 1.5 2.1 3.7 2.1 6.5v1.2h-12.6c.3 1.2.8 2.2 1.7 2.9.9.7 1.9 1 3.2 1 .9 0 1.7-.2 2.5-.5s1.5-.8 2.1-1.4l2.2 2.3c-.8.9-1.9 1.7-3.1 2.2-1.2.5-2.6.8-4 .8-1.7 0-3.3-.4-4.6-1.1-1.3-.7-2.3-1.7-3.1-3-.7-1.3-1.1-2.8-1.1-4.5s.4-3.2 1.1-4.5c.7-1.3 1.8-2.3 3.1-3.1 1.2-.8 2.7-1.1 4.4-1.1zm4.4 7.3c0-1.3-.5-2.2-1.2-3-.8-.7-1.8-1.1-3.1-1.1-1.2 0-2.2.4-3.1 1.1-.8.7-1.3 1.7-1.5 3h8.9z"/><path id="path17069" class="st0" d="M288.1 443.1h4.1v23.6h-4.1v-23.6z"/><path id="path17071" class="st0" d="M305.6 449.6c2.7 0 4.8.8 6.1 2.3 1.4 1.5 2.1 3.7 2.1 6.5v1.2h-12.6c.3 1.2.8 2.2 1.7 2.9.9.7 1.9 1 3.2 1 .9 0 1.7-.2 2.5-.5s1.5-.8 2.1-1.4l2.2 2.3c-.8.9-1.9 1.7-3.1 2.2-1.2.5-2.6.8-4 .8-1.7 0-3.3-.4-4.6-1.1-1.3-.7-2.3-1.7-3.1-3-.7-1.3-1.1-2.8-1.1-4.5s.4-3.2 1.1-4.5c.7-1.3 1.8-2.3 3.1-3.1 1.3-.8 2.8-1.1 4.4-1.1zm4.4 7.3c0-1.3-.5-2.2-1.2-3-.8-.7-1.8-1.1-3.1-1.1-1.2 0-2.2.4-3.1 1.1-.8.7-1.3 1.7-1.5 3h8.9z"/><path id="path17073" class="st0" d="M333.9 449.7v15.4c0 1.6-.4 3-1.1 4.2-.7 1.2-1.8 2.1-3.1 2.8-1.3.7-2.9 1-4.7 1-2.6 0-5-.8-7.2-2.3l1.7-3c1.6 1.2 3.4 1.8 5.3 1.8 1.5 0 2.7-.4 3.6-1.2.9-.8 1.4-1.9 1.4-3.2v-2c-.6.9-1.3 1.5-2.2 2-.9.4-2 .7-3.2.7-1.5 0-2.8-.3-3.9-1s-2-1.7-2.7-2.9c-.6-1.3-1-2.7-1-4.3 0-1.6.3-3 1-4.2.6-1.2 1.5-2.2 2.7-2.9 1.1-.7 2.5-1 3.9-1 1.2 0 2.2.2 3.2.7.9.5 1.7 1.1 2.3 2v-2.5h4zm-8.6 12.9c1.3 0 2.4-.4 3.2-1.3.8-.9 1.3-2.1 1.3-3.5s-.4-2.6-1.3-3.5c-.8-.9-1.9-1.4-3.2-1.4-1.3 0-2.4.5-3.3 1.4-.8.9-1.3 2.1-1.3 3.5s.4 2.6 1.3 3.5c.8.9 1.9 1.3 3.3 1.3z"/><path id="path17075" class="st0" d="M344 453c.6-1.1 1.3-1.9 2.3-2.5 1-.6 2.2-.9 3.5-.9v4c-1.8-.1-3.2.3-4.2 1.2-1 .9-1.6 2.2-1.6 3.7v8.2h-4.1v-17h4.1v3.3z"/><path id="path17077" class="st0" d="M363.1 466.7v-2.1c-.6.7-1.4 1.3-2.3 1.7s-2 .6-3.2.6c-1.2 0-2.2-.2-3.2-.7-.9-.5-1.6-1.1-2.1-1.9-.5-.8-.7-1.7-.7-2.7 0-1.6.6-2.8 1.7-3.7 1.1-.9 2.7-1.4 4.8-1.4h5v-.4c0-1-.3-1.8-1-2.3-.7-.6-1.6-.8-2.9-.8-1.6 0-3.3.5-5.1 1.6l-1.5-2.9c1.3-.7 2.5-1.3 3.6-1.6 1.1-.3 2.4-.5 3.9-.5 2.2 0 3.9.5 5.1 1.6 1.2 1.1 1.9 2.5 1.9 4.5v11.1h-4zm-4.6-3c1.2 0 2.2-.3 3.1-.8.8-.6 1.3-1.3 1.4-2.1v-1.5h-4.3c-1.1 0-1.9.2-2.5.5-.5.3-.8.8-.8 1.6 0 .7.3 1.3.8 1.7.7.4 1.4.6 2.3.6z"/><path id="path17079" class="st0" d="M395.1 449.5c1.9 0 3.4.6 4.6 1.8 1.1 1.2 1.7 2.8 1.7 4.8v10.6h-4.2v-9.4c0-1.2-.3-2.2-1-2.8-.7-.7-1.6-1.1-2.7-1.1-1.3 0-2.4.5-3.2 1.4-.8.9-1.1 2.1-1.1 3.5v8.4H385v-9.4c0-1.2-.3-2.2-1-2.8-.7-.7-1.6-1.1-2.7-1.1-1.3 0-2.4.5-3.2 1.4-.8.9-1.1 2.1-1.1 3.5v8.4h-4.1v-17h4.1v3.2c1.1-2.2 3.1-3.3 6-3.3 1.5 0 2.7.4 3.7 1.1 1 .7 1.7 1.7 2.1 3 1-2.8 3.1-4.1 6.3-4.2z"/><path id="path17081" class="st0" d="M437 449.5c1.9 0 3.4.6 4.6 1.8 1.1 1.2 1.7 2.8 1.7 4.8v10.6H439v-9.4c0-1.2-.3-2.2-1-2.8-.7-.7-1.6-1.1-2.7-1.1-1.3 0-2.4.5-3.2 1.4-.8.9-1.1 2.1-1.1 3.5v8.4h-4.2v-9.4c0-1.2-.3-2.2-1-2.8-.7-.7-1.6-1.1-2.7-1.1-1.3 0-2.4.5-3.2 1.4-.8.9-1.1 2.1-1.1 3.5v8.4h-4.1v-17h4.1v3.2c1.1-2.2 3.1-3.3 6-3.3 1.5 0 2.7.4 3.7 1.1 1 .7 1.7 1.7 2.1 3 1.1-2.8 3.2-4.1 6.4-4.2z"/><path id="path17083" class="st0" d="M464.5 449.7v17h-4.2v-3.2c-1.1 2.2-3.1 3.3-5.9 3.3-1.9 0-3.4-.6-4.5-1.8-1.1-1.2-1.7-2.8-1.7-4.8v-10.7h4.2v9.5c0 1.2.3 2.1 1 2.8.7.7 1.6 1 2.7 1 1.3 0 2.4-.5 3.1-1.4.8-.9 1.1-2.1 1.1-3.5v-8.4h4.2z"/><path id="path17085" class="st0" d="M480.8 454.3c-.8-.5-1.7-.9-2.6-1.1-.9-.3-1.7-.4-2.4-.4s-1.3.1-1.7.4c-.4.2-.6.6-.6 1.1 0 .5.3.9.8 1.2.5.3 1.4.6 2.5.9 1.2.4 2.2.7 2.9 1.1.8.3 1.4.9 2 1.6.6.7.9 1.6.9 2.7 0 1.7-.6 2.9-1.9 3.8-1.3.9-2.9 1.3-4.8 1.3-1.3 0-2.6-.2-3.9-.6-1.3-.4-2.3-1-3.2-1.8l1.4-2.9c.8.7 1.7 1.2 2.7 1.6 1.1.4 2.1.5 3 .5.8 0 1.4-.1 1.8-.4.5-.3.7-.7.7-1.2 0-.6-.3-1-.8-1.3-.5-.3-1.4-.6-2.6-1-1.1-.3-2.1-.7-2.8-1-.7-.3-1.3-.8-1.9-1.5-.5-.7-.8-1.6-.8-2.6 0-1.7.6-2.9 1.8-3.8 1.2-.9 2.8-1.3 4.6-1.3 1.1 0 2.2.2 3.3.5 1.1.3 2.1.8 2.9 1.3l-1.3 2.9z"/><path id="path17087" class="st0" d="M487 449.7h4.1v17H487v-17zm2.1-7.3c.7 0 1.2.2 1.7.7.4.5.7 1.1.7 1.8s-.2 1.3-.7 1.8c-.4.5-1 .7-1.7.7s-1.2-.2-1.7-.7-.7-1.1-.7-1.8.2-1.3.7-1.8c.4-.5 1-.7 1.7-.7z"/><path id="path17089" class="st0" d="M509 455.1c-1.1-1.3-2.6-1.9-4.5-1.9-1.4 0-2.5.5-3.4 1.4-.8.9-1.3 2.1-1.3 3.6s.4 2.8 1.3 3.7c.9.9 2 1.4 3.4 1.4 2 0 3.6-.7 4.6-2l2.6 2.1c-.8 1.1-1.8 2-3 2.5-1.3.6-2.7.9-4.4.9-1.7 0-3.2-.4-4.5-1.1-1.3-.7-2.3-1.7-3-3-.7-1.3-1.1-2.8-1.1-4.5 0-1.7.4-3.2 1.1-4.6.7-1.3 1.8-2.3 3.1-3.1 1.3-.7 2.8-1.1 4.5-1.1 1.5 0 2.9.3 4.1.8 1.2.5 2.2 1.3 3 2.3l-2.5 2.6z"/><path id="path17091" class="st0" d="M534 449.6c1.6 0 3 .4 4.2 1.1 1.2.7 2.2 1.7 2.8 3.1.7 1.3 1 2.8 1 4.6 0 1.7-.3 3.2-1 4.5-.7 1.3-1.6 2.3-2.8 3-1.2.7-2.6 1.1-4.2 1.1-1.3 0-2.4-.2-3.4-.7-1-.5-1.8-1.2-2.4-2.2v2.8h-4.1v-23.6h4.1v9.4c.6-1 1.4-1.7 2.4-2.2 1-.7 2.2-.9 3.4-.9zm-.9 13.7c1.4 0 2.5-.5 3.4-1.4.9-1 1.3-2.2 1.3-3.7s-.4-2.7-1.3-3.7-2-1.4-3.4-1.4-2.6.5-3.5 1.4-1.3 2.2-1.3 3.7.4 2.8 1.3 3.7c.9.9 2.1 1.4 3.5 1.4z"/><path id="path17093" class="st0" d="M554.1 449.6c1.8 0 3.3.4 4.6 1.1 1.4.7 2.4 1.7 3.2 3.1.8 1.3 1.1 2.8 1.1 4.5 0 1.7-.4 3.2-1.1 4.6-.7 1.3-1.8 2.3-3.2 3.1-1.3.7-2.9 1.1-4.6 1.1-1.8 0-3.4-.4-4.7-1.1-1.4-.7-2.4-1.7-3.2-3.1-.7-1.3-1.1-2.8-1.1-4.6 0-1.7.4-3.2 1.1-4.5.8-1.3 1.8-2.3 3.2-3.1 1.4-.8 3-1.1 4.7-1.1zm0 3.5c-1.4 0-2.6.5-3.5 1.4-.9 1-1.3 2.2-1.3 3.7s.4 2.8 1.3 3.7c.9 1 2.1 1.4 3.5 1.4s2.5-.5 3.4-1.4 1.3-2.2 1.3-3.7-.4-2.8-1.3-3.7c-.8-.9-2-1.4-3.4-1.4z"/><path id="path17095" class="st0" d="M577.7 465.7c-1.4.8-2.8 1.2-4.3 1.2s-2.7-.4-3.6-1.3c-.9-.9-1.4-2.1-1.4-3.8v-8.4H566v-3h2.4v-4.7h4.1v4.7h4.9v3h-4.9v7.7c0 .8.1 1.3.4 1.7.3.3.7.5 1.3.5.6 0 1.4-.2 2.4-.7l1.1 3.1z"/><path id="path17097" class="st0" d="M599.7 466.7v-2.1c-.6.7-1.4 1.3-2.3 1.7-.9.4-2 .6-3.2.6-1.2 0-2.2-.2-3.2-.7-.9-.5-1.6-1.1-2.1-1.9-.5-.8-.7-1.7-.7-2.7 0-1.6.6-2.8 1.7-3.7 1.1-.9 2.7-1.4 4.8-1.4h5v-.4c0-1-.3-1.8-1-2.3s-1.6-.8-2.9-.8c-1.6 0-3.3.5-5.1 1.6l-1.5-2.9c1.3-.7 2.5-1.3 3.6-1.6 1.1-.3 2.4-.5 3.9-.5 2.2 0 3.9.5 5.1 1.6 1.2 1.1 1.9 2.5 1.9 4.5v11.1h-4zm-4.5-3c1.2 0 2.2-.3 3.1-.8.8-.6 1.3-1.3 1.4-2.1v-1.5h-4.3c-1.1 0-1.9.2-2.5.5-.5.3-.8.8-.8 1.6 0 .7.3 1.3.8 1.7.6.4 1.3.6 2.3.6z"/><path id="path17099" class="st0" d="M619.4 449.6c1.6 0 3 .4 4.2 1.1 1.2.7 2.2 1.7 2.8 3.1.7 1.3 1 2.8 1 4.6 0 1.7-.3 3.2-1 4.5-.7 1.3-1.6 2.3-2.8 3-1.2.7-2.6 1.1-4.2 1.1-1.3 0-2.4-.2-3.4-.7-1-.5-1.8-1.2-2.4-2.2v8.9h-4.1v-23.2h4.1v2.8c.6-1 1.4-1.7 2.4-2.2 1-.6 2.2-.8 3.4-.8zm-.9 13.7c1.4 0 2.5-.5 3.4-1.4.9-1 1.3-2.2 1.3-3.7s-.4-2.7-1.3-3.7-2-1.4-3.4-1.4-2.6.5-3.5 1.4c-.9 1-1.3 2.2-1.3 3.7s.4 2.8 1.3 3.7c.9.9 2.1 1.4 3.5 1.4z"/><path id="path17101" class="st0" d="M642.1 449.6c1.6 0 3 .4 4.2 1.1 1.2.7 2.2 1.7 2.8 3.1.7 1.3 1 2.8 1 4.6 0 1.7-.3 3.2-1 4.5-.7 1.3-1.6 2.3-2.8 3-1.2.7-2.6 1.1-4.2 1.1-1.3 0-2.4-.2-3.4-.7-1-.5-1.8-1.2-2.4-2.2v8.9h-4.1v-23.2h4.1v2.8c.6-1 1.4-1.7 2.4-2.2 1-.6 2.2-.8 3.4-.8zm-.9 13.7c1.4 0 2.5-.5 3.4-1.4.9-1 1.3-2.2 1.3-3.7s-.4-2.7-1.3-3.7-2-1.4-3.4-1.4-2.6.5-3.5 1.4c-.9 1-1.3 2.2-1.3 3.7s.4 2.8 1.3 3.7c.9.9 2.1 1.4 3.5 1.4z"/><path id="path17103" class="st0" d="M655 443.1h4.1v23.6H655v-23.6z"/><path id="path17105" class="st0" d="M665.4 449.7h4.1v17h-4.1v-17zm2.1-7.3c.7 0 1.2.2 1.7.7.4.5.7 1.1.7 1.8s-.2 1.3-.7 1.8c-.4.5-1 .7-1.7.7s-1.2-.2-1.7-.7c-.4-.5-.7-1.1-.7-1.8s.2-1.3.7-1.8c.4-.5 1-.7 1.7-.7z"/><path id="path17107" class="st0" d="M687.4 455.1c-1.1-1.3-2.6-1.9-4.5-1.9-1.4 0-2.5.5-3.4 1.4-.8.9-1.3 2.1-1.3 3.6s.4 2.8 1.3 3.7c.9.9 2 1.4 3.4 1.4 2 0 3.6-.7 4.6-2l2.6 2.1c-.8 1.1-1.8 2-3 2.5-1.3.6-2.7.9-4.4.9-1.7 0-3.2-.4-4.5-1.1-1.3-.7-2.3-1.7-3-3-.7-1.3-1.1-2.8-1.1-4.5 0-1.7.4-3.2 1.1-4.6.7-1.3 1.8-2.3 3.1-3.1 1.3-.7 2.8-1.1 4.5-1.1 1.5 0 2.9.3 4.1.8 1.2.5 2.2 1.3 3 2.3l-2.5 2.6z"/><path id="path17109" class="st0" d="M704.1 466.7v-2.1c-.6.7-1.4 1.3-2.3 1.7-.9.4-2 .6-3.2.6-1.2 0-2.2-.2-3.2-.7-.9-.5-1.6-1.1-2.1-1.9-.5-.8-.7-1.7-.7-2.7 0-1.6.6-2.8 1.7-3.7 1.1-.9 2.7-1.4 4.8-1.4h5v-.4c0-1-.3-1.8-1-2.3-.7-.6-1.6-.8-2.9-.8-1.6 0-3.3.5-5.1 1.6l-1.5-2.9c1.3-.7 2.5-1.3 3.6-1.6 1.1-.3 2.4-.5 3.9-.5 2.2 0 3.9.5 5.1 1.6 1.2 1.1 1.9 2.5 1.9 4.5v11.1h-4zm-4.5-3c1.2 0 2.2-.3 3.1-.8.8-.6 1.3-1.3 1.4-2.1v-1.5h-4.3c-1.1 0-1.9.2-2.5.5-.5.3-.8.8-.8 1.6 0 .7.3 1.3.8 1.7.6.4 1.3.6 2.3.6z"/><path id="path17111" class="st0" d="M723.7 465.7c-1.4.8-2.8 1.2-4.3 1.2s-2.7-.4-3.6-1.3c-.9-.9-1.4-2.1-1.4-3.8v-8.4H712v-3h2.4v-4.7h4.1v4.7h4.9v3h-4.9v7.7c0 .8.1 1.3.4 1.7.3.3.7.5 1.3.5.6 0 1.4-.2 2.4-.7l1.1 3.1z"/><path id="path17113" class="st0" d="M728 449.7h4.1v17H728v-17zm2-7.3c.7 0 1.2.2 1.7.7.4.5.7 1.1.7 1.8s-.2 1.3-.7 1.8c-.4.5-1 .7-1.7.7s-1.2-.2-1.7-.7c-.4-.5-.7-1.1-.7-1.8s.2-1.3.7-1.8c.5-.5 1-.7 1.7-.7z"/><path id="path17115" class="st0" d="M745.7 449.6c1.8 0 3.3.4 4.6 1.1 1.4.7 2.4 1.7 3.2 3.1.8 1.3 1.1 2.8 1.1 4.5 0 1.7-.4 3.2-1.1 4.6-.7 1.3-1.8 2.3-3.2 3.1-1.3.7-2.9 1.1-4.6 1.1-1.8 0-3.4-.4-4.7-1.1-1.4-.7-2.4-1.7-3.2-3.1-.7-1.3-1.1-2.8-1.1-4.6 0-1.7.4-3.2 1.1-4.5.8-1.3 1.8-2.3 3.2-3.1 1.3-.8 2.9-1.1 4.7-1.1zm0 3.5c-1.4 0-2.6.5-3.5 1.4-.9 1-1.3 2.2-1.3 3.7s.4 2.8 1.3 3.7c.9 1 2.1 1.4 3.5 1.4s2.5-.5 3.4-1.4c.9-1 1.3-2.2 1.3-3.7s-.4-2.8-1.3-3.7c-.9-.9-2-1.4-3.4-1.4z"/><path id="path17117" class="st0" d="M769.5 449.5c2 0 3.5.6 4.6 1.8 1.1 1.2 1.7 2.8 1.7 4.8v10.6h-4.2v-9.4c0-1.2-.3-2.1-1-2.8-.7-.7-1.6-1.1-2.8-1.1-1.4 0-2.5.5-3.3 1.4-.8.9-1.2 2.1-1.2 3.5v8.4h-4.1v-17h4.1v3.2c1.2-2.2 3.3-3.3 6.2-3.4z"/></g></g></svg>