<svg xmlns="http://www.w3.org/2000/svg" viewBox="0 0 1024 768"><g text-anchor="middle"><g style="line-height:1;font-variant-ligatures:none;text-align:center" aria-label="Radio Chain" font-weight="800" font-size="72" font-family="Montserrat ExtraBold Alt1"><path style="line-height:1;font-variant-ligatures:none;text-align:center" d="M277.414 374.98c2.815-1.374 5.04-3.272 6.611-5.76 1.571-2.486 2.357-5.366 2.357-8.705 0-3.403-.851-6.414-2.488-8.967-1.701-2.553-4.058-4.516-7.069-5.89-3.076-1.375-6.676-2.095-10.8-2.095H245.08v10.21h20.16c2.618 0 4.647.59 6.022 1.768 1.309 1.178 2.029 2.88 2.029 4.974 0 2.16-.72 3.797-2.03 4.975-1.374 1.178-3.403 1.702-6.021 1.702h-20.16v22.189h12.96v-12.175h7.069l8.313 12.175h13.876zm57.385-17.606c-3.142-2.684-7.593-4.059-13.484-4.059-2.88 0-5.694.393-8.509 1.113-2.814.72-5.17 1.702-7.134 3.011l4.189 8.444c1.178-.917 2.683-1.702 4.45-2.226 1.703-.523 3.47-.85 5.172-.85 4.778 0 7.265 1.897 7.527 5.628h-7.07c-5.366 0-9.36.982-11.912 2.815-2.618 1.833-3.862 4.45-3.862 7.789 0 2.095.458 3.993 1.506 5.63 1.047 1.635 2.552 2.945 4.582 3.86 1.963.983 4.385 1.44 7.134 1.44 5.171 0 8.64-1.7 10.473-5.17v4.582h11.585v-19.702c0-5.498-1.57-9.622-4.647-12.305zm-10.145 23.694c-1.113.72-2.357 1.047-3.797 1.047s-2.618-.327-3.403-.981c-.851-.655-1.244-1.506-1.244-2.619 0-2.356 1.767-3.6 5.433-3.6h5.367v3.077c-.524 1.374-1.31 2.422-2.356 3.076zm74.556-40.254h-12.437v16.167c-2.356-2.422-5.629-3.666-9.818-3.666-3.273 0-6.218.786-8.836 2.226-2.684 1.505-4.778 3.665-6.35 6.414-1.57 2.75-2.29 5.957-2.29 9.622 0 3.666.72 6.938 2.29 9.687 1.572 2.815 3.666 4.975 6.35 6.48 2.618 1.506 5.563 2.226 8.836 2.226 4.582 0 8.051-1.375 10.407-4.124v3.535h11.848zm-14.335 37.047c-1.44 1.505-3.207 2.225-5.302 2.225-2.225 0-3.992-.72-5.367-2.225-1.44-1.506-2.094-3.6-2.094-6.284 0-2.618.654-4.647 2.094-6.153 1.375-1.44 3.142-2.225 5.367-2.225 2.16 0 3.928.785 5.302 2.225 1.375 1.506 2.095 3.535 2.095 6.153 0 2.684-.72 4.778-2.095 6.284z" fill="#0c0c0c"/><path style="line-height:1;font-variant-ligatures:none;text-align:center" d="M420.783 353.904v35.477h12.437v-35.477zm.72-5.825c1.375 1.31 3.208 1.898 5.499 1.898 2.225 0 4.058-.589 5.498-1.898 1.374-1.31 2.094-2.945 2.094-4.91 0-1.832-.72-3.403-2.094-4.58-1.44-1.18-3.273-1.834-5.498-1.834-2.291 0-4.124.655-5.499 1.899-1.44 1.309-2.094 2.88-2.094 4.712 0 1.898.654 3.47 2.094 4.713zm40.899 39.535c3.01 1.57 6.48 2.356 10.276 2.356 3.796 0 7.265-.786 10.342-2.356 3.01-1.571 5.433-3.731 7.134-6.546 1.702-2.749 2.553-5.956 2.553-9.49 0-3.535-.85-6.677-2.553-9.426-1.701-2.75-4.123-4.91-7.134-6.48-3.077-1.571-6.546-2.357-10.342-2.357-3.862 0-7.33.786-10.342 2.357-3.01 1.57-5.433 3.73-7.134 6.48-1.702 2.814-2.553 5.956-2.553 9.425 0 3.535.85 6.742 2.553 9.491 1.701 2.815 4.123 4.975 7.2 6.546zm15.643-9.753c-1.44 1.505-3.207 2.225-5.367 2.225-2.225 0-3.993-.72-5.367-2.225-1.44-1.506-2.095-3.6-2.095-6.284 0-2.618.655-4.647 2.095-6.153 1.374-1.44 3.142-2.225 5.367-2.225 2.16 0 3.927.785 5.367 2.225 1.375 1.506 2.095 3.535 2.095 6.153 0 2.684-.72 4.778-2.095 6.284z" fill="#502121"/><path style="line-height:1;font-variant-ligatures:none;text-align:center" d="M541.626 387.286c3.796 2.03 8.116 3.011 12.96 3.011 4.189 0 7.92-.72 11.323-2.225 3.338-1.44 6.153-3.6 8.378-6.415l-8.247-7.462c-3.01 3.6-6.61 5.368-10.8 5.368-2.487 0-4.713-.524-6.676-1.637-1.964-1.047-3.47-2.618-4.517-4.582-1.047-1.963-1.57-4.254-1.57-6.872 0-2.553.523-4.844 1.57-6.808a11.431 11.431 0 0 1 4.517-4.647c1.963-1.047 4.189-1.636 6.676-1.636 4.19 0 7.79 1.833 10.8 5.367l8.247-7.462c-2.225-2.749-5.04-4.909-8.378-6.414-3.403-1.44-7.134-2.226-11.323-2.226-4.844 0-9.164 1.048-12.96 3.077-3.797 2.029-6.808 4.843-8.968 8.443-2.225 3.666-3.272 7.724-3.272 12.306 0 4.582 1.047 8.705 3.272 12.305 2.16 3.666 5.171 6.48 8.968 8.51zm85.196-30.043c-2.684-2.619-6.218-3.928-10.604-3.928-2.094 0-4.058.328-5.89.982-1.833.655-3.47 1.637-4.779 2.88v-16.363h-12.436v48.567h12.436v-17.15c0-2.748.59-4.843 1.899-6.283 1.309-1.374 3.01-2.094 5.17-2.094 3.862 0 5.826 2.421 5.826 7.265v18.262h12.436V369.09c0-5.236-1.374-9.23-4.058-11.847zm54.042.131c-3.141-2.684-7.592-4.059-13.483-4.059-2.88 0-5.695.393-8.51 1.113-2.814.72-5.17 1.702-7.134 3.011l4.19 8.444c1.177-.917 2.683-1.702 4.45-2.226 1.702-.523 3.47-.85 5.171-.85 4.778 0 7.265 1.897 7.527 5.628h-7.069c-5.367 0-9.36.982-11.913 2.815-2.618 1.833-3.861 4.45-3.861 7.789 0 2.095.458 3.993 1.505 5.63 1.047 1.635 2.553 2.945 4.582 3.86 1.964.983 4.385 1.44 7.134 1.44 5.171 0 8.64-1.7 10.473-5.17v4.582h11.586v-19.702c0-5.498-1.571-9.622-4.648-12.305zm-10.145 23.694c-1.113.72-2.356 1.047-3.796 1.047s-2.619-.327-3.404-.981c-.851-.655-1.244-1.506-1.244-2.619 0-2.356 1.768-3.6 5.433-3.6h5.367v3.077c-.523 1.374-1.309 2.422-2.356 3.076z" fill="#893334"/><path style="line-height:1;font-variant-ligatures:none;text-align:center" d="M707.062 353.904v35.477h12.436v-35.477zm.72-5.825c1.374 1.31 3.207 1.898 5.498 1.898 2.226 0 4.058-.589 5.498-1.898 1.375-1.31 2.095-2.945 2.095-4.91 0-1.832-.72-3.403-2.095-4.58-1.44-1.18-3.272-1.834-5.498-1.834-2.29 0-4.124.655-5.498 1.899-1.44 1.309-2.095 2.88-2.095 4.712 0 1.898.655 3.47 2.095 4.713zm67.08 9.164c-2.684-2.619-6.218-3.928-10.604-3.928-2.29 0-4.385.393-6.283 1.179-1.964.785-3.6 1.832-4.975 3.272v-3.862h-11.847v35.477h12.436v-17.15c0-2.748.59-4.843 1.898-6.283 1.31-1.374 3.011-2.094 5.171-2.094 3.862 0 5.826 2.421 5.826 7.265v18.262h12.436V369.09c0-5.236-1.374-9.23-4.058-11.847z" fill="#cd4849"/></g><path style="line-height:1;font-variant-ligatures:none;text-align:center" d="M372.161 430.175q-1.755 1.07-3.675 1.07-1.893 0-3.1-1.098-1.207-1.124-1.207-3.29v-7.242h-2.057l-.027-2.606h2.084v-4.032h3.539v4.032h4.196v2.606h-4.196v6.61q0 1.015.384 1.454.384.411 1.152.411.822 0 2.084-.603zm2.772-13.769h3.566v14.674h-3.566zm1.755-6.309q.878 0 1.454.604.576.603.576 1.536 0 .905-.576 1.508-.576.604-1.454.604-.877 0-1.453-.604-.576-.603-.576-1.508 0-.933.576-1.536.576-.604 1.453-.604zm25.455 6.172q2.496 0 3.922 1.536 1.426 1.508 1.426 4.114v9.161h-3.593v-8.119q0-1.563-.878-2.44-.85-.906-2.331-.906-1.7.055-2.716 1.234-.987 1.18-.987 2.99v7.241h-3.593v-8.119q0-1.563-.85-2.44-.85-.906-2.332-.906-1.728.055-2.743 1.234-.987 1.18-.987 2.99v7.241h-3.566v-14.674h3.566v2.715q1.454-2.798 5.156-2.852 1.92 0 3.21.932 1.316.905 1.837 2.578 1.4-3.456 5.459-3.51zm15.442.027q3.511 0 5.267 2.002 1.782 2.003 1.782 5.623 0 .713-.027 1.07h-10.834q.356 1.563 1.453 2.468 1.125.878 2.743.878 1.125 0 2.14-.411 1.042-.44 1.81-1.235l1.92 2.003q-1.097 1.207-2.688 1.865-1.563.658-3.483.658-2.25 0-3.978-.932-1.7-.933-2.633-2.606-.932-1.7-.932-3.895 0-2.194.932-3.895.96-1.7 2.66-2.633 1.701-.96 3.868-.96zm3.785 6.309q-.054-1.619-1.07-2.579-1.014-.96-2.687-.96-1.564 0-2.633.96-1.043.933-1.29 2.579zm21.612 7.57q-1.755 1.07-3.675 1.07-1.893 0-3.1-1.098-1.206-1.124-1.206-3.29v-7.242h-2.057l-.028-2.606h2.085v-4.032h3.538v4.032h4.197v2.606h-4.197v6.61q0 1.015.384 1.454.384.411 1.152.411.823 0 2.085-.603zm9.03-13.879q2.277 0 4.005.933 1.755.932 2.715 2.633.987 1.673.987 3.867 0 2.222-.987 3.922-.96 1.701-2.715 2.634-1.728.932-4.005.932-2.304 0-4.06-.932-1.755-.933-2.742-2.634-.96-1.7-.96-3.922 0-2.194.96-3.867.987-1.7 2.743-2.633 1.755-.933 4.059-.933zm0 3.045q-1.865 0-3.017 1.234t-1.152 3.21q0 1.974 1.152 3.208 1.152 1.234 3.017 1.234 1.81 0 2.962-1.234 1.152-1.234 1.152-3.209t-1.152-3.21q-1.152-1.233-2.962-1.233zm36.756-3.072q2.496 0 3.922 1.536 1.426 1.508 1.426 4.114v9.161h-3.593v-8.119q0-1.563-.878-2.44-.85-.906-2.331-.906-1.7.055-2.716 1.234-.987 1.18-.987 2.99v7.241h-3.593v-8.119q0-1.563-.85-2.44-.85-.906-2.332-.906-1.728.055-2.743 1.234-.987 1.18-.987 2.99v7.241h-3.566v-14.674h3.566v2.715q1.454-2.798 5.156-2.852 1.92 0 3.21.932 1.316.905 1.837 2.578 1.4-3.456 5.459-3.51zm17.993 14.811v-1.783q-.768.96-1.975 1.454t-2.77.494q-1.536 0-2.715-.576-1.152-.604-1.783-1.646-.631-1.042-.631-2.332 0-2.057 1.454-3.209 1.453-1.18 4.114-1.207h4.279v-.384q0-1.289-.85-2.002-.85-.713-2.47-.713-2.084 0-4.36 1.371l-1.29-2.468q1.729-.96 3.127-1.372 1.427-.438 3.32-.438 2.852 0 4.415 1.371 1.591 1.371 1.619 3.84l.027 9.6zm-3.895-2.578q1.536 0 2.633-.713 1.098-.74 1.235-1.81v-1.317h-3.703q-1.426 0-2.112.439-.658.411-.658 1.371 0 .933.685 1.481.713.549 1.92.549zm21.335 2.578l-3.977-6.418-2.249 2.359v4.06h-3.566v-20.353h3.566v11.794l6.034-6.089h4.115l-5.431 5.65 5.76 8.997zm12.099-14.784q3.51 0 5.266 2.002 1.783 2.003 1.783 5.623 0 .713-.028 1.07h-10.834q.357 1.563 1.454 2.468 1.124.878 2.743.878 1.124 0 2.139-.411 1.042-.44 1.81-1.235l1.92 2.003q-1.097 1.207-2.688 1.865-1.563.658-3.483.658-2.25 0-3.977-.932-1.7-.933-2.633-2.606-.933-1.7-.933-3.895 0-2.194.933-3.895.96-1.7 2.66-2.633 1.7-.96 3.868-.96zm3.785 6.309q-.055-1.619-1.07-2.579-1.015-.96-2.688-.96-1.563 0-2.633.96-1.042.933-1.29 2.579zm21.612 7.57q-1.756 1.07-3.676 1.07-1.892 0-3.1-1.098-1.206-1.124-1.206-3.29v-7.242h-2.057l-.028-2.606h2.085v-4.032h3.538v4.032h4.197v2.606h-4.197v6.61q0 1.015.384 1.454.384.411 1.152.411.823 0 2.085-.603zm11.768-13.906q2.524 0 3.977 1.536 1.454 1.508 1.454 4.114v9.161h-3.593v-8.119q0-1.536-.878-2.414-.877-.905-2.386-.905-1.783.028-2.825 1.207-1.042 1.18-1.042 3.017v7.214h-3.566v-20.352h3.566v8.475q1.508-2.88 5.293-2.934zm15.549.027q3.51 0 5.266 2.002 1.783 2.003 1.783 5.623 0 .713-.027 1.07H585.2q.357 1.563 1.454 2.468 1.125.878 2.743.878 1.124 0 2.14-.411 1.042-.44 1.81-1.235l1.92 2.003q-1.098 1.207-2.688 1.865-1.564.658-3.484.658-2.249 0-3.977-.932-1.7-.933-2.633-2.606-.933-1.7-.933-3.895 0-2.194.933-3.895.96-1.7 2.66-2.633 1.701-.96 3.868-.96zm3.785 6.309q-.055-1.619-1.07-2.579-1.015-.96-2.688-.96-1.563 0-2.633.96-1.042.933-1.289 2.579zm10.778-6.172l3.675-.027 3.593 11.08 3.484-11.08h3.593l3.538 11.08 3.511-11.08h3.593l-5.321 14.674h-3.648l-3.51-10.34-3.484 10.34h-3.648zm32.633-.137q3.511 0 5.267 2.002 1.782 2.003 1.782 5.623 0 .713-.027 1.07h-10.834q.356 1.563 1.453 2.468 1.125.878 2.743.878 1.125 0 2.14-.411 1.042-.44 1.81-1.235l1.92 2.003q-1.097 1.207-2.688 1.865-1.563.658-3.483.658-2.25 0-3.978-.932-1.7-.933-2.633-2.606-.932-1.7-.932-3.895 0-2.194.932-3.895.96-1.7 2.66-2.633 1.701-.96 3.868-.96zm3.785 6.309q-.054-1.619-1.07-2.579-1.014-.96-2.687-.96-1.564 0-2.633.96-1.043.933-1.29 2.579zm14.971-6.309q2.057 0 3.62.96 1.591.933 2.442 2.633.877 1.7.877 3.922 0 2.195-.85 3.868t-2.414 2.606q-1.563.932-3.62.932-1.646 0-2.908-.63-1.261-.659-2.084-1.893v2.386h-3.566v-20.352h3.566v8.091q.795-1.234 2.03-1.865 1.261-.658 2.907-.658zm-.796 11.85q1.81 0 2.963-1.235 1.152-1.262 1.152-3.21 0-1.947-1.152-3.18-1.152-1.235-2.963-1.235-1.837 0-2.99 1.234-1.151 1.234-1.151 3.182 0 1.975 1.152 3.209t2.99 1.234z" aria-label="time to make the web" font-weight="500" font-size="32" font-family="Montserrat" fill="#0c0c0c"/></g></svg>