<?xml version="1.0" standalone="no"?>
<!DOCTYPE svg PUBLIC "-//W3C//DTD SVG 20010904//EN"
 "http://www.w3.org/TR/2001/REC-SVG-20010904/DTD/svg10.dtd">
<svg version="1.0" xmlns="http://www.w3.org/2000/svg"
 width="179.000000pt" height="179.000000pt" viewBox="0 0 179.000000 179.000000"
 preserveAspectRatio="xMidYMid meet">
<metadata>
Created by potrace 1.11, written by Peter Selinger 2001-2013
</metadata>
<g transform="translate(0.000000,179.000000) scale(0.100000,-0.100000)"
fill="#000000" stroke="none">
<path d="M710 1766 c-181 -40 -340 -133 -468 -271 -317 -344 -309 -879 18
-1215 306 -315 797 -361 1153 -106 445 317 499 965 112 1351 -123 124 -271
204 -441 240 -83 18 -296 18 -374 1z m342 -40 c256 -49 486 -222 601 -451 77
-155 107 -373 74 -537 -74 -357 -350 -621 -707 -678 -194 -30 -418 20 -584
130 -92 62 -211 187 -266 279 -246 413 -89 954 341 1176 75 39 182 75 259 88
58 10 214 6 282 -7z"/>
<path d="M300 1266 c0 -2 67 -127 150 -278 l150 -273 0 -167 0 -168 65 0 65 0
0 170 0 170 134 242 c73 134 141 258 150 276 l17 32 -70 0 -69 0 -113 -217
c-61 -120 -112 -219 -113 -220 -1 -1 -53 96 -115 217 l-113 220 -69 0 c-38 0
-69 -2 -69 -4z"/>
<path d="M1120 725 l0 -345 45 0 45 0 0 88 c0 82 2 90 25 112 23 22 26 22 38
7 6 -9 44 -59 82 -111 l70 -95 48 -1 c26 0 47 2 47 5 0 3 -45 65 -100 139 -55
74 -100 137 -100 141 0 4 41 50 91 103 l90 97 -48 3 -48 4 -97 -103 -98 -102
0 202 0 201 -45 0 -45 0 0 -345z"/>
</g>
</svg>
