<?xml version="1.0" encoding="utf-8"?>
<!-- Generator: Adobe Illustrator 23.0.0, SVG Export Plug-In . SVG Version: 6.00 Build 0)  -->
<svg version="1.1" id="Слой_1" xmlns="http://www.w3.org/2000/svg" xmlns:xlink="http://www.w3.org/1999/xlink" x="0px" y="0px"
	 viewBox="0 0 1920 1080" style="enable-background:new 0 0 1920 1080;" xml:space="preserve">
<style type="text/css">
	.st0{fill:none;stroke:#000000;stroke-width:2;}
</style>
<polyline id="XMLID_436_" class="st0" points="151.5,138.5 150.5,146.5 150,154.5 149,162.5 149,171 153,179 155,187 157,193.5 
	158,201.5 161,206.5 165.5,214.5 170.5,222.5 175,230.5 177,238.5 178,246.5 180,254.5 183.5,263 186.5,271.5 186.5,279.5 
	188,287.5 190,295.5 194,303.5 198,311.5 204,319.5 212,327.5 222.5,335.5 225.5,343.5 227.5,352 229.5,360 231.5,368 232.5,376 
	222.5,384 210.5,392 201,400 195,408 189.5,416 171.5,424.5 152.5,432 "/>
<polyline id="XMLID_435_" class="st0" points="154,430.5 162,430 170,429 178.5,428.5 187,427 195,426 203,426 211.5,426 219,426 
	"/>
<polyline id="XMLID_434_" class="st0" points="221.5,429.5 229,439.5 237,443.5 244.5,448.5 252,442.5 260,437.5 268,433.5 276,429 
	284,425 292,420.5 300,416.5 308,405.5 316.5,394 324.5,385 332.5,377 340,370 348,363 356,356.5 363.5,355 371.5,364.5 
	379.5,370.5 387.5,376.5 395.5,381 "/>
<polyline id="XMLID_433_" class="st0" points="395.5,377.5 387.5,385 379.5,393 371,400.5 362.5,408.5 354.5,416.5 346.5,424 
	339,431.5 331,439 322.5,446 314.5,453 307,460.5 299,468 291,475.5 283.5,483 276,490.5 268,498 260,505 252.5,512.5 245,520 
	237,527.5 229,535 220.5,542.5 212,550 204,557.5 196,565 187.5,572 178.5,579 170,587 161.5,595 153,603 144.5,610.5 137,617 
	129.5,625 121.5,633 114,641.5 106.5,649 98.5,657 91,665 "/>
<polyline id="XMLID_432_" class="st0" points="99,665 106.5,664.5 113.5,664 121.5,663.5 130,663 137.5,663 145.5,663 153.5,663 
	161.5,663 "/>
<polyline id="XMLID_431_" class="st0" points="169.5,666.5 177,659.5 185.5,652.5 193.5,645 201.5,637 209.5,629 217.5,621 
	225.5,613 233.5,606 242,599 250,592 258.5,584.5 266.5,577 274.5,569.5 282.5,561.5 290.5,553.5 298.5,546 306.5,538 314.5,530.5 
	323,523 331.5,515.5 339.5,508 348,501 356,493.5 365,486 373.5,478.5 382,471 390.5,463.5 398,455.5 406,447.5 414,439.5 
	421.5,432 429.5,425 437.5,417.5 445,410.5 452,403 459.5,395.5 467,388 "/>
<polyline id="XMLID_430_" class="st0" points="460,387 452,394.5 443.5,402 435.5,410 427.5,417.5 420,425 411.5,433 403.5,440.5 
	395.5,448 387.5,455.5 380,463 372,470.5 364,478 356,485 348,491.5 340,499 332,506 323.5,514 315.5,521.5 307.5,530 299.5,537.5 
	291.5,545 283,552.5 275,560 267,568 258.5,576 250.5,583.5 242,590.5 234,598 226.5,606 218.5,613.5 210,621 202,629 194.5,636.5 
	187,644 179.5,651 171.5,658 163.5,665.5 "/>
<polyline id="XMLID_429_" class="st0" points="156,665.5 163,658 170.5,650.5 178,643.5 186,637 193.5,629.5 201,622 209,614 
	217,606.5 225.5,599 234,591 243,582 251.5,573.5 260,566 268,558.5 276,551 283.5,543 291.5,535.5 299.5,528 308,520.5 316,512.5 
	323.5,505 331,497.5 339,490.5 347,483.5 355.5,476 364,468 372,460.5 380,452.5 387.5,445.5 395.5,438.5 404.5,432 413,424.5 
	421,417 429,409 437,401.5 445.5,394 454,386 "/>
<polyline id="XMLID_428_" class="st0" points="445,387 437,394.5 429,402 421,410 412.5,417.5 404,424.5 396,432 388,440 
	379.5,447.5 371.5,454.5 363,462 355.5,469.5 348,477 340.5,484 333,491.5 325.5,498.5 317.5,506 309.5,513.5 301.5,520.5 293,528 
	285,535.5 277,543 269,551 261,559 252.5,566.5 244,574 235.5,582 227.5,590 219.5,597.5 211,605.5 203,613 195,620.5 187.5,628 
	180,635.5 172,642.5 164,650 155.5,658 147.5,665.5 "/>
<polyline id="XMLID_427_" class="st0" points="139,667.5 147,659.5 155,651.5 163,643.5 171,635.5 179,627.5 187,619 194.5,611.5 
	202,603.5 210,596 218.5,588 226.5,580 235,572.5 243.5,565 251.5,558 260,551 268.5,544.5 277,537.5 285,529.5 293.5,521.5 
	302,514 310.5,507 318,500 326.5,492.5 334,485 342,477 349.5,469 357.5,461 365.5,454 373,447 380.5,440 388,433 396,425.5 
	403.5,418 412,410 419.5,402 427.5,394.5 435.5,387 "/>
<polyline id="XMLID_426_" class="st0" points="427.5,388 419.5,395.5 412,403 404,410 396,417.5 388,424.5 380.5,432.5 373,440.5 
	365,448.5 356.5,456 348.5,463.5 340.5,470.5 333,478.5 325,485.5 317,492 308.5,499 301,506.5 293,513.5 285,521 277.5,528 
	269.5,535.5 261.5,543 253,551 244.5,558.5 236,565.5 227.5,573 219.5,581 211.5,589 203.5,597 195,605 187,613 179,620.5 171,628 
	163,635.5 155.5,643 148,650.5 139.5,658 131,665 "/>
<polyline id="XMLID_425_" class="st0" points="123,664.5 131.5,657.5 140,650.5 147.5,643.5 155,636.5 163,629 171.5,621 179,613.5 
	187.5,606 196,597.5 204,590 211.5,583 219.5,575.5 228,568 237,560 245.5,551.5 254,543 262,535 270,528 277.5,520.5 285,513.5 
	293,506.5 300.5,499.5 308.5,492 316.5,484.5 324.5,477 333,469.5 341,461.5 348.5,455 356.5,448.5 363.5,441.5 370.5,434 378,426 
	385.5,419 394,411 402,403.5 409.5,395.5 417,387.5 "/>
<polyline id="XMLID_424_" class="st0" points="411,388 402.5,396 394.5,403.5 386,411 378,419 370.5,427 363,434 355,441 347,448 
	339.5,455.5 332,462.5 323.5,470.5 316,478 308,485 299.5,492 292,499.5 284.5,507 277,515.5 269,523 261,530.5 253.5,538 
	245.5,545.5 237,552.5 229,560 220.5,568 212.5,576 204,583.5 196,591 188.5,599 180.5,606.5 172.5,614.5 164.5,622 156.5,628.5 
	148,635.5 139.5,643 131,650 122.5,657 114.5,665 "/>
<polyline id="XMLID_423_" class="st0" points="116.5,658 124.5,657.5 131.5,657 139,656 146.5,655.5 154,655 162,654 "/>
<line id="XMLID_422_" class="st0" x1="170.5" y1="656.5" x2="178.5" y2="656"/>
<polyline id="XMLID_421_" class="st0" points="178,666 185.5,658.5 193.5,650.5 201,642.5 209,634.5 217,627 225.5,619 233,612 
	241,605 249.5,597 258,589.5 266,582.5 274.5,574.5 282.5,568 291,561 299.5,553.5 307.5,546 315.5,538.5 324.5,531 332.5,523.5 
	341,516 349.5,508.5 357.5,500.5 365,492.5 373,484.5 381,477 389,469.5 397,462 405,455 413,448 420.5,441 428.5,434 436.5,426.5 
	444.5,419.5 452.5,411.5 460,403.5 468.5,396 "/>
<polyline id="XMLID_420_" class="st0" points="474.5,398 466.5,405 458,411.5 450.5,418.5 442.5,425.5 435,432.5 427.5,439.5 
	420,446 412.5,453 405,461 397,468.5 389,476 381,483.5 373,491 365,498.5 357,505.5 349,513 341,520.5 333,528 325,536 317,544 
	308.5,551.5 300,559.5 292,567 283.5,574.5 275.5,582 266.5,590 257.5,597.5 249,605 241,612.5 232.5,620.5 225,627.5 218.5,634.5 
	211,641.5 203.5,649 195.5,656.5 188,664 "/>
<polyline id="XMLID_419_" class="st0" points="189,657.5 197,657.5 205,657.5 213,656.5 220,656 227.5,655.5 235,655 243,654.5 
	251,654 259,653 266.5,653 274.5,652.5 283,652 291,652 300,652.5 308,652 316.5,651.5 324.5,651 332,650 339,649.5 347,649 
	355,648.5 363.5,648 372,647.5 380.5,647 388,646.5 396,646.5 403.5,645.5 411,644.5 419,644 427,643.5 434.5,643 442.5,642 
	450,642 458,642 466.5,641 474.5,640.5 482.5,639.5 490.5,639 498.5,638 506,637.5 514.5,637 "/>
<polyline id="XMLID_418_" class="st0" points="516.5,633.5 508.5,641.5 500.5,649.5 492.5,657 484.5,665 476,672.5 468,680 "/>
<polyline id="XMLID_417_" class="st0" points="477,680.5 484.5,672.5 492,665 499.5,657.5 507,650 515.5,643 "/>
<polyline id="XMLID_416_" class="st0" points="515.5,651.5 507.5,659 500,666.5 492.5,674 "/>
<polyline id="XMLID_415_" class="st0" points="489.5,676 497.5,675.5 506,675.5 514,675 "/>
<line id="XMLID_414_" class="st0" x1="515" y1="676" x2="507.5" y2="683.5"/>
<polyline id="XMLID_413_" class="st0" points="500,683.5 508,675.5 515.5,668 "/>
<polyline id="XMLID_412_" class="st0" points="517,662 508.5,669.5 500,677 492,684 "/>
<polyline id="XMLID_411_" class="st0" points="490.5,681 499,680.5 507,680.5 515.5,680 "/>
<polyline id="XMLID_410_" class="st0" points="515,650 507,650.5 499.5,651.5 492,652.5 484,652.5 476.5,653 468,653.5 459.5,654 
	451,654.5 443,655 435,655.5 428,656 420.5,657 412.5,657.5 404,658 396,658.5 387,658 379,658 370.5,658.5 362.5,659 355,659 
	347,660 339,660.5 331,661 323.5,661.5 316,662 309,662.5 301,663.5 293,663.5 285,663.5 277,664 268.5,664.5 259.5,664.5 
	251.5,665 242.5,666 234.5,666.5 226.5,667.5 219,668 211,668.5 203.5,668.5 195.5,669 187,669.5 179,670 171,670.5 163.5,671 
	156,672 148,672.5 140,673.5 132,674.5 124,675 "/>
<polyline id="XMLID_409_" class="st0" points="115,683 122.5,682.5 130.5,682 138,681.5 146,680.5 "/>
<polyline id="XMLID_408_" class="st0" points="166.5,680.5 174,680.5 181.5,680.5 189,680 196.5,679.5 204.5,679.5 212.5,678 
	220.5,677 228.5,676 236.5,675.5 245,675 253,674 260,673.5 267.5,673.5 275.5,673 283.5,672.5 291,672.5 299,672 307.5,672 
	315.5,671.5 323.5,670.5 331.5,670.5 339.5,671 347,671 354.5,671 362.5,671 370.5,670.5 379,670 387.5,669.5 395,669 402.5,669 
	411,668.5 419.5,667.5 427.5,666.5 435,666 443,665 451,664.5 458.5,664 466.5,663 474,662.5 481.5,662.5 "/>
<polyline id="XMLID_407_" class="st0" points="483.5,648.5 475.5,649 467.5,649.5 460,649.5 453,650 445,651 436.5,651.5 428.5,652 
	420.5,653 412.5,654 404.5,655.5 396.5,655.5 389,656 381.5,656.5 374,656.5 366.5,656.5 358,657.5 349,658.5 340.5,659 332,659.5 
	324,660.5 315.5,660.5 307.5,660 299,660 290.5,660 282.5,660.5 274.5,661 266.5,661.5 258.5,662 250.5,662.5 242.5,663.5 
	235,663.5 228,664 220,664 211.5,664.5 204,665 195.5,666 187.5,667 179,668 171,669.5 163.5,670 156,670.5 148,671.5 140.5,672 
	132.5,672.5 124,673 116,673 108,673 100.5,673.5 93,674 85.5,675 77,675.5 68.5,676 60.5,676.5 52,677 44,678 "/>
<polyline id="XMLID_406_" class="st0" points="53,675 61,674.5 69,673.5 77.5,672.5 "/>
<polyline id="XMLID_405_" class="st0" points="82,663 90,655.5 98.5,648 106,641 114,633 121.5,626 130,619 138.5,612 146.5,604.5 
	154.5,597.5 162,589.5 170,581.5 178.5,573.5 186.5,565.5 194.5,558 203,550.5 211,543 219.5,536 227.5,528.5 236,521.5 244,513.5 
	251.5,506 259.5,498.5 267,491 275,484 282.5,477 290,470 298,463 305.5,456 313.5,448.5 321.5,440.5 330,433 338.5,425 346.5,417 
	354.5,409 362.5,401 370.5,393.5 378.5,386 386.5,379 "/>
<polyline id="XMLID_404_" class="st0" points="385,371.5 377.5,379.5 369.5,387 361,394.5 353,402 345,410 337,417.5 329,425 
	321.5,433 314,441 306,448.5 298.5,456 290.5,463.5 282.5,471 275,478.5 266.5,486 259,493 250.5,500 242,507.5 234,514 
	225.5,521.5 218,529 210,537 202.5,544.5 194.5,551.5 186.5,559 178.5,566.5 171,574 163,581.5 154.5,588.5 147,596 139,603.5 
	131.5,611 123.5,619 115,626.5 107,634.5 98.5,642 90.5,649 82.5,656.5 74.5,663.5 "/>
<polyline id="XMLID_403_" class="st0" points="66,663 74.5,655.5 82.5,649 90,642 98,635 106.5,627.5 115,620 123.5,612.5 132,605 
	140.5,597 148,589.5 156,582 164,574.5 172,567 180,560 187.5,552 195,544.5 202.5,537 210.5,529 218.5,521.5 226,514 233.5,506.5 
	241.5,499 249.5,492 257.5,485 266,477 274,469.5 282.5,462.5 291,455 299,448 307,440 314.5,433 322.5,425.5 331,418.5 339,411 
	346.5,403 354.5,395 362.5,387 370,379.5 378,372 "/>
<polyline id="XMLID_402_" class="st0" points="370,371.5 362,378.5 353.5,386.5 346,394 338.5,402.5 330.5,410.5 322.5,417.5 
	314.5,424.5 306.5,431 299,438.5 291,446 283,453.5 275,460.5 267.5,468 259.5,476 251,483.5 242.5,491.5 234.5,499.5 226,507 
	218,514 210,521.5 202,529 194.5,536 186.5,544 178.5,552 171,559.5 163,567.5 155,575 147.5,583 140,590.5 132.5,598 123.5,606 
	115,613.5 106.5,620.5 98,628 89.5,635.5 81.5,642 74,648.5 66.5,655.5 58,662 "/>
<polyline id="XMLID_401_" class="st0" points="58.5,666.5 66.5,666 74.5,665 "/>
<polyline id="XMLID_400_" class="st0" points="70,648.5 78,648 86,648 "/>
<polyline id="XMLID_399_" class="st0" points="92,656.5 100,656 108.5,655.5 "/>
<polyline id="XMLID_398_" class="st0" points="106,666.5 114.5,659 123,652 131.5,644 140,636.5 148.5,629 156.5,622 164.5,614.5 
	173,607 181,599.5 189,591.5 197.5,584.5 205.5,576.5 213.5,569.5 221,562 229,554.5 237,547 245,539.5 253,532 261,525 269,517.5 
	276.5,510 284.5,502.5 292,495 299.5,487 307,479.5 315,471 322.5,463 330.5,455.5 338.5,448.5 346.5,440.5 355,433 363,426 
	371,418.5 378.5,411 386.5,403.5 394.5,396.5 403,389.5 "/>
<polyline id="XMLID_397_" class="st0" points="395.5,387 387.5,394.5 379.5,402 371.5,410 363.5,417.5 355,425 346.5,432.5 
	338.5,440 330,447.5 321.5,455 313.5,462.5 305.5,470 298,477.5 290.5,484.5 283,492.5 276,499.5 268,507 261,514.5 253,522 
	245.5,529 237,536.5 228.5,544.5 220.5,551.5 212,559 204,566.5 196,573.5 187.5,581.5 179.5,589.5 171.5,597.5 163.5,605 
	155.5,613 147.5,620.5 140,628.5 132,635.5 123.5,643.5 115.5,651 107.5,658.5 99.5,665.5 "/>
<line id="XMLID_396_" class="st0" x1="107" y1="673" x2="115" y2="672.5"/>
<line id="XMLID_395_" class="st0" x1="100" y1="673" x2="92.5" y2="673.5"/>
<polyline id="XMLID_394_" class="st0" points="97.5,641.5 105.5,641 114,640.5 123,640 "/>
<polyline id="XMLID_393_" class="st0" points="125,649 133,648.5 140.5,648 148,647.5 155.5,647 163,646 "/>
<line id="XMLID_392_" class="st0" x1="170" y1="649.5" x2="178" y2="649"/>
<polyline id="XMLID_391_" class="st0" points="189,649 197,648.5 205.5,648.5 213,648.5 221,648.5 228.5,648 236,648 243.5,647.5 
	251,647 259,646.5 266.5,646.5 274,645.5 282,644.5 290,644 298.5,643.5 306.5,643 314.5,642.5 322,641.5 330.5,641 339,640.5 
	347,640 355,639 362.5,639 370.5,638.5 378.5,638 386.5,637.5 394.5,637 402.5,636.5 411,636 418.5,635.5 426.5,635 434.5,634.5 
	442.5,633.5 450,633 458.5,632.5 466.5,631.5 474.5,630.5 482,629.5 489.5,628.5 498,628 506,627.5 514,626.5 "/>
<polyline id="XMLID_390_" class="st0" points="517.5,627.5 509.5,635 501,642.5 492.5,650 484,657 475,664.5 467,672 458.5,680 "/>
<polyline id="XMLID_389_" class="st0" points="452.5,678.5 460.5,671 468.5,663 476.5,655.5 484.5,648 492,640.5 500,633 508,625.5 
	516,618.5 "/>
<polyline id="XMLID_388_" class="st0" points="517,609.5 509,617 501,624.5 493,632 485,639.5 477,646.5 469,654 461,661.5 453,669 
	445,677 "/>
<polyline id="XMLID_387_" class="st0" points="435.5,679 443.5,671.5 452.5,664 460.5,656.5 469,649 477.5,641.5 485.5,633.5 
	493,625.5 501,617.5 509,610 517,602.5 "/>
<polyline id="XMLID_386_" class="st0" points="518.5,596.5 510,604 501.5,611.5 493,619 484,626.5 476,634 467.5,641 459.5,648.5 
	451,656 442.5,663.5 434.5,671 426.5,679 "/>
<polyline id="XMLID_385_" class="st0" points="419,677.5 427.5,670 435.5,662.5 443.5,655 451.5,646.5 459.5,639 468,631 476,624 
	484,616.5 492,610 500,603 508,595.5 516,588 "/>
<polyline id="XMLID_384_" class="st0" points="516,577.5 508,585 499.5,593 491,600.5 483,607.5 475,614.5 467.5,622 460,629.5 
	452,637.5 443.5,645 435.5,652.5 427.5,660 420,668 412,675.5 "/>
<polyline id="XMLID_383_" class="st0" points="404.5,675.5 413,668 421,660 429,652 437,644.5 445,637 453.5,629.5 461.5,622.5 
	469.5,615 477.5,607.5 485,600.5 492.5,593 500,586 507.5,578.5 515,571 "/>
<polyline id="XMLID_382_" class="st0" points="517.5,562 509.5,570 502,578 494,586 486.5,593.5 478,601 470.5,608 462,615 
	453.5,622.5 445,630.5 437,638.5 428.5,645.5 420,652 411.5,659 403.5,666 395,673.5 "/>
<polyline id="XMLID_381_" class="st0" points="387.5,674 395.5,666 404,658.5 412.5,651.5 421,644 429.5,636 437.5,628.5 445.5,621 
	453,614 461,606.5 469,599.5 476.5,592 485,585 493,578.5 501,571.5 508.5,563.5 516.5,556.5 "/>
<polyline id="XMLID_380_" class="st0" points="517,546.5 509,554.5 500.5,562 492.5,569.5 484.5,577 476.5,584.5 469,591.5 
	461,598.5 453.5,605.5 446,613 438,620 430,628 421.5,636.5 413,645 404,653 395.5,660.5 387.5,668 380,675 "/>
<polyline id="XMLID_379_" class="st0" points="372.5,676 380,668 388,660.5 396.5,653 404.5,645 413,637 421,629.5 429.5,622.5 
	437.5,615 445,607.5 453,600 461,592.5 468.5,584 476,576.5 483.5,569 492,562 500,555 507.5,547.5 516,539.5 "/>
<polyline id="XMLID_378_" class="st0" points="514.5,532 507,540 499,548.5 491.5,556 484,564 476.5,571.5 468.5,579 461,586.5 
	453,594 445,601 437,608.5 429,616 421,623.5 413,631 405.5,638.5 397.5,645.5 389.5,653.5 381,660.5 373,668.5 365,676 "/>
<polyline id="XMLID_377_" class="st0" points="355.5,674 363.5,666 371.5,658.5 379.5,650.5 387.5,642.5 396,634.5 404,627.5 
	412,620 420.5,612.5 428.5,605.5 437,597.5 445.5,590 453,583 461,575.5 468,568 476,560.5 483,553.5 490.5,545.5 498,538.5 
	505.5,531 513.5,523.5 "/>
<polyline id="XMLID_376_" class="st0" points="514.5,514 507,521.5 499,529 491,536.5 483.5,544 476,551.5 468,559 460,566 
	452.5,573.5 445,581 437,588.5 429,596 420.5,603.5 412,611 404,618.5 396,626 387.5,633 378.5,640 370,648 361.5,656 353,664 
	344.5,671.5 "/>
<polyline id="XMLID_375_" class="st0" points="338,672 346.5,665 354.5,657.5 362.5,650.5 370,642.5 378,634.5 386.5,626.5 
	394.5,618.5 402.5,611 411,603.5 419,596 427.5,589 435.5,581.5 444,574.5 452,566.5 459.5,559 467.5,551.5 475,544 483,537 
	490.5,530 498,523 506,516 513.5,509 "/>
<polyline id="XMLID_374_" class="st0" points="514,501.5 506.5,509 498.5,516.5 490.5,524 483,531.5 474.5,539 467,546 458.5,553 
	450,560.5 442,567 433.5,574.5 426,582 418,590 410.5,597.5 402.5,604.5 394.5,612 386.5,619.5 379,627 371,634.5 362.5,641.5 
	355,649 347,656.5 339.5,664 331.5,672 "/>
<polyline id="XMLID_373_" class="st0" points="322.5,672.5 331,665 339.5,657.5 348,650 356.5,642 364,634.5 372,627 380,619.5 
	388,612 396,605 403.5,597 411,589.5 418.5,582 426.5,574 434.5,566.5 442,559 449.5,551.5 457.5,544 465.5,537 473.5,530 482,522 
	490,514.5 498.5,507.5 507,500 515,493 "/>
<polyline id="XMLID_372_" class="st0" points="515,483 507,490.5 499,497.5 491.5,505 483.5,513 475,520.5 466.5,528.5 458.5,536.5 
	450,544 442,551 434,558.5 426,566 418.5,573 410.5,581 402.5,589 395,596.5 387,604.5 379,612 371.5,620 364,627.5 356.5,635 
	347.5,643 339,650.5 330.5,657.5 322,665 313.5,672.5 "/>
<polyline id="XMLID_371_" class="st0" points="307,668.5 315.5,661 323.5,654 331.5,647 340,639.5 348,632 356,624.5 364,617 
	372,610.5 379.5,603.5 387.5,596 395,588.5 403.5,581 411.5,573.5 419.5,566 427.5,559 436,551.5 444,543.5 451.5,535.5 459,527.5 
	467.5,520 475.5,513 483.5,505.5 492,498.5 500,491.5 508,484.5 516.5,477 "/>
<polyline id="XMLID_370_" class="st0" points="517,469 509,476 501,483 493.5,490.5 485.5,498 477.5,505.5 469,513 461,520 
	452.5,527 444,534.5 436,542 428,549 420,556 412.5,563.5 404,571 396.5,578.5 388.5,586 381,593.5 373,601.5 365.5,609 
	357.5,616.5 349.5,624 341.5,631.5 333.5,638.5 325,645.5 317,653 309,661 301,669.5 "/>
<polyline id="XMLID_369_" class="st0" points="293,668.5 301,661 309.5,653 318,645.5 325.5,638 333.5,630.5 341,623.5 349,616 
	357,609 364.5,601.5 372.5,593.5 380.5,586 388,579 396,571.5 404,564 412,556 420,548 428.5,540.5 436,533.5 444,526 452,519.5 
	460,512.5 468,505.5 476,498 483.5,490.5 491.5,483 499.5,475.5 507.5,468 515.5,460.5 "/>
<polyline id="XMLID_368_" class="st0" points="516.5,451.5 508.5,459 500,466 492,473 484.5,480 476.5,488 468.5,495.5 460.5,503.5 
	451.5,511 443,518 435,525 427,533 419.5,540.5 411.5,548 403,555.5 395,563.5 387.5,571 380,578.5 372.5,586 365,593 357,600.5 
	349,608 340.5,616.5 332,624.5 323.5,631.5 316,638.5 307.5,646 300,654 292,661 284,668 "/>
<polyline id="XMLID_367_" class="st0" points="278,667.5 286,660.5 294,653 302,646 309,638.5 317,631.5 324.5,623.5 332.5,616 
	340.5,608.5 348,601 356,593.5 364,586 372,578.5 380,571 387.5,563.5 395.5,556 403.5,548 411.5,541 419.5,534 428,526.5 436,519 
	443.5,511.5 451,504 458.5,496.5 466.5,489.5 474.5,481.5 483,474 491.5,467 499.5,459.5 507.5,452 516,444.5 "/>
<polyline id="XMLID_366_" class="st0" points="515.5,437.5 507.5,445 499.5,452 491.5,459 483.5,466 475,473 467,481 459,489 
	451,497 443,505 435,512.5 427,519.5 418.5,527 410.5,534.5 402,542.5 394,550 386,557 377.5,563.5 369.5,570 361.5,577 
	353.5,584.5 345.5,592 338,599.5 330.5,607.5 323,615.5 316,623 308.5,631 301,639 293.5,647 285.5,654.5 278,662 270,669.5 "/>
<polyline id="XMLID_365_" class="st0" points="260.5,668.5 269,661.5 277,654 284.5,646.5 292,639 299.5,631 307,623.5 314.5,616 
	322.5,608 330.5,599.5 338.5,591.5 346,584 353.5,576 362,568.5 370,561.5 378.5,554.5 386.5,547 394.5,540 402.5,532.5 
	410.5,525.5 418.5,518 426.5,511 434.5,503.5 443,496 451,489 459,481.5 467.5,473.5 475.5,466 484,458.5 492.5,451 501,442.5 
	509,434.5 516.5,427 "/>
<polyline id="XMLID_364_" class="st0" points="516,418.5 508,426 500.5,434 493,441 485,448 477,455 468.5,463.5 460,471.5 
	451.5,479.5 443.5,487.5 435,495 427.5,502.5 419.5,509.5 411.5,516.5 403.5,523.5 395.5,531 387.5,538.5 378.5,547 370,554.5 
	361.5,562.5 353,569.5 345,577 338,584 330,591.5 321.5,600 313.5,607.5 306,615.5 298,624 290,632 282.5,640 275.5,647 
	267.5,654.5 259,662 251.5,669.5 "/>
<polyline id="XMLID_363_" class="st0" points="244,666 251.5,659 259.5,652 267,644 275,636 283,629 291.5,621.5 300,614 307.5,607 
	315,599.5 323,591.5 331,583.5 338.5,576 346.5,568 354.5,561 363,553.5 371,545.5 379.5,538.5 387.5,532 395.5,524.5 403.5,517.5 
	411.5,510.5 420,502.5 428,494.5 435.5,487 443.5,479 452,472 460.5,464 468.5,456.5 476.5,448 484,440.5 492,432.5 500,425.5 
	508,418 516,411 "/>
<polyline id="XMLID_362_" class="st0" points="516,402 508,409.5 500,417 492,425 484,432.5 476,440.5 468.5,449 460.5,457.5 
	452.5,465.5 444.5,473.5 437,481 428.5,488.5 420,496 412,503 404,510 396,517 388,524.5 380,531.5 372.5,538.5 364.5,545.5 
	356.5,552.5 348.5,560 340.5,567.5 332,575 324,582.5 315.5,590 307.5,597.5 299.5,604.5 292,612 284,620 275.5,628 268,635.5 
	259.5,643 251.5,650.5 243,657.5 235,665 "/>
<polyline id="XMLID_361_" class="st0" points="228.5,665 236,657.5 244,650 252,643 260,635.5 267.5,628.5 275.5,620.5 284,613.5 
	292,606 299.5,598.5 307.5,591 316,583.5 324,576 332.5,568 340.5,560 348.5,552 356,545 364,538 372,530.5 380,523 388,515.5 
	396.5,508 404.5,501 412,493.5 419.5,486 427.5,478.5 435.5,471 443.5,463.5 451,456.5 459,449 467,441 475,433.5 483,426 
	491.5,418 499.5,410.5 507.5,403.5 "/>
<polyline id="XMLID_360_" class="st0" points="507,397 499.5,404.5 492,412 484,419 476,426 467.5,433 459.5,440 451.5,447.5 
	443.5,454.5 435.5,462 427.5,470 419,477 411.5,484.5 404,492 396.5,499.5 389,507.5 381,515.5 373,523 365,531 357.5,538.5 
	350,546 342,553.5 333,560.5 324.5,568 315.5,576 306.5,584 298,590.5 290,597 281.5,604 273.5,612 265.5,620 258,627 250,635 
	242.5,643 235,651.5 227,659.5 220,667 "/>
<polyline id="XMLID_359_" class="st0" points="211.5,664.5 219,657.5 227,649.5 235,641.5 243.5,634 251.5,627 259.5,619.5 267,612 
	275,605 283,598 291.5,591 299.5,584 307.5,576.5 315,569 323,561 331,553 339.5,545 347,537.5 355.5,530 363.5,522.5 372,515 
	380,507.5 388.5,500 396.5,492 404.5,484.5 412.5,476.5 420.5,468.5 428.5,461.5 436,454.5 444,447.5 452,441 459.5,434 467.5,427 
	475.5,419.5 484,412 492.5,404.5 500.5,396.5 "/>
<polyline id="XMLID_358_" class="st0" points="491.5,396.5 483.5,404 475.5,411.5 468.5,419 460.5,426.5 453,433.5 445,440.5 
	437.5,447.5 429.5,455 422,463 413.5,470.5 405.5,478 397,485.5 388.5,493 380,500 371,507.5 363,515 354.5,523 346.5,530.5 
	338,537.5 330,545 322,552 314,559.5 306,567 298.5,574.5 291,582 283.5,589.5 277,597.5 269.5,605.5 262,613.5 253.5,621 
	245.5,629 237.5,636 229,643.5 221,650.5 212.5,658 204,665 "/>
<polyline id="XMLID_357_" class="st0" points="196,664.5 203.5,657 212,649.5 220,642.5 228,635.5 235.5,628 243,620.5 251.5,613 
	259.5,605.5 267.5,598 276,590 284,582 292,574.5 300,567 308,559.5 316.5,552 324.5,545 332.5,537 340.5,529.5 348.5,522 
	356.5,514 364.5,506.5 372.5,499 380,491.5 388,484 396,476.5 404,469.5 412,461.5 420,454 428,447 436.5,440.5 444.5,433.5 
	452,426 459.5,419.5 467.5,412.5 476,405.5 484.5,398 "/>
<line id="XMLID_356_" class="st0" x1="510" y1="419" x2="517.5" y2="418.5"/>
<polyline id="XMLID_355_" class="st0" points="442.5,394 434,394.5 425.5,395.5 "/>
<line id="XMLID_354_" class="st0" x1="378.5" y1="377.5" x2="370.5" y2="378"/>
<polyline id="XMLID_353_" class="st0" points="371.5,364.5 364,371.5 356.5,379 349,386.5 341,394.5 333,401.5 324.5,409 
	316.5,417.5 308.5,425 300.5,432.5 292.5,440 284,447.5 276,454.5 268,461.5 259.5,468.5 251.5,476 243.5,483 235,490.5 
	227.5,498.5 220,506.5 212,514.5 203.5,522 195.5,529 187.5,536.5 179.5,544 171,551.5 163.5,559 155.5,566.5 148,573.5 140,580 
	132,587.5 124,595 116,602.5 107.5,610 99.5,617 91.5,624 83,631.5 74.5,639 66,647 58,655 50,663 "/>
<polyline id="XMLID_352_" class="st0" points="52,663.5 60,663 67.5,662 75.5,661.5 84,660.5 92,660 99.5,659.5 107,659 115.5,658 
	124.5,658 133,657 140.5,656.5 148,656 156,655 163.5,654.5 171.5,653.5 179,653 187.5,652 195.5,651.5 203,651 210.5,650.5 
	219,649.5 227,649 235,649 242.5,648.5 250.5,648.5 259,648 267,648 275,648 283,647.5 291,647.5 299,647 307,646.5 315,645.5 
	322.5,645 330.5,644.5 338.5,644 346,644 354,644 362.5,644 371,644 378.5,643.5 386.5,643 395,642 403.5,641 411.5,640 420,639 
	428.5,638.5 437,638 445.5,637 453.5,636.5 461.5,636.5 468.5,635 476.5,634.5 484.5,634 492.5,633.5 499.5,633.5 507.5,633.5 
	515,633.5 "/>
<polyline id="XMLID_351_" class="st0" points="515,575.5 507.5,576 500,576 492,576 484.5,576.5 "/>
<polyline id="XMLID_350_" class="st0" points="516.5,497.5 508,498 499.5,497.5 491.5,497 483.5,497 475.5,497.5 467,498.5 
	459,498.5 450.5,498.5 442.5,499 434.5,499.5 426.5,500 418.5,500.5 411,501 403.5,501.5 395.5,502.5 387,503 379,503.5 371,504 
	363,505 355.5,505.5 347.5,506.5 339.5,507 331.5,507.5 323,508.5 315,508.5 307,509 299,509.5 291,509.5 283.5,509.5 276,510 
	268,510 259.5,510 251,510.5 243.5,511 236,511.5 "/>
<polyline id="XMLID_349_" class="st0" points="204,506.5 212.5,506.5 221,506 229,505.5 236.5,505 244,504 252,502.5 259.5,501.5 
	267.5,500.5 275.5,500.5 283.5,500 291,499.5 299.5,499 307.5,499 315,498.5 323,498.5 331,498.5 339,498.5 347,498 355.5,497 
	363.5,497 371.5,496 380,495 388,494.5 396.5,494 404,493 412.5,492.5 421,492 429,491.5 437,491 445,490.5 453,490.5 461,490 
	469,489.5 476.5,488.5 484,487.5 491.5,487.5 499.5,488 507.5,487.5 515.5,487 "/>
<polyline id="XMLID_348_" class="st0" points="422,390 414,390.5 405.5,391 396.5,391.5 388,392 379.5,392 371,392.5 363,392.5 
	355,392.5 347,393 "/>
<polyline id="XMLID_347_" class="st0" points="347.5,384.5 355.5,383.5 363,383 370.5,382.5 "/>
<polyline id="XMLID_346_" class="st0" points="365,364.5 356.5,372 348.5,380 340.5,388 332,395.5 323.5,403 316,410.5 308.5,418 
	301,425.5 293.5,432.5 285,440 277,447 269,454 261.5,461.5 253.5,469 245.5,476.5 237,484 229,491 220.5,498 212,505.5 204,513 
	196,520 188,527 180.5,534.5 172,542 164.5,549.5 156.5,557 149,564.5 141,572.5 133.5,580 125.5,587.5 117.5,595 109.5,602.5 
	101.5,609.5 93,616.5 85,624 77,632 69,640.5 60.5,648.5 52.5,656 44.5,664 "/>
<polyline id="XMLID_345_" class="st0" points="52.5,670 60.5,670 68.5,669.5 76.5,669 84.5,668.5 92.5,667.5 100.5,666.5 108,665.5 
	116,664.5 124,663.5 132.5,663 140.5,662.5 148,662 155.5,661.5 163.5,661 171,660.5 178.5,660 186.5,660.5 194.5,660.5 203,660 
	211,659.5 219,659 227.5,658.5 235.5,657.5 243,656.5 250.5,656 259,656 267,656.5 274.5,657 283,656.5 291,656 299,655.5 
	307,655.5 314.5,654.5 322,653.5 329.5,652.5 337.5,652 345.5,651.5 354,650.5 362.5,650 370.5,649 379,648.5 387,648.5 
	395.5,648.5 404,648 412.5,647.5 420.5,647.5 428.5,647 436.5,646.5 445,645 453,644 460.5,643.5 468,643 476,642.5 484,642 
	491.5,641 499.5,641 507,640.5 515,640 "/>
<polyline id="XMLID_344_" class="st0" points="517,606.5 509,606.5 500.5,607 492.5,608 484,609 476,610 467.5,610.5 459,611 
	450.5,611 442,611.5 433.5,612.5 425.5,613 417.5,613.5 410,614 402.5,614.5 394.5,615 386,615.5 378,616 369.5,616 361,616 
	352.5,616 345,616.5 337,616.5 329.5,617.5 321.5,618 314,618.5 305.5,619.5 298,620 290,620.5 282,620 274.5,620.5 266.5,621 
	259,622 251.5,623 244,623.5 236,624 228,624 219.5,624 211,624.5 202.5,624.5 194.5,625.5 "/>
<polyline id="XMLID_343_" class="st0" points="189,641.5 196.5,641 204.5,641 212,640.5 220,639.5 228,638.5 235.5,638.5 243,638.5 
	251,638 259.5,637.5 267,637 275,636.5 283,636.5 291.5,636 299.5,635 307.5,634 316,633.5 324,633.5 332,632.5 339.5,632 347,631 
	355.5,630.5 364,630 372,630 380,630 388,629.5 396,629 404,628.5 412,628 419.5,627 428,627 436,626.5 444.5,626 452.5,625 
	460,624 468,623 476,622.5 484,622.5 492,622.5 499.5,622 507.5,621.5 515.5,621 "/>
<polyline id="XMLID_342_" class="st0" points="514,643.5 505.5,643.5 497.5,644 489.5,644 482,644.5 473.5,645.5 465.5,645.5 
	457,646 449.5,646.5 441.5,647 434,647.5 426,648 418.5,648.5 410,649 402,649.5 394.5,650.5 386.5,651.5 378.5,652 370.5,652.5 
	363,653.5 355,654 347,654.5 338.5,655 331,655.5 323,656 315,656.5 307,656.5 298.5,657.5 290.5,658.5 283,659.5 275,660.5 
	267,661 259,661.5 250.5,662 242.5,662.5 234.5,663 226.5,663.5 218.5,664 210,664 201.5,665 193.5,665.5 185.5,666 177,666.5 "/>
<polyline id="XMLID_341_" class="st0" points="166.5,633 174.5,632.5 181.5,632 189,631.5 197,631.5 205,631 213,630 221,629 
	229,628 237.5,627 245.5,626 253.5,626 261.5,626 269,625.5 276.5,625 284.5,624.5 292.5,624.5 300,624 308,623.5 316,623.5 
	323.5,622.5 331.5,622.5 339.5,622 347.5,621.5 355.5,622 364,622 371.5,622 379,621.5 387,621 394.5,620 402.5,620 410.5,619.5 
	419.5,619 428,618.5 436,618 444.5,617 452,616.5 459.5,615.5 467.5,614.5 475.5,614 483.5,613.5 492,613 500,612 507.5,611 
	515.5,610 "/>
<polyline id="XMLID_340_" class="st0" points="476,561 467.5,561 459,562 450.5,562.5 442,562.5 433.5,563.5 426,563.5 418.5,564 
	410.5,565 403,565.5 395,566 387,567 379.5,567.5 371.5,568.5 363,569.5 354.5,570 347,570 339.5,570.5 331,571 322.5,571.5 
	314.5,572 306.5,572 299,572 291.5,572 283.5,571.5 275.5,571.5 267.5,572.5 259.5,573 251,573 243,573.5 235.5,573.5 227.5,574 
	219.5,574.5 212,574.5 205,575 197,576 "/>
<polyline id="XMLID_339_" class="st0" points="178.5,538.5 186.5,538.5 194.5,537.5 202.5,536.5 210.5,536.5 218.5,536.5 227,536 
	235.5,535 243.5,535 251,535 259,534.5 267,534 274.5,533 282.5,531.5 290,530.5 298,530 306,528.5 313.5,528 322,527.5 331,527.5 
	339,527.5 347,527 354.5,526 362,525 370.5,524 378.5,523 386,523 394,522.5 402.5,522 410.5,521 418.5,521 426,520 434.5,520 
	442.5,519.5 451,519 460,518.5 467.5,518.5 475,517.5 483,517.5 491,517.5 499.5,517 507,517 515,515.5 "/>
<polyline id="XMLID_338_" class="st0" points="459,394 451,394 443,394 434.5,394.5 426.5,395 419,395.5 411.5,396.5 403.5,397.5 
	395.5,397.5 387,398.5 378.5,398.5 370.5,398.5 362.5,399 354.5,399.5 347,399.5 339.5,400 331,400.5 323.5,401 "/>
<polyline id="XMLID_337_" class="st0" points="324,393.5 332,393.5 340,392.5 "/>
<polyline id="XMLID_336_" class="st0" points="331,382.5 339,382.5 347,381.5 355.5,381 364,380.5 372,379.5 380.5,379 388,379 
	396,378.5 "/>
<polyline id="XMLID_335_" class="st0" points="362.5,356.5 354.5,363.5 346.5,371 338.5,379 331,386.5 323,394 315,401.5 307,409 
	"/>
<polyline id="XMLID_334_" class="st0" points="306.5,407 314.5,406.5 323.5,406 332,405.5 340,405 348.5,404 356,403.5 363.5,402.5 
	371.5,401.5 379.5,401 387.5,400.5 396,400 404,399 411.5,398 419.5,397 427.5,396 435.5,395.5 444,395 452.5,394.5 460.5,394.5 
	469,394 476.5,393.5 483.5,393.5 491,393 499,392 506.5,392 514.5,391.5 "/>
<polyline id="XMLID_333_" class="st0" points="372,357.5 364,358 355.5,359 "/>
<polyline id="XMLID_332_" class="st0" points="357.5,353 349.5,361 339.5,369 331,377.5 323.5,385.5 316.5,394 310.5,402.5 
	306,410.5 296,419 282,427.5 268.5,435.5 255.5,443.5 246.5,451 "/>
<polyline id="XMLID_331_" class="st0" points="243,452.5 235,460 227.5,467.5 219.5,474.5 211.5,482 203.5,489.5 196,496.5 
	189,503.5 181.5,510.5 173.5,518 166,525 157.5,533 149,540.5 141,548 133,556 125,563.5 116.5,571 107.5,577.5 99.5,584.5 
	92,591.5 84,599.5 76,607 67.5,615 59,622.5 "/>
<polyline id="XMLID_330_" class="st0" points="59,623.5 67.5,623 75.5,622 83,621 90.5,620 98,619.5 105.5,618 113.5,617 121.5,616 
	129.5,615 137,614 145.5,614 153.5,614 162.5,614 171.5,614 180,614 188.5,614 197,614.5 205,614.5 212.5,614 221,613.5 229,612.5 
	237.5,612 245.5,611.5 254,611 262,610.5 269.5,610 277.5,609.5 285,609 293,608.5 301,608 309.5,607.5 317,606 325,605 
	333.5,604.5 341.5,603.5 349.5,603 357.5,602 365,601 372.5,600 380,599.5 388,599.5 396.5,599.5 404.5,599.5 412.5,599.5 
	420.5,599.5 428,599 436,598.5 444,598 452.5,598 460.5,598 468.5,597 476.5,597 484,596.5 491.5,596 499,595.5 507.5,595 
	515,594.5 "/>
<polyline id="XMLID_329_" class="st0" points="514.5,507 506.5,507.5 498.5,508 491,508.5 483,508.5 475,509.5 467.5,510.5 
	459.5,511 451.5,511.5 443.5,512.5 436,513 427.5,513.5 419.5,514 412,514.5 404,515.5 395.5,515.5 387,516 379,516 371,515.5 
	363.5,516 355.5,516.5 347.5,517 339.5,518 331.5,519 323,519.5 315,520 307,520.5 299,520.5 291.5,520.5 283.5,521 275.5,521.5 
	268,522.5 260.5,523.5 253.5,524.5 246,525 237,525.5 228.5,525 220,525.5 212,526 203.5,526 195.5,527 187.5,528 179.5,528.5 
	171.5,529.5 164,530.5 "/>
<polyline id="XMLID_328_" class="st0" points="162.5,507 170,506 177.5,505 185.5,504 193.5,503.5 "/>
<polyline id="XMLID_327_" class="st0" points="203,499 211,498 219,497.5 226.5,497 234.5,496.5 242,496 250,495.5 258,494.5 
	265.5,494 273.5,493.5 282,493 289.5,493 298,492.5 306.5,492 315,491 323.5,490.5 331.5,490.5 338.5,490.5 346.5,490 355,489.5 
	363,488.5 371,488.5 379,487.5 387.5,487 396,486.5 404,485.5 412.5,485 420,485 428,484.5 436,484 444,483.5 452.5,483 460.5,482 
	468.5,481.5 476.5,480.5 484.5,480 492,479.5 500,479 508,479.5 516,479.5 "/>
<line id="XMLID_326_" class="st0" x1="356" y1="376" x2="348" y2="376"/>
<polyline id="XMLID_325_" class="st0" points="339.5,375 347.5,374 356,373 364,372.5 372.5,372 380,371 388.5,370.5 "/>
<polyline id="XMLID_324_" class="st0" points="380.5,363.5 372.5,364 364.5,364 357,364.5 349.5,364.5 "/>
<polyline id="XMLID_323_" class="st0" points="346.5,359 343.5,351 342.5,343 341.5,335 341.5,327 342.5,319 342,311.5 341,303.5 
	343,295 347,287.5 341.5,298.5 "/>
<polyline id="XMLID_322_" class="st0" points="332,317 326.5,325 317.5,333.5 316.5,334.5 324,327.5 332,317 "/>
<line id="XMLID_321_" class="st0" x1="332" y1="317.5" x2="324" y2="318.5"/>
<line id="XMLID_320_" class="st0" x1="321" y1="326" x2="312.5" y2="326"/>
<polyline id="XMLID_319_" class="st0" points="323.5,331.5 315.5,332 307.5,332 299.5,332.5 "/>
<polyline id="XMLID_318_" class="st0" points="290,332 298,330 306,325 "/>
<polyline id="XMLID_317_" class="st0" points="317,337.5 309.5,338 301,338.5 292,339 283.5,339.5 274.5,340 266.5,340 257.5,340.5 
	249.5,340.5 241,341 233,342 225,342 "/>
<polyline id="XMLID_316_" class="st0" points="226,333.5 234.5,333.5 242.5,333 250.5,333 259,332.5 267,331.5 275.5,331.5 "/>
<polyline id="XMLID_315_" class="st0" points="270.5,336.5 278.5,336.5 286,337.5 293.5,337 300,334 "/>
<polyline id="XMLID_314_" class="st0" points="301,346 293,346.5 284.5,346.5 276.5,347.5 268,348 259.5,348.5 251,348.5 243,349 
	235,350 226.5,351 "/>
<polyline id="XMLID_313_" class="st0" points="234.5,358 242,357.5 250.5,357.5 259,357 267.5,357 276,356.5 284,356 291.5,355 
	299.5,354 "/>
<polyline id="XMLID_312_" class="st0" points="307.5,345.5 300.5,353.5 301,353.5 309,345 317.5,342 "/>
<polyline id="XMLID_311_" class="st0" points="362.5,353 369,361 378,369 391,377 397,385 403.5,386 411.5,387 419.5,388 427.5,387 
	435.5,387 444,388 452,390 460,389.5 468,389.5 476,390.5 484,392.5 492,394 500,395 508,397 "/>
<polyline id="XMLID_310_" class="st0" points="483.5,378.5 475,379.5 467,379.5 458.5,379.5 450.5,380 442.5,380.5 434.5,381 
	426.5,381.5 419,382 411.5,382.5 403.5,383.5 395,384 387,384.5 379,385 371,386 363.5,386.5 355.5,387.5 347.5,388 339.5,388.5 
	331,389.5 323,389.5 "/>
<polyline id="XMLID_309_" class="st0" points="315,397.5 323,397 331,397 338.5,397 346.5,396.5 354,396 362,395.5 370,395.5 
	378,395.5 386.5,395 394.5,395 403,394 411.5,393.5 420,393 428,392.5 436,392 444,391 451.5,390 459.5,389 467.5,389 475,389 
	483,388 491.5,387 500,386.5 508,385.5 516,385 "/>
<polyline id="XMLID_308_" class="st0" points="490,405.5 481.5,406 473,406 465.5,406.5 457.5,408 449.5,409 442,409.5 434,410.5 
	426.5,411.5 418.5,412.5 411,413 403.5,413.5 396,414 387.5,414.5 379.5,414.5 371,415 363,415 354.5,416 347,416.5 339,417.5 
	331,418 323,418 315,418 "/>
<polyline id="XMLID_307_" class="st0" points="306.5,412 315,411.5 323.5,410.5 331.5,409.5 339,409 347,408 355,407.5 362.5,407 
	370.5,406 378,405.5 385.5,405.5 394,404.5 402.5,404.5 411,404 419.5,403 428,403 436.5,402 444.5,401 452.5,400.5 460.5,400 
	469,399.5 477,399.5 485,399 "/>
<polyline id="XMLID_306_" class="st0" points="516.5,398.5 508,399 499.5,399 491.5,400.5 483,402 475,403 466.5,404.5 458.5,405 
	450.5,405.5 442.5,406 434,406 426,406 417.5,406 409.5,406 401.5,406.5 393,407 385,407 376.5,407.5 369,408 361,409 353.5,409.5 
	346.5,409.5 338.5,410 331,410.5 323,411 315.5,411.5 308,412.5 300,413 "/>
<polyline id="XMLID_305_" class="st0" points="299.5,420 291,428 283.5,435.5 275.5,443 268,450 260,457.5 252,465 244.5,473 
	236.5,480.5 228.5,488 220,495.5 211.5,503 203.5,510.5 195.5,518 187,525 178.5,532.5 170.5,540.5 162.5,547.5 155,555 
	147.5,562.5 140,570 132,577.5 123.5,585 115.5,592 107.5,599 99.5,607 91.5,614.5 84,622 76,629.5 68,637 60,644.5 52,652 "/>
<polyline id="XMLID_304_" class="st0" points="52,654 60,654 68,654 76,654 83.5,653 91,653 99.5,652.5 108,652 116,651 124,650.5 
	132,650 140,649 148,649 156,648.5 163.5,647 171,646.5 179,646 187,645 195,644 203,643 211,643 219,642.5 227.5,642 236,641.5 
	243.5,641.5 251.5,640.5 259.5,640 267,639.5 274.5,639 282.5,638 290,637.5 298,637 305.5,637 313.5,637 321.5,637 330,637 
	338.5,636.5 346.5,636 355,635 363.5,634 371.5,633.5 380,633 388,633 395.5,632.5 403,632.5 411.5,632.5 419.5,631 427,630 
	435,629.5 443.5,629.5 451.5,629 459.5,628 467,626.5 475,625.5 483.5,625 491.5,624.5 499,624.5 506.5,624.5 514,624 "/>
<polyline id="XMLID_303_" class="st0" points="514.5,562.5 506.5,563.5 498,564 490.5,564.5 482.5,565.5 474.5,566 466.5,566.5 
	459,567 450.5,567.5 442.5,568 434.5,568.5 426.5,569 418.5,569.5 410.5,570 403,570 395,571 387,571.5 378.5,572 370,572.5 
	362.5,573.5 354.5,574 346.5,574.5 338,575 330,575.5 322,576.5 314.5,577.5 307,577.5 299,578 291.5,578.5 284,579 276.5,579 
	269,579.5 261,579.5 253.5,579.5 245,579.5 237,580 229,581 221,581.5 212.5,582 204,582.5 195.5,582.5 188,583.5 179.5,584 
	171,585 162.5,585.5 154,586 "/>
<polyline id="XMLID_302_" class="st0" points="145,576 153,575.5 161,575 169,574.5 176.5,574.5 184.5,574 "/>
<polyline id="XMLID_301_" class="st0" points="147.5,568.5 155,568.5 163,568 171.5,567 179.5,566.5 188,566 196,565 204,564.5 
	212,564.5 219,564.5 227,564.5 235,564 242.5,564 250.5,563.5 258.5,562.5 266.5,562.5 274.5,562.5 283,562.5 291.5,562.5 
	299.5,561.5 307,561 315,560 323,559.5 330.5,559 338.5,558.5 346,558 354,557.5 362,556.5 369.5,556 377.5,555.5 386,555 
	393.5,555 402,554.5 410.5,554 419,553 427.5,552.5 435.5,552.5 442.5,552.5 450.5,552 459,551.5 467,550.5 475,550.5 483,549.5 
	491.5,549 500,548.5 508,547.5 516.5,547 "/>
<polyline id="XMLID_300_" class="st0" points="515,430 507.5,430 500,430.5 493,431 485.5,431.5 477.5,432 469.5,432.5 461.5,432.5 
	453.5,432.5 445.5,433.5 437.5,434.5 429,435.5 420.5,435.5 412,436 403.5,436.5 395.5,437 387,437 379,437.5 371,438 363,438 
	355.5,438.5 347.5,439 339.5,439 331.5,440 324,440 316,441 308.5,441.5 300.5,442 293,442 "/>
<polyline id="XMLID_299_" class="st0" points="293.5,427 301,426.5 308,426.5 315.5,426.5 323.5,426 331.5,425 339,425 346.5,424.5 
	355,424 363.5,423.5 371,423 379.5,422.5 387,422 395,422 403.5,421 412,420.5 420.5,420 429,419 437,418 445,417 453,416 
	461,415.5 469,415 476.5,415 484.5,415.5 492.5,415 500,414.5 "/>
<polyline id="XMLID_298_" class="st0" points="514,407 505.5,407.5 497.5,408 490,409 481.5,410.5 474,410.5 466.5,411 458.5,411.5 
	450.5,411.5 443,411.5 434.5,412 427,413 419.5,414 411.5,415 403.5,416 395.5,416.5 387,417.5 378.5,418 370,418.5 362,419 
	354,419.5 347,419.5 339.5,420 331.5,421 324,421 316,421.5 308,422 300,422.5 292,423 284.5,424 "/>
<polyline id="XMLID_297_" class="st0" points="282.5,425 275,433.5 267,441.5 259.5,449 252,456.5 244.5,463.5 236,471 228,479 
	220,486.5 211.5,494 204,502 196,509 188,516.5 180,523.5 172,531.5 164.5,539 156.5,547.5 148.5,555 140,563 131.5,570 123.5,578 
	116,585.5 108,593.5 99.5,601.5 91.5,608.5 83.5,615.5 75.5,623 67.5,629.5 59,636.5 "/>
<polyline id="XMLID_296_" class="st0" points="59.5,638.5 67.5,638 76,636.5 84,635.5 92,635 99.5,635 107.5,634.5 115,635 123,635 
	130.5,635 138,634.5 146,634 154.5,633 162.5,632.5 170.5,631.5 179,630.5 187,630 195,629 202.5,628 211,627.5 219,626.5 
	227,626.5 234.5,626 242.5,626 250,625.5 257.5,625.5 265.5,624.5 273,623.5 281,623 289,621.5 297,621 305,620.5 313,620 
	321,619.5 328.5,619.5 336.5,619 344.5,619 353,618.5 361.5,618 369.5,617 377.5,616.5 386,616 394,616 402.5,615.5 411,615 
	419.5,614.5 427.5,614.5 436,615 444,614.5 452,614 460,613.5 468.5,613.5 477,613 485,612.5 492.5,612 500,611 508,609.5 
	515.5,608.5 "/>
<polyline id="XMLID_295_" class="st0" points="514.5,530.5 506.5,531 498.5,531.5 491,531.5 483.5,532 475,532.5 467.5,533 
	459,533.5 451,534.5 442.5,535.5 434.5,536 426.5,537.5 419,538 411,538.5 403,539 395,539.5 387,540 379,541 371,541.5 363,541.5 
	355.5,542 347,542.5 339.5,543 332,543.5 324.5,544 316.5,544 308.5,545 300.5,545 292,545 284,545.5 276,546 268.5,546.5 
	260.5,546.5 252.5,546.5 244.5,546.5 236,546.5 228,546.5 220.5,547 213,548 205.5,549 197.5,550 189.5,550.5 181.5,551.5 173,552 
	165,553 157.5,554.5 149,555 "/>
<polyline id="XMLID_294_" class="st0" points="131.5,562 139.5,561 147.5,560 155.5,559.5 163.5,559 171.5,558.5 179,558 186.5,557 
	194,557 201.5,557 209,556.5 217.5,556 226,555 234.5,554.5 243,554.5 251.5,554 259.5,553.5 267.5,552.5 275.5,552 283,551.5 
	291,551.5 299,550.5 307.5,550 315.5,550 323,550 331,550 339.5,549.5 347.5,548.5 355.5,548 363.5,547 371.5,546.5 379.5,546 
	388,545.5 396,545 405,545.5 413,545.5 421,544.5 428,543.5 435.5,542 443.5,541 451.5,540.5 459.5,540 467.5,540 475.5,539.5 
	483.5,539 491.5,538.5 499,538 507,537.5 515.5,537.5 "/>
<polyline id="XMLID_293_" class="st0" points="514.5,418 507,418 499.5,418.5 491.5,419 483,420 475,420.5 467,421 459,421.5 
	451,422.5 443.5,423 435.5,423.5 427.5,424 420,424.5 412,424.5 404,424.5 396,425 388,426 380.5,427 372.5,428 364,428.5 356,429 
	347.5,429 340,430 332,430.5 324,431 316,431.5 308,432 300,432 292,432 283.5,432.5 275,433 "/>
<polyline id="XMLID_292_" class="st0" points="277.5,429 285.5,428.5 293.5,428 301,427.5 308.5,427 316,426.5 324,427 332,427 
	339.5,427 347.5,426.5 355.5,426 364,425 372,424.5 380.5,424.5 389,424 397.5,423.5 405,423.5 413,423 420.5,422.5 428.5,421.5 
	436,421 444.5,420.5 452,420 459.5,419 467,417.5 474.5,417 482,416 490.5,415 498,414 505.5,413 513.5,412 "/>
<polyline id="XMLID_291_" class="st0" points="515,465.5 507,466 499.5,466.5 491.5,467.5 483.5,468.5 476,469 468,469.5 460.5,470 
	453,471 445,471.5 437,472 429,473 421,473 412.5,473.5 404,473.5 395.5,473.5 387,474 379,474 371.5,474 363.5,474.5 356,475 
	348,475 340,476 332.5,476.5 324.5,477.5 316,478.5 307.5,479.5 300,480.5 292,481 283.5,482 275,482.5 266.5,483.5 "/>
<polyline id="XMLID_290_" class="st0" points="250.5,450 259,449 266.5,448.5 274.5,447.5 282,447.5 290,446.5 298,446.5 306,445.5 
	314,445 322.5,444.5 331.5,445 339.5,444 347.5,443.5 355.5,442.5 363.5,442 371.5,441.5 379.5,441 387.5,440 396,439.5 404,439 
	412.5,438.5 420,438 428,438 435.5,438 443,437.5 451,437 458.5,437 466,437.5 473.5,437 481.5,436.5 489.5,436 498,435.5 
	506,434.5 513.5,433.5 "/>
<polyline id="XMLID_289_" class="st0" points="516.5,419.5 508,419.5 499.5,419 491.5,420 483.5,421 475,422.5 467,423.5 
	458.5,423.5 450.5,424.5 442,425 434,425.5 425.5,425.5 417.5,426 409.5,426 402,426.5 393.5,427.5 385.5,427.5 377,428 
	369.5,428.5 361.5,429 354,429.5 346,430 338.5,430.5 330,431 322,431.5 314.5,432.5 306.5,433.5 298.5,434 290.5,434.5 283,435.5 
	275,436 267,436.5 258.5,437 "/>
<polyline id="XMLID_288_" class="st0" points="258.5,441 266,440.5 273.5,440.5 282,440 "/>
<polyline id="XMLID_287_" class="st0" points="268.5,436 260.5,443 252,450.5 244,458 235.5,466 227.5,473 219.5,481 211.5,488 
	203.5,496 196,504 188.5,511.5 180.5,519.5 172,527 163.5,534.5 155.5,542 147.5,549 140,556 132,562.5 124,569.5 116.5,576.5 
	108.5,583.5 100.5,591.5 92.5,599.5 84.5,607 76.5,615 68,622.5 60,630 "/>
<polyline id="XMLID_286_" class="st0" points="60.5,631 68.5,630.5 76,630 83,629 90,628 97.5,627.5 105.5,627 113.5,626.5 
	121.5,626 130,625.5 138,625 146,624 154.5,624 163,623.5 171,623.5 179.5,623 188,622.5 196,622 204,622 212,621.5 220.5,620.5 
	228,620 235.5,619.5 243,619 251,618 259,617.5 267,616.5 274.5,616 282.5,615.5 291,614.5 299.5,613.5 307,613.5 315,613 
	323.5,612 331.5,611.5 340,611 348,610 356,609.5 364,609.5 371,609.5 379,609.5 387,609 394.5,609 402.5,608.5 410.5,607.5 
	418.5,607.5 426.5,607.5 435,607.5 443.5,607.5 451.5,606.5 459,606 467,605 475,604.5 482.5,604 490.5,603.5 498,603 506,602.5 
	514,601.5 "/>
<polyline id="XMLID_285_" class="st0" points="515.5,577.5 507.5,578 499.5,578.5 491.5,579.5 484,580 475.5,580.5 467.5,581 
	460,581.5 452,582.5 443.5,582.5 435,583 427,583 419,582.5 411.5,583 403.5,583.5 395.5,584 387.5,585 379.5,586 371,586.5 
	363,587 355,587.5 347,587.5 339.5,587.5 331.5,588 323.5,588.5 316,589.5 308.5,590.5 301.5,591.5 294,592 285,592.5 276.5,592 
	268,592.5 260,593 251.5,593 243.5,594 235.5,595 227.5,595.5 219.5,596.5 212,597.5 203.5,598 196,597.5 188,597.5 180,597.5 
	171.5,598 163.5,598.5 156,599.5 148,600 140.5,600.5 132.5,601 "/>
<polyline id="XMLID_284_" class="st0" points="124,592.5 132.5,592 140.5,592 148,592 156,591.5 164,591 172,590.5 179.5,590 
	187,589 194.5,588 202,587 210.5,587 218,586.5 226.5,586 235.5,585.5 244,584.5 252.5,584.5 260.5,584.5 268.5,584 277,584 
	285,583.5 292.5,583 300.5,583 308,582.5 316,581.5 324,580.5 331.5,580.5 339,580.5 347,580 355.5,579.5 363,579 371,578.5 
	379,578.5 387.5,578 395.5,577 403.5,576 412,575.5 420,575.5 428,574.5 435.5,574 443,573 451.5,572.5 460,572 468,572 476,572 
	484,571.5 492,571 500,570.5 508,570 515.5,569 "/>
<polyline id="XMLID_283_" class="st0" points="517,468 508.5,468.5 500.5,468.5 492,469 483.5,469.5 475.5,470 467.5,471 459.5,472 
	452,473 444,474 435.5,474.5 427.5,475 419.5,475.5 411.5,476.5 404,477.5 396.5,478 388,479 380,479.5 371.5,480 362.5,480.5 
	354.5,481 346.5,481 339,482 331,482.5 323.5,483 316,483 307.5,483 299.5,482.5 291.5,483 283.5,483.5 275.5,483.5 268,484.5 
	260,484.5 252,485 244.5,485.5 236.5,485.5 228.5,486 221,486.5 213.5,487 205.5,487 197.5,487 "/>
<polyline id="XMLID_282_" class="st0" points="178,474.5 186.5,474 194.5,473 202.5,472.5 211,472.5 219,472 228,471.5 236.5,471 
	245,470.5 253,470 260.5,469 269,469 277,468.5 284,468 291.5,467.5 299.5,466.5 306.5,465.5 313.5,465 321,464.5 329.5,464.5 
	337.5,464 346,463.5 354.5,462.5 363,461.5 371,460.5 379.5,459.5 387,459 394,458 401.5,457.5 409,457.5 417,457.5 425,456.5 
	433.5,456 442,455.5 450.5,455 458.5,454 467,454 476,453.5 484.5,453.5 492.5,454 500.5,453.5 509,453 516.5,452 "/>
<polyline id="XMLID_281_" class="st0" points="514.5,430 507,430.5 499,430.5 491.5,431 483.5,432 475.5,432.5 467.5,433 
	459.5,432.5 452,432.5 444.5,433.5 437,434.5 429,435 421,435.5 413,435.5 405,436 397,436.5 389,437 380.5,437.5 372,438 
	364.5,439 356,439.5 348,440 339.5,441 331.5,442 323.5,442 315,443 307,443.5 299,443.5 291,443.5 283,443.5 275.5,444 267.5,444 
	259,444.5 251.5,445 "/>
<polyline id="XMLID_280_" class="st0" points="243.5,444.5 236,452 227.5,460 220,467 212,473.5 204.5,481 196,488.5 188.5,496 
	181,503 173,510.5 165,518 157,525.5 149,533 141,541 132.5,548.5 124,555.5 116,563 108,571 99.5,578.5 91.5,585.5 83,593 
	75.5,600.5 68,608 60.5,615 "/>
<polyline id="XMLID_279_" class="st0" points="61.5,614.5 69,614 77,613.5 85,612.5 92.5,612 100,610.5 107,610 114.5,609.5 
	122,609 129,608 137,607.5 145.5,607 154.5,606 163,605.5 171,605.5 179.5,605.5 188,605 196,604.5 204.5,605 212.5,605 220.5,605 
	228.5,604 236.5,603.5 244,603.5 251.5,603 259.5,603 267.5,603 276,602 284,601.5 292.5,601 300,600 308,599.5 316,598.5 
	324,597.5 332.5,596.5 340.5,596 348,595.5 355.5,594.5 363,594 370.5,593 378.5,592.5 386.5,592 394.5,591.5 403,591.5 
	411.5,591.5 419.5,591.5 428,591.5 436.5,591.5 444.5,591 452,590 460,590 467.5,589 476,588 484,587.5 492,586.5 500,586 
	507.5,585.5 516,585 "/>
<polyline id="XMLID_278_" class="st0" points="516.5,497.5 508,498.5 500,499 491.5,499 484,500 476,501 468,501.5 460,502.5 
	451.5,503 444,503 435.5,503 427,503.5 418.5,504 411,504.5 403,505 395,505.5 387,505.5 378.5,505.5 371,506 363,507 355,507.5 
	347.5,508 339.5,508 332,509 324,509.5 316,510 308.5,510.5 301,511 293,512 284.5,513.5 276.5,514 268.5,514.5 260.5,514.5 
	252,515 243.5,515.5 235,515.5 227,515.5 218.5,516 210.5,517 202,517.5 193.5,518.5 185.5,519 177.5,519.5 170,520.5 162.5,521.5 
	155,522.5 147,522.5 139,523 "/>
<polyline id="XMLID_277_" class="st0" points="129.5,531 137.5,530.5 145.5,529.5 154,528.5 "/>
<polyline id="XMLID_276_" class="st0" points="161,497.5 169.5,497 178,496 186.5,495.5 195,495.5 "/>
<polyline id="XMLID_275_" class="st0" points="161,480.5 169,480 178,480 186.5,479.5 194.5,479.5 202.5,479 211,478 218.5,477.5 
	226.5,476.5 234.5,476 242.5,475.5 250.5,475 259,474.5 "/>
<polyline id="XMLID_274_" class="st0" points="233.5,444.5 226,451.5 218.5,459 211,466.5 202.5,474 194.5,481 187,488.5 179,496.5 
	171,504 163.5,511.5 155.5,519 147.5,526.5 140,534 132,541 124,548.5 116,555.5 108.5,563.5 101,571.5 93,579.5 84.5,587 
	76.5,594.5 68.5,601.5 "/>
<polyline id="XMLID_273_" class="st0" points="66,602.5 74.5,602 83,601.5 91,601 "/>
<polyline id="XMLID_272_" class="st0" points="99,601.5 107.5,601 115,601 123,600.5 "/>
<line id="XMLID_271_" class="st0" x1="123.5" y1="585.5" x2="132" y2="585"/>
<line id="XMLID_270_" class="st0" x1="131.5" y1="579" x2="139.5" y2="578.5"/>
<line id="XMLID_269_" class="st0" x1="138.5" y1="587" x2="146" y2="587"/>
<polyline id="XMLID_268_" class="st0" points="139,569.5 131,570.5 123,571 "/>
<line id="XMLID_267_" class="st0" x1="124" y1="578" x2="116.5" y2="578.5"/>
<line id="XMLID_266_" class="st0" x1="115.5" y1="566.5" x2="108" y2="567"/>
<line id="XMLID_265_" class="st0" x1="107.5" y1="560.5" x2="99.5" y2="561"/>
<line id="XMLID_264_" class="st0" x1="89.5" y1="551" x2="81" y2="551"/>
<polyline id="XMLID_263_" class="st0" points="77,552.5 84.5,546 92.5,539.5 99.5,532.5 106.5,525 114,517 121.5,510 130,502 
	138,494.5 145.5,486.5 153,478.5 161.5,471.5 170,464 178.5,456.5 186.5,449.5 194.5,441.5 202.5,434 210,426 218,418 226,411 
	234.5,403.5 "/>
<polyline id="XMLID_262_" class="st0" points="234,395.5 226.5,402.5 218,410 210,417.5 201.5,424.5 194,431.5 186,440 178,448.5 
	170,456.5 162.5,463.5 155,471 146.5,479 138.5,486.5 130,494 122,502 114.5,510 107,517 99,524 91,531 83.5,538.5 76,545.5 "/>
<polyline id="XMLID_261_" class="st0" points="77.5,547.5 86,547.5 94,547 101.5,546.5 108.5,546 116,545.5 123,545 131,545 
	139,545 146.5,544.5 155,544 162.5,543.5 169.5,543 177.5,542.5 186,542 193.5,542 201.5,542 209.5,542 217.5,542 225.5,541.5 
	233.5,541 241.5,540.5 249.5,539.5 258,538.5 266,537 274.5,536 282,535 289.5,534.5 297.5,534 305,533.5 313,533.5 321,533 
	330,533 338.5,532.5 346.5,532.5 354.5,532 363,531 370.5,530.5 378.5,529.5 386.5,529 394.5,528.5 402.5,528 411,527.5 419.5,527 
	427.5,527 435.5,526.5 444,526.5 452.5,527 460.5,526.5 468.5,526.5 477,526 484,525 491.5,525 499.5,524.5 507.5,524 515.5,524 "/>
<polyline id="XMLID_260_" class="st0" points="514,443.5 506,443.5 498,444 490.5,444.5 482.5,445 475,445 467,445 459,445.5 
	451.5,446.5 443.5,447 435.5,448 428,449 420,449.5 411.5,450 403,450 394.5,450.5 386,450.5 378.5,451 370.5,451 362,451 
	354.5,451.5 347,451.5 339.5,451.5 331.5,452 323,452.5 315,453.5 307.5,455 299.5,456 291.5,456.5 283,456.5 275,457 267.5,458 
	259.5,459.5 251,459.5 243.5,459.5 236,460 228,460 219.5,460.5 211.5,461 203,462 194.5,463 186.5,463.5 178,464 169.5,464 
	161.5,464 153.5,464 146,464 138,464.5 "/>
<polyline id="XMLID_259_" class="st0" points="131,473.5 139,473 146.5,472.5 154.5,471.5 162.5,471 171,470.5 "/>
<polyline id="XMLID_258_" class="st0" points="155,481.5 147,482 139,482.5 "/>
<line id="XMLID_257_" class="st0" x1="132" y1="480.5" x2="124.5" y2="481"/>
<line id="XMLID_256_" class="st0" x1="123" y1="473" x2="115" y2="473.5"/>
<polyline id="XMLID_255_" class="st0" points="114.5,464.5 123,463.5 131,463 "/>
<polyline id="XMLID_254_" class="st0" points="122.5,457 130.5,456.5 139,456 147,456.5 155,456.5 163,456 171,456 179,455.5 
	186.5,455 194,454.5 202,454 209.5,453.5 218,453.5 226,453 234.5,452.5 243,452.5 250.5,451.5 257.5,450.5 265,450 273,449 
	281,448.5 289.5,448 297.5,447.5 305.5,447 314,446 322.5,446 330.5,445.5 338.5,445 346.5,444.5 354.5,444 363,443.5 371,443 
	379,442.5 387,441.5 394.5,440.5 402.5,439.5 411,438.5 419,438.5 427,438 435,437.5 442.5,437 451,436.5 459,436 467,435.5 
	474.5,434.5 482.5,434 490.5,433.5 498.5,432.5 506,431.5 514,431 "/>
<polyline id="XMLID_253_" class="st0" points="515.5,520 507,520.5 499,521.5 490.5,522.5 482.5,523 474.5,524.5 467,525 459,525.5 
	451,526 443,526.5 435,527 427,528 419,528.5 411,528.5 403.5,529 395,529.5 387.5,530 380,530.5 372.5,531 364.5,531 356.5,532 
	348.5,532 340,532 332,532.5 324,533 316.5,533.5 308.5,533.5 300.5,533.5 292.5,533.5 284,533.5 276,533.5 268.5,534 261,535 
	253.5,536 245.5,537 237.5,537.5 229.5,538.5 221,539 213,540 205.5,541.5 197,542 189,542.5 181,543 173.5,543.5 165.5,544 
	158,544.5 150,545 141.5,545.5 133.5,546 125,546.5 117,547.5 "/>
<polyline id="XMLID_252_" class="st0" points="121.5,554.5 129.5,554.5 137,554.5 "/>
<polyline id="XMLID_251_" class="st0" points="122.5,537.5 130.5,537 138.5,536 147,535.5 154.5,535.5 162.5,535 171,534.5 "/>
<polyline id="XMLID_250_" class="st0" points="155.5,503.5 147,504.5 139,505 130.5,505.5 "/>
<polyline id="XMLID_249_" class="st0" points="130.5,497.5 138.5,496.5 146.5,496 154.5,495.5 "/>
<polyline id="XMLID_248_" class="st0" points="124,513 132.5,512.5 140,512 148,511 156,510.5 164.5,510 172.5,510 181,510 
	189,509.5 197,509 204.5,508.5 212.5,508 220.5,507.5 228.5,506.5 "/>
<polyline id="XMLID_247_" class="st0" points="230.5,443 222,450.5 213,457.5 204.5,465 196,472.5 188,480 179.5,487 171,494.5 
	163,502.5 155,509.5 147.5,516.5 139.5,524 131.5,532 123,539.5 114.5,547.5 106.5,555.5 98.5,563 91,570.5 83,578 74.5,585 
	66.5,592 "/>
<polyline id="XMLID_246_" class="st0" points="68.5,589.5 76,589 83.5,588.5 91,588 99,588 107,588 115.5,587.5 123.5,587.5 
	131.5,587 139.5,586.5 147.5,586 155,586 163.5,585 171.5,583.5 180,582.5 188,582 195.5,581 204,580.5 211.5,580.5 219,580 
	226.5,579.5 234.5,579 242.5,578 251,577.5 258.5,577.5 266.5,577 275,576.5 283.5,576.5 291.5,576.5 299,576.5 307,576 315,575.5 
	323,574.5 331.5,573.5 339.5,572 348,571.5 355.5,571 363,571 371,571 378.5,570.5 386.5,570.5 394.5,569.5 403,568 411,567.5 
	419.5,567 428,566.5 436,565.5 443.5,565 451.5,565 459,564.5 467.5,564 475,563.5 483,563 491.5,563 499.5,562.5 507.5,561.5 
	515.5,561.5 "/>
<polyline id="XMLID_245_" class="st0" points="513,585 504.5,585 497,585.5 489,585.5 481.5,586.5 473.5,587 466,587.5 457.5,588.5 
	450,589 442,589.5 434,589 426.5,589.5 418.5,590 411,591 403.5,592 396,592.5 388,593 380,593 371.5,593 363,593.5 354.5,593.5 
	346.5,594.5 338.5,594.5 331,594.5 323.5,595.5 315.5,596.5 308,597.5 300,597.5 292.5,598 284,598.5 276,599.5 268,600.5 260,601 
	251.5,601 243.5,600.5 236.5,600 228.5,599.5 220,600 211,601 202.5,601.5 194,602.5 186,603.5 178,604 170,604.5 162.5,605 
	154.5,605 147,605 139.5,606 132,606.5 124.5,607.5 116,608 108,608.5 "/>
<polyline id="XMLID_244_" class="st0" points="99,618.5 107,617.5 115,617 122.5,616.5 131,616 139.5,615.5 147,615 155,614.5 
	162.5,613.5 170.5,613 179,612.5 187,612 194.5,611.5 202.5,610.5 210.5,610 219,609.5 226.5,609 234.5,608.5 242.5,608 
	250.5,607.5 259,607 267,606.5 275.5,606 283.5,606 291,606 299.5,606 307.5,605 316,604.5 324,604 332.5,602.5 340,602 348,602 
	356.5,602 364,601.5 371.5,600.5 379,600 386,599.5 394,599 401.5,599 409,598.5 417,598 425,598 433,597 441.5,596.5 449.5,596.5 
	458.5,596 466.5,596 475.5,595.5 484,595 493,594.5 501.5,594 509,593.5 516,593.5 "/>
<polyline id="XMLID_243_" class="st0" points="516,505 507.5,505 499,505.5 491.5,506 484,506.5 476,507 467.5,507.5 459.5,508.5 
	452,510 444.5,511 436.5,511.5 429,512.5 421,513.5 413.5,514.5 405.5,515 397.5,515.5 389.5,516.5 381.5,516.5 372.5,516.5 
	364,516.5 355.5,517 347,517 338.5,517.5 330,518 322,518.5 315,519 307,520 299,521 290,522 282,523 274,523.5 266,524 258,524.5 
	250,525 242.5,525 234,526 226.5,526 218.5,526 210.5,526.5 202.5,526.5 194.5,526 186,526.5 177.5,526.5 169.5,527 161,527.5 
	153.5,527.5 146,528 138.5,528.5 130.5,528.5 123,529 115,529.5 107,530 98.5,531 90.5,531.5 82.5,532 "/>
<polyline id="XMLID_242_" class="st0" points="82.5,530.5 90.5,523.5 98.5,515.5 107,508 115,501 123,493.5 130.5,486 138.5,478.5 
	146.5,471.5 155,464.5 162.5,456.5 170.5,449 178.5,441 186.5,433 195,425 203.5,417.5 212.5,410 221.5,402 230,394.5 238,387 "/>
<line id="XMLID_241_" class="st0" x1="236" y1="386" x2="229" y2="387"/>
<polyline id="XMLID_240_" class="st0" points="226,381.5 235,381 243.5,381.5 251.5,381.5 259.5,381 268,380.5 "/>
<polyline id="XMLID_239_" class="st0" points="267,371.5 259,372 251,372.5 243,372.5 234.5,372.5 "/>
<polyline id="XMLID_238_" class="st0" points="233.5,366.5 241.5,366 250,365.5 258.5,365.5 267.5,365 275.5,364.5 "/>
<polyline id="XMLID_237_" class="st0" points="236,380 228,387.5 220.5,394.5 212.5,401.5 204.5,409 196,416.5 187.5,423.5 
	179.5,431.5 171.5,439 163.5,446.5 155.5,454 147.5,461.5 139.5,469 131.5,477 123.5,484.5 115,492 106.5,499.5 98.5,507 90,514.5 
	81.5,522 "/>
<polyline id="XMLID_236_" class="st0" points="84.5,524 92.5,523.5 100,523 107.5,522.5 115.5,522 123,521.5 130.5,521 138.5,521.5 
	146.5,521.5 155,521 163,520.5 171,520 179.5,519.5 187.5,518.5 195,517.5 202.5,517 211,517 219,517.5 226.5,518 235,517.5 
	243,517 251,516.5 259,516.5 266.5,515.5 274,514.5 281.5,513.5 289.5,513 297.5,512.5 306,511.5 314.5,511 322.5,510 331,509.5 
	339,509.5 347.5,509.5 356,509 364.5,508.5 372.5,508.5 380.5,508 388.5,507.5 397,506 405,505 412.5,504.5 420,504 428,503.5 
	436,503 443.5,502 451.5,502 459,501.5 467,501 475,500 482.5,499.5 491,499.5 499,499.5 507,499 515,498.5 "/>
<polyline id="XMLID_235_" class="st0" points="516,435.5 508,436 500.5,436.5 493,437.5 485,438 477,438.5 468.5,439.5 461,440 
	453.5,440.5 445.5,440.5 437,440.5 428.5,440.5 420.5,441.5 412.5,442.5 404.5,443 396.5,443 388.5,444 380,444.5 372,445 
	364,445.5 356.5,446 348.5,446.5 340,447 331.5,447.5 323,448 314.5,448.5 306.5,449 297.5,449.5 289.5,450 281.5,451 274,452 
	266.5,453 258,453 249.5,453.5 241,454 233,454 225.5,454.5 218,455.5 211,456 203.5,456.5 195.5,457.5 187.5,458 179.5,458.5 
	171.5,458.5 163.5,458.5 155.5,458.5 147.5,459 139,459.5 131,460 123,460.5 115.5,460.5 107.5,460.5 "/>
<line id="XMLID_234_" class="st0" x1="107" y1="459.5" x2="114.5" y2="452"/>
<polyline id="XMLID_233_" class="st0" points="106,453 114.5,452.5 122.5,452 130,451.5 138,451.5 146.5,451 154.5,450.5 162.5,450 
	171,449.5 179.5,449.5 187.5,449 195.5,448 203.5,447 211.5,446.5 219.5,446 227.5,445.5 235,445 242.5,444 250,444 257.5,444 
	265,443.5 273.5,443 282,442 290.5,441.5 299,441.5 307.5,441 315.5,440.5 323.5,439.5 331.5,439 339,438.5 347,438.5 355,437.5 
	363.5,437 371.5,437 379,437 387,437 395.5,436.5 403.5,435.5 411.5,435 419.5,434 427.5,433.5 435.5,433 444,432.5 452,432 
	461,432.5 469,432.5 477,431.5 484,430.5 491.5,429 499.5,428 507.5,427.5 515.5,427 "/>
<polyline id="XMLID_232_" class="st0" points="514.5,450 507,451 499,452 490.5,452.5 482.5,453.5 474.5,454 466.5,454 458.5,454.5 
	451,455.5 443,457 435.5,458 428,459.5 420,460 412,460.5 403,460.5 394.5,460.5 386,461 377.5,461.5 369.5,461.5 362,461 
	354,461.5 346.5,462.5 338.5,463 330.5,463.5 322.5,464 314,464.5 305.5,465.5 297.5,466.5 289.5,467.5 281.5,467.5 274,467.5 
	266.5,467.5 259,467.5 251,467.5 242.5,469 234,470 226,471 217.5,472 209.5,472.5 201.5,473 193,473.5 185.5,473.5 177.5,473.5 
	170,474.5 162,475 154.5,475.5 146.5,476.5 138.5,477 131,477 123.5,477.5 116,478.5 108,479 100,479 "/>
<polyline id="XMLID_231_" class="st0" points="100,480 108.5,472.5 116,466 123.5,459.5 131,452.5 138.5,445.5 146,438 "/>
<line id="XMLID_230_" class="st0" x1="146.5" y1="439" x2="138.5" y2="439.5"/>
<polyline id="XMLID_229_" class="st0" points="132,438.5 140,438 147.5,437.5 155.5,437 163.5,437 171,436.5 179,436 187,435 
	195,434 203,434 211,433.5 219,433 227.5,432.5 "/>
<polyline id="XMLID_228_" class="st0" points="228,435.5 220,442.5 212,450 203.5,457.5 195.5,465.5 187.5,473.5 179.5,480.5 
	171,487.5 162.5,495 154.5,502.5 146.5,510 138.5,517 130.5,524.5 122.5,532 114.5,540 106.5,548 98.5,556 90,564 81.5,571.5 
	73.5,579.5 65.5,587 "/>
<polyline id="XMLID_227_" class="st0" points="68,581 76,580.5 83.5,580 91.5,579.5 99,579 107.5,579 115.5,578.5 123,578 
	131,577.5 139,577 146.5,577 155,576.5 163.5,576.5 171.5,576.5 180.5,576 188.5,575.5 196,574.5 204,573.5 212,572.5 220,571.5 
	228,571 236.5,570.5 244,570 252,569 260,568.5 268.5,568 276.5,568 285,568 293,567.5 301,567 308.5,566.5 316.5,566 324.5,565.5 
	332.5,564.5 340.5,564 348.5,563 356.5,562.5 363,562.5 370.5,562.5 378.5,562.5 387,562 395,561.5 403,560.5 411.5,560 420,558.5 
	428,557.5 436.5,557 444.5,557 452.5,556.5 460,555.5 468.5,555.5 476.5,555 484,554.5 492,554.5 500,555 507.5,554.5 515,555 "/>
<polyline id="XMLID_226_" class="st0" points="515,445.5 507.5,446.5 499.5,447 491,447.5 483,447.5 475,447.5 467,448 459.5,447.5 
	452,448 444,447.5 436,447.5 428.5,448 420.5,448.5 412,448.5 404.5,449.5 396.5,450 388.5,450 380,450.5 372,451.5 363.5,453 
	355,453.5 347,454.5 339,455 330.5,455.5 322.5,455.5 315,455.5 308.5,455.5 300.5,456 292.5,457 284.5,457.5 276.5,458.5 
	268.5,459 260.5,459.5 253,460 245,460.5 237,461 228.5,461 220.5,461 212,461.5 204,462 196,463 188.5,463.5 180,464 172,464.5 
	164,465.5 156,466.5 148,467.5 140.5,468.5 132.5,469 123.5,469.5 115.5,469.5 107,469.5 98.5,470 "/>
<polyline id="XMLID_225_" class="st0" points="99,474.5 106.5,467 114,459.5 122.5,452 130.5,444 "/>
<polyline id="XMLID_224_" class="st0" points="131.5,439 117.5,447 109,455 101.5,463 97.5,471.5 95.5,479.5 94.5,487.5 93.5,495.5 
	91.5,503.5 87.5,511.5 85.5,519.5 83,527.5 82,535 79,543.5 78,551.5 74.5,559 72.5,567 70.5,575 69.5,583 67.5,591 66.5,599 
	64.5,607 63,615 62,623 61,630.5 59.5,638.5 59,643.5 55,651.5 51.5,659.5 49.5,666 46.5,673.5 "/>
<polyline id="XMLID_223_" class="st0" points="57.5,684 65.5,683 73.5,682 82,681 "/>
<polyline id="XMLID_222_" class="st0" points="84,654.5 76,654.5 68,655 60,655.5 "/>
<polyline id="XMLID_221_" class="st0" points="59,646 67,645 75,645 83,644.5 91,644.5 99,644.5 107,644.5 114.5,644 122,643.5 
	130.5,643 139,642.5 146.5,642 154,641 162,640.5 170,640 178.5,639 186.5,638.5 195.5,638.5 204,637.5 212.5,637 220.5,636 
	228.5,635.5 235.5,635 243,634 250.5,633.5 258,633 266,632 274,631 282.5,630 290,628.5 298,628 306,628 314.5,627.5 322,627 
	329.5,627 337,627 345.5,626 353.5,625.5 361.5,625 370,624.5 378,624 386,624 394.5,624 403,624 411,623 419.5,623 428,623 
	436.5,623 445,622.5 453,622 460,621 468.5,620.5 476,619.5 483.5,619 491,618 498,617.5 506.5,616.5 515,617 "/>
<polyline id="XMLID_220_" class="st0" points="516,577 508,578 500.5,578.5 493,579.5 485.5,580 477,580 469.5,580.5 461,581 
	452.5,581.5 444.5,582.5 437,583.5 429,584 420.5,584.5 412,585 404,585 396,585.5 387.5,586 379.5,586.5 371.5,587.5 363.5,588 
	355.5,588.5 348,588.5 339.5,589 331,588.5 323,588.5 315.5,588.5 307.5,589 299.5,589.5 292,590.5 284.5,591.5 276,592.5 268,593 
	260,593.5 252,594 244,594.5 236,595 227.5,595.5 219.5,596 211.5,596 203.5,596.5 195.5,596.5 187,597 179.5,597.5 171.5,597.5 
	163.5,598 155,598.5 147,599 139,599.5 131,600 123.5,600.5 115.5,601.5 108,602 99.5,602.5 91,603 82.5,603.5 75,604 67.5,604.5 
	"/>
<polyline id="XMLID_219_" class="st0" points="68,609 76,608 84,607 92,606 "/>
<polyline id="XMLID_218_" class="st0" points="92,594 84,594 76,595 "/>
<polyline id="XMLID_217_" class="st0" points="67.5,598 75.5,597.5 83,597.5 91.5,597 99.5,596 108,596 116,595.5 124,595 132,595 
	140,594.5 148,594 156,594 164,593.5 171.5,592.5 179,592 186.5,592 194.5,591.5 202.5,590.5 210,590 218,589.5 225.5,588.5 
	233.5,588.5 241,588.5 249.5,588 257.5,587.5 265.5,587 274,586 282,585 290.5,584 299,582.5 307,582.5 314.5,582.5 322,582.5 
	329.5,582.5 337.5,582.5 345.5,581.5 353.5,580.5 362,579.5 370.5,579 378.5,578.5 386.5,578 394.5,577.5 402,576.5 410,576 
	417.5,576.5 425.5,576.5 434,576 442.5,575.5 451,575.5 460,575.5 468,575 476,574.5 483.5,573 491,572 499,570.5 506.5,569.5 
	514.5,569 "/>
<polyline id="XMLID_216_" class="st0" points="515,482.5 506.5,483.5 498,484.5 489.5,485 481.5,485.5 473,485.5 465.5,486 
	458.5,486.5 451.5,487.5 443.5,488.5 436,489 429,489.5 421,490 412.5,490 405,491 397,491.5 388.5,492 380,492.5 371,493 
	363,493.5 354.5,493.5 346.5,494 338.5,495 330,495.5 322,496 314,496 306,496.5 297,496.5 288.5,496.5 280.5,496.5 273,496.5 
	265,496.5 257.5,496.5 249.5,497 241.5,498 233.5,499 225.5,500 217.5,501.5 210,502.5 202,503.5 194,504.5 186.5,505 178.5,505.5 
	171,506 163.5,506.5 155,507.5 147.5,508 140,508.5 132.5,508.5 124.5,509 116,509 107.5,509 99.5,509 91.5,509.5 "/>
<polyline id="XMLID_215_" class="st0" points="90.5,510 98.5,502.5 106.5,495.5 114.5,487.5 122.5,480.5 131,473.5 139.5,466 
	148,458.5 156,451.5 164,443.5 172,435.5 180.5,428 188.5,420 "/>
<polyline id="XMLID_214_" class="st0" points="187.5,414 196,413.5 204,413 212,413 220.5,412.5 229,412 237,411.5 244.5,410.5 "/>
<polyline id="XMLID_213_" class="st0" points="244,402.5 235.5,402.5 227.5,403 219.5,403 211,403.5 202.5,404 194.5,404.5 "/>
<polyline id="XMLID_212_" class="st0" points="194.5,408.5 203,401 211.5,393 219.5,385.5 "/>
<polyline id="XMLID_211_" class="st0" points="211,390.5 219,390 227,389.5 235,388.5 242.5,387.5 "/>
<line id="XMLID_210_" class="st0" x1="235.5" y1="386" x2="238.5" y2="394.5"/>
<polyline id="XMLID_209_" class="st0" points="234,392.5 226.5,393 218.5,393 210.5,393.5 "/>
<polyline id="XMLID_208_" class="st0" points="205.5,399 213.5,398.5 221,397.5 229,396.5 236.5,395.5 244.5,395 "/>
<polyline id="XMLID_207_" class="st0" points="245.5,402 242.5,410.5 237,418 227,425 235,419 243,409 "/>
<polyline id="XMLID_206_" class="st0" points="226.5,418 218,425.5 209.5,433 201.5,441 193,449 184.5,457.5 177,465 169.5,472.5 
	161.5,479.5 153.5,487.5 145,494.5 137.5,502.5 129.5,510 121,517.5 113,525 105,533 97,540.5 89,548 81.5,556 74,564 "/>
<polyline id="XMLID_205_" class="st0" points="78,565.5 85.5,565 93,564 100.5,563.5 108.5,563 116.5,562 123.5,562 131,561.5 
	139,560 146.5,559 154.5,558 162.5,558.5 171,558.5 179,558.5 187.5,558 196,558 204,557 212,556.5 220,556 228,555.5 236.5,555 
	244.5,554.5 252,554 260,553.5 267.5,552.5 275.5,552 284,551.5 292,551.5 300,551.5 307.5,552 316,551.5 323.5,550.5 331.5,549.5 
	339.5,549 347.5,548 355.5,547 364,547 372,546.5 380.5,546 389,546.5 398,546 405.5,545.5 412.5,544.5 420,543.5 427.5,542.5 
	435.5,542 443.5,541.5 451,541.5 459,541.5 467,541 475,540.5 483.5,540 491.5,539 499.5,538 507.5,537.5 515.5,537 "/>
<polyline id="XMLID_204_" class="st0" points="514.5,474.5 506.5,475.5 499,476 490.5,477 482.5,477 474.5,477.5 467,478 
	458.5,477.5 450,478.5 443,479 435.5,480 428,480.5 420.5,481.5 412,482 405,483 397,483.5 388.5,484 380,484 371.5,484 363,484 
	355,485 346.5,485 338,485 330,485 322,485.5 313.5,486 305.5,486.5 297.5,487 289,488 281.5,488 274,488 266.5,488.5 258,489 
	250,489 242,489.5 234.5,491 226,492 218,493 210,494 202.5,494.5 195,495 187.5,496 180.5,496.5 172.5,497 164.5,498 156,498.5 
	147.5,499.5 138.5,499.5 130.5,500 122,501 114,501.5 106,502 98.5,503 91,503.5 "/>
<polyline id="XMLID_203_" class="st0" points="93.5,501.5 101,494 109,486.5 116.5,478.5 124.5,471.5 132.5,464.5 140.5,457.5 
	148.5,450.5 156.5,443 164,435 172,427 180,419.5 "/>
<polyline id="XMLID_202_" class="st0" points="170.5,421 179,420.5 187,420.5 195.5,420.5 204,420 212.5,419.5 220.5,419.5 
	228.5,419 236.5,418.5 "/>
<polyline id="XMLID_201_" class="st0" points="218,435.5 210.5,443 202,450.5 194,458 186,465.5 178.5,473.5 170,481 161.5,488.5 
	154,496 146,503.5 138,511 130,518.5 122.5,526 114.5,534 106.5,542 99,550 91,557.5 82.5,564.5 74.5,572 "/>
<polyline id="XMLID_200_" class="st0" points="76.5,569 84.5,568 92,567 100,566 "/>
<polyline id="XMLID_199_" class="st0" points="92.5,585 84.5,585.5 77,586 "/>
<polyline id="XMLID_198_" class="st0" points="76,578 84.5,577.5 92.5,577 100,576.5 "/>
<line id="XMLID_197_" class="st0" x1="85.5" y1="560" x2="77.5" y2="560.5"/>
<polyline id="XMLID_196_" class="st0" points="76.5,556 85,555.5 93,555.5 101,555 108.5,554.5 116,554 123.5,553.5 131.5,553 
	139,552.5 146.5,552.5 154,552 162.5,551.5 170.5,551 178,550.5 186,550.5 194.5,550 202.5,549.5 210.5,549 219,548.5 227.5,548.5 
	235.5,548 243.5,547 251.5,546 259.5,545.5 267.5,545 275.5,544.5 283,544 290.5,543 298,543 305.5,543 313,542.5 321.5,542 
	330,541 338.5,540.5 347,540.5 355.5,540 363.5,539.5 371.5,538.5 379.5,538 387,537.5 395,537.5 403,536.5 411.5,536 419.5,536 
	427,536 435,536 443.5,535.5 451.5,534.5 459.5,534 467.5,533 475.5,532.5 483.5,532 492,531.5 500,531 509,531.5 517,531.5 "/>
<polyline id="XMLID_195_" class="st0" points="515.5,467 507.5,467 499,467.5 491.5,468 483.5,468.5 475.5,468.5 467.5,469.5 
	460,470.5 452,472 444.5,473 437,473.5 429,474 420.5,474.5 412,474.5 404,475 396,475.5 388,476 379.5,475.5 371.5,475.5 363,476 
	354.5,476.5 346,477 338,477 329.5,477.5 321.5,478 313.5,479 305,479.5 296.5,480 288.5,480 280.5,480.5 273,480.5 265,481 
	257,481.5 249,482 241,482.5 233,484 225,484.5 217.5,485.5 209.5,486.5 202,486.5 194.5,487 186.5,487 179,487.5 171,487.5 
	163,488.5 154.5,489 147,490 139,491 131,491.5 122.5,492.5 114.5,493.5 106.5,494 98,495 90,495.5 "/>
<polyline id="XMLID_194_" class="st0" points="92.5,495.5 100.5,487.5 108.5,480 116.5,473 124.5,466 132,458.5 139.5,451 
	147,443.5 154.5,436 162,428.5 "/>
<polyline id="XMLID_193_" class="st0" points="155.5,432 163.5,431.5 171,431.5 179,431.5 187.5,432 196,431.5 203.5,431.5 
	211.5,431 219.5,430.5 "/>
<polyline id="XMLID_192_" class="st0" points="228,425.5 220.5,426 212.5,426 204.5,427 "/>
<polyline id="XMLID_191_" class="st0" points="196.5,417.5 204.5,417 212,416.5 220,416 228,415.5 "/>
<polyline id="XMLID_190_" class="st0" points="236,399.5 228,400.5 220,401 211.5,402 204,403 "/>
<polyline id="XMLID_189_" class="st0" points="195,409.5 203,408.5 211.5,408 219.5,408 227,408 "/>
<polyline id="XMLID_188_" class="st0" points="227.5,438.5 220,439.5 212.5,440.5 205.5,441.5 198,442 "/>
<polyline id="XMLID_187_" class="st0" points="187.5,438.5 178.5,439 170,439.5 162.5,440 154,440 "/>
<polyline id="XMLID_186_" class="st0" points="138,448.5 146,447.5 154.5,446.5 163,446 172,445 180.5,444.5 188.5,445 195.5,445.5 
	203.5,446 212,446 220,445.5 228,444.5 236,443.5 "/>
<polyline id="XMLID_185_" class="st0" points="241,438.5 233.5,439 226,439 218.5,439 211,439.5 203,440 195,440 187,440 179,441 
	171,442 163,442.5 155.5,443 147,443.5 138.5,444.5 130.5,445.5 122.5,446 "/>
<polyline id="XMLID_184_" class="st0" points="115,481.5 106.5,482 98.5,482 "/>
<line id="XMLID_183_" class="st0" x1="99" y1="488" x2="107" y2="487.5"/>
<polyline id="XMLID_182_" class="st0" points="113,488.5 121.5,488 129.5,487.5 138,487.5 146.5,487 154.5,487.5 162.5,487.5 
	170.5,487 178.5,487 186,487 "/>
<polyline id="XMLID_181_" class="st0" points="132.5,521.5 124.5,522 116.5,523 "/>
<polyline id="XMLID_180_" class="st0" points="122.5,528 114.5,528.5 106.5,529.5 "/>
<line id="XMLID_179_" class="st0" x1="107.5" y1="520" x2="99.5" y2="520.5"/>
<polyline id="XMLID_178_" class="st0" points="92,513 100,512.5 108,512 "/>
<polyline id="XMLID_177_" class="st0" points="99,504 107,503.5 115,504 123,504 "/>
<polyline id="XMLID_176_" class="st0" points="123,495.5 114.5,495.5 106.5,495 "/>
<polyline id="XMLID_175_" class="st0" points="90,486 98,485 106.5,485 115,484.5 123,484.5 131.5,484 140,483.5 148,483 156,483 
	164,482.5 172.5,481.5 180,481 187.5,480.5 195,480 203,479 211,478.5 219,477.5 226.5,477 234.5,476.5 243,475.5 251.5,474.5 
	259,474.5 267,474 275.5,473 283.5,472.5 292,472 300,471 308,470.5 316,470.5 323,470.5 331,470.5 339,470 346.5,470 354.5,469.5 
	362.5,468.5 370.5,468.5 378.5,468.5 387,468.5 395.5,468.5 403.5,467.5 411,467 419,466 427,465.5 434.5,465 442.5,464.5 450,464 
	458,463.5 466,462.5 473.5,462 481.5,461.5 490,461 497.5,461 506,460.5 514.5,460 "/>
<polyline id="XMLID_174_" class="st0" points="515.5,492 506.5,492.5 498,492.5 489.5,493 481.5,493.5 474,494 467,494.5 
	459.5,494.5 451.5,494.5 444.5,494.5 436.5,495 428.5,495.5 420.5,496 413.5,497.5 405.5,497.5 397.5,498 389,499 380.5,499.5 
	372,500 363.5,501 355.5,502 347,503 338.5,504 330.5,504.5 323,505 314.5,505 306,505 298,505 290.5,505 282.5,505.5 274.5,506 
	267,506.5 259,507.5 251,508 243,508.5 235,508.5 227,509 219,509 211,509 202.5,509.5 194.5,509.5 187,510 179,510 171,510.5 
	162.5,511.5 155,512 147.5,512.5 139.5,513 131,514 123.5,514.5 115.5,515.5 108,516 100,517 92.5,517.5 85,518 "/>
<polyline id="XMLID_173_" class="st0" points="77.5,542 85.5,541.5 92.5,541 100,540.5 108,540 116,539.5 123.5,539 130,538 
	137.5,537.5 145.5,537 153.5,536.5 161.5,536 170,535.5 179,535 187.5,534.5 196,533.5 203.5,533 211,532.5 218.5,532 226.5,532 
	234.5,531.5 243,531 251,530.5 259.5,529.5 267,528.5 275,527.5 283,527 291,526.5 298.5,526 306,525.5 313.5,525 322,524 
	329.5,523 338,522.5 346.5,522.5 355,521.5 363,521.5 371.5,521.5 380,521 388,520 396,519.5 404.5,519.5 412.5,519.5 420.5,519 
	428,518.5 435.5,518 443.5,518 451,517.5 459,517.5 466.5,517 474,516.5 483,516 491.5,516.5 499.5,516.5 507.5,516 516,515.5 "/>
<polyline id="XMLID_172_" class="st0" points="514.5,546.5 506,546.5 498,547.5 490,547.5 482.5,548 474.5,548 466.5,548.5 
	458.5,549 451,550 443.5,550.5 436,551.5 428,552.5 419.5,553 410.5,552.5 402.5,553 394,553.5 386,553.5 378,554 370,555 362,556 
	354.5,556.5 347,557.5 339,557.5 331.5,557.5 324,557.5 316,558 307.5,558.5 299.5,559 292,560 284.5,560.5 276.5,561 268.5,561 
	260,561.5 252,561.5 244,562 236,562.5 228.5,563 220,563.5 212,564 203.5,564.5 195.5,564.5 187.5,564.5 179.5,565 172,566.5 
	164,567.5 156,568 148.5,568.5 140,569 131.5,570 124,570.5 116,571 108,571.5 99.5,572.5 92,572.5 83.5,573 75.5,574 67.5,574.5 
	"/>
<line id="XMLID_171_" class="st0" x1="81" y1="544.5" x2="89.5" y2="544"/>
<polyline id="XMLID_170_" class="st0" points="96.5,475.5 104.5,459.5 112.5,453 120.5,445 128,442 136,438.5 144,435.5 152,432.5 
	160,428.5 168,425.5 176.5,421.5 184.5,418.5 192.5,412 200.5,401 208,394 216,388.5 224,382 232.5,381 233.5,387 232.5,395 
	229.5,403 226.5,411 224.5,419 219.5,428 222,435.5 232.5,443.5 "/>
<polyline id="XMLID_169_" class="st0" points="211,327.5 219,327 226.5,326 234.5,324.5 242,323.5 "/>
<line id="XMLID_168_" class="st0" x1="234.5" y1="309.5" x2="226.5" y2="310"/>
<polyline id="XMLID_167_" class="st0" points="234.5,301.5 242,301 250,301.5 258,301 265.5,300.5 "/>
<polyline id="XMLID_166_" class="st0" points="259,293.5 267,293 274.5,292 "/>
<polyline id="XMLID_165_" class="st0" points="291,276 282.5,276.5 274.5,277 266.5,277 259,277 251.5,277 243.5,276.5 235.5,276.5 
	"/>
<polyline id="XMLID_164_" class="st0" points="230,282 238,278 243,275 251,274.5 259,274 266.5,271.5 274,275.5 282,275 290,272.5 
	"/>
<line id="XMLID_163_" class="st0" x1="300" y1="269" x2="308" y2="268.5"/>
<line id="XMLID_162_" class="st0" x1="266.5" y1="243.5" x2="259" y2="250.5"/>
<line id="XMLID_161_" class="st0" x1="263.5" y1="249" x2="256" y2="244"/>
<line id="XMLID_160_" class="st0" x1="252.5" y1="243" x2="244.5" y2="250"/>
<line id="XMLID_159_" class="st0" x1="243" y1="251" x2="251" y2="250.5"/>
<line id="XMLID_158_" class="st0" x1="243" y1="243" x2="235" y2="251"/>
<polyline id="XMLID_157_" class="st0" points="235,253.5 243.5,253 251.5,252 "/>
<line id="XMLID_156_" class="st0" x1="243.5" y1="260.5" x2="235.5" y2="260.5"/>
<polyline id="XMLID_155_" class="st0" points="241,249.5 238,246.5 246,244 238,245 "/>
<polyline id="XMLID_154_" class="st0" points="236.5,236.5 245,236.5 253.5,236.5 "/>
<line id="XMLID_153_" class="st0" x1="257.5" y1="238" x2="266" y2="237.5"/>
<polyline id="XMLID_152_" class="st0" points="267.5,243 259.5,244 251.5,245 243,245.5 235,245.5 227,246 "/>
<line id="XMLID_151_" class="st0" x1="211.5" y1="219" x2="220" y2="211.5"/>
<line id="XMLID_150_" class="st0" x1="213.5" y1="212" x2="205" y2="219"/>
<line id="XMLID_149_" class="st0" x1="212.5" y1="218" x2="221" y2="218"/>
<line id="XMLID_148_" class="st0" x1="229.5" y1="213.5" x2="237" y2="213"/>
<polyline id="XMLID_147_" class="st0" points="243,204.5 235.5,205 228,205 "/>
<polyline id="XMLID_146_" class="st0" points="228,200 236,199.5 243.5,198 "/>
<polyline id="XMLID_145_" class="st0" points="267,192 273,200 280.5,202 "/>
<polyline id="XMLID_144_" class="st0" points="283,202 291,201 298.5,201 "/>
<line id="XMLID_143_" class="st0" x1="297.5" y1="205" x2="305" y2="197.5"/>
<line id="XMLID_142_" class="st0" x1="306.5" y1="196.5" x2="314.5" y2="199.5"/>
<polyline id="XMLID_141_" class="st0" points="308,205.5 299.5,206 291,206.5 283,207 "/>
<line id="XMLID_140_" class="st0" x1="291" y1="203" x2="299.5" y2="195"/>
<line id="XMLID_139_" class="st0" x1="305.5" y1="194.5" x2="307.5" y2="205.5"/>
<line id="XMLID_138_" class="st0" x1="292" y1="195" x2="284.5" y2="202.5"/>
<polyline id="XMLID_137_" class="st0" points="277,201.5 285.5,194.5 293,187 "/>
<polyline id="XMLID_136_" class="st0" points="298.5,178.5 290.5,179 283,180 275,181 "/>
<polyline id="XMLID_135_" class="st0" points="276.5,187.5 285,184.5 293,183.5 301,184.5 309,186.5 "/>
<polyline id="XMLID_134_" class="st0" points="316.5,193 308.5,194 301,195 293,196 285.5,196.5 277.5,197 "/>
<polyline id="XMLID_133_" class="st0" points="268,191.5 274,199.5 279,208.5 284.5,206 292,209.5 299.5,206.5 307.5,202 "/>
<polyline id="XMLID_132_" class="st0" points="315.5,186.5 307,187 299,188 291,189.5 283,190.5 275.5,191.5 267.5,192 "/>
<polyline id="XMLID_131_" class="st0" points="258,235.5 258,236.5 255.5,244.5 263,252 274,251 "/>
<line id="XMLID_130_" class="st0" x1="268" y1="243" x2="260" y2="238"/>
<polyline id="XMLID_129_" class="st0" points="250,293 242,293.5 234,294.5 226.5,295.5 "/>
<polyline id="XMLID_128_" class="st0" points="223,289 231,291.5 239,288.5 247,286.5 255,283.5 263.5,282.5 271.5,283 279.5,280 
	287.5,279.5 293,276.5 "/>
<polyline id="XMLID_127_" class="st0" points="251.5,283.5 243.5,284 235,284 227,284.5 219.5,285 "/>
<polyline id="XMLID_126_" class="st0" points="212.5,299.5 204.5,299.5 196,299.5 "/>
<line id="XMLID_125_" class="st0" x1="197.5" y1="291.5" x2="205.5" y2="291.5"/>
<line id="XMLID_124_" class="st0" x1="204" y1="277" x2="196" y2="277"/>
<polyline id="XMLID_123_" class="st0" points="202.5,285 194.5,286 187,287 "/>
<polyline id="XMLID_122_" class="st0" points="190,291.5 198,307.5 205.5,319.5 213.5,327.5 221.5,333.5 "/>
<polyline id="XMLID_121_" class="st0" points="205,317 212.5,316.5 220,316 228,315.5 236,315 "/>
<polyline id="XMLID_120_" class="st0" points="250.5,307.5 258.5,306.5 267,305.5 273,305.5 "/>
<polyline id="XMLID_119_" class="st0" points="220.5,308 213.5,309.5 205.5,309.5 "/>
<polyline id="XMLID_118_" class="st0" points="202,268.5 194.5,269.5 186.5,270 "/>
<line id="XMLID_117_" class="st0" x1="186.5" y1="262.5" x2="194.5" y2="261.5"/>
<line id="XMLID_116_" class="st0" x1="195" y1="253.5" x2="187" y2="254"/>
<polyline id="XMLID_115_" class="st0" points="194.5,244 186,244 178,244 "/>
<polyline id="XMLID_114_" class="st0" points="177.5,236.5 186,236 194,236 "/>
<polyline id="XMLID_113_" class="st0" points="194.5,229 187,229 179,229.5 "/>
<polyline id="XMLID_112_" class="st0" points="171,224 178.5,223.5 186.5,223 195,222 203.5,221 "/>
<polyline id="XMLID_111_" class="st0" points="195.5,216.5 203.5,214.5 211,209.5 218.5,209 226.5,207 "/>
<polyline id="XMLID_110_" class="st0" points="219.5,211 211.5,212.5 203,212.5 195.5,212.5 188,213 180,213 171.5,213.5 "/>
<polyline id="XMLID_109_" class="st0" points="161.5,204 170,203 177.5,202 186,201.5 194.5,201.5 203,200.5 "/>
<polyline id="XMLID_108_" class="st0" points="203,193.5 194.5,194 186,195 177.5,195.5 169,196 160.5,196.5 "/>
<polyline id="XMLID_107_" class="st0" points="157.5,194 165.5,209 173,218.5 "/>
<polyline id="XMLID_106_" class="st0" points="165,194 173,186 181,178.5 "/>
<polyline id="XMLID_105_" class="st0" points="181,170 173,177.5 165.5,185 "/>
<polyline id="XMLID_104_" class="st0" points="164.5,178.5 172.5,171 181,163 "/>
<polyline id="XMLID_103_" class="st0" points="186.5,148.5 178.5,156 171,164 163,171.5 "/>
<polyline id="XMLID_102_" class="st0" points="156.5,173.5 164.5,173 172.5,172.5 180.5,171.5 188.5,171 196.5,170 "/>
<line id="XMLID_101_" class="st0" x1="203.5" y1="182" x2="211.5" y2="181"/>
<polyline id="XMLID_100_" class="st0" points="196,178.5 187.5,179 179.5,180.5 171,181.5 163,182.5 155,183 "/>
<polyline id="XMLID_99_" class="st0" points="155,189.5 162.5,189.5 170,189.5 177.5,189.5 185.5,189.5 193.5,188.5 "/>
<line id="XMLID_98_" class="st0" x1="211.5" y1="200" x2="219.5" y2="200"/>
<polyline id="XMLID_97_" class="st0" points="210.5,209 194.5,216 194.5,218 202.5,218 210.5,216 218.5,213 226.5,211.5 "/>
<polyline id="XMLID_96_" class="st0" points="195,164.5 187,164.5 179.5,164.5 172,164.5 164,165 155.5,165.5 "/>
<polyline id="XMLID_95_" class="st0" points="155,170.5 162.5,163 170.5,155 178,147.5 185.5,140 "/>
<polyline id="XMLID_94_" class="st0" points="186,132 178.5,139.5 171,146 163,153.5 155,161 "/>
<polyline id="XMLID_93_" class="st0" points="154,159 161.5,158.5 170,158.5 178,158 186.5,157.5 "/>
<polyline id="XMLID_92_" class="st0" points="193,147.5 185.5,148 178,148 170.5,148 163,148.5 155,149 "/>
<polyline id="XMLID_91_" class="st0" points="155,154.5 162.5,146.5 170.5,138.5 179,130.5 186.5,123.5 "/>
<polyline id="XMLID_90_" class="st0" points="172,118.5 180,117.5 188,116.5 196.5,116 204,115.5 212,115.5 219.5,114.5 
	227.5,113.5 235,112.5 "/>
<polyline id="XMLID_89_" class="st0" points="236,113.5 243.5,105.5 251.5,98.5 260,91 268.5,83.5 "/>
<line id="XMLID_88_" class="st0" x1="268" y1="77" x2="276" y2="78"/>
<polyline id="XMLID_87_" class="st0" points="276,83.5 267.5,90.5 259,98.5 251,106.5 "/>
<polyline id="XMLID_86_" class="st0" points="260.5,106 252.5,106 244,106 236,106.5 228,107 220.5,107.5 212.5,107.5 204.5,107.5 
	196.5,107.5 188,107.5 180,107.5 "/>
<polyline id="XMLID_85_" class="st0" points="186,101.5 194,101.5 202.5,101 210.5,100.5 219.5,101 228,100.5 236,99.5 243.5,98.5 
	251,98 258.5,97 266.5,96.5 274.5,96 282.5,96 290,95.5 298,95.5 306,94.5 "/>
<polyline id="XMLID_84_" class="st0" points="298.5,88 290.5,88 282.5,88.5 274,88.5 266.5,89.5 259.5,90 252,90.5 244.5,90.5 
	237,91.5 229,91.5 221,92 213,92.5 205,93.5 197.5,94.5 "/>
<polyline id="XMLID_83_" class="st0" points="212,86 220.5,85.5 228,84.5 235.5,84 243,83 250,82.5 258.5,81.5 267,82 274.5,81.5 
	282.5,81 290.5,81 "/>
<polyline id="XMLID_82_" class="st0" points="293,83.5 302,92 312.5,103 321,109.5 323,117 327,124.5 334,132.5 "/>
<polyline id="XMLID_81_" class="st0" points="323.5,117 316,117.5 308,118.5 "/>
<polyline id="XMLID_80_" class="st0" points="315,108.5 307,109.5 299,110 "/>
<polyline id="XMLID_79_" class="st0" points="289.5,111 306.5,119 316,125 321,133 325.5,141 335.5,144.5 340.5,144 "/>
<polyline id="XMLID_78_" class="st0" points="333,137.5 325,128.5 317,115.5 310,105.5 302,95 294,87 "/>
<polyline id="XMLID_77_" class="st0" points="283.5,83 275,90.5 267.5,98 "/>
<line id="XMLID_76_" class="st0" x1="274" y1="98.5" x2="281.5" y2="91"/>
<polyline id="XMLID_75_" class="st0" points="283,75.5 275,75.5 267,76 259.5,75.5 252,76 244,75.5 236,75.5 228.5,76 220.5,76.5 
	"/>
<polyline id="XMLID_74_" class="st0" points="221,74 213,79 205,87 197,93.5 188,99.5 182,106 174.5,113 166.5,122 164.5,129.5 "/>
<polyline id="XMLID_73_" class="st0" points="163,126.5 171,126 179.5,125.5 187.5,125 195.5,124 203,123 212,122.5 220.5,122.5 
	229.5,122 237.5,121.5 "/>
<polyline id="XMLID_72_" class="st0" points="233,114 240.5,114.5 248.5,115 256.5,111 264.5,110 272,111 280,110 288,111 
	296,114.5 304,118.5 312,125.5 321,133.5 329,146.5 "/>
<polyline id="XMLID_71_" class="st0" points="331,157.5 335.5,166 341,174 337,182.5 337.5,190.5 337.5,198.5 338.5,206 345.5,207 
	"/>
<line id="XMLID_70_" class="st0" x1="346.5" y1="203.5" x2="354" y2="203"/>
<line id="XMLID_69_" class="st0" x1="354" y1="195" x2="346.5" y2="196"/>
<line id="XMLID_68_" class="st0" x1="345" y1="188.5" x2="353" y2="187.5"/>
<line id="XMLID_67_" class="st0" x1="355.5" y1="181" x2="347.5" y2="182"/>
<line id="XMLID_66_" class="st0" x1="343.5" y1="186" x2="338.5" y2="189"/>
<polyline id="XMLID_65_" class="st0" points="348,212.5 355.5,212 364,211.5 "/>
<line id="XMLID_64_" class="st0" x1="347.5" y1="238.5" x2="350.5" y2="246.5"/>
<polyline id="XMLID_63_" class="st0" points="361.5,261.5 357.5,269.5 349.5,274.5 357.5,270 "/>
<polyline id="XMLID_62_" class="st0" points="345.5,171.5 339.5,171 331.5,159 "/>
<polyline id="XMLID_61_" class="st0" points="252,96.5 243.5,97 235.5,97.5 "/>
<polyline id="XMLID_60_" class="st0" points="235.5,105.5 244,98 252,90 260,82.5 "/>
<polyline id="XMLID_59_" class="st0" points="253.5,82 245,89.5 237,97 "/>
<polyline id="XMLID_58_" class="st0" points="227.5,97.5 236,90.5 244.5,83 252.5,76 "/>
<line id="XMLID_57_" class="st0" x1="250" y1="70" x2="257.5" y2="70"/>
<polyline id="XMLID_56_" class="st0" points="246,68.5 238,71 228.5,73 221,75.5 211.5,83.5 209,80.5 218,72.5 "/>
<polyline id="XMLID_55_" class="st0" points="224.5,68.5 218.5,76.5 207.5,83.5 194.5,93 184,102 175,110 167.5,119.5 160.5,127.5 
	158,136.5 155,145 "/>
<polyline id="XMLID_54_" class="st0" points="156.5,148 165,141.5 173,134.5 "/>
<polyline id="XMLID_53_" class="st0" points="163,133 171,132.5 179.5,132 187.5,132 195,132 203.5,132 211.5,131 220,130.5 "/>
<polyline id="XMLID_52_" class="st0" points="227,130 219,133 211.5,133 "/>
<polyline id="XMLID_51_" class="st0" points="200.5,135.5 195.5,143.5 185,151.5 191,148 199.5,141 "/>
<polyline id="XMLID_50_" class="st0" points="201,138.5 192.5,138.5 184.5,138.5 177,138.5 169,138.5 161.5,138.5 153.5,139 "/>
<polyline id="XMLID_49_" class="st0" points="236,133.5 236,125.5 232.5,116.5 234.5,108.5 231.5,100 230.5,92 229,93 227.5,86 "/>
<line id="XMLID_48_" class="st0" x1="227" y1="97" x2="235" y2="100"/>
<line id="XMLID_47_" class="st0" x1="241.5" y1="105.5" x2="249.5" y2="104"/>
<line id="XMLID_46_" class="st0" x1="252.5" y1="90" x2="244.5" y2="90.5"/>
<polyline id="XMLID_45_" class="st0" points="243.5,67.5 236.5,70.5 238.5,78 247.5,70 255.5,65 259.5,68.5 267,69.5 275,70 
	282.5,74 283,82 288,80 296,84.5 304,92.5 314,102.5 318,109.5 326.5,121.5 334.5,133 "/>
<polyline id="XMLID_44_" class="st0" points="273,70 276,78 288,82.5 295.5,90.5 306,98 311,106 315,114 321.5,122 325,130 332,138 
	335.5,146 343,154 339.5,162 343.5,170 349.5,176.5 353.5,184.5 354,188.5 355,196.5 355.5,204.5 357.5,212.5 356.5,221 357.5,229 
	351.5,230.5 358.5,231 "/>
<line id="XMLID_12_" class="st0" x1="107" y1="475" x2="99.5" y2="475"/>
<polyline id="XMLID_11_" class="st0" points="84.5,615 76.5,615.5 68.5,615.5 "/>
<polyline id="XMLID_10_" class="st0" points="67.5,625 75.5,624.5 83,624.5 "/>
<line id="XMLID_9_" class="st0" x1="98.5" y1="634" x2="106.5" y2="633.5"/>
<polyline id="XMLID_8_" class="st0" points="115,624.5 123,624.5 130.5,624 "/>
<line id="XMLID_7_" class="st0" x1="131.5" y1="631" x2="139.5" y2="631"/>
<line id="XMLID_6_" class="st0" x1="146" y1="631" x2="154" y2="631"/>
<polyline id="XMLID_5_" class="st0" points="155.5,625.5 163,625.5 171,625 178.5,624.5 186.5,623.5 "/>
<polyline id="XMLID_4_" class="st0" points="172.5,639.5 164,640.5 156,641.5 148,642.5 140,643 "/>
<line id="XMLID_3_" class="st0" x1="75" y1="641" x2="66.5" y2="641.5"/>
<polyline id="XMLID_2_" class="st0" points="66,633.5 74,633 82,632.5 "/>
<line id="XMLID_1_" class="st0" x1="482.5" y1="684.5" x2="488.5" y2="680"/>
</svg>
